# Blender 3.6.1
# www.blender.org
o Taillights.001
v 1.336255 0.042978 -3.584241
v 1.524838 -0.349046 -3.656379
v 1.461855 -0.181806 -3.639627
v 1.204746 0.042955 -3.598497
v 1.333614 -0.346819 -3.673248
v 1.204847 0.031124 -3.631624
v 1.325803 0.031145 -3.618512
v 1.441324 -0.175602 -3.669453
v 1.499253 -0.329422 -3.684861
v 1.323374 -0.327373 -3.700376
v 1.283985 -0.176546 -3.688156
v -1.336255 0.042978 -3.584241
v -1.524838 -0.349046 -3.656379
v -1.461855 -0.181806 -3.639627
v -1.204746 0.042955 -3.598497
v -1.333614 -0.346819 -3.673248
v -1.204847 0.031124 -3.631624
v -1.325803 0.031145 -3.618512
v -1.441324 -0.175602 -3.669453
v -1.499253 -0.329422 -3.684861
v -1.323374 -0.327373 -3.700376
v -1.283985 -0.176546 -3.688156
v 1.204847 0.031124 -3.631624
v 1.325803 0.031145 -3.618512
v 1.325803 0.031145 -3.618512
v 1.441324 -0.175602 -3.669453
v 1.499253 -0.329422 -3.684861
v 1.499253 -0.329422 -3.684861
v 1.323374 -0.327373 -3.700376
v 1.336255 0.042978 -3.584241
v 1.524838 -0.349046 -3.656379
v -1.204847 0.031124 -3.631624
v -1.325803 0.031145 -3.618512
v -1.325803 0.031145 -3.618512
v -1.441324 -0.175602 -3.669453
v -1.499253 -0.329422 -3.684861
v -1.499253 -0.329422 -3.684861
v -1.323374 -0.327373 -3.700376
v -1.336255 0.042978 -3.584241
v -1.524838 -0.349046 -3.656379
vn 0.1055 0.2251 -0.9686
vn 0.1043 0.1870 -0.9768
vn 0.1018 0.1221 -0.9873
vn 0.1075 0.2966 -0.9489
vn 0.0363 0.9412 -0.3360
vn 0.7850 0.4233 -0.4523
vn 0.8039 0.3509 -0.4803
vn 0.7760 0.4516 -0.4402
vn 0.0429 -0.8043 -0.5927
vn 0.7503 0.5199 -0.4083
vn -0.1055 0.2251 -0.9686
vn -0.1018 0.1221 -0.9873
vn -0.1043 0.1870 -0.9768
vn -0.1075 0.2966 -0.9489
vn -0.0363 0.9412 -0.3360
vn -0.7850 0.4233 -0.4523
vn -0.7760 0.4516 -0.4402
vn -0.8039 0.3509 -0.4803
vn -0.0429 -0.8043 -0.5927
vn -0.7503 0.5199 -0.4083
vt 0.545507 0.467206
vt 0.571250 0.500000
vt 0.517501 0.500000
vt 0.450056 0.434836
vt 0.639431 0.500000
vt 0.625000 0.500000
s 1
f 11/1/1 26/2/2 27/3/3 29/4/3
f 23/5/4 24/6/4 26/2/2 11/1/1
f 4/5/5 30/6/5 25/6/5 6/5/5
f 3/2/6 31/3/7 28/3/7 8/2/8
f 2/3/9 5/4/9 10/4/9 9/3/9
f 1/6/10 3/2/6 8/2/8 7/6/10
f 22/1/11 38/4/12 36/3/12 35/2/13
f 32/5/14 22/1/11 35/2/13 33/6/14
f 15/5/15 17/5/15 34/6/15 39/6/15
f 14/2/16 19/2/17 37/3/18 40/3/18
f 13/3/19 20/3/19 21/4/19 16/4/19
f 12/6/20 18/6/20 19/2/17 14/2/16
