# Blender 3.6.1
# www.blender.org
o CarInterior
v 0.000000 0.424189 1.410470
v 0.000000 1.164745 -2.363998
v 0.000000 0.392865 -3.300731
v 0.891538 0.406964 1.410470
v 0.668283 1.153505 -2.363998
v 0.826565 0.381624 -3.298870
v 1.444580 0.357315 -1.112464
v 1.373596 0.365894 -2.096128
v 1.448643 0.342733 0.231309
v 1.402313 0.328603 1.249216
v 1.444495 0.359920 -1.006845
v 1.056328 1.132431 0.231309
v 1.377538 0.377230 1.245348
v 1.023673 1.212416 -1.024891
v 1.016746 1.207941 -0.003455
v 1.035095 1.134632 -2.185241
v 1.025509 1.204905 -1.137226
v 0.000000 1.238379 0.308343
v 0.670057 1.201985 0.341634
v 1.285586 0.399351 1.410470
v 0.981313 1.156749 0.395290
v 1.148953 0.376993 -3.293680
v 0.924797 1.149190 -2.363998
v 1.053424 0.800396 -2.786929
v 0.982267 0.993385 -2.552986
v 1.123025 0.491655 -3.159460
v 1.090149 0.637400 -2.984875
v 1.024200 1.182110 -1.680145
v 1.204345 0.750263 -2.168117
v 0.000000 0.345582 0.504559
v 0.795842 0.328357 0.750855
v 1.257305 0.320744 1.017121
v 0.000000 0.096090 0.463546
v 0.795842 0.078866 0.709843
v 1.183055 0.071252 0.750855
v 0.000000 -0.631879 0.606135
v 0.795842 -0.649103 0.859844
v 1.183055 -0.656717 0.900856
v 0.000000 -0.895041 0.603894
v 0.795842 -0.912266 0.644907
v 1.183055 -0.919879 0.685919
v 0.000000 -0.816434 -3.446073
v 0.725772 -0.833659 -3.405061
v 0.000000 -0.139731 -3.514427
v 0.795842 -0.156955 -3.473415
v 1.195944 -0.164568 -3.432403
v 0.000000 0.343588 -3.231993
v 0.795842 0.362006 -3.190980
v 1.069393 0.348035 -3.176075
v 0.000000 1.159772 0.260495
v 0.670057 1.123378 0.293786
v 0.931154 1.064408 0.205093
v 0.000000 1.116313 -2.299359
v 0.670057 1.106290 -2.266068
v 0.875445 1.057758 -2.212412
v 0.445769 0.415577 1.410470
v 0.413283 0.387244 -3.299801
v 0.397921 0.336970 0.529103
v 0.397921 0.087478 0.488090
v 0.397921 -0.640491 0.709532
v 0.397921 -0.903653 0.624401
v 0.397921 -0.825046 -3.425567
v 0.397921 -0.148343 -3.493921
v 0.397921 0.334976 -3.211487
v 1.183055 -0.145325 0.995225
v 0.795842 -0.137712 0.954213
v 0.000000 -0.120487 0.681196
v 0.397921 -0.129100 0.729199
v 0.670057 1.121357 -0.002364
v 0.913354 1.076121 -0.001276
v 0.000000 1.157751 -0.003040
v 0.670057 1.114564 -1.019973
v 0.000000 1.150958 -1.021085
v 0.913354 1.069328 -1.018182
v 0.670057 1.113814 -1.132072
v 0.000000 1.150208 -1.132072
v 0.913354 1.068579 -1.132072
v 0.670057 1.110192 -1.674700
v 0.000000 1.146586 -1.674700
v 0.913354 1.064956 -1.674700
v 1.301037 0.357315 -1.108362
v 1.230053 0.365894 -2.092027
v 1.305099 0.342733 0.235410
v 1.300952 0.359920 -1.002743
v 1.183055 -0.884884 -1.117087
v 1.183055 -0.866379 -2.070472
v 1.183055 -0.911044 0.230706
v 1.183055 -0.887111 -1.002327
v 1.276910 0.105614 -1.002658
v 0.795842 -0.903431 0.189694
v 0.000000 -0.886206 0.148681
v 0.397921 -0.894818 0.169187
v 1.280211 0.087052 0.234451
v 0.397921 -0.870886 -1.063846
v 0.795842 -0.879498 -1.043339
v 0.000000 -0.862273 -1.084352
v 1.220469 0.114598 -2.087631
v 0.397921 -0.868658 -1.178605
v 0.795842 -0.877271 -1.158099
v 0.000000 -0.860046 -1.199112
v 1.276977 0.103995 -1.110142
v 0.397921 -0.850154 -1.997187
v 0.725772 -0.858766 -1.965468
v 0.000000 -0.841541 -2.152496
v 1.257471 -0.146562 0.233574
v 1.254942 -0.126742 -1.002581
v 1.195944 -0.115009 -2.083615
v 1.254994 -0.127461 -1.111767
v 1.212305 -0.577731 -1.002430
v 1.195944 -0.436138 -2.077998
v 1.213334 -0.599989 0.231873
v 1.212326 -0.576702 -1.114923
v 1.183055 0.124743 -3.266766
v 0.795842 0.132356 -3.307779
v 0.000000 0.149581 -3.348791
v 0.397921 0.140968 -3.328285
v 1.195944 -0.502920 -3.398226
v 0.725772 -0.495307 -3.439238
v 0.000000 -0.478082 -3.480250
v 0.397921 -0.486695 -3.459744
v 1.091609 0.716640 -2.168117
v 0.997385 0.752324 -2.718254
v 0.926228 0.945313 -2.484311
v 1.066987 0.443583 -3.090785
v 1.034110 0.589328 -2.916200
v 1.255111 0.375987 1.226606
v 0.863095 0.383600 1.214416
v 0.000000 0.400825 1.141211
v 0.431547 0.392213 1.148506
v 0.725696 -0.436993 -2.063721
v 0.721855 -0.273441 -2.340338
v 0.720581 -0.185555 -2.606647
v 0.720534 -0.188294 -2.858898
v 0.720136 -0.281864 -3.113536
v 0.723862 -0.449954 -3.279208
v 0.725335 -0.533629 -3.356671
v 1.195944 -0.267964 -2.341114
v 0.728663 -0.795277 -1.968897
v 1.195944 -0.180078 -2.607423
v 1.195944 -0.182817 -2.859674
v 1.195944 -0.276386 -3.114312
v 1.195944 -0.444477 -3.279984
v -0.891538 0.406964 1.410470
v -0.668283 1.153505 -2.363998
v -0.826565 0.381624 -3.298870
v -1.444580 0.357315 -1.112464
v -1.373596 0.365894 -2.096128
v -1.448643 0.342733 0.231309
v -1.402313 0.328603 1.249216
v -1.444495 0.359920 -1.006845
v -1.056328 1.132431 0.231309
v -1.377538 0.377230 1.245348
v -1.023673 1.212416 -1.024891
v -1.016746 1.207941 -0.003455
v -1.035095 1.134632 -2.185241
v -1.025509 1.204905 -1.137226
v -0.670057 1.201985 0.341634
v -1.285586 0.399351 1.410470
v -0.981313 1.156749 0.395290
v -1.148953 0.376993 -3.293680
v -0.924797 1.149190 -2.363998
v -1.053424 0.800396 -2.786929
v -0.982267 0.993385 -2.552986
v -1.123025 0.491655 -3.159460
v -1.090149 0.637400 -2.984875
v -1.024200 1.182110 -1.680145
v -1.204345 0.750263 -2.168117
v -0.795842 0.328357 0.750855
v -1.257305 0.320744 1.017121
v -0.795842 0.078866 0.709843
v -1.183055 0.071252 0.750855
v -0.795842 -0.649103 0.859844
v -1.183055 -0.656717 0.900856
v -0.795842 -0.912266 0.644907
v -1.183055 -0.919879 0.685919
v -0.725772 -0.833659 -3.405061
v -0.795842 -0.156955 -3.473415
v -1.195944 -0.164568 -3.432403
v -0.795842 0.362006 -3.190980
v -1.069393 0.348035 -3.176075
v -0.670057 1.123378 0.293786
v -0.931154 1.064408 0.205093
v -0.670057 1.106290 -2.266068
v -0.875445 1.057758 -2.212412
v -0.445769 0.415577 1.410470
v -0.413283 0.387244 -3.299801
v -0.397921 0.336970 0.529103
v -0.397921 0.087478 0.488090
v -0.397921 -0.640491 0.709532
v -0.397921 -0.903653 0.624401
v -0.397921 -0.825046 -3.425567
v -0.397921 -0.148343 -3.493921
v -0.397921 0.334976 -3.211487
v -1.183055 -0.145325 0.995225
v -0.795842 -0.137712 0.954213
v -0.397921 -0.129100 0.729199
v -0.670057 1.121357 -0.002364
v -0.913354 1.076121 -0.001276
v -0.670057 1.114564 -1.019973
v -0.913354 1.069328 -1.018182
v -0.670057 1.113814 -1.132072
v -0.913354 1.068579 -1.132072
v -0.670057 1.110192 -1.674700
v -0.913354 1.064956 -1.674700
v -1.301037 0.357315 -1.108362
v -1.230053 0.365894 -2.092027
v -1.305099 0.342733 0.235410
v -1.300952 0.359920 -1.002743
v -1.183055 -0.884884 -1.117087
v -1.183055 -0.866379 -2.070472
v -1.183055 -0.911044 0.230706
v -1.183055 -0.887111 -1.002327
v -1.276910 0.105614 -1.002658
v -0.795842 -0.903431 0.189694
v -0.397921 -0.894818 0.169187
v -1.280211 0.087052 0.234451
v -0.397921 -0.870886 -1.063846
v -0.795842 -0.879498 -1.043339
v -1.220469 0.114598 -2.087631
v -0.397921 -0.868658 -1.178605
v -0.795842 -0.877271 -1.158099
v -1.276977 0.103995 -1.110142
v -0.397921 -0.850154 -1.997187
v -0.725772 -0.858766 -1.965468
v -1.257471 -0.146562 0.233574
v -1.254942 -0.126742 -1.002581
v -1.195944 -0.115009 -2.083615
v -1.254994 -0.127461 -1.111767
v -1.212305 -0.577731 -1.002430
v -1.195944 -0.436138 -2.077998
v -1.213334 -0.599989 0.231873
v -1.212326 -0.576702 -1.114923
v -1.183055 0.124743 -3.266766
v -0.795842 0.132356 -3.307779
v -0.397921 0.140968 -3.328285
v -1.195944 -0.502920 -3.398226
v -0.725772 -0.495307 -3.439238
v -0.397921 -0.486695 -3.459744
v -1.091609 0.716640 -2.168117
v -0.997385 0.752324 -2.718254
v -0.926228 0.945313 -2.484311
v -1.066987 0.443583 -3.090785
v -1.034110 0.589328 -2.916200
v -1.255111 0.375987 1.226606
v -0.863095 0.383600 1.214416
v -0.431547 0.392213 1.148506
v -0.725696 -0.436993 -2.063721
v -0.721855 -0.273441 -2.340338
v -0.720581 -0.185555 -2.606647
v -0.720534 -0.188294 -2.858898
v -0.720136 -0.281864 -3.113536
v -0.723862 -0.449954 -3.279208
v -0.725335 -0.533629 -3.356671
v -1.195944 -0.267964 -2.341114
v -0.728663 -0.795277 -1.968897
v -1.195944 -0.180078 -2.607423
v -1.195944 -0.182817 -2.859674
v -1.195944 -0.276386 -3.114312
v -1.195944 -0.444477 -3.279984
v 0.397921 0.336970 0.529103
v 0.795842 0.328357 0.750855
v 1.257305 0.320744 1.017121
v 1.257305 0.320744 1.017121
v 1.257305 0.320744 1.017121
v 1.257305 0.320744 1.017121
v 1.257305 0.320744 1.017121
v 1.257305 0.320744 1.017121
v 1.255111 0.375987 1.226606
v 0.397921 0.087478 0.488090
v 0.795842 0.078866 0.709843
v 1.183055 0.071252 0.750855
v 1.183055 0.071252 0.750855
v 1.183055 -0.145325 0.995225
v 1.183055 -0.145325 0.995225
v 1.183055 -0.656717 0.900856
v 0.397921 -0.903653 0.624401
v 0.795842 -0.912266 0.644907
v 1.183055 -0.919879 0.685919
v 1.183055 -0.919879 0.685919
v 0.397921 -0.825046 -3.425567
v 0.725772 -0.833659 -3.405061
v 0.725772 -0.833659 -3.405061
v 0.397921 -0.148343 -3.493921
v 0.795842 -0.156955 -3.473415
v 1.195944 -0.164568 -3.432403
v 1.195944 -0.164568 -3.432403
v 1.195944 -0.502920 -3.398226
v 1.195944 -0.502920 -3.398226
v 0.725772 -0.495307 -3.439238
v 0.725772 -0.495307 -3.439238
v 0.397921 0.334976 -3.211487
v 0.795842 0.362006 -3.190980
v 1.069393 0.348035 -3.176075
v 1.069393 0.348035 -3.176075
v 1.069393 0.348035 -3.176075
v 1.183055 0.124743 -3.266766
v 1.148953 0.376993 -3.293680
v 0.670057 1.123378 0.293786
v 0.000000 1.159772 0.260495
v 0.931154 1.064408 0.205093
v 0.931154 1.064408 0.205093
v 0.931154 1.064408 0.205093
v 0.981313 1.156749 0.395290
v 0.670057 1.106290 -2.266068
v 0.000000 1.116313 -2.299359
v 0.875445 1.057758 -2.212412
v 0.875445 1.057758 -2.212412
v 0.875445 1.057758 -2.212412
v 0.875445 1.057758 -2.212412
v 0.875445 1.057758 -2.212412
v 0.913354 1.076121 -0.001276
v 0.924797 1.149190 -2.363998
v 0.000000 0.345582 0.504559
v 0.000000 0.096090 0.463546
v 0.000000 -0.895041 0.603894
v 0.000000 -0.816434 -3.446073
v 0.000000 -0.139731 -3.514427
v 0.000000 0.343588 -3.231993
v 0.397921 -0.129100 0.729199
v 0.000000 -0.120487 0.681196
v 0.795842 -0.137712 0.954213
v 0.913354 1.069328 -1.018182
v 0.913354 1.069328 -1.018182
v 0.913354 1.069328 -1.018182
v 0.913354 1.068579 -1.132072
v 0.913354 1.068579 -1.132072
v 0.913354 1.068579 -1.132072
v 0.913354 1.064956 -1.674700
v 1.035095 1.134632 -2.185241
v 1.025509 1.204905 -1.137226
v 1.301037 0.357315 -1.108362
v 1.301037 0.357315 -1.108362
v 1.301037 0.357315 -1.108362
v 1.023673 1.212416 -1.024891
v 1.091609 0.716640 -2.168117
v 1.377538 0.377230 1.245348
v 1.402313 0.328603 1.249216
v 1.230053 0.365894 -2.092027
v 1.230053 0.365894 -2.092027
v 1.305099 0.342733 0.235410
v 1.300952 0.359920 -1.002743
v 1.300952 0.359920 -1.002743
v 1.300952 0.359920 -1.002743
v 1.444495 0.359920 -1.006845
v 1.373596 0.365894 -2.096128
v 1.444580 0.357315 -1.112464
v 1.183055 -0.884884 -1.117087
v 1.183055 -0.866379 -2.070472
v 1.183055 -0.866379 -2.070472
v 1.183055 -0.911044 0.230706
v 1.183055 -0.887111 -1.002327
v 1.195944 -0.436138 -2.077998
v 1.195944 -0.436138 -2.077998
v 0.725772 -0.858766 -1.965468
v 0.725772 -0.858766 -1.965468
v 0.997385 0.752324 -2.718254
v 1.034110 0.589328 -2.916200
v 0.926228 0.945313 -2.484311
v 1.066987 0.443583 -3.090785
v 1.285586 0.399351 1.410470
v 0.720136 -0.281864 -3.113536
v 0.723862 -0.449954 -3.279208
v 0.720534 -0.188294 -2.858898
v 0.720581 -0.185555 -2.606647
v 0.721855 -0.273441 -2.340338
v 0.725696 -0.436993 -2.063721
v 0.725696 -0.436993 -2.063721
v 1.195944 -0.444477 -3.279984
v 0.728663 -0.795277 -1.968897
v 1.195944 -0.276386 -3.114312
v 1.195944 -0.182817 -2.859674
v 1.195944 -0.180078 -2.607423
v 1.195944 -0.267964 -2.341114
v -0.397921 0.336970 0.529103
v -0.795842 0.328357 0.750855
v -1.257305 0.320744 1.017121
v -1.257305 0.320744 1.017121
v -1.257305 0.320744 1.017121
v -1.257305 0.320744 1.017121
v -1.257305 0.320744 1.017121
v -1.257305 0.320744 1.017121
v -1.255111 0.375987 1.226606
v -0.397921 0.087478 0.488090
v -0.795842 0.078866 0.709843
v -1.183055 0.071252 0.750855
v -1.183055 0.071252 0.750855
v -1.183055 -0.145325 0.995225
v -1.183055 -0.145325 0.995225
v -1.183055 -0.656717 0.900856
v -0.397921 -0.903653 0.624401
v -0.795842 -0.912266 0.644907
v -1.183055 -0.919879 0.685919
v -1.183055 -0.919879 0.685919
v -0.397921 -0.825046 -3.425567
v -0.725772 -0.833659 -3.405061
v -0.725772 -0.833659 -3.405061
v -0.397921 -0.148343 -3.493921
v -0.795842 -0.156955 -3.473415
v -1.195944 -0.164568 -3.432403
v -1.195944 -0.164568 -3.432403
v -1.195944 -0.502920 -3.398226
v -1.195944 -0.502920 -3.398226
v -0.725772 -0.495307 -3.439238
v -0.725772 -0.495307 -3.439238
v -0.397921 0.334976 -3.211487
v -0.795842 0.362006 -3.190980
v -1.069393 0.348035 -3.176075
v -1.069393 0.348035 -3.176075
v -1.069393 0.348035 -3.176075
v -1.183055 0.124743 -3.266766
v -1.148953 0.376993 -3.293680
v -0.670057 1.123378 0.293786
v -0.931154 1.064408 0.205093
v -0.931154 1.064408 0.205093
v -0.931154 1.064408 0.205093
v -0.981313 1.156749 0.395290
v -0.670057 1.106290 -2.266068
v -0.875445 1.057758 -2.212412
v -0.875445 1.057758 -2.212412
v -0.875445 1.057758 -2.212412
v -0.875445 1.057758 -2.212412
v -0.875445 1.057758 -2.212412
v -0.913354 1.076121 -0.001276
v -0.924797 1.149190 -2.363998
v -0.397921 -0.129100 0.729199
v -0.795842 -0.137712 0.954213
v -0.913354 1.069328 -1.018182
v -0.913354 1.069328 -1.018182
v -0.913354 1.069328 -1.018182
v -0.913354 1.068579 -1.132072
v -0.913354 1.068579 -1.132072
v -0.913354 1.068579 -1.132072
v -0.913354 1.064956 -1.674700
v -1.035095 1.134632 -2.185241
v -1.025509 1.204905 -1.137226
v -1.301037 0.357315 -1.108362
v -1.301037 0.357315 -1.108362
v -1.301037 0.357315 -1.108362
v -1.023673 1.212416 -1.024891
v -1.091609 0.716640 -2.168117
v -1.377538 0.377230 1.245348
v -1.402313 0.328603 1.249216
v -1.230053 0.365894 -2.092027
v -1.230053 0.365894 -2.092027
v -1.305099 0.342733 0.235410
v -1.300952 0.359920 -1.002743
v -1.300952 0.359920 -1.002743
v -1.300952 0.359920 -1.002743
v -1.444495 0.359920 -1.006845
v -1.373596 0.365894 -2.096128
v -1.444580 0.357315 -1.112464
v -1.183055 -0.884884 -1.117087
v -1.183055 -0.866379 -2.070472
v -1.183055 -0.866379 -2.070472
v -1.183055 -0.911044 0.230706
v -1.183055 -0.887111 -1.002327
v -1.195944 -0.436138 -2.077998
v -1.195944 -0.436138 -2.077998
v -0.725772 -0.858766 -1.965468
v -0.725772 -0.858766 -1.965468
v -0.997385 0.752324 -2.718254
v -1.034110 0.589328 -2.916200
v -0.926228 0.945313 -2.484311
v -1.066987 0.443583 -3.090785
v -1.285586 0.399351 1.410470
v -0.720136 -0.281864 -3.113536
v -0.723862 -0.449954 -3.279208
v -0.720534 -0.188294 -2.858898
v -0.720581 -0.185555 -2.606647
v -0.721855 -0.273441 -2.340338
v -0.725696 -0.436993 -2.063721
v -0.725696 -0.436993 -2.063721
v -1.195944 -0.444477 -3.279984
v -0.728663 -0.795277 -1.968897
v -1.195944 -0.276386 -3.114312
v -1.195944 -0.182817 -2.859674
v -1.195944 -0.180078 -2.607423
v -1.195944 -0.267964 -2.341114
vn 0.0447 0.9909 -0.1272
vn 0.0452 0.9883 -0.1456
vn 0.0725 0.9831 -0.1684
vn 0.0620 0.9903 -0.1247
vn 0.0333 0.9947 -0.0968
vn 0.0367 0.9948 -0.0952
vn 0.3998 0.3154 -0.8606
vn 0.3088 0.4650 -0.8297
vn 0.4050 0.3058 -0.8617
vn 0.2843 0.1555 -0.9460
vn 0.2776 0.1558 -0.9480
vn 0.2668 0.1433 -0.9530
vn 0.1071 0.1804 -0.9777
vn 0.1039 0.4142 -0.9042
vn 0.2142 0.3583 -0.9087
vn 0.3089 0.0961 -0.9462
vn 0.2463 0.2187 -0.9442
vn 0.0941 0.6298 -0.7711
vn 0.1455 0.5589 -0.8164
vn 0.1771 0.3294 -0.9274
vn 0.0204 0.9996 0.0197
vn 0.0221 0.9996 0.0200
vn 0.0249 0.9995 0.0175
vn 0.0211 0.9996 0.0180
vn -0.0667 0.1050 0.9922
vn -0.0914 0.1094 0.9898
vn -0.0746 0.1079 0.9914
vn -0.0528 0.1018 0.9934
vn -0.0513 0.1031 0.9934
vn -0.0698 -0.4777 0.8758
vn -0.0955 -0.4698 0.8776
vn -0.0900 -0.4334 0.8967
vn -0.0626 -0.4578 0.8868
vn -0.0500 -0.4975 0.8660
vn -0.0443 -0.4984 0.8658
vn -0.0183 0.9009 0.4337
vn -0.0155 0.8926 0.4506
vn -0.0094 0.9576 0.2878
vn -0.0006 0.9629 0.2700
vn 0.0230 0.9749 0.2213
vn -0.1086 -0.7965 0.5949
vn -0.0909 -0.6673 0.7392
vn -0.0933 -0.6847 0.7228
vn -0.0000 -0.5199 0.8542
vn -0.1944 -0.9809 0.0115
vn -0.1200 -0.9927 0.0145
vn -0.1126 -0.9934 0.0230
vn -0.2064 -0.9783 0.0165
vn -0.0000 -0.9998 0.0174
vn -0.0000 -0.9996 0.0281
vn -0.0215 -0.8660 -0.4995
vn -0.0424 -0.8699 -0.4914
vn -0.0242 -0.8666 -0.4985
vn -0.0000 -0.8619 -0.5071
vn -0.0000 0.8397 0.5430
vn -0.0000 -0.5063 0.8624
vn -0.0000 -0.5158 0.8567
vn -0.0000 0.1005 0.9949
vn -0.0000 0.9998 0.0194
vn -0.0000 0.9998 0.0184
vn -0.0000 0.1281 -0.9918
vn -0.0000 0.1638 -0.9865
vn -0.0000 0.0922 -0.9957
vn -0.0000 0.1622 -0.9868
vn -0.0000 0.9961 -0.0882
vn -0.0000 0.9961 -0.0883
vn -0.0000 -0.7271 -0.6865
vn 0.1707 -0.7241 -0.6682
vn 0.2149 -0.7206 -0.6592
vn 0.2179 -0.7292 -0.6487
vn 0.1740 -0.7361 -0.6541
vn 0.0555 -0.7472 -0.6622
vn -0.1223 -0.9925 -0.0013
vn -0.0000 -1.0000 0.0072
vn -0.0000 -1.0000 0.0069
vn -0.1242 -0.9923 0.0022
vn -0.2043 -0.9788 -0.0116
vn -0.1939 -0.9810 -0.0028
vn 0.7316 -0.5383 -0.4182
vn 0.7228 -0.5711 -0.3892
vn 0.7293 -0.6746 -0.1138
vn 0.7335 -0.6713 -0.1066
vn -0.0000 -1.0000 0.0067
vn -0.1188 -0.9929 0.0066
vn -0.1828 -0.9831 0.0065
vn 0.6710 -0.7411 0.0215
vn 0.6706 -0.7415 0.0215
vn 0.5812 -0.8133 0.0276
vn 0.7510 -0.6601 0.0152
vn -0.0154 -0.0390 -0.9991
vn 0.7895 -0.6137 0.0034
vn -0.0560 0.1169 0.9916
vn -0.1096 0.0259 0.9936
vn -0.0653 0.1012 0.9927
vn 0.7856 0.3602 -0.5030
vn -0.0198 0.9997 0.0158
vn 0.0004 0.9999 0.0139
vn -0.0212 0.9996 0.0160
vn 0.0002 1.0000 0.0087
vn -0.9968 0.0762 -0.0229
vn -0.9955 0.0949 0.0016
vn -0.9955 0.0949 0.0017
vn -0.9969 0.0783 -0.0107
vn -0.9971 0.0753 0.0138
vn -0.9988 0.0428 0.0227
vn -0.9983 0.0571 0.0133
vn -0.9971 0.0759 0.0072
vn 0.0206 0.9996 0.0194
vn 0.0190 0.9996 0.0194
vn 0.0191 0.9996 0.0194
vn 0.0176 0.9997 0.0194
vn 0.0202 0.9996 0.0204
vn -0.0000 0.9998 0.0202
vn 0.0200 0.9996 0.0202
vn 0.0185 0.9996 0.0198
vn 0.0196 0.9996 0.0202
vn 0.0236 0.0336 0.9992
vn -0.0413 0.9990 0.0179
vn -0.9955 0.0949 0.0009
vn -0.9963 0.0807 0.0310
vn -0.9956 0.0890 0.0303
vn -0.9955 0.0949 0.0010
vn -0.9826 -0.1604 0.0936
vn -0.9983 -0.0100 0.0567
vn -0.9845 0.1688 -0.0477
vn -0.9928 0.1054 -0.0566
vn -0.9960 0.0862 0.0254
vn -0.9955 0.0949 0.0013
vn -0.9986 0.0437 0.0296
vn -0.9972 0.0555 -0.0495
vn -0.9970 0.0559 -0.0534
vn -0.9978 0.0614 -0.0233
vn -0.9953 0.0269 -0.0925
vn -0.9872 0.1069 -0.1186
vn -0.9649 0.2426 -0.1007
vn -0.0000 -0.4969 0.8678
vn -0.0554 -0.4961 0.8665
vn -0.0772 -0.4962 0.8648
vn -0.0995 -0.4961 0.8626
vn -0.0097 0.1936 0.9810
vn -0.9963 -0.0749 0.0415
vn -0.9729 -0.2060 0.1049
vn -1.0000 0.0072 0.0058
vn -0.0544 0.1003 0.9935
vn -0.0595 0.1003 0.9932
vn 0.0039 0.8386 -0.5448
vn -0.0106 0.8407 -0.5414
vn -0.0106 0.8409 -0.5411
vn 0.0039 0.8389 -0.5443
vn -1.0000 0.0054 0.0007
vn -1.0000 -0.0028 -0.0038
vn -1.0000 -0.0039 -0.0071
vn -0.8310 0.3415 -0.4391
vn -0.8240 0.3505 -0.4451
vn -0.8259 0.3478 -0.4438
vn -0.8310 0.3423 -0.4385
vn -0.8723 0.2438 -0.4238
vn -0.8313 0.3184 -0.4555
vn -0.8312 0.3048 -0.4649
vn -0.8963 0.2207 -0.3847
vn -0.9270 0.1858 -0.3259
vn -0.9039 -0.4126 0.1130
vn -0.8467 -0.5287 0.0605
vn -0.8648 -0.4928 0.0959
vn -0.9160 -0.3803 0.1278
vn -0.8191 0.3578 -0.4483
vn -0.9670 -0.2118 0.1414
vn -0.9268 -0.3538 0.1257
vn 0.0239 0.9951 -0.0963
vn 0.0240 0.9930 -0.1156
vn 0.0212 0.9919 -0.1253
vn -0.9678 -0.0882 0.2359
vn -0.9689 -0.1192 0.2168
vn -0.9687 -0.1535 0.1952
vn 0.7539 -0.3510 -0.5554
vn -0.9412 -0.3289 0.0769
vn -0.0116 0.9835 -0.1806
vn -0.0111 0.9881 0.1534
vn -0.0111 0.9882 0.1530
vn -0.0116 0.9835 -0.1804
vn -0.0039 0.9070 0.4212
vn 0.0026 0.8520 0.5236
vn -0.0040 0.9071 0.4209
vn -0.9999 -0.0123 0.0009
vn -0.9999 -0.0128 -0.0004
vn -1.0000 0.0002 0.0015
vn -1.0000 0.0065 0.0018
vn 0.0170 0.9368 -0.3493
vn -0.9998 -0.0208 0.0022
vn -1.0000 -0.0086 0.0038
vn -0.9998 -0.0201 0.0001
vn -0.9994 -0.0348 -0.0067
vn -1.0000 -0.0000 -0.0000
vn 0.1327 0.1259 0.9831
vn 0.1760 0.0869 0.9805
vn 0.1406 0.1189 0.9829
vn 0.2243 0.0424 0.9736
vn -0.8779 -0.4789 0.0070
vn -0.0447 0.9909 -0.1272
vn -0.0620 0.9903 -0.1247
vn -0.0725 0.9831 -0.1684
vn -0.0452 0.9883 -0.1456
vn -0.0333 0.9947 -0.0968
vn -0.0367 0.9948 -0.0952
vn -0.3998 0.3154 -0.8606
vn -0.4050 0.3058 -0.8617
vn -0.3088 0.4650 -0.8297
vn -0.2843 0.1555 -0.9460
vn -0.2776 0.1558 -0.9480
vn -0.2668 0.1433 -0.9530
vn -0.2142 0.3583 -0.9087
vn -0.1039 0.4142 -0.9042
vn -0.1071 0.1804 -0.9777
vn -0.3089 0.0961 -0.9462
vn -0.2463 0.2187 -0.9442
vn -0.1455 0.5589 -0.8164
vn -0.0941 0.6298 -0.7711
vn -0.1771 0.3294 -0.9274
vn -0.0204 0.9996 0.0197
vn -0.0211 0.9996 0.0180
vn -0.0249 0.9995 0.0175
vn -0.0221 0.9996 0.0200
vn 0.0667 0.1050 0.9922
vn 0.0746 0.1079 0.9914
vn 0.0914 0.1094 0.9898
vn 0.0528 0.1018 0.9934
vn 0.0513 0.1031 0.9934
vn 0.0698 -0.4777 0.8758
vn 0.0626 -0.4578 0.8868
vn 0.0900 -0.4334 0.8967
vn 0.0955 -0.4698 0.8776
vn 0.0500 -0.4975 0.8660
vn 0.0443 -0.4984 0.8658
vn 0.0183 0.9009 0.4337
vn 0.0006 0.9629 0.2700
vn 0.0094 0.9576 0.2878
vn 0.0155 0.8926 0.4506
vn -0.0230 0.9749 0.2213
vn 0.1086 -0.7965 0.5949
vn 0.0933 -0.6847 0.7228
vn 0.0909 -0.6673 0.7392
vn 0.1944 -0.9809 0.0115
vn 0.2064 -0.9783 0.0165
vn 0.1126 -0.9934 0.0230
vn 0.1200 -0.9927 0.0145
vn 0.0215 -0.8660 -0.4995
vn 0.0242 -0.8666 -0.4985
vn 0.0424 -0.8699 -0.4914
vn -0.2149 -0.7206 -0.6592
vn -0.1707 -0.7241 -0.6682
vn -0.1740 -0.7361 -0.6541
vn -0.2179 -0.7292 -0.6487
vn -0.0555 -0.7472 -0.6622
vn 0.1223 -0.9925 -0.0013
vn 0.1242 -0.9923 0.0022
vn 0.2042 -0.9788 -0.0116
vn 0.1939 -0.9810 -0.0028
vn -0.7316 -0.5383 -0.4182
vn -0.7335 -0.6713 -0.1066
vn -0.7293 -0.6746 -0.1138
vn -0.7228 -0.5711 -0.3892
vn 0.1188 -0.9929 0.0066
vn 0.1828 -0.9831 0.0065
vn -0.6710 -0.7411 0.0215
vn -0.5812 -0.8133 0.0276
vn -0.6706 -0.7415 0.0215
vn -0.7510 -0.6601 0.0152
vn 0.0154 -0.0390 -0.9991
vn -0.7895 -0.6137 0.0034
vn 0.0560 0.1169 0.9916
vn 0.0653 0.1012 0.9927
vn 0.1096 0.0259 0.9936
vn -0.7856 0.3602 -0.5030
vn 0.0198 0.9997 0.0158
vn 0.0212 0.9996 0.0160
vn -0.0004 0.9999 0.0139
vn -0.0002 1.0000 0.0087
vn 0.9968 0.0762 -0.0229
vn 0.9969 0.0783 -0.0107
vn 0.9955 0.0949 0.0017
vn 0.9955 0.0949 0.0016
vn 0.9971 0.0753 0.0138
vn 0.9971 0.0759 0.0072
vn 0.9983 0.0571 0.0133
vn 0.9988 0.0428 0.0227
vn -0.0206 0.9996 0.0194
vn -0.0191 0.9996 0.0194
vn -0.0190 0.9996 0.0194
vn -0.0176 0.9997 0.0194
vn -0.0202 0.9996 0.0204
vn -0.0200 0.9996 0.0202
vn -0.0185 0.9996 0.0198
vn -0.0196 0.9996 0.0202
vn -0.0236 0.0336 0.9992
vn 0.0413 0.9990 0.0179
vn 0.9955 0.0949 0.0009
vn 0.9955 0.0949 0.0010
vn 0.9956 0.0890 0.0303
vn 0.9963 0.0807 0.0310
vn 0.9983 -0.0100 0.0567
vn 0.9826 -0.1604 0.0936
vn 0.9845 0.1688 -0.0477
vn 0.9928 0.1054 -0.0566
vn 0.9955 0.0949 0.0013
vn 0.9960 0.0862 0.0254
vn 0.9986 0.0437 0.0296
vn 0.9972 0.0555 -0.0495
vn 0.9970 0.0559 -0.0534
vn 0.9978 0.0614 -0.0233
vn 0.9953 0.0269 -0.0925
vn 0.9872 0.1069 -0.1186
vn 0.9649 0.2426 -0.1007
vn 0.0554 -0.4961 0.8665
vn 0.0772 -0.4962 0.8648
vn 0.0995 -0.4961 0.8626
vn 0.0097 0.1936 0.9810
vn 0.9963 -0.0749 0.0415
vn 0.9729 -0.2060 0.1049
vn 1.0000 0.0072 0.0058
vn 0.0544 0.1003 0.9935
vn 0.0595 0.1003 0.9932
vn -0.0039 0.8386 -0.5448
vn -0.0039 0.8389 -0.5443
vn 0.0106 0.8409 -0.5411
vn 0.0106 0.8407 -0.5414
vn 1.0000 0.0054 0.0007
vn 1.0000 -0.0039 -0.0071
vn 1.0000 -0.0028 -0.0038
vn 0.8310 0.3415 -0.4391
vn 0.8310 0.3423 -0.4385
vn 0.8259 0.3477 -0.4438
vn 0.8240 0.3505 -0.4451
vn 0.8723 0.2438 -0.4238
vn 0.8963 0.2207 -0.3847
vn 0.8312 0.3048 -0.4649
vn 0.8313 0.3184 -0.4555
vn 0.9270 0.1858 -0.3259
vn 0.9039 -0.4126 0.1130
vn 0.8648 -0.4928 0.0959
vn 0.8467 -0.5287 0.0605
vn 0.9160 -0.3803 0.1278
vn 0.8191 0.3578 -0.4483
vn 0.9670 -0.2118 0.1414
vn 0.9268 -0.3538 0.1257
vn -0.0239 0.9951 -0.0963
vn -0.0240 0.9930 -0.1156
vn -0.0212 0.9919 -0.1253
vn 0.9678 -0.0882 0.2359
vn 0.9687 -0.1535 0.1952
vn 0.9689 -0.1192 0.2168
vn -0.7539 -0.3510 -0.5554
vn 0.9412 -0.3289 0.0769
vn 0.0116 0.9835 -0.1806
vn 0.0116 0.9835 -0.1804
vn 0.0111 0.9882 0.1530
vn 0.0111 0.9881 0.1534
vn 0.0039 0.9070 0.4212
vn 0.0040 0.9071 0.4209
vn -0.0026 0.8520 0.5236
vn 0.9999 -0.0123 0.0009
vn 1.0000 0.0002 0.0015
vn 0.9999 -0.0128 -0.0004
vn 1.0000 0.0065 0.0018
vn -0.0170 0.9368 -0.3493
vn 0.9998 -0.0208 0.0022
vn 1.0000 -0.0086 0.0038
vn 0.9998 -0.0201 0.0001
vn 0.9994 -0.0348 -0.0067
vn 1.0000 -0.0000 -0.0000
vn -0.1327 0.1259 0.9831
vn -0.1406 0.1189 0.9829
vn -0.1760 0.0869 0.9805
vn -0.2243 0.0424 0.9736
vn 0.8779 -0.4789 0.0070
vt 0.000000 0.000000
vt 0.332222 0.503197
vt 0.332222 0.528318
vt 0.332222 0.506394
s 1
f 127/1/1 268/1/2 262/1/3 261/1/4
f 129/1/5 127/1/1 261/1/4 260/1/6
f 31/1/7 263/1/8 271/1/8 270/1/9
f 58/1/10 31/1/7 270/1/9 269/1/11
f 66/1/12 273/1/13 275/1/14 37/1/15
f 319/1/16 66/1/12 37/1/15 60/1/17
f 37/1/15 275/1/14 278/1/18 277/1/19
f 60/1/17 37/1/15 277/1/19 276/1/20
f 102/1/21 354/1/22 281/1/23 280/1/24
f 289/1/25 287/1/26 285/1/26 284/1/27
f 120/1/28 289/1/25 284/1/27 283/1/29
f 114/1/30 296/1/31 293/1/32 292/1/33
f 116/1/34 114/1/30 292/1/33 291/1/35
f 57/1/36 64/1/37 48/1/38 6/1/39
f 297/1/40 6/1/39 48/1/38 294/1/40
f 303/1/41 19/1/42 298/1/43 300/1/41
f 19/1/42 18/1/44 299/1/44 298/1/43
f 328/1/45 78/1/46 304/1/47 306/1/48
f 78/1/46 79/1/49 305/1/50 304/1/47
f 5/1/51 312/1/52 307/1/52 54/1/53
f 2/1/54 5/1/51 54/1/53 53/1/54
f 3/1/55 318/1/55 64/1/37 57/1/36
f 115/1/56 116/1/34 291/1/35 47/1/57
f 119/1/58 120/1/28 283/1/29 44/1/58
f 104/1/59 102/1/21 280/1/24 42/1/60
f 36/1/61 60/1/17 276/1/20 315/1/62
f 67/1/63 319/1/16 60/1/17 36/1/61
f 313/1/64 58/1/10 269/1/11 314/1/64
f 128/1/65 129/1/5 260/1/6 30/1/66
f 33/1/67 59/1/68 68/1/69 320/1/67
f 59/1/68 34/1/70 321/1/71 68/1/69
f 34/1/70 272/1/72 274/1/72 321/1/71
f 51/1/73 50/1/74 71/1/75 69/1/76
f 301/1/77 51/1/73 69/1/76 311/1/78
f 12/1/79 302/1/80 70/1/81 15/1/82
f 69/1/76 71/1/75 73/1/83 72/1/84
f 311/1/78 69/1/76 72/1/84 322/1/85
f 72/1/84 73/1/83 76/1/83 75/1/84
f 322/1/85 72/1/84 75/1/84 325/1/85
f 75/1/84 76/1/83 79/1/49 78/1/46
f 325/1/85 75/1/84 78/1/46 328/1/45
f 28/1/86 80/1/87 308/1/88 329/1/88
f 17/1/89 326/1/89 80/1/87 28/1/86
f 346/1/90 331/1/90 327/1/90 330/1/90
f 15/1/82 70/1/81 323/1/91 14/1/91
f 29/1/92 16/1/93 309/1/93 335/1/94
f 337/1/95 264/1/95 336/1/95
f 9/1/96 11/1/97 341/1/97 340/1/98
f 7/1/99 8/1/99 338/1/99 332/1/99
f 111/1/100 109/1/101 351/1/102 350/1/103
f 112/1/104 352/1/105 348/1/106 347/1/107
f 39/1/59 61/1/108 92/1/108 91/1/59
f 61/1/108 40/1/109 90/1/110 92/1/108
f 40/1/109 279/1/111 87/1/111 90/1/110
f 91/1/59 92/1/108 94/1/108 96/1/59
f 92/1/108 90/1/110 95/1/110 94/1/108
f 90/1/110 87/1/111 88/1/111 95/1/110
f 96/1/59 94/1/108 98/1/112 100/1/113
f 94/1/108 95/1/110 99/1/114 98/1/112
f 95/1/110 88/1/111 85/1/115 99/1/114
f 100/1/113 98/1/112 102/1/21 104/1/59
f 98/1/112 99/1/114 354/1/22 102/1/21
f 99/1/114 85/1/115 349/1/116 354/1/22
f 343/1/117 344/1/117 334/1/117 324/1/117
f 109/1/101 112/1/104 347/1/107 351/1/102
f 9/1/96 340/1/98 265/1/118 10/1/118
f 342/1/119 333/1/120 101/1/121 89/1/122
f 333/1/120 339/1/123 97/1/124 101/1/121
f 83/1/125 342/1/119 89/1/122 93/1/126
f 89/1/122 101/1/121 108/1/127 106/1/128
f 101/1/121 97/1/124 107/1/129 108/1/127
f 93/1/126 89/1/122 106/1/128 105/1/130
f 106/1/128 108/1/127 112/1/104 109/1/101
f 108/1/127 107/1/129 352/1/105 112/1/104
f 105/1/130 106/1/128 109/1/101 111/1/100
f 38/1/131 111/1/100 350/1/103 41/1/132
f 65/1/133 105/1/130 111/1/100 38/1/131
f 105/1/130 65/1/133 35/1/134 93/1/126
f 32/1/135 83/1/125 93/1/126 35/1/134
f 317/1/136 63/1/137 116/1/34 115/1/56
f 63/1/137 45/1/138 114/1/30 116/1/34
f 45/1/138 286/1/139 296/1/31 114/1/30
f 29/1/92 335/1/94 82/1/140 345/1/140
f 113/1/141 97/1/124 339/1/123 295/1/142
f 97/1/124 113/1/141 46/1/143 107/1/129
f 316/1/58 62/1/144 120/1/28 119/1/58
f 62/1/144 282/1/145 289/1/25 120/1/28
f 135/1/146 361/1/147 370/1/148 368/1/149
f 43/1/150 136/2/151 290/1/152
f 27/1/153 26/1/154 359/1/155 357/1/156
f 25/1/157 24/1/158 356/1/159 358/1/160
f 24/1/158 27/1/153 357/1/156 356/1/159
f 25/1/157 358/1/160 310/1/161 23/1/161
f 121/1/162 55/1/163 123/1/164
f 123/1/164 122/1/165 121/1/162
f 26/1/154 22/1/166 49/1/166 359/1/155
f 339/1/123 124/1/167 295/1/142
f 124/1/167 339/1/123 125/1/168
f 339/1/123 121/1/162 122/1/165 125/1/168
f 1/1/65 56/1/169 129/1/5 128/1/65
f 56/1/169 4/1/170 127/1/1 129/1/5
f 4/1/170 360/1/171 268/1/2 127/1/1
f 20/1/172 21/1/172 52/1/173 126/1/174
f 13/1/175 266/1/175 302/1/80 12/1/79
f 126/1/174 52/1/173 267/1/176
f 363/1/177 364/1/178 372/1/179 371/1/180
f 365/1/181 367/1/182 353/1/182 373/1/183
f 366/3/184 362/4/185 136/2/151 369/3/186
f 136/2/151 43/1/150 355/1/187 369/3/186
f 118/1/188 135/4/146 368/1/149 288/1/188
f 364/1/178 365/1/181 373/1/183 372/1/179
f 361/1/147 363/1/177 371/1/180 370/1/148
f 136/2/151 362/4/185 290/1/152
f 362/1/185 366/3/184 134/1/189
f 134/1/189 366/3/184 133/1/190
f 133/1/190 366/3/184 132/1/191
f 131/1/192 132/1/191 366/1/184
f 46/1/143 117/1/193 142/1/193
f 142/1/193 141/1/193 46/1/143
f 141/1/193 140/1/193 46/1/143
f 46/1/143 140/1/193 107/1/129
f 140/1/193 139/1/193 107/1/129
f 139/1/193 137/1/193 107/1/129
f 137/1/193 352/1/105 107/1/129
f 110/1/194 130/1/194 138/3/195 86/1/196
f 86/1/196 138/1/195 103/1/197
f 77/1/198 81/1/198 84/1/198 74/1/198
f 245/1/199 375/1/200 376/1/201 382/1/202
f 246/1/203 374/1/204 375/1/200 245/1/199
f 168/1/205 384/1/206 385/1/207 377/1/207
f 187/1/208 383/1/209 384/1/206 168/1/205
f 195/1/210 172/1/211 389/1/212 387/1/213
f 425/1/214 189/1/215 172/1/211 195/1/210
f 172/1/211 391/1/216 392/1/217 389/1/212
f 189/1/215 390/1/218 391/1/216 172/1/211
f 223/1/219 394/1/220 395/1/221 459/1/222
f 403/1/223 398/1/224 399/1/225 401/1/225
f 238/1/226 397/1/227 398/1/224 403/1/223
f 234/1/228 406/1/229 407/1/230 410/1/231
f 235/1/232 405/1/233 406/1/229 234/1/228
f 186/1/234 145/1/235 179/1/236 193/1/237
f 411/1/238 408/1/238 179/1/236 145/1/235
f 416/1/239 413/1/239 412/1/240 157/1/241
f 157/1/241 412/1/240 299/1/44 18/1/44
f 433/1/242 418/1/243 417/1/244 203/1/245
f 203/1/245 417/1/244 305/1/50 79/1/49
f 144/1/246 183/1/247 419/1/248 424/1/248
f 2/1/54 53/1/54 183/1/247 144/1/246
f 3/1/55 186/1/234 193/1/237 318/1/55
f 115/1/56 47/1/57 405/1/233 235/1/232
f 119/1/58 44/1/58 397/1/227 238/1/226
f 104/1/59 42/1/60 394/1/220 223/1/219
f 36/1/61 315/1/62 390/1/218 189/1/215
f 67/1/63 36/1/61 189/1/215 425/1/214
f 313/1/64 314/1/64 383/1/209 187/1/208
f 128/1/65 30/1/66 374/1/204 246/1/203
f 33/1/67 320/1/67 196/1/249 188/1/250
f 188/1/250 196/1/249 426/1/251 170/1/252
f 170/1/252 426/1/251 388/1/253 386/1/253
f 181/1/254 197/1/255 71/1/75 50/1/74
f 414/1/256 423/1/257 197/1/255 181/1/254
f 151/1/258 154/1/259 198/1/260 415/1/261
f 197/1/255 199/1/262 73/1/83 71/1/75
f 423/1/257 427/1/263 199/1/262 197/1/255
f 199/1/262 201/1/262 76/1/83 73/1/83
f 427/1/263 430/1/263 201/1/262 199/1/262
f 201/1/262 203/1/245 79/1/49 76/1/83
f 430/1/263 433/1/242 203/1/245 201/1/262
f 166/1/264 434/1/265 420/1/265 204/1/266
f 156/1/267 166/1/264 204/1/266 431/1/267
f 451/1/268 435/1/268 432/1/268 436/1/268
f 154/1/259 153/1/269 428/1/269 198/1/260
f 167/1/270 440/1/271 421/1/272 155/1/272
f 442/1/273 441/1/273 378/1/273
f 148/1/274 445/1/275 446/1/276 150/1/276
f 146/1/277 437/1/277 443/1/277 147/1/277
f 231/1/278 455/1/279 456/1/280 229/1/281
f 232/1/282 452/1/283 453/1/284 457/1/285
f 39/1/59 91/1/59 215/1/286 190/1/286
f 190/1/286 215/1/286 214/1/287 174/1/288
f 174/1/288 214/1/287 211/1/289 393/1/289
f 91/1/59 96/1/59 217/1/286 215/1/286
f 215/1/286 217/1/286 218/1/287 214/1/287
f 214/1/287 218/1/287 212/1/289 211/1/289
f 96/1/59 100/1/113 220/1/290 217/1/286
f 217/1/286 220/1/290 221/1/291 218/1/287
f 218/1/287 221/1/291 209/1/292 212/1/289
f 100/1/113 104/1/59 223/1/219 220/1/290
f 220/1/290 223/1/219 459/1/222 221/1/291
f 221/1/291 459/1/222 454/1/293 209/1/292
f 448/1/294 429/1/294 439/1/294 449/1/294
f 229/1/281 456/1/280 452/1/283 232/1/282
f 148/1/274 149/1/295 379/1/295 445/1/275
f 447/1/296 213/1/297 222/1/298 438/1/299
f 438/1/299 222/1/298 219/1/300 444/1/301
f 207/1/302 216/1/303 213/1/297 447/1/296
f 213/1/297 226/1/304 228/1/305 222/1/298
f 222/1/298 228/1/305 227/1/306 219/1/300
f 216/1/303 225/1/307 226/1/304 213/1/297
f 226/1/304 229/1/281 232/1/282 228/1/305
f 228/1/305 232/1/282 457/1/285 227/1/306
f 225/1/307 231/1/278 229/1/281 226/1/304
f 173/1/308 175/1/309 455/1/279 231/1/278
f 194/1/310 173/1/308 231/1/278 225/1/307
f 225/1/307 216/1/303 171/1/311 194/1/310
f 169/1/312 171/1/311 216/1/303 207/1/302
f 317/1/136 115/1/56 235/1/232 192/1/313
f 192/1/313 235/1/232 234/1/228 177/1/314
f 177/1/314 234/1/228 410/1/231 400/1/315
f 167/1/270 450/1/316 206/1/316 440/1/271
f 233/1/317 409/1/318 444/1/301 219/1/300
f 219/1/300 227/1/306 178/1/319 233/1/317
f 316/1/58 119/1/58 238/1/226 191/1/320
f 191/1/320 238/1/226 403/1/223 396/1/321
f 252/1/322 473/1/323 475/1/324 466/1/325
f 176/1/326 404/1/327 253/2/328
f 165/1/329 462/1/330 464/1/331 164/1/332
f 163/1/333 463/1/334 461/1/335 162/1/336
f 162/1/336 461/1/335 462/1/330 165/1/329
f 163/1/333 161/1/337 422/1/337 463/1/334
f 239/1/338 241/1/339 184/1/340
f 241/1/339 239/1/338 240/1/341
f 164/1/332 464/1/331 180/1/342 160/1/342
f 444/1/301 409/1/318 242/1/343
f 242/1/343 243/1/344 444/1/301
f 444/1/301 243/1/344 240/1/341 239/1/338
f 1/1/65 128/1/65 246/1/203 185/1/345
f 185/1/345 246/1/203 245/1/199 143/1/346
f 143/1/346 245/1/199 382/1/202 465/1/347
f 158/1/348 244/1/349 182/1/350 159/1/348
f 152/1/351 151/1/258 415/1/261 380/1/351
f 244/1/349 381/1/352 182/1/350
f 468/1/353 476/1/354 477/1/355 469/1/356
f 470/1/357 478/1/358 458/1/359 472/1/359
f 471/3/360 474/3/361 253/2/328 467/4/362
f 253/2/328 474/3/361 460/1/363 176/1/326
f 237/1/364 402/1/364 473/1/323 252/4/322
f 469/1/356 477/1/355 478/1/358 470/1/357
f 466/1/325 475/1/324 476/1/354 468/1/353
f 253/2/328 404/1/327 467/4/362
f 467/1/362 251/1/365 471/3/360
f 251/1/365 250/1/366 471/3/360
f 250/1/366 249/1/367 471/3/360
f 248/1/368 471/1/360 249/1/367
f 178/1/319 259/1/369 236/1/369
f 259/1/369 178/1/319 258/1/369
f 258/1/369 178/1/319 257/1/369
f 178/1/319 227/1/306 257/1/369
f 257/1/369 227/1/306 256/1/369
f 256/1/369 227/1/306 254/1/369
f 254/1/369 227/1/306 457/1/285
f 230/1/370 210/1/371 255/3/372 247/1/370
f 210/1/371 224/1/373 255/1/372
f 202/1/374 200/1/374 208/1/374 205/1/374
o Circle.001
v 0.493667 0.105709 0.312351
v 0.306906 0.176198 0.344224
v 0.229546 0.346372 0.421170
v 0.306906 0.516546 0.498115
v 0.493667 0.587034 0.529987
v 0.680429 0.516546 0.498115
v 0.757788 0.346372 0.421170
v 0.680429 0.176198 0.344224
v 0.493667 0.045682 0.339731
v 0.276206 0.127757 0.376842
v 0.186131 0.325904 0.466436
v 0.276206 0.524051 0.556030
v 0.493667 0.606126 0.593141
v 0.711128 0.524051 0.556030
v 0.801203 0.325904 0.466436
v 0.711128 0.127757 0.376842
v 0.493667 0.062397 0.405799
v 0.306223 0.133143 0.437787
v 0.228581 0.303939 0.515014
v 0.306223 0.474735 0.592241
v 0.493667 0.545481 0.624230
v 0.681111 0.474735 0.592241
v 0.758753 0.303939 0.515014
v 0.681111 0.133143 0.437787
v 0.493667 0.097930 0.421865
v 0.333798 0.158269 0.449148
v 0.267578 0.303939 0.515014
v 0.333798 0.449609 0.580880
v 0.493667 0.509948 0.608163
v 0.653536 0.449609 0.580880
v 0.719756 0.303939 0.515014
v 0.653536 0.158269 0.449148
v 0.493667 0.155653 0.390785
v 0.361934 0.205372 0.413266
v 0.307369 0.325405 0.467540
v 0.361934 0.445438 0.521814
v 0.493667 0.495157 0.544295
v 0.625400 0.445438 0.521814
v 0.679965 0.325405 0.467540
v 0.625400 0.205372 0.413266
v 0.493667 0.136962 0.327813
v 0.331546 0.198150 0.355480
v 0.264393 0.345873 0.422274
v 0.331546 0.493595 0.489068
v 0.493667 0.554783 0.516734
v 0.655788 0.493595 0.489068
v 0.722941 0.345873 0.422274
v 0.655788 0.198150 0.355480
v 0.735530 0.438335 0.458629
v 0.775326 0.431375 0.514032
v 0.736414 0.393100 0.559561
v 0.700668 0.379609 0.553461
v 0.664194 0.388895 0.496253
v 0.703588 0.425744 0.454363
v 0.726566 0.259177 0.379859
v 0.764889 0.223547 0.420131
v 0.727418 0.214974 0.476763
v 0.692996 0.227966 0.482638
v 0.657872 0.263422 0.439536
v 0.695807 0.270271 0.386250
v 0.251320 0.438335 0.458629
v 0.211523 0.431375 0.514032
v 0.250435 0.393100 0.559561
v 0.286181 0.379609 0.553461
v 0.322655 0.388895 0.496253
v 0.283262 0.425744 0.454363
v 0.260283 0.259177 0.379859
v 0.221960 0.223547 0.420131
v 0.259431 0.214974 0.476763
v 0.293854 0.227966 0.482638
v 0.328978 0.263422 0.439536
v 0.291043 0.270271 0.386250
v 0.657872 0.263422 0.439536
v 0.679965 0.325405 0.467540
v 0.695807 0.270271 0.386250
v 0.722941 0.345873 0.422274
v 0.441180 0.341233 0.466717
v 0.429072 0.355657 0.434368
v 0.448866 0.292100 0.445959
v 0.438532 0.303197 0.410916
v 0.538468 0.292100 0.445959
v 0.546154 0.341233 0.466717
v 0.548802 0.303197 0.410916
v 0.558262 0.355657 0.434368
v 0.593708 0.567561 0.517059
v 0.610192 0.581843 0.582068
v 0.594074 0.522798 0.618205
v 0.579268 0.490227 0.603478
v 0.564160 0.480045 0.537467
v 0.580477 0.537920 0.505085
v 0.393142 0.567561 0.517059
v 0.376657 0.581843 0.582068
v 0.392775 0.522798 0.618205
v 0.407582 0.490227 0.603478
v 0.422690 0.480045 0.537467
v 0.406372 0.537920 0.505085
v 0.393142 0.126357 0.317564
v 0.376657 0.068115 0.349780
v 0.392775 0.079982 0.417981
v 0.407582 0.112553 0.432709
v 0.422690 0.168840 0.396753
v 0.406372 0.154926 0.331910
v 0.593708 0.126357 0.317564
v 0.610192 0.068115 0.349780
v 0.594074 0.079982 0.417981
v 0.579268 0.112553 0.432709
v 0.564160 0.168840 0.396753
v 0.580477 0.154926 0.331910
vn -0.1678 0.7383 -0.6532
vn -0.3260 0.6634 -0.6735
vn -0.7059 0.6537 0.2729
vn -0.3835 0.8502 0.3607
vn -0.3939 0.2241 -0.8914
vn -0.3519 0.0862 -0.9321
vn -0.7408 -0.6034 -0.2953
vn -0.9237 -0.3394 -0.1776
vn 0.3931 0.2245 -0.8917
vn 0.4665 0.3363 -0.8181
vn 0.9988 -0.0323 -0.0371
vn 0.9237 -0.3395 -0.1777
vn 0.1673 0.7383 -0.6534
vn 0.0002 0.7867 -0.6173
vn 0.0004 0.9195 0.3932
vn 0.3828 0.8505 0.3608
vn -0.4053 0.5223 -0.7503
vn -0.4657 0.3365 -0.8185
vn -0.9988 -0.0324 -0.0371
vn -0.9243 0.3561 0.1373
vn -0.1684 -0.0009 -0.9857
vn 0.0002 -0.0523 -0.9986
vn 0.0004 -0.9025 -0.4308
vn -0.3823 -0.8329 -0.4002
vn 0.1678 -0.0008 -0.9858
vn 0.3525 0.0860 -0.9318
vn 0.7412 -0.6029 -0.2951
vn 0.3816 -0.8331 -0.4004
vn 0.4046 0.5223 -0.7507
vn 0.3265 0.6635 -0.6732
vn 0.7063 0.6533 0.2728
vn 0.9242 0.3564 0.1374
vn 0.5016 -0.3853 0.7746
vn 0.4266 -0.5265 0.7354
vn 0.0002 0.0965 0.9953
vn 0.1809 0.0343 0.9829
vn -0.5009 -0.3855 0.7749
vn -0.4381 -0.1986 0.8767
vn 0.0002 -0.8089 0.5879
vn -0.1819 -0.7629 0.6204
vn 0.3785 -0.6565 0.6525
vn 0.1813 -0.7629 0.6206
vn 0.3516 -0.0363 0.9354
vn 0.4373 -0.1988 0.8771
vn -0.3511 -0.0365 0.9356
vn -0.1814 0.0345 0.9828
vn -0.3779 -0.6566 0.6528
vn -0.4273 -0.5265 0.7350
vn 0.2805 -0.1370 0.9500
vn 0.4033 -0.2185 0.8886
vn -0.3836 -0.3741 0.8444
vn -0.4046 -0.2177 0.8882
vn -0.0003 -0.7387 0.6740
vn -0.1585 -0.7235 0.6718
vn 0.3852 -0.3737 0.8438
vn 0.3800 -0.5185 0.7660
vn -0.0003 -0.0104 0.9999
vn 0.1557 -0.0335 0.9872
vn -0.2799 -0.1382 0.9500
vn -0.1558 -0.0328 0.9873
vn -0.2793 -0.6339 0.7212
vn -0.3813 -0.5189 0.7651
vn 0.2798 -0.6348 0.7203
vn 0.1584 -0.7231 0.6724
vn -0.7442 0.6219 0.2438
vn -0.3812 0.8553 0.3510
vn -0.7054 -0.6314 -0.3222
vn -0.9241 -0.3338 -0.1863
vn 0.7046 -0.6321 -0.3225
vn 0.3836 -0.8277 -0.4096
vn 0.7433 0.6228 0.2443
vn 0.8368 -0.3127 0.4493
vn -0.8291 0.5357 0.1602
vn -0.6237 0.7403 0.2510
vn -0.0008 -0.8969 -0.4423
vn -0.3828 -0.8280 -0.4097
vn 0.7707 0.1752 0.6127
vn 0.9242 -0.3333 -0.1862
vn -0.0007 0.9243 0.3817
vn 0.3821 0.8549 0.3508
vn 0.1992 0.4854 -0.8513
vn 0.3742 0.2360 -0.8968
vn -0.0003 0.7387 -0.6741
vn 0.1534 0.7151 -0.6820
vn -0.2759 0.6192 -0.7352
vn -0.1534 0.7155 -0.6815
vn -0.2747 0.1282 -0.9529
vn -0.3754 0.2352 -0.8965
vn 0.2751 0.1271 -0.9530
vn 0.1560 0.0339 -0.9872
vn 0.2765 0.6200 -0.7343
vn 0.2430 0.3689 -0.8972
vn -0.1851 0.7289 -0.6591
vn -0.1769 0.8174 -0.5483
vn -0.0810 0.8685 -0.4891
vn 0.0029 0.9830 -0.1838
vn -0.0003 0.0253 -0.9997
vn -0.1560 0.0332 -0.9872
vn -0.0237 0.9491 -0.3141
vn 0.1256 -0.3538 -0.9268
vn 0.0851 -0.8926 0.4427
vn 0.0277 0.8945 0.4463
vn -0.5475 0.4386 0.7127
vn 0.0237 0.9491 -0.3141
vn -0.1260 -0.3535 -0.9269
vn -0.0096 0.3768 0.9262
vn 0.0096 0.3769 0.9262
vn -0.0854 -0.8926 0.4428
vt 0.000000 0.000000
s 1
f 569/5/375 482/5/376 490/5/377 570/5/378
f 545/5/379 480/5/380 488/5/381 546/5/382
f 533/5/383 485/5/384 493/5/385 534/5/386
f 563/5/387 483/5/388 491/5/389 564/5/390
f 539/5/391 481/5/392 489/5/393 540/5/394
f 575/5/395 479/5/396 487/5/397 576/5/398
f 581/5/399 486/5/400 494/5/401 582/5/402
f 527/5/403 484/5/404 492/5/405 528/5/406
f 534/5/386 493/5/385 501/5/407 535/5/408
f 564/5/390 491/5/389 499/5/409 565/5/410
f 540/5/394 489/5/393 497/5/411 541/5/412
f 576/5/398 487/5/397 495/5/413 577/5/414
f 582/5/402 494/5/401 502/5/415 583/5/416
f 528/5/406 492/5/405 500/5/417 529/5/418
f 570/5/378 490/5/377 498/5/419 571/5/420
f 546/5/382 488/5/381 496/5/421 547/5/422
f 547/5/422 496/5/421 504/5/423 548/5/424
f 535/5/408 501/5/407 509/5/425 536/5/426
f 565/5/410 499/5/409 507/5/427 566/5/428
f 541/5/412 497/5/411 505/5/429 542/5/430
f 577/5/414 495/5/413 503/5/431 578/5/432
f 583/5/416 502/5/415 510/5/433 584/5/434
f 529/5/418 500/5/417 508/5/435 530/5/436
f 571/5/420 498/5/419 506/5/437 572/5/438
f 584/5/434 510/5/433 518/5/439 585/5/440
f 530/5/436 508/5/435 516/5/441 531/5/442
f 572/5/438 506/5/437 514/5/443 573/5/444
f 548/5/424 504/5/423 512/5/445 549/5/446
f 536/5/426 509/5/425 517/5/447 537/5/448
f 566/5/428 507/5/427 515/5/449 567/5/450
f 542/5/430 505/5/429 513/5/451 543/5/452
f 578/5/432 503/5/431 511/5/453 579/5/454
f 543/5/452 513/5/451 521/5/455 544/5/456
f 579/5/454 511/5/453 519/5/457 580/5/458
f 585/5/440 518/5/439 526/5/459 586/5/460
f 531/5/442 516/5/441 524/5/461 532/5/462
f 573/5/444 514/5/443 522/5/463 574/5/464
f 549/5/446 512/5/445 520/5/465 550/5/466
f 525/5/467 538/5/468 553/5/469 554/5/470
f 567/5/450 515/5/449 523/5/471 568/5/472
f 569/5/375 483/5/388 523/5/471 574/5/464
f 563/5/387 484/5/404 524/5/461 568/5/472
f 527/5/403 485/5/384 525/5/467 532/5/462
f 533/5/383 486/5/400 526/5/459 538/5/468
f 581/5/399 479/5/396 519/5/457 586/5/460
f 575/5/395 480/5/380 520/5/465 580/5/458
f 545/5/379 481/5/392 521/5/455 550/5/466
f 539/5/391 482/5/376 522/5/463 544/5/456
f 484/5/404 527/5/403 532/5/462 524/5/461
f 517/5/447 531/5/442 532/5/462 525/5/467
f 509/5/425 530/5/436 531/5/442 517/5/447
f 501/5/407 529/5/418 530/5/436 509/5/425
f 493/5/385 528/5/406 529/5/418 501/5/407
f 485/5/384 527/5/403 528/5/406 493/5/385
f 485/5/384 533/5/383 538/5/468 525/5/467
f 518/5/439 537/5/448 538/5/468 526/5/459
f 510/5/433 536/5/426 537/5/448 518/5/439
f 502/5/415 535/5/408 536/5/426 510/5/433
f 494/5/401 534/5/386 535/5/408 502/5/415
f 486/5/400 533/5/383 534/5/386 494/5/401
f 481/5/392 539/5/391 544/5/456 521/5/455
f 514/5/443 543/5/452 544/5/456 522/5/463
f 506/5/437 542/5/430 543/5/452 514/5/443
f 498/5/419 541/5/412 542/5/430 506/5/437
f 490/5/377 540/5/394 541/5/412 498/5/419
f 482/5/376 539/5/391 540/5/394 490/5/377
f 480/5/380 545/5/379 550/5/466 520/5/465
f 550/5/466 521/5/455 556/5/473 558/5/474
f 505/5/429 548/5/424 549/5/446 513/5/451
f 497/5/411 547/5/422 548/5/424 505/5/429
f 489/5/393 546/5/382 547/5/422 497/5/411
f 481/5/392 545/5/379 546/5/382 489/5/393
f 549/5/446 550/5/466 558/5/474 557/5/475
f 517/5/447 525/5/467 554/5/470 552/5/476
f 537/5/448 517/5/447 552/5/476 551/5/477
f 538/5/468 537/5/448 551/5/477 553/5/469
f 556/5/473 562/5/478 561/5/479 558/5/474
f 555/5/480 560/5/481 562/5/478 556/5/473
f 552/5/476 554/5/470 562/5/478 560/5/481
f 521/5/455 513/5/451 555/5/480 556/5/473
f 551/5/477 552/5/476 560/5/481 559/5/482
f 553/5/469 551/5/477 559/5/482 561/5/479
f 513/5/451 549/5/446 557/5/475 555/5/480
f 554/5/470 553/5/469 561/5/479 562/5/478
f 558/5/474 561/5/479 559/5/482 557/5/475
f 555/5/480 557/5/475 559/5/482 560/5/481
f 483/5/388 563/5/387 568/5/472 523/5/471
f 516/5/441 567/5/450 568/5/472 524/5/461
f 508/5/435 566/5/428 567/5/450 516/5/441
f 500/5/417 565/5/410 566/5/428 508/5/435
f 492/5/405 564/5/390 565/5/410 500/5/417
f 484/5/404 563/5/387 564/5/390 492/5/405
f 482/5/376 569/5/375 574/5/464 522/5/463
f 515/5/449 573/5/444 574/5/464 523/5/471
f 507/5/427 572/5/438 573/5/444 515/5/449
f 499/5/409 571/5/420 572/5/438 507/5/427
f 491/5/389 570/5/378 571/5/420 499/5/409
f 483/5/388 569/5/375 570/5/378 491/5/389
f 479/5/396 575/5/395 580/5/458 519/5/457
f 512/5/445 579/5/454 580/5/458 520/5/465
f 504/5/423 578/5/432 579/5/454 512/5/445
f 496/5/421 577/5/414 578/5/432 504/5/423
f 488/5/381 576/5/398 577/5/414 496/5/421
f 480/5/380 575/5/395 576/5/398 488/5/381
f 486/5/400 581/5/399 586/5/460 526/5/459
f 511/5/453 585/5/440 586/5/460 519/5/457
f 503/5/431 584/5/434 585/5/440 511/5/453
f 495/5/413 583/5/416 584/5/434 503/5/431
f 487/5/397 582/5/402 583/5/416 495/5/413
f 479/5/396 581/5/399 582/5/402 487/5/397
o Cube
v 0.084861 -0.535948 0.316418
v 0.118776 -0.383676 0.270980
v 0.084861 -0.535948 -0.385315
v 0.118776 -0.383676 -0.373020
v 0.909347 -0.535948 0.316418
v 0.875431 -0.383676 0.270980
v 0.909347 -0.535948 -0.385315
v 0.875431 -0.383676 -0.373020
v 0.118776 -0.383676 -0.673959
v 0.084861 -0.535948 -0.638717
v 0.909347 -0.535948 -0.638717
v 0.875431 -0.383676 -0.673959
v 0.118776 0.514984 -0.611987
v 0.875431 0.514984 -0.611987
v 0.118776 0.514984 -0.776490
v 0.875431 0.514984 -0.776490
v 0.118190 -0.666508 -0.373233
v 0.118190 -0.666508 0.271766
v 0.876018 -0.666508 -0.373233
v 0.876018 -0.666508 0.271766
v 0.876018 -0.666508 -0.606148
v 0.118190 -0.666508 -0.606148
v 0.274151 -0.383676 -0.373020
v 0.720057 -0.383676 -0.373020
v 0.254164 -0.535948 0.370566
v 0.740044 -0.535948 0.370566
v 0.720057 -0.383676 0.325129
v 0.274151 -0.383676 0.325129
v 0.740044 -0.535948 -0.638717
v 0.254164 -0.535948 -0.638717
v 0.274151 -0.383676 -0.673959
v 0.720057 -0.383676 -0.673959
v 0.304898 0.550146 -0.611987
v 0.689309 0.550146 -0.611987
v 0.304898 0.550146 -0.776490
v 0.689309 0.550146 -0.776490
v 0.720403 -0.666508 -0.373233
v 0.273805 -0.666508 -0.373233
v 0.273805 -0.666508 0.325915
v 0.720403 -0.666508 0.325915
v 0.720403 -0.666508 -0.606148
v 0.273805 -0.666508 -0.606148
v 0.809632 -0.321750 -0.406255
v 0.184575 -0.321750 -0.406255
v 0.184575 -0.321750 -0.654855
v 0.809632 -0.321750 -0.654855
v 0.681281 -0.321750 -0.654855
v 0.312927 -0.321750 -0.654855
v 0.312927 -0.321750 -0.406255
v 0.681281 -0.321750 -0.406255
v 0.879141 -0.219311 -0.390298
v 0.722243 -0.219311 -0.694187
v 0.271965 -0.219311 -0.694187
v 0.271965 -0.219311 -0.390298
v 0.722243 -0.219311 -0.390298
v 0.115067 -0.219311 -0.390298
v 0.115067 -0.219311 -0.694187
v 0.879141 -0.219311 -0.694187
v 0.297465 0.802807 -0.617006
v 0.696743 0.802807 -0.617006
v 0.297465 0.802807 -0.750040
v 0.696743 0.802807 -0.750040
v 0.230983 0.634366 -0.611987
v 0.230983 0.718587 -0.611987
v 0.230983 0.718587 -0.776490
v 0.230983 0.634366 -0.776490
v 0.763225 0.718587 -0.776490
v 0.763225 0.634366 -0.776490
v 0.763225 0.634366 -0.611987
v 0.763225 0.718587 -0.611987
v 0.320053 0.567152 -0.754639
v 0.674155 0.567152 -0.754639
v 0.320053 0.567152 -0.633839
v 0.674155 0.567152 -0.633839
vn -0.7898 -0.0200 0.6130
vn -0.5831 0.7181 0.3798
vn -0.7348 0.6645 0.1358
vn -0.9999 -0.0154 -0.0000
vn -0.6375 0.3151 -0.7031
vn -0.7514 -0.1402 -0.6448
vn 0.9999 -0.0154 -0.0000
vn 0.7348 0.6645 0.1358
vn 0.5831 0.7181 0.3798
vn 0.7898 -0.0200 0.6130
vn -0.1679 -0.0205 0.9856
vn -0.0953 0.7789 0.6199
vn -0.6135 -0.7897 -0.0000
vn -0.5723 -0.7333 0.3670
vn -0.0000 0.8582 0.5134
vn -0.0000 -0.2338 -0.9723
vn -0.0000 0.0359 -0.9994
vn 0.6375 0.3151 -0.7031
vn 0.7514 -0.1402 -0.6448
vn 0.5015 -0.7034 -0.5038
vn -0.0000 -0.7880 -0.6156
vn 0.0076 0.0647 0.9979
vn 0.7064 -0.1433 0.6931
vn 0.6397 0.5943 0.4875
vn 0.1788 0.7195 0.6711
vn 0.6156 0.4832 -0.6226
vn 0.1940 0.5757 -0.7943
vn -0.6976 -0.3172 -0.6424
vn -0.7064 -0.1433 0.6931
vn -0.6397 0.5943 0.4875
vn -0.6156 0.4832 -0.6226
vn 0.0029 -0.2351 -0.9720
vn -0.1940 0.5757 -0.7943
vn 0.6976 -0.3172 -0.6424
vn -0.0000 -1.0000 -0.0000
vn 0.6135 -0.7897 -0.0000
vn 0.5723 -0.7333 0.3670
vn 0.0919 -0.7923 0.6032
vn -0.5015 -0.7034 -0.5038
vn -0.0919 -0.7923 0.6032
vn 0.1679 -0.0205 0.9856
vn -0.0029 -0.2351 -0.9720
vn -0.1788 0.7195 0.6711
vn -0.6970 0.2935 -0.6542
vn -0.7201 0.2597 0.6435
vn -0.3402 0.7251 0.5987
vn -0.3375 0.7966 -0.5016
vn -0.0076 0.0647 0.9979
vn 0.0953 0.7789 0.6199
vn -0.0000 0.1682 0.9858
vn -0.5303 0.2361 0.8143
vn -0.0000 -0.0337 -0.9994
vn 0.5460 0.0339 -0.8371
vn 0.5303 0.2361 0.8143
vn -0.5460 0.0339 -0.8371
vn 0.3402 0.7251 0.5987
vn 0.3375 0.7966 -0.5016
vn 0.6970 0.2935 -0.6542
vn 0.7201 0.2597 0.6435
vn 0.5979 0.2166 0.7717
vn 0.5979 0.2166 -0.7717
vn 0.6831 -0.3719 -0.6285
vn 0.6831 -0.3719 0.6285
vn -0.5979 0.2166 0.7717
vn -0.6831 -0.3719 0.6285
vn -0.5979 0.2166 -0.7717
vn -0.6831 -0.3719 -0.6285
vt 0.375000 0.000000
vt 0.625000 0.000000
vt 0.625000 0.250000
vt 0.375000 0.250000
vt 0.375000 0.500000
vt 0.625000 0.500000
vt 0.625000 0.750000
vt 0.375000 0.750000
vt 0.375000 0.916667
vt 0.625000 0.916667
vt 0.625000 1.000000
vt 0.375000 1.000000
vt 0.791667 0.500000
vt 0.875000 0.500000
vt 0.875000 0.750000
vt 0.791667 0.750000
vt 0.375000 0.416667
vt 0.625000 0.416667
vt 0.708333 0.500000
vt 0.708333 0.500000
vt 0.625000 0.250000
vt 0.625000 0.250000
vt 0.625000 0.333333
vt 0.291667 0.500000
vt 0.291667 0.750000
vt 0.208333 0.500000
vt 0.125000 0.500000
vt 0.375000 0.833333
vt 0.208333 0.750000
vt 0.125000 0.750000
vt 0.625000 0.416667
vt 0.875000 0.500000
vt 0.375000 0.333333
vt 0.708333 0.750000
vt 0.625000 0.833333
s 1
f 587/6/483 588/7/484 590/8/485 589/9/486
f 589/9/486 590/8/485 595/8/487 596/9/488
f 593/10/489 594/11/490 592/12/491 591/13/492
f 611/14/493 614/15/494 588/16/484 587/17/483
f 587/6/483 589/9/486 603/9/495 604/6/496
f 609/18/497 590/19/485 588/20/484 614/21/494
f 615/22/498 618/23/499 598/11/500 597/10/501
f 594/11/490 593/10/489 597/10/501 598/11/500
f 615/22/498 597/10/501 607/10/502 627/22/503
f 641/24/504 637/11/505 600/11/506 620/25/507
f 620/25/507 600/11/506 602/11/508 622/25/509
f 643/26/510 642/27/511 599/8/512 601/8/513
f 639/28/514 643/26/510 601/8/513 621/28/515
f 637/11/505 644/11/516 602/11/508 600/11/506
f 623/29/517 605/10/518 606/13/519 626/30/520
f 624/31/517 603/32/495 608/32/521 628/31/503
f 597/10/501 593/10/489 605/10/518 607/10/502
f 593/10/489 591/13/492 606/13/519 605/10/518
f 611/14/493 587/17/483 604/17/496 625/14/522
f 589/9/486 596/9/488 608/9/521 603/9/495
f 591/13/492 612/33/523 626/33/520 606/13/519
f 612/33/523 611/14/493 625/14/522 626/33/520
f 605/10/518 623/29/517 627/29/503 607/10/502
f 623/29/517 624/31/517 628/31/503 627/29/503
f 603/32/495 624/31/517 625/34/522 604/35/496
f 624/31/517 623/29/517 626/30/520 625/34/522
f 644/11/516 638/36/524 622/23/509 602/11/508
f 638/36/524 639/28/514 621/28/515 622/23/509
f 599/19/512 619/18/525 621/18/515 601/19/513
f 651/18/526 650/18/527 645/18/528 647/18/529
f 642/37/511 640/18/530 619/18/525 599/19/512
f 640/18/530 641/24/504 620/25/507 619/18/525
f 596/9/488 616/38/498 628/38/503 608/9/521
f 616/38/498 615/22/498 627/22/503 628/38/503
f 596/9/488 595/8/487 617/28/499 616/38/498
f 616/38/498 617/28/499 618/23/499 615/22/498
f 594/11/490 610/25/497 613/39/531 592/12/491
f 610/25/497 609/18/497 614/21/494 613/39/531
f 591/13/492 592/12/491 613/40/531 612/33/523
f 612/33/523 613/40/531 614/15/494 611/14/493
f 609/18/497 610/25/497 636/24/532 635/18/532
f 590/19/485 609/18/497 635/18/532 630/19/533
f 618/23/499 617/28/499 634/28/534 633/36/534
f 598/11/500 618/23/499 633/36/534 632/11/535
f 594/11/490 598/11/500 632/11/535 629/11/536
f 617/28/499 595/8/487 631/8/537 634/28/534
f 595/8/487 590/8/485 630/27/533 631/8/537
f 610/25/497 594/11/490 629/11/536 636/24/532
f 635/18/532 636/24/532 641/24/504 640/18/530
f 630/19/533 635/18/532 640/18/530 642/37/511
f 633/36/534 634/28/534 639/28/514 638/36/524
f 632/11/535 633/36/534 638/36/524 644/11/516
f 629/11/536 632/11/535 644/11/516 637/11/505
f 634/28/534 631/8/537 643/26/510 639/28/514
f 631/8/537 630/27/533 642/27/511 643/26/510
f 636/24/532 629/11/536 637/11/505 641/24/504
f 645/18/528 646/25/538 648/25/539 647/18/529
f 653/23/540 651/28/526 647/28/529 648/23/539
f 650/18/527 656/24/541 646/25/538 645/18/528
f 656/24/541 653/24/540 648/25/539 646/25/538
f 660/24/542 658/24/543 654/24/544 655/24/545
f 655/24/545 654/24/544 653/24/540 656/24/541
f 659/18/546 660/24/542 655/24/545 649/18/547
f 649/18/547 655/24/545 656/24/541 650/18/527
f 658/23/543 657/28/548 652/28/549 654/23/544
f 654/23/544 652/28/549 651/28/526 653/23/540
f 657/18/548 659/18/546 649/18/547 652/18/549
f 652/18/549 649/18/547 650/18/527 651/18/526
f 621/18/515 619/18/525 659/18/546 657/18/548
f 622/23/509 621/28/515 657/28/548 658/23/543
f 619/18/525 620/25/507 660/24/542 659/18/546
f 620/25/507 622/25/509 658/24/543 660/24/542
o Cube.001
v -0.895353 -0.535948 0.321165
v -0.861438 -0.383676 0.275727
v -0.895353 -0.535948 -0.380568
v -0.861438 -0.383676 -0.368274
v -0.070867 -0.535948 0.321165
v -0.104783 -0.383676 0.275727
v -0.070867 -0.535948 -0.380568
v -0.104783 -0.383676 -0.368274
v -0.861438 -0.383676 -0.669212
v -0.895353 -0.535948 -0.633970
v -0.070867 -0.535948 -0.633970
v -0.104783 -0.383676 -0.669212
v -0.861438 0.514984 -0.607240
v -0.104783 0.514984 -0.607240
v -0.861438 0.514984 -0.771743
v -0.104783 0.514984 -0.771743
v -0.862024 -0.666508 -0.368486
v -0.862024 -0.666508 0.276513
v -0.104196 -0.666508 -0.368486
v -0.104196 -0.666508 0.276513
v -0.104196 -0.666508 -0.601401
v -0.862024 -0.666508 -0.601401
v -0.706063 -0.383676 -0.368274
v -0.260157 -0.383676 -0.368274
v -0.726050 -0.535948 0.375313
v -0.240170 -0.535948 0.375313
v -0.260157 -0.383676 0.329876
v -0.706063 -0.383676 0.329876
v -0.240170 -0.535948 -0.633970
v -0.726050 -0.535948 -0.633970
v -0.706063 -0.383676 -0.669212
v -0.260157 -0.383676 -0.669212
v -0.675316 0.550146 -0.607240
v -0.290905 0.550146 -0.607240
v -0.675316 0.550146 -0.771743
v -0.290905 0.550146 -0.771743
v -0.259811 -0.666508 -0.368486
v -0.706409 -0.666508 -0.368486
v -0.706409 -0.666508 0.330661
v -0.259811 -0.666508 0.330661
v -0.259811 -0.666508 -0.601401
v -0.706409 -0.666508 -0.601401
v -0.170582 -0.321750 -0.401509
v -0.795639 -0.321750 -0.401509
v -0.795639 -0.321750 -0.650108
v -0.170582 -0.321750 -0.650108
v -0.298933 -0.321750 -0.650108
v -0.667287 -0.321750 -0.650108
v -0.667287 -0.321750 -0.401509
v -0.298933 -0.321750 -0.401509
v -0.101073 -0.219311 -0.385551
v -0.257971 -0.219311 -0.689441
v -0.708249 -0.219311 -0.689441
v -0.708249 -0.219311 -0.385551
v -0.257971 -0.219311 -0.385551
v -0.865147 -0.219311 -0.385551
v -0.865147 -0.219311 -0.689441
v -0.101073 -0.219311 -0.689441
v -0.682749 0.802807 -0.612259
v -0.283471 0.802807 -0.612259
v -0.682749 0.802807 -0.745293
v -0.283471 0.802807 -0.745293
v -0.749231 0.634366 -0.607240
v -0.749231 0.718587 -0.607240
v -0.749231 0.718587 -0.771743
v -0.749231 0.634366 -0.771743
v -0.216989 0.718587 -0.771743
v -0.216989 0.634366 -0.771743
v -0.216989 0.634366 -0.607240
v -0.216989 0.718587 -0.607240
v -0.660161 0.567152 -0.749892
v -0.306059 0.567152 -0.749892
v -0.660161 0.567152 -0.629092
v -0.306059 0.567152 -0.629092
vn -0.7898 -0.0200 0.6130
vn -0.5831 0.7181 0.3798
vn -0.7348 0.6645 0.1358
vn -0.9999 -0.0154 -0.0000
vn -0.6375 0.3151 -0.7031
vn -0.7514 -0.1402 -0.6448
vn 0.9999 -0.0154 -0.0000
vn 0.7348 0.6645 0.1358
vn 0.5831 0.7181 0.3798
vn 0.7898 -0.0200 0.6130
vn -0.1679 -0.0205 0.9856
vn -0.0953 0.7789 0.6199
vn -0.6135 -0.7897 -0.0000
vn -0.5723 -0.7333 0.3670
vn -0.0000 0.8582 0.5134
vn -0.0000 -0.2338 -0.9723
vn -0.0000 0.0359 -0.9994
vn 0.6375 0.3151 -0.7031
vn 0.7514 -0.1402 -0.6448
vn 0.5015 -0.7034 -0.5038
vn -0.0000 -0.7880 -0.6156
vn 0.0076 0.0647 0.9979
vn 0.7064 -0.1433 0.6931
vn 0.6397 0.5943 0.4875
vn 0.1788 0.7195 0.6711
vn 0.6156 0.4832 -0.6226
vn 0.1940 0.5757 -0.7943
vn -0.6976 -0.3172 -0.6424
vn -0.7064 -0.1433 0.6931
vn -0.6397 0.5943 0.4875
vn -0.6156 0.4832 -0.6226
vn 0.0029 -0.2351 -0.9720
vn -0.1940 0.5757 -0.7943
vn 0.6976 -0.3172 -0.6424
vn -0.0000 -1.0000 -0.0000
vn 0.6135 -0.7897 -0.0000
vn 0.5723 -0.7333 0.3670
vn 0.0919 -0.7923 0.6032
vn -0.5015 -0.7034 -0.5038
vn -0.0919 -0.7923 0.6032
vn 0.1679 -0.0205 0.9856
vn -0.0029 -0.2351 -0.9720
vn -0.1788 0.7195 0.6711
vn -0.6970 0.2935 -0.6542
vn -0.7201 0.2597 0.6435
vn -0.3402 0.7251 0.5987
vn -0.3375 0.7966 -0.5016
vn -0.0076 0.0647 0.9979
vn 0.0953 0.7789 0.6199
vn -0.0000 0.1682 0.9858
vn -0.5303 0.2361 0.8143
vn -0.0000 -0.0337 -0.9994
vn 0.5460 0.0339 -0.8371
vn 0.5303 0.2361 0.8143
vn -0.5460 0.0339 -0.8371
vn 0.3402 0.7251 0.5987
vn 0.3375 0.7966 -0.5016
vn 0.6970 0.2935 -0.6542
vn 0.7201 0.2597 0.6435
vn 0.5979 0.2166 0.7717
vn 0.5979 0.2166 -0.7717
vn 0.6831 -0.3719 -0.6285
vn 0.6831 -0.3719 0.6285
vn -0.5979 0.2166 0.7717
vn -0.6831 -0.3719 0.6285
vn -0.5979 0.2166 -0.7717
vn -0.6831 -0.3719 -0.6285
vt 0.375000 0.000000
vt 0.625000 0.000000
vt 0.625000 0.250000
vt 0.375000 0.250000
vt 0.375000 0.500000
vt 0.625000 0.500000
vt 0.625000 0.750000
vt 0.375000 0.750000
vt 0.375000 0.916667
vt 0.625000 0.916667
vt 0.625000 1.000000
vt 0.375000 1.000000
vt 0.791667 0.500000
vt 0.875000 0.500000
vt 0.875000 0.750000
vt 0.791667 0.750000
vt 0.375000 0.416667
vt 0.625000 0.416667
vt 0.708333 0.500000
vt 0.708333 0.500000
vt 0.625000 0.250000
vt 0.625000 0.250000
vt 0.625000 0.333333
vt 0.291667 0.500000
vt 0.291667 0.750000
vt 0.208333 0.500000
vt 0.125000 0.500000
vt 0.375000 0.833333
vt 0.208333 0.750000
vt 0.125000 0.750000
vt 0.625000 0.416667
vt 0.875000 0.500000
vt 0.375000 0.333333
vt 0.708333 0.750000
vt 0.625000 0.833333
s 1
f 661/41/550 662/42/551 664/43/552 663/44/553
f 663/44/553 664/43/552 669/43/554 670/44/555
f 667/45/556 668/46/557 666/47/558 665/48/559
f 685/49/560 688/50/561 662/51/551 661/52/550
f 661/41/550 663/44/553 677/44/562 678/41/563
f 683/53/564 664/54/552 662/55/551 688/56/561
f 689/57/565 692/58/566 672/46/567 671/45/568
f 668/46/557 667/45/556 671/45/568 672/46/567
f 689/57/565 671/45/568 681/45/569 701/57/570
f 715/59/571 711/46/572 674/46/573 694/60/574
f 694/60/574 674/46/573 676/46/575 696/60/576
f 717/61/577 716/62/578 673/43/579 675/43/580
f 713/63/581 717/61/577 675/43/580 695/63/582
f 711/46/572 718/46/583 676/46/575 674/46/573
f 697/64/584 679/45/585 680/48/586 700/65/587
f 698/66/584 677/67/562 682/67/588 702/66/570
f 671/45/568 667/45/556 679/45/585 681/45/569
f 667/45/556 665/48/559 680/48/586 679/45/585
f 685/49/560 661/52/550 678/52/563 699/49/589
f 663/44/553 670/44/555 682/44/588 677/44/562
f 665/48/559 686/68/590 700/68/587 680/48/586
f 686/68/590 685/49/560 699/49/589 700/68/587
f 679/45/585 697/64/584 701/64/570 681/45/569
f 697/64/584 698/66/584 702/66/570 701/64/570
f 677/67/562 698/66/584 699/69/589 678/70/563
f 698/66/584 697/64/584 700/65/587 699/69/589
f 718/46/583 712/71/591 696/58/576 676/46/575
f 712/71/591 713/63/581 695/63/582 696/58/576
f 673/54/579 693/53/592 695/53/582 675/54/580
f 725/53/593 724/53/594 719/53/595 721/53/596
f 716/72/578 714/53/597 693/53/592 673/54/579
f 714/53/597 715/59/571 694/60/574 693/53/592
f 670/44/555 690/73/565 702/73/570 682/44/588
f 690/73/565 689/57/565 701/57/570 702/73/570
f 670/44/555 669/43/554 691/63/566 690/73/565
f 690/73/565 691/63/566 692/58/566 689/57/565
f 668/46/557 684/60/564 687/74/598 666/47/558
f 684/60/564 683/53/564 688/56/561 687/74/598
f 665/48/559 666/47/558 687/75/598 686/68/590
f 686/68/590 687/75/598 688/50/561 685/49/560
f 683/53/564 684/60/564 710/59/599 709/53/599
f 664/54/552 683/53/564 709/53/599 704/54/600
f 692/58/566 691/63/566 708/63/601 707/71/601
f 672/46/567 692/58/566 707/71/601 706/46/602
f 668/46/557 672/46/567 706/46/602 703/46/603
f 691/63/566 669/43/554 705/43/604 708/63/601
f 669/43/554 664/43/552 704/62/600 705/43/604
f 684/60/564 668/46/557 703/46/603 710/59/599
f 709/53/599 710/59/599 715/59/571 714/53/597
f 704/54/600 709/53/599 714/53/597 716/72/578
f 707/71/601 708/63/601 713/63/581 712/71/591
f 706/46/602 707/71/601 712/71/591 718/46/583
f 703/46/603 706/46/602 718/46/583 711/46/572
f 708/63/601 705/43/604 717/61/577 713/63/581
f 705/43/604 704/62/600 716/62/578 717/61/577
f 710/59/599 703/46/603 711/46/572 715/59/571
f 719/53/595 720/60/605 722/60/606 721/53/596
f 727/58/607 725/63/593 721/63/596 722/58/606
f 724/53/594 730/59/608 720/60/605 719/53/595
f 730/59/608 727/59/607 722/60/606 720/60/605
f 734/59/609 732/59/610 728/59/611 729/59/612
f 729/59/612 728/59/611 727/59/607 730/59/608
f 733/53/613 734/59/609 729/59/612 723/53/614
f 723/53/614 729/59/612 730/59/608 724/53/594
f 732/58/610 731/63/615 726/63/616 728/58/611
f 728/58/611 726/63/616 725/63/593 727/58/607
f 731/53/615 733/53/613 723/53/614 726/53/616
f 726/53/616 723/53/614 724/53/594 725/53/593
f 695/53/582 693/53/592 733/53/613 731/53/615
f 696/58/576 695/63/582 731/63/615 732/58/610
f 693/53/592 694/60/574 734/59/609 733/53/613
f 694/60/574 696/60/576 732/59/610 734/59/609
o Cube.002
v 0.082487 -0.535948 -1.021705
v 0.116403 -0.383676 -1.067142
v 0.082487 -0.535948 -1.723438
v 0.116403 -0.383676 -1.711143
v 0.906974 -0.535948 -1.021705
v 0.873058 -0.383676 -1.067142
v 0.906974 -0.535948 -1.723438
v 0.873058 -0.383676 -1.711143
v 0.116403 -0.383676 -2.012082
v 0.082487 -0.535948 -1.976840
v 0.906974 -0.535948 -1.976840
v 0.873058 -0.383676 -2.012082
v 0.116403 0.514984 -1.950110
v 0.873058 0.514984 -1.950110
v 0.116403 0.514984 -2.114613
v 0.873058 0.514984 -2.114613
v 0.115816 -0.666508 -1.711356
v 0.115816 -0.666508 -1.066357
v 0.873644 -0.666508 -1.711356
v 0.873644 -0.666508 -1.066357
v 0.873644 -0.666508 -1.944270
v 0.115816 -0.666508 -1.944270
v 0.271777 -0.383676 -1.711143
v 0.717683 -0.383676 -1.711143
v 0.251790 -0.535948 -0.967556
v 0.737670 -0.535948 -0.967556
v 0.717683 -0.383676 -1.012994
v 0.271777 -0.383676 -1.012994
v 0.737670 -0.535948 -1.976840
v 0.251790 -0.535948 -1.976840
v 0.271777 -0.383676 -2.012082
v 0.717683 -0.383676 -2.012082
v 0.302525 0.550146 -1.950110
v 0.686936 0.550146 -1.950110
v 0.302525 0.550146 -2.114613
v 0.686936 0.550146 -2.114613
v 0.718029 -0.666508 -1.711356
v 0.271432 -0.666508 -1.711356
v 0.271432 -0.666508 -1.012208
v 0.718029 -0.666508 -1.012208
v 0.718029 -0.666508 -1.944270
v 0.271432 -0.666508 -1.944270
v 0.807259 -0.321750 -1.744378
v 0.182202 -0.321750 -1.744378
v 0.182202 -0.321750 -1.992977
v 0.807259 -0.321750 -1.992977
v 0.678907 -0.321750 -1.992977
v 0.310553 -0.321750 -1.992977
v 0.310553 -0.321750 -1.744378
v 0.678907 -0.321750 -1.744378
v 0.876768 -0.219311 -1.728420
v 0.719870 -0.219311 -2.032310
v 0.269591 -0.219311 -2.032310
v 0.269591 -0.219311 -1.728420
v 0.719870 -0.219311 -1.728420
v 0.112693 -0.219311 -1.728420
v 0.112693 -0.219311 -2.032310
v 0.876768 -0.219311 -2.032310
v 0.295091 0.802807 -1.955128
v 0.694369 0.802807 -1.955128
v 0.295091 0.802807 -2.088162
v 0.694369 0.802807 -2.088162
v 0.228609 0.634366 -1.950110
v 0.228609 0.718587 -1.950110
v 0.228609 0.718587 -2.114613
v 0.228609 0.634366 -2.114613
v 0.760852 0.718587 -2.114613
v 0.760852 0.634366 -2.114613
v 0.760852 0.634366 -1.950110
v 0.760852 0.718587 -1.950110
v 0.317679 0.567152 -2.092761
v 0.671781 0.567152 -2.092761
v 0.317679 0.567152 -1.971961
v 0.671781 0.567152 -1.971961
vn -0.7898 -0.0200 0.6130
vn -0.5831 0.7181 0.3798
vn -0.7348 0.6645 0.1358
vn -0.9999 -0.0154 -0.0000
vn -0.6375 0.3151 -0.7031
vn -0.7514 -0.1402 -0.6448
vn 0.9999 -0.0154 -0.0000
vn 0.7348 0.6645 0.1358
vn 0.5831 0.7181 0.3798
vn 0.7898 -0.0200 0.6130
vn -0.1679 -0.0205 0.9856
vn -0.0953 0.7789 0.6199
vn -0.6135 -0.7897 -0.0000
vn -0.5723 -0.7333 0.3670
vn -0.0000 0.8582 0.5134
vn -0.0000 -0.2338 -0.9723
vn -0.0000 0.0359 -0.9994
vn 0.6375 0.3151 -0.7031
vn 0.7514 -0.1402 -0.6448
vn 0.5015 -0.7034 -0.5038
vn -0.0000 -0.7880 -0.6156
vn 0.0076 0.0647 0.9979
vn 0.7064 -0.1433 0.6931
vn 0.6397 0.5943 0.4875
vn 0.1788 0.7195 0.6711
vn 0.6156 0.4832 -0.6226
vn 0.1940 0.5757 -0.7943
vn -0.6976 -0.3172 -0.6424
vn -0.7064 -0.1433 0.6931
vn -0.6397 0.5943 0.4875
vn -0.6156 0.4832 -0.6226
vn 0.0029 -0.2351 -0.9720
vn -0.1940 0.5757 -0.7943
vn 0.6976 -0.3172 -0.6424
vn -0.0000 -1.0000 -0.0000
vn 0.6135 -0.7897 -0.0000
vn 0.5723 -0.7333 0.3670
vn 0.0919 -0.7923 0.6032
vn -0.5015 -0.7034 -0.5038
vn -0.0919 -0.7923 0.6032
vn 0.1679 -0.0205 0.9856
vn -0.0029 -0.2351 -0.9720
vn -0.1788 0.7195 0.6711
vn -0.6970 0.2935 -0.6542
vn -0.7201 0.2597 0.6435
vn -0.3402 0.7251 0.5987
vn -0.3375 0.7966 -0.5016
vn -0.0076 0.0647 0.9979
vn 0.0953 0.7789 0.6199
vn -0.0000 0.1682 0.9858
vn -0.5303 0.2361 0.8143
vn -0.0000 -0.0337 -0.9994
vn 0.5460 0.0339 -0.8371
vn 0.5303 0.2361 0.8143
vn -0.5460 0.0339 -0.8371
vn 0.3402 0.7251 0.5987
vn 0.3375 0.7966 -0.5016
vn 0.6970 0.2935 -0.6542
vn 0.7201 0.2597 0.6435
vn 0.5979 0.2166 0.7717
vn 0.5979 0.2166 -0.7717
vn 0.6831 -0.3719 -0.6285
vn 0.6831 -0.3719 0.6285
vn -0.5979 0.2166 0.7717
vn -0.6831 -0.3719 0.6285
vn -0.5979 0.2166 -0.7717
vn -0.6831 -0.3719 -0.6285
vt 0.375000 0.000000
vt 0.625000 0.000000
vt 0.625000 0.250000
vt 0.375000 0.250000
vt 0.375000 0.500000
vt 0.625000 0.500000
vt 0.625000 0.750000
vt 0.375000 0.750000
vt 0.375000 0.916667
vt 0.625000 0.916667
vt 0.625000 1.000000
vt 0.375000 1.000000
vt 0.791667 0.500000
vt 0.875000 0.500000
vt 0.875000 0.750000
vt 0.791667 0.750000
vt 0.375000 0.416667
vt 0.625000 0.416667
vt 0.708333 0.500000
vt 0.708333 0.500000
vt 0.625000 0.250000
vt 0.625000 0.250000
vt 0.625000 0.333333
vt 0.291667 0.500000
vt 0.291667 0.750000
vt 0.208333 0.500000
vt 0.125000 0.500000
vt 0.375000 0.833333
vt 0.208333 0.750000
vt 0.125000 0.750000
vt 0.625000 0.416667
vt 0.875000 0.500000
vt 0.375000 0.333333
vt 0.708333 0.750000
vt 0.625000 0.833333
s 1
f 735/76/617 736/77/618 738/78/619 737/79/620
f 737/79/620 738/78/619 743/78/621 744/79/622
f 741/80/623 742/81/624 740/82/625 739/83/626
f 759/84/627 762/85/628 736/86/618 735/87/617
f 735/76/617 737/79/620 751/79/629 752/76/630
f 757/88/631 738/89/619 736/90/618 762/91/628
f 763/92/632 766/93/633 746/81/634 745/80/635
f 742/81/624 741/80/623 745/80/635 746/81/634
f 763/92/632 745/80/635 755/80/636 775/92/637
f 789/94/638 785/81/639 748/81/640 768/95/641
f 768/95/641 748/81/640 750/81/642 770/95/643
f 791/96/644 790/97/645 747/78/646 749/78/647
f 787/98/648 791/96/644 749/78/647 769/98/649
f 785/81/639 792/81/650 750/81/642 748/81/640
f 771/99/651 753/80/652 754/83/653 774/100/654
f 772/101/651 751/102/629 756/102/655 776/101/637
f 745/80/635 741/80/623 753/80/652 755/80/636
f 741/80/623 739/83/626 754/83/653 753/80/652
f 759/84/627 735/87/617 752/87/630 773/84/656
f 737/79/620 744/79/622 756/79/655 751/79/629
f 739/83/626 760/103/657 774/103/654 754/83/653
f 760/103/657 759/84/627 773/84/656 774/103/654
f 753/80/652 771/99/651 775/99/637 755/80/636
f 771/99/651 772/101/651 776/101/637 775/99/637
f 751/102/629 772/101/651 773/104/656 752/105/630
f 772/101/651 771/99/651 774/100/654 773/104/656
f 792/81/650 786/106/658 770/93/643 750/81/642
f 786/106/658 787/98/648 769/98/649 770/93/643
f 747/89/646 767/88/659 769/88/649 749/89/647
f 799/88/660 798/88/661 793/88/662 795/88/663
f 790/107/645 788/88/664 767/88/659 747/89/646
f 788/88/664 789/94/638 768/95/641 767/88/659
f 744/79/622 764/108/632 776/108/637 756/79/655
f 764/108/632 763/92/632 775/92/637 776/108/637
f 744/79/622 743/78/621 765/98/633 764/108/632
f 764/108/632 765/98/633 766/93/633 763/92/632
f 742/81/624 758/95/631 761/109/665 740/82/625
f 758/95/631 757/88/631 762/91/628 761/109/665
f 739/83/626 740/82/625 761/110/665 760/103/657
f 760/103/657 761/110/665 762/85/628 759/84/627
f 757/88/631 758/95/631 784/94/666 783/88/666
f 738/89/619 757/88/631 783/88/666 778/89/667
f 766/93/633 765/98/633 782/98/668 781/106/668
f 746/81/634 766/93/633 781/106/668 780/81/669
f 742/81/624 746/81/634 780/81/669 777/81/670
f 765/98/633 743/78/621 779/78/671 782/98/668
f 743/78/621 738/78/619 778/97/667 779/78/671
f 758/95/631 742/81/624 777/81/670 784/94/666
f 783/88/666 784/94/666 789/94/638 788/88/664
f 778/89/667 783/88/666 788/88/664 790/107/645
f 781/106/668 782/98/668 787/98/648 786/106/658
f 780/81/669 781/106/668 786/106/658 792/81/650
f 777/81/670 780/81/669 792/81/650 785/81/639
f 782/98/668 779/78/671 791/96/644 787/98/648
f 779/78/671 778/97/667 790/97/645 791/96/644
f 784/94/666 777/81/670 785/81/639 789/94/638
f 793/88/662 794/95/672 796/95/673 795/88/663
f 801/93/674 799/98/660 795/98/663 796/93/673
f 798/88/661 804/94/675 794/95/672 793/88/662
f 804/94/675 801/94/674 796/95/673 794/95/672
f 808/94/676 806/94/677 802/94/678 803/94/679
f 803/94/679 802/94/678 801/94/674 804/94/675
f 807/88/680 808/94/676 803/94/679 797/88/681
f 797/88/681 803/94/679 804/94/675 798/88/661
f 806/93/677 805/98/682 800/98/683 802/93/678
f 802/93/678 800/98/683 799/98/660 801/93/674
f 805/88/682 807/88/680 797/88/681 800/88/683
f 800/88/683 797/88/681 798/88/661 799/88/660
f 769/88/649 767/88/659 807/88/680 805/88/682
f 770/93/643 769/98/649 805/98/682 806/93/677
f 767/88/659 768/95/641 808/94/676 807/88/680
f 768/95/641 770/95/643 806/94/677 808/94/676
o Cube.003
v -0.897727 -0.535948 -1.016958
v -0.863811 -0.383676 -1.062396
v -0.897727 -0.535948 -1.718691
v -0.863811 -0.383676 -1.706396
v -0.073240 -0.535948 -1.016958
v -0.107156 -0.383676 -1.062396
v -0.073240 -0.535948 -1.718691
v -0.107156 -0.383676 -1.706396
v -0.863811 -0.383676 -2.007335
v -0.897727 -0.535948 -1.972093
v -0.073240 -0.535948 -1.972093
v -0.107156 -0.383676 -2.007335
v -0.863811 0.514984 -1.945363
v -0.107156 0.514984 -1.945363
v -0.863811 0.514984 -2.109866
v -0.107156 0.514984 -2.109866
v -0.864398 -0.666508 -1.706609
v -0.864398 -0.666508 -1.061610
v -0.106570 -0.666508 -1.706609
v -0.106570 -0.666508 -1.061610
v -0.106570 -0.666508 -1.939524
v -0.864398 -0.666508 -1.939524
v -0.708437 -0.383676 -1.706396
v -0.262530 -0.383676 -1.706396
v -0.728424 -0.535948 -0.962809
v -0.242544 -0.535948 -0.962809
v -0.262530 -0.383676 -1.008247
v -0.708437 -0.383676 -1.008247
v -0.242544 -0.535948 -1.972093
v -0.728424 -0.535948 -1.972093
v -0.708437 -0.383676 -2.007335
v -0.262530 -0.383676 -2.007335
v -0.677689 0.550146 -1.945363
v -0.293278 0.550146 -1.945363
v -0.677689 0.550146 -2.109866
v -0.293278 0.550146 -2.109866
v -0.262185 -0.666508 -1.706609
v -0.708782 -0.666508 -1.706609
v -0.708782 -0.666508 -1.007461
v -0.262185 -0.666508 -1.007461
v -0.262185 -0.666508 -1.939524
v -0.708782 -0.666508 -1.939524
v -0.172955 -0.321750 -1.739631
v -0.798012 -0.321750 -1.739631
v -0.798012 -0.321750 -1.988231
v -0.172955 -0.321750 -1.988231
v -0.301307 -0.321750 -1.988231
v -0.669660 -0.321750 -1.988231
v -0.669660 -0.321750 -1.739631
v -0.301307 -0.321750 -1.739631
v -0.103446 -0.219311 -1.723674
v -0.260344 -0.219311 -2.027563
v -0.710623 -0.219311 -2.027563
v -0.710623 -0.219311 -1.723674
v -0.260344 -0.219311 -1.723674
v -0.867521 -0.219311 -1.723674
v -0.867521 -0.219311 -2.027563
v -0.103446 -0.219311 -2.027563
v -0.685123 0.802807 -1.950382
v -0.285845 0.802807 -1.950382
v -0.685123 0.802807 -2.083416
v -0.285845 0.802807 -2.083416
v -0.751605 0.634366 -1.945363
v -0.751605 0.718587 -1.945363
v -0.751605 0.718587 -2.109866
v -0.751605 0.634366 -2.109866
v -0.219362 0.718587 -2.109866
v -0.219362 0.634366 -2.109866
v -0.219362 0.634366 -1.945363
v -0.219362 0.718587 -1.945363
v -0.662535 0.567152 -2.088015
v -0.308432 0.567152 -2.088015
v -0.662535 0.567152 -1.967214
v -0.308432 0.567152 -1.967214
vn -0.7898 -0.0200 0.6130
vn -0.5831 0.7181 0.3798
vn -0.7348 0.6645 0.1358
vn -0.9999 -0.0154 -0.0000
vn -0.6375 0.3151 -0.7031
vn -0.7514 -0.1402 -0.6448
vn 0.9999 -0.0154 -0.0000
vn 0.7348 0.6645 0.1358
vn 0.5831 0.7181 0.3798
vn 0.7898 -0.0200 0.6130
vn -0.1679 -0.0205 0.9856
vn -0.0953 0.7789 0.6199
vn -0.6135 -0.7897 -0.0000
vn -0.5723 -0.7333 0.3670
vn -0.0000 0.8582 0.5134
vn -0.0000 -0.2338 -0.9723
vn -0.0000 0.0359 -0.9994
vn 0.6375 0.3151 -0.7031
vn 0.7514 -0.1402 -0.6448
vn 0.5015 -0.7034 -0.5038
vn -0.0000 -0.7880 -0.6156
vn 0.0076 0.0647 0.9979
vn 0.7064 -0.1433 0.6931
vn 0.6397 0.5943 0.4875
vn 0.1788 0.7195 0.6711
vn 0.6156 0.4832 -0.6226
vn 0.1940 0.5757 -0.7943
vn -0.6976 -0.3172 -0.6424
vn -0.7064 -0.1433 0.6931
vn -0.6397 0.5943 0.4875
vn -0.6156 0.4832 -0.6226
vn 0.0029 -0.2351 -0.9720
vn -0.1940 0.5757 -0.7943
vn 0.6976 -0.3172 -0.6424
vn -0.0000 -1.0000 -0.0000
vn 0.6135 -0.7897 -0.0000
vn 0.5723 -0.7333 0.3670
vn 0.0919 -0.7923 0.6032
vn -0.5015 -0.7034 -0.5038
vn -0.0919 -0.7923 0.6032
vn 0.1679 -0.0205 0.9856
vn -0.0029 -0.2351 -0.9720
vn -0.1788 0.7195 0.6711
vn -0.6970 0.2935 -0.6542
vn -0.7201 0.2597 0.6435
vn -0.3402 0.7251 0.5987
vn -0.3375 0.7966 -0.5016
vn -0.0076 0.0647 0.9979
vn 0.0953 0.7789 0.6199
vn -0.0000 0.1682 0.9858
vn -0.5303 0.2361 0.8143
vn -0.0000 -0.0337 -0.9994
vn 0.5460 0.0339 -0.8371
vn 0.5303 0.2361 0.8143
vn -0.5460 0.0339 -0.8371
vn 0.3402 0.7251 0.5987
vn 0.3375 0.7966 -0.5016
vn 0.6970 0.2935 -0.6542
vn 0.7201 0.2597 0.6435
vn 0.5979 0.2166 0.7717
vn 0.5979 0.2166 -0.7717
vn 0.6831 -0.3719 -0.6285
vn 0.6831 -0.3719 0.6285
vn -0.5979 0.2166 0.7717
vn -0.6831 -0.3719 0.6285
vn -0.5979 0.2166 -0.7717
vn -0.6831 -0.3719 -0.6285
vt 0.375000 0.000000
vt 0.625000 0.000000
vt 0.625000 0.250000
vt 0.375000 0.250000
vt 0.375000 0.500000
vt 0.625000 0.500000
vt 0.625000 0.750000
vt 0.375000 0.750000
vt 0.375000 0.916667
vt 0.625000 0.916667
vt 0.625000 1.000000
vt 0.375000 1.000000
vt 0.791667 0.500000
vt 0.875000 0.500000
vt 0.875000 0.750000
vt 0.791667 0.750000
vt 0.375000 0.416667
vt 0.625000 0.416667
vt 0.708333 0.500000
vt 0.708333 0.500000
vt 0.625000 0.250000
vt 0.625000 0.250000
vt 0.625000 0.333333
vt 0.291667 0.500000
vt 0.291667 0.750000
vt 0.208333 0.500000
vt 0.125000 0.500000
vt 0.375000 0.833333
vt 0.208333 0.750000
vt 0.125000 0.750000
vt 0.625000 0.416667
vt 0.875000 0.500000
vt 0.375000 0.333333
vt 0.708333 0.750000
vt 0.625000 0.833333
s 1
f 809/111/684 810/112/685 812/113/686 811/114/687
f 811/114/687 812/113/686 817/113/688 818/114/689
f 815/115/690 816/116/691 814/117/692 813/118/693
f 833/119/694 836/120/695 810/121/685 809/122/684
f 809/111/684 811/114/687 825/114/696 826/111/697
f 831/123/698 812/124/686 810/125/685 836/126/695
f 837/127/699 840/128/700 820/116/701 819/115/702
f 816/116/691 815/115/690 819/115/702 820/116/701
f 837/127/699 819/115/702 829/115/703 849/127/704
f 863/129/705 859/116/706 822/116/707 842/130/708
f 842/130/708 822/116/707 824/116/709 844/130/710
f 865/131/711 864/132/712 821/113/713 823/113/714
f 861/133/715 865/131/711 823/113/714 843/133/716
f 859/116/706 866/116/717 824/116/709 822/116/707
f 845/134/718 827/115/719 828/118/720 848/135/721
f 846/136/718 825/137/696 830/137/722 850/136/704
f 819/115/702 815/115/690 827/115/719 829/115/703
f 815/115/690 813/118/693 828/118/720 827/115/719
f 833/119/694 809/122/684 826/122/697 847/119/723
f 811/114/687 818/114/689 830/114/722 825/114/696
f 813/118/693 834/138/724 848/138/721 828/118/720
f 834/138/724 833/119/694 847/119/723 848/138/721
f 827/115/719 845/134/718 849/134/704 829/115/703
f 845/134/718 846/136/718 850/136/704 849/134/704
f 825/137/696 846/136/718 847/139/723 826/140/697
f 846/136/718 845/134/718 848/135/721 847/139/723
f 866/116/717 860/141/725 844/128/710 824/116/709
f 860/141/725 861/133/715 843/133/716 844/128/710
f 821/124/713 841/123/726 843/123/716 823/124/714
f 873/123/727 872/123/728 867/123/729 869/123/730
f 864/142/712 862/123/731 841/123/726 821/124/713
f 862/123/731 863/129/705 842/130/708 841/123/726
f 818/114/689 838/143/699 850/143/704 830/114/722
f 838/143/699 837/127/699 849/127/704 850/143/704
f 818/114/689 817/113/688 839/133/700 838/143/699
f 838/143/699 839/133/700 840/128/700 837/127/699
f 816/116/691 832/130/698 835/144/732 814/117/692
f 832/130/698 831/123/698 836/126/695 835/144/732
f 813/118/693 814/117/692 835/145/732 834/138/724
f 834/138/724 835/145/732 836/120/695 833/119/694
f 831/123/698 832/130/698 858/129/733 857/123/733
f 812/124/686 831/123/698 857/123/733 852/124/734
f 840/128/700 839/133/700 856/133/735 855/141/735
f 820/116/701 840/128/700 855/141/735 854/116/736
f 816/116/691 820/116/701 854/116/736 851/116/737
f 839/133/700 817/113/688 853/113/738 856/133/735
f 817/113/688 812/113/686 852/132/734 853/113/738
f 832/130/698 816/116/691 851/116/737 858/129/733
f 857/123/733 858/129/733 863/129/705 862/123/731
f 852/124/734 857/123/733 862/123/731 864/142/712
f 855/141/735 856/133/735 861/133/715 860/141/725
f 854/116/736 855/141/735 860/141/725 866/116/717
f 851/116/737 854/116/736 866/116/717 859/116/706
f 856/133/735 853/113/738 865/131/711 861/133/715
f 853/113/738 852/132/734 864/132/712 865/131/711
f 858/129/733 851/116/737 859/116/706 863/129/705
f 867/123/729 868/130/739 870/130/740 869/123/730
f 875/128/741 873/133/727 869/133/730 870/128/740
f 872/123/728 878/129/742 868/130/739 867/123/729
f 878/129/742 875/129/741 870/130/740 868/130/739
f 882/129/743 880/129/744 876/129/745 877/129/746
f 877/129/746 876/129/745 875/129/741 878/129/742
f 881/123/747 882/129/743 877/129/746 871/123/748
f 871/123/748 877/129/746 878/129/742 872/123/728
f 880/128/744 879/133/749 874/133/750 876/128/745
f 876/128/745 874/133/750 873/133/727 875/128/741
f 879/123/749 881/123/747 871/123/748 874/123/750
f 874/123/750 871/123/748 872/123/728 873/123/727
f 843/123/716 841/123/726 881/123/747 879/123/749
f 844/128/710 843/133/716 879/133/749 880/128/744
f 841/123/726 842/130/708 882/129/743 881/123/747
f 842/130/708 844/130/710 880/129/744 882/129/743
