# Blender 3.6.1
# www.blender.org
o WingMirror
v 1.549135 0.300289 1.065443
v 1.549135 0.520872 1.085490
v 1.549135 0.311785 0.938955
v 1.549135 0.532367 0.959002
v 1.779211 0.299339 1.065356
v 1.779211 0.519922 1.085403
v 1.779211 0.310835 0.938869
v 1.779211 0.531417 0.958916
v 1.502398 0.342350 1.031533
v 1.502398 0.457698 1.039262
v 1.502398 0.348361 0.982766
v 1.502398 0.463709 0.990495
v 1.322128 0.342350 1.031533
v 1.322128 0.457698 1.039262
v 1.322128 0.348361 0.982766
v 1.322128 0.463709 0.990495
v 1.838825 0.334991 1.049005
v 1.838825 0.487802 1.062893
v 1.838825 0.342955 0.961379
v 1.838825 0.495766 0.975267
v 1.549135 0.490640 1.082742
v 1.549135 0.502135 0.970819
v 1.779211 0.501185 0.970732
v 1.779211 0.489690 1.082656
v 1.502398 0.441889 1.047890
v 1.502398 0.447900 0.981747
v 1.322128 0.441889 1.047890
v 1.322128 0.447900 0.981747
v 1.838825 0.474822 0.973364
v 1.838825 0.466859 1.060989
v 1.549135 0.346415 0.956666
v 1.779211 0.345465 0.956580
v 1.779211 0.333969 1.068503
v 1.502398 0.366470 0.974346
v 1.322128 0.366470 0.974346
v 1.838825 0.366945 0.963560
v 1.838825 0.358981 1.051185
v 1.549135 0.334919 1.068590
v 1.502398 0.360459 1.040490
v 1.322128 0.360459 1.040490
v 1.549135 0.412780 1.075666
v 1.502398 0.401174 1.048694
v 1.322128 0.401174 1.048694
v 1.549135 0.424275 0.963742
v 1.779211 0.423325 0.963656
v 1.779211 0.411830 1.075580
v 1.502398 0.407185 0.973542
v 1.322128 0.407185 0.973542
v 1.838825 0.420884 0.968462
v 1.838825 0.412920 1.056087
v -1.549135 0.300289 1.065443
v -1.549135 0.520872 1.085490
v -1.549135 0.311785 0.938955
v -1.549135 0.532367 0.959002
v -1.779211 0.299339 1.065356
v -1.779211 0.519922 1.085403
v -1.779211 0.310835 0.938869
v -1.779211 0.531417 0.958916
v -1.502398 0.342350 1.031533
v -1.502398 0.457698 1.039262
v -1.502398 0.348361 0.982766
v -1.502398 0.463709 0.990495
v -1.322128 0.342350 1.031533
v -1.322128 0.457698 1.039262
v -1.322128 0.348361 0.982766
v -1.322128 0.463709 0.990495
v -1.838825 0.334991 1.049005
v -1.838825 0.487802 1.062893
v -1.838825 0.342955 0.961379
v -1.838825 0.495766 0.975267
v -1.549135 0.490640 1.082742
v -1.549135 0.502135 0.970819
v -1.779211 0.501185 0.970732
v -1.779211 0.489690 1.082656
v -1.502398 0.441889 1.047890
v -1.502398 0.447900 0.981747
v -1.322128 0.441889 1.047890
v -1.322128 0.447900 0.981747
v -1.838825 0.474822 0.973364
v -1.838825 0.466859 1.060989
v -1.549135 0.346415 0.956666
v -1.779211 0.345465 0.956580
v -1.779211 0.333969 1.068503
v -1.502398 0.366470 0.974346
v -1.322128 0.366470 0.974346
v -1.838825 0.366945 0.963560
v -1.838825 0.358981 1.051185
v -1.549135 0.334919 1.068590
v -1.502398 0.360459 1.040490
v -1.322128 0.360459 1.040490
v -1.549135 0.412780 1.075666
v -1.502398 0.401174 1.048694
v -1.322128 0.401174 1.048694
v -1.549135 0.424275 0.963742
v -1.779211 0.423325 0.963656
v -1.779211 0.411830 1.075580
v -1.502398 0.407185 0.973542
v -1.322128 0.407185 0.973542
v -1.838825 0.420884 0.968462
v -1.838825 0.412920 1.056087
v 1.549135 0.311785 0.938955
v 1.549135 0.311785 0.938955
v 1.549135 0.311785 0.938955
v 1.549135 0.300289 1.065443
v 1.549135 0.300289 1.065443
v 1.549135 0.300289 1.065443
v 1.549135 0.490640 1.082742
v 1.549135 0.520872 1.085490
v 1.549135 0.520872 1.085490
v 1.549135 0.520872 1.085490
v 1.549135 0.532367 0.959002
v 1.549135 0.532367 0.959002
v 1.779211 0.310835 0.938869
v 1.779211 0.531417 0.958916
v 1.779211 0.299339 1.065356
v 1.779211 0.519922 1.085403
v 1.502398 0.348361 0.982766
v 1.502398 0.348361 0.982766
v 1.502398 0.348361 0.982766
v 1.502398 0.342350 1.031533
v 1.502398 0.342350 1.031533
v 1.502398 0.342350 1.031533
v 1.502398 0.441889 1.047890
v 1.502398 0.457698 1.039262
v 1.502398 0.457698 1.039262
v 1.502398 0.457698 1.039262
v 1.502398 0.463709 0.990495
v 1.502398 0.463709 0.990495
v 1.502398 0.463709 0.990495
v 1.322128 0.348361 0.982766
v 1.322128 0.348361 0.982766
v 1.322128 0.342350 1.031533
v 1.322128 0.342350 1.031533
v 1.322128 0.441889 1.047890
v 1.322128 0.457698 1.039262
v 1.322128 0.457698 1.039262
v 1.322128 0.463709 0.990495
v 1.322128 0.463709 0.990495
v 1.322128 0.366470 0.974346
v 1.838825 0.366945 0.963560
v 1.838825 0.342955 0.961379
v 1.838825 0.342955 0.961379
v 1.838825 0.334991 1.049005
v 1.838825 0.334991 1.049005
v 1.838825 0.495766 0.975267
v 1.838825 0.495766 0.975267
v 1.838825 0.487802 1.062893
v 1.838825 0.487802 1.062893
v 1.838825 0.358981 1.051185
v 1.549135 0.412780 1.075666
v 1.502398 0.401174 1.048694
v 1.322128 0.401174 1.048694
v 1.322128 0.447900 0.981747
v 1.838825 0.474822 0.973364
v 1.838825 0.466859 1.060989
v 1.322128 0.407185 0.973542
v 1.838825 0.420884 0.968462
v 1.838825 0.412920 1.056087
v 1.549135 0.334919 1.068590
v 1.502398 0.360459 1.040490
v 1.322128 0.360459 1.040490
v -1.549135 0.311785 0.938955
v -1.549135 0.311785 0.938955
v -1.549135 0.311785 0.938955
v -1.549135 0.300289 1.065443
v -1.549135 0.300289 1.065443
v -1.549135 0.300289 1.065443
v -1.549135 0.490640 1.082742
v -1.549135 0.520872 1.085490
v -1.549135 0.520872 1.085490
v -1.549135 0.520872 1.085490
v -1.549135 0.532367 0.959002
v -1.549135 0.532367 0.959002
v -1.779211 0.310835 0.938869
v -1.779211 0.531417 0.958916
v -1.779211 0.299339 1.065356
v -1.779211 0.519922 1.085403
v -1.502398 0.348361 0.982766
v -1.502398 0.348361 0.982766
v -1.502398 0.348361 0.982766
v -1.502398 0.342350 1.031533
v -1.502398 0.342350 1.031533
v -1.502398 0.342350 1.031533
v -1.502398 0.441889 1.047890
v -1.502398 0.457698 1.039262
v -1.502398 0.457698 1.039262
v -1.502398 0.457698 1.039262
v -1.502398 0.463709 0.990495
v -1.502398 0.463709 0.990495
v -1.502398 0.463709 0.990495
v -1.322128 0.348361 0.982766
v -1.322128 0.348361 0.982766
v -1.322128 0.342350 1.031533
v -1.322128 0.342350 1.031533
v -1.322128 0.441889 1.047890
v -1.322128 0.457698 1.039262
v -1.322128 0.457698 1.039262
v -1.322128 0.463709 0.990495
v -1.322128 0.463709 0.990495
v -1.322128 0.366470 0.974346
v -1.838825 0.366945 0.963560
v -1.838825 0.342955 0.961379
v -1.838825 0.342955 0.961379
v -1.838825 0.334991 1.049005
v -1.838825 0.334991 1.049005
v -1.838825 0.495766 0.975267
v -1.838825 0.495766 0.975267
v -1.838825 0.487802 1.062893
v -1.838825 0.487802 1.062893
v -1.838825 0.358981 1.051185
v -1.549135 0.412780 1.075666
v -1.502398 0.401174 1.048694
v -1.322128 0.401174 1.048694
v -1.322128 0.447900 0.981747
v -1.838825 0.474822 0.973364
v -1.838825 0.466859 1.060989
v -1.322128 0.407185 0.973542
v -1.838825 0.420884 0.968462
v -1.838825 0.412920 1.056087
v -1.549135 0.334919 1.068590
v -1.502398 0.360459 1.040490
v -1.322128 0.360459 1.040490
vn -0.2136 0.2006 -0.9561
vn -0.4770 0.1525 -0.8656
vn -0.1941 -0.0625 -0.9790
vn -0.1734 -0.0803 -0.9816
vn -0.0932 -0.2909 -0.9522
vn 0.0211 -0.2981 -0.9543
vn 0.0337 -0.1133 -0.9930
vn 0.2338 0.9683 0.0880
vn 0.4957 0.8649 0.0786
vn 0.1575 -0.0894 0.9835
vn 0.1276 -0.0898 0.9878
vn -0.0000 -0.0905 0.9959
vn -0.0041 -0.9959 -0.0905
vn 0.2293 -0.9694 -0.0881
vn 0.0041 0.9959 0.0905
vn -0.0000 0.9925 0.1223
vn -0.6688 0.0544 0.7414
vn -0.7114 0.0890 0.6972
vn -0.5992 0.0022 0.8006
vn -0.8174 0.5732 0.0573
vn -0.6466 -0.7590 -0.0758
vn -1.0000 -0.0000 -0.0000
vn -0.0000 -0.9925 -0.1223
vn -0.0000 -0.4216 -0.9068
vn -0.0000 -0.2255 -0.9742
vn -0.0000 0.2568 0.9665
vn -0.0000 0.4791 0.8778
vn 1.0000 -0.0000 -0.0000
vn 0.0573 -0.1899 -0.9801
vn 0.0746 -0.0134 -0.9971
vn 0.1280 -0.0898 0.9877
vn 0.3111 -0.0860 0.9465
vn 0.4957 -0.8649 -0.0786
vn 0.0419 0.0904 -0.9950
vn 0.0837 0.0902 -0.9924
vn -0.0000 -0.0894 0.9960
vn -0.0000 0.4842 -0.8750
vn -0.1659 0.2076 -0.9640
vn -0.0000 0.3449 -0.9386
vn -0.5252 -0.0719 0.8480
vn -0.5229 -0.0822 0.8484
vn -0.1485 0.0931 -0.9845
vn -0.3432 -0.0625 -0.9372
vn 0.0015 0.4553 -0.8903
vn 0.0446 0.2557 -0.9657
vn 0.0358 0.4042 -0.9140
vn -0.6287 -0.1740 0.7580
vn -0.5883 -0.1502 0.7946
vn -0.5658 -0.1372 0.8130
vn -0.0000 -0.4433 0.8964
vn -0.0000 -0.3232 0.9463
vn 0.0865 0.1805 -0.9798
vn 0.0894 0.3200 -0.9432
vn -0.1478 0.0851 -0.9853
vn -0.0000 0.0894 -0.9960
vn 0.2136 0.2006 -0.9561
vn 0.1941 -0.0625 -0.9790
vn 0.4770 0.1525 -0.8656
vn 0.1734 -0.0803 -0.9816
vn -0.0337 -0.1133 -0.9930
vn -0.0211 -0.2981 -0.9543
vn 0.0932 -0.2909 -0.9522
vn -0.2338 0.9683 0.0880
vn -0.4957 0.8649 0.0786
vn -0.1575 -0.0894 0.9835
vn -0.1276 -0.0898 0.9878
vn 0.0041 -0.9959 -0.0905
vn -0.2293 -0.9694 -0.0881
vn -0.0041 0.9959 0.0905
vn 0.6688 0.0544 0.7414
vn 0.5992 0.0022 0.8006
vn 0.7114 0.0890 0.6972
vn 0.8174 0.5732 0.0573
vn 0.6466 -0.7590 -0.0758
vn -0.0746 -0.0134 -0.9971
vn -0.0573 -0.1899 -0.9801
vn -0.3111 -0.0860 0.9465
vn -0.1280 -0.0898 0.9877
vn -0.4957 -0.8649 -0.0786
vn -0.0419 0.0904 -0.9950
vn -0.0837 0.0902 -0.9924
vn 0.1659 0.2076 -0.9640
vn 0.5252 -0.0719 0.8480
vn 0.5229 -0.0822 0.8484
vn 0.1485 0.0931 -0.9845
vn 0.3432 -0.0625 -0.9372
vn -0.0015 0.4553 -0.8903
vn -0.0358 0.4042 -0.9140
vn -0.0446 0.2557 -0.9657
vn 0.6287 -0.1740 0.7580
vn 0.5658 -0.1372 0.8130
vn 0.5883 -0.1501 0.7946
vn -0.0894 0.3200 -0.9432
vn -0.0865 0.1805 -0.9798
vn 0.1478 0.0851 -0.9853
vt 0.414248 0.250000
vt 0.375000 0.250000
vt 0.414248 0.250000
vt 0.590736 0.250000
vt 0.625000 0.250000
vt 0.625000 0.500000
vt 0.590736 0.500000
vt 0.625000 0.750000
vt 0.590736 0.750000
vt 0.625000 1.000000
vt 0.590736 1.000000
vt 0.125000 0.500000
vt 0.375000 0.500000
vt 0.375000 0.750000
vt 0.125000 0.750000
vt 0.875000 0.500000
vt 0.875000 0.750000
vt 0.590736 0.000000
vt 0.625000 0.000000
vt 0.414248 0.250000
vt 0.590736 1.000000
vt 0.590736 0.500000
vt 0.414248 0.750000
vt 0.414248 0.750000
vt 0.502492 0.500000
vt 0.502492 0.500000
vt 0.502492 0.750000
vt 0.502492 1.000000
vt 0.590736 0.250000
vt 0.502492 0.000000
vt 0.502492 0.250000
vt 0.414248 0.500000
vt 0.414248 1.000000
vt 0.375000 1.000000
vt 0.414248 1.000000
vt 0.375000 0.000000
vt 0.414248 0.000000
vt 0.414248 1.000000
vt 0.414248 0.500000
vt 0.502492 0.250000
s 1
f 31/1/1 102/2/2 118/2/2 34/3/3
f 22/4/4 112/5/5 114/6/6 23/7/7
f 8/6/8 116/8/8 147/8/9 145/6/9
f 24/9/10 6/8/11 108/10/12 107/11/12
f 101/12/13 113/13/14 115/14/14 104/15/13
f 8/6/8 111/16/15 109/17/15 116/8/8
f 125/17/16 127/16/16 137/16/16 136/17/16
f 21/11/17 110/10/18 124/10/18 123/11/19
f 2/17/20 4/16/20 128/16/20 126/17/20
f 103/12/21 105/15/21 120/15/21 117/12/21
f 134/18/22 135/19/22 138/5/22 153/4/22
f 119/12/23 121/15/23 132/15/23 130/12/23
f 34/3/3 11/2/24 131/2/24 139/20/25
f 25/11/26 10/10/27 14/10/27 27/21/26
f 154/22/28 146/6/28 148/8/28 155/9/28
f 23/7/7 114/6/6 20/6/29 29/22/30
f 33/23/10 5/14/31 144/14/32 149/24/32
f 115/14/14 113/13/14 142/13/33 143/14/33
f 6/8/11 24/9/10 30/9/32 18/8/32
f 45/25/34 23/7/7 29/22/30 49/26/35
f 157/26/28 154/22/28 155/9/28 50/27/28
f 151/28/36 25/11/26 27/21/26 152/28/36
f 129/5/37 26/29/38 28/4/39 16/5/37
f 43/30/22 134/18/22 153/4/22 48/31/22
f 150/28/40 21/11/17 123/11/19 42/28/41
f 46/27/10 24/9/10 107/11/12 41/28/12
f 44/31/42 22/4/4 23/7/7 45/25/34
f 112/5/5 22/4/4 26/29/38 12/5/43
f 3/2/44 31/1/1 32/32/45 7/13/46
f 5/14/31 33/23/10 159/33/12 106/34/12
f 1/34/47 38/33/48 160/35/49 122/34/47
f 133/36/22 161/37/22 35/20/22 15/2/22
f 9/34/50 39/35/51 40/38/51 13/34/50
f 141/13/28 140/39/28 37/24/28 17/14/28
f 7/13/46 32/32/45 36/39/52 19/13/53
f 46/27/10 33/23/10 149/24/32 158/27/32
f 47/40/54 34/3/3 139/20/25 156/31/55
f 44/31/42 31/1/1 34/3/3 47/40/54
f 22/4/4 44/31/42 47/40/54 26/29/38
f 26/29/38 47/40/54 156/31/55 28/4/39
f 24/9/10 46/27/10 158/27/32 30/9/32
f 31/1/1 44/31/42 45/25/34 32/32/45
f 33/23/10 46/27/10 41/28/12 159/33/12
f 38/33/48 150/28/40 42/28/41 160/35/49
f 161/37/22 43/30/22 48/31/22 35/20/22
f 39/35/51 151/28/36 152/28/36 40/38/51
f 140/39/28 157/26/28 50/27/28 37/24/28
f 32/32/45 45/25/34 49/26/35 36/39/52
f 81/1/56 84/3/57 179/2/58 163/2/58
f 72/4/59 73/7/60 175/6/61 173/5/62
f 58/6/63 206/6/64 208/8/64 177/8/63
f 74/9/65 168/11/12 169/10/12 56/8/66
f 162/12/67 165/15/67 176/14/68 174/13/68
f 58/6/63 177/8/63 170/17/69 172/16/69
f 186/17/16 197/17/16 198/16/16 188/16/16
f 71/11/70 184/11/71 185/10/72 171/10/72
f 52/17/73 187/17/73 189/16/73 54/16/73
f 164/12/74 178/12/74 181/15/74 166/15/74
f 195/18/28 214/4/28 199/5/28 196/19/28
f 180/12/23 191/12/23 193/15/23 182/15/23
f 84/3/57 200/20/25 192/2/24 61/2/24
f 75/11/26 77/21/26 64/10/27 60/10/27
f 215/22/22 216/9/22 209/8/22 207/6/22
f 73/7/60 79/22/75 70/6/76 175/6/61
f 83/23/65 210/24/77 205/14/77 55/14/78
f 176/14/68 204/14/79 203/13/79 174/13/68
f 56/8/66 68/8/77 80/9/77 74/9/65
f 95/25/80 99/26/81 79/22/75 73/7/60
f 218/26/22 100/27/22 216/9/22 215/22/22
f 212/28/36 213/28/36 77/21/26 75/11/26
f 190/5/37 66/5/37 78/4/39 76/29/82
f 93/30/28 98/31/28 214/4/28 195/18/28
f 211/28/83 92/28/84 184/11/71 71/11/70
f 96/27/65 91/28/12 168/11/12 74/9/65
f 94/31/85 95/25/80 73/7/60 72/4/59
f 173/5/62 62/5/86 76/29/82 72/4/59
f 53/2/87 57/13/88 82/32/89 81/1/56
f 55/14/78 167/34/12 220/33/12 83/23/65
f 51/34/90 183/34/90 221/35/91 88/33/92
f 194/36/28 65/2/28 85/20/28 222/37/28
f 59/34/50 63/34/50 90/38/51 89/35/51
f 202/13/22 67/14/22 87/24/22 201/39/22
f 57/13/88 69/13/93 86/39/94 82/32/89
f 96/27/65 219/27/77 210/24/77 83/23/65
f 97/40/95 217/31/55 200/20/25 84/3/57
f 94/31/85 97/40/95 84/3/57 81/1/56
f 72/4/59 76/29/82 97/40/95 94/31/85
f 76/29/82 78/4/39 217/31/55 97/40/95
f 74/9/65 80/9/77 219/27/77 96/27/65
f 81/1/56 82/32/89 95/25/80 94/31/85
f 83/23/65 220/33/12 91/28/12 96/27/65
f 88/33/92 221/35/91 92/28/84 211/28/83
f 222/37/28 85/20/28 98/31/28 93/30/28
f 89/35/51 90/38/51 213/28/36 212/28/36
f 201/39/22 87/24/22 100/27/22 218/26/22
f 82/32/89 86/39/94 99/26/81 95/25/80
o Plane
v 0.632449 -0.754084 -3.792680
v -0.634443 -0.745549 -3.792680
v 0.634551 -0.442090 -3.833405
v -0.632341 -0.433555 -3.833405
v -0.657555 -0.388659 -3.676930
v 0.660368 -0.397538 -3.676930
v -0.659979 -0.748439 -3.629967
v 0.657944 -0.757318 -3.629967
v -0.632363 -0.436841 -3.858576
v -0.657711 -0.411703 -3.853476
v 0.634529 -0.445376 -3.858576
v 0.660213 -0.420581 -3.853476
v -0.660134 -0.771483 -3.806513
v -0.634465 -0.748834 -3.817851
v 0.632427 -0.757369 -3.817851
v 0.657789 -0.780362 -3.806513
vn 0.0067 0.9916 -0.1294
vn 0.0009 0.1294 0.9916
vn -0.0067 -0.9916 0.1294
vn 1.0000 -0.0067 -0.0000
vn -0.3098 -0.1210 -0.9431
vn 0.0013 0.2002 -0.9798
vn 0.3081 -0.1252 -0.9431
vn -0.0030 -0.4449 -0.8956
vn -1.0000 0.0067 -0.0000
vt 0.000000 0.000000
vt 1.000000 0.000000
vt 0.000000 1.000000
vt 1.000000 1.000000
vt 0.022845 0.022845
vt 0.022845 0.977155
vt 0.977155 0.022845
vt 0.977155 0.977155
s 0
f 232/41/96 227/41/96 228/42/96 234/42/96
f 227/41/97 229/43/97 230/44/97 228/42/97
f 238/44/98 230/44/98 229/43/98 235/43/98
f 231/45/99 226/45/99 224/46/99 236/46/99
f 234/42/99 228/42/99 230/44/99 238/44/99
f 236/46/100 235/43/100 232/41/100 231/45/100
f 231/45/101 232/41/101 234/42/101 233/47/101
f 233/47/102 234/42/102 238/44/102 237/48/102
f 237/48/103 238/44/103 235/43/103 236/46/103
f 235/43/104 229/43/104 227/41/104 232/41/104
f 236/46/96 224/46/96 223/48/96 237/48/96
f 233/47/98 225/47/98 226/45/98 231/45/98
f 237/48/104 223/48/104 225/47/104 233/47/104
o CarDark
v 1.040811 -0.444141 -2.136933
v 1.036072 -0.215799 -2.844271
v 1.039127 -0.456042 -3.230177
v 0.996066 -0.134647 2.441561
v 1.039754 -1.102057 -1.917305
v 1.047317 -0.964531 3.125486
v 1.036641 -0.739376 1.905417
v 1.043535 -0.773099 -2.027119
v 1.592205 -0.457682 -0.977382
v 1.592205 -0.457682 0.231309
v 1.591500 -0.472532 1.439999
v 1.578897 -0.473889 1.871758
v 1.558586 -0.540625 -3.456827
v 1.572667 -0.465741 -1.976225
v 1.592205 -0.457887 -1.071874
v 1.568847 -0.464229 -2.131237
v 1.558416 -0.299825 -2.368156
v 1.554767 -0.219132 -2.612667
v 1.554627 -0.221647 -2.843838
v 1.553360 -0.299317 -3.063051
v 1.564062 -0.461890 -3.228380
v 1.592205 -0.594434 3.156245
v 1.571242 -0.473113 1.968873
v 1.524911 -0.200340 2.244960
v 1.514290 -0.146283 2.441561
v 1.521619 -0.156516 2.659604
v 1.535342 -0.246512 2.884147
v 1.561859 -0.430811 3.071035
v 1.592205 -0.604277 3.441690
v 1.565076 -0.570713 3.641064
v 1.529858 -0.369016 3.628054
v 0.000000 -0.546443 3.641064
v 1.535132 -0.343865 -3.479441
v 1.556232 -0.320712 1.858528
v 1.553527 -0.553394 -3.650718
v 1.592205 -0.321127 -0.992427
v 1.592205 -0.325641 0.231309
v 1.583054 -0.316484 1.424312
v 1.560547 -0.331184 -1.996124
v 1.592205 -0.322470 -1.092604
v 1.555679 -0.322087 -2.112180
v 1.539910 -0.159869 -2.317734
v 1.537405 -0.085781 -2.588064
v 1.537054 -0.088397 -2.843880
v 1.539608 -0.171144 -3.067975
v 1.550183 -0.315268 -3.235512
v 1.546837 -0.355255 3.175882
v 1.521418 -0.209800 2.061779
v 1.496127 -0.099301 2.256535
v 1.490171 -0.051427 2.442357
v 1.497010 -0.064071 2.660676
v 1.513425 -0.135111 2.887459
v 1.532441 -0.262034 3.064418
v 1.526024 -0.362749 3.452420
v 1.567863 -0.538716 -3.299600
v 1.543880 -0.335440 -3.369368
v 0.000000 -0.536306 -3.734107
v 1.524838 -0.349046 -3.656379
v 1.596225 -0.522209 -3.696486
v 0.000000 -0.497910 -3.816220
v 1.582794 -0.375402 -3.728798
v 0.000000 -0.362700 -3.852906
v 0.000000 -0.331958 -3.783682
v 1.616551 -0.525442 3.673173
v 0.000000 -0.508699 3.696386
v 1.585520 -0.394717 3.660163
v 0.000000 -0.343411 3.683376
v 1.580707 -1.041776 -0.864185
v 1.580707 -1.033574 0.233564
v 1.580707 -1.064743 1.331312
v 1.580707 -1.114352 1.724938
v 0.000000 -1.097264 1.724938
v 0.000000 -1.024688 -0.864185
v 0.000000 -1.016485 0.233564
v 0.000000 -1.047654 1.331312
v 1.580707 -1.115113 -1.771347
v 0.000000 -1.098024 -1.771347
v 0.000000 -1.024893 -0.950004
v 1.580707 -1.041981 -0.950004
v 1.580707 -1.107905 -1.917305
v 0.000000 -1.090816 -1.917305
v 0.000000 -1.058118 1.826072
v 1.580707 -1.075206 1.826072
v 1.592205 -0.970379 3.125486
v 0.000000 -0.953290 3.125486
v 1.592205 -0.980222 3.410931
v 1.565076 -0.909064 3.555622
v 0.000000 -0.963133 3.410931
v 0.000000 -0.884794 3.555622
v 1.582937 -0.918054 -3.414532
v 0.000000 -0.900966 -3.414706
v 1.581319 -0.916583 -3.549368
v 1.584755 -0.916145 -3.285964
v 0.000000 -0.899057 -3.285978
v 0.000000 -0.899495 -3.623843
v 1.641115 -0.428689 0.231661
v 1.641115 -0.428689 -0.977030
v 1.640411 -0.443539 1.440351
v 1.586975 -0.364086 -3.481209
v 1.604940 -0.511631 -3.456244
v 1.614886 -0.509722 -3.299082
v 1.605143 -0.340933 1.858880
v 1.627807 -0.444896 1.872110
v 1.641115 -0.341348 -0.992075
v 1.641115 -0.345862 0.231661
v 1.631964 -0.336705 1.424664
v 1.641115 -0.428894 -1.071522
v 1.619410 -0.436748 -1.975873
v 1.611748 -0.351405 -1.995772
v 1.641115 -0.342692 -1.092252
v 1.615209 -0.435236 -2.130885
v 1.607248 -0.342308 -2.111828
v 1.604777 -0.270831 -2.367804
v 1.591745 -0.180090 -2.317382
v 1.600575 -0.190139 -2.612315
v 1.589819 -0.106002 -2.587712
v 1.600434 -0.192654 -2.843563
v 1.589494 -0.108618 -2.843707
v 1.599699 -0.270323 -3.062848
v 1.591147 -0.191365 -3.068287
v 1.610432 -0.432896 -3.227972
v 1.601693 -0.335489 -3.236279
v 1.595748 -0.375476 3.176234
v 1.641115 -0.565440 3.156597
v 1.610769 -0.401817 3.071388
v 1.620153 -0.444120 1.969225
v 1.573358 -0.168917 2.254392
v 1.563200 -0.117290 2.441914
v 1.570530 -0.127523 2.659956
v 1.584252 -0.217518 2.884499
v 1.570328 -0.230021 2.062131
v 1.545038 -0.119522 2.256887
v 1.539081 -0.071649 2.442709
v 1.545921 -0.084293 2.661028
v 1.562335 -0.155333 2.887811
v 1.581352 -0.282255 3.064770
v 1.574935 -0.382970 3.452772
v 1.641115 -0.575283 3.442042
v 1.595487 -0.355661 -3.370727
v 1.035829 -0.547546 -3.692495
v 1.037285 -0.293977 -2.368156
v 1.036115 -0.213284 -2.612667
v 1.035707 -0.301710 -3.078066
v 1.047317 -0.588586 3.156245
v 1.033528 -0.409394 1.984761
v 1.003550 -0.196005 2.218597
v 1.000888 -0.144535 2.659604
v 1.009913 -0.240457 2.897332
v 1.027356 -0.427159 3.080925
v 0.724982 -0.351342 3.628054
v 0.718913 -0.557591 3.641064
v 1.040480 -0.532867 -3.301300
v 1.063640 -0.510105 -3.735810
v 1.061137 -0.371055 -3.770639
v 1.029599 -0.343198 -3.700927
v 0.742558 -0.527693 3.685724
v 0.728304 -0.355675 3.672713
v 1.039754 -1.108504 1.724938
v 1.039754 -1.035928 -0.864185
v 1.039754 -1.027725 0.233564
v 1.039754 -1.058895 1.331312
v 1.039754 -1.109265 -1.771347
v 1.039754 -1.036133 -0.950004
v 1.039754 -1.069358 1.826072
v 0.764663 -0.971340 3.410931
v 0.729789 -0.896111 3.555622
v 1.044241 -0.912206 -3.414676
v 1.043806 -0.910735 -3.588794
v 1.044588 -0.910297 -3.285978
v 1.584147 -0.778947 -2.027119
v 1.575975 -0.745758 1.905417
v 0.000000 -0.335424 3.628054
v 0.000000 -0.148932 3.571783
v 0.785754 -0.173190 3.571783
v 0.000000 -0.089022 3.535803
v 0.824782 -0.104494 3.530024
v -1.040811 -0.444141 -2.136933
v -1.036072 -0.215799 -2.844271
v -1.039127 -0.456042 -3.230177
v -0.996066 -0.134647 2.441561
v -1.039754 -1.102057 -1.917305
v -1.047317 -0.964531 3.125486
v -1.036641 -0.739376 1.905417
v -1.043535 -0.773099 -2.027119
v -1.592205 -0.457682 -0.977382
v -1.592205 -0.457682 0.231309
v -1.591500 -0.472532 1.439999
v -1.578897 -0.473889 1.871758
v -1.558586 -0.540625 -3.456827
v -1.572667 -0.465741 -1.976225
v -1.592205 -0.457887 -1.071874
v -1.568847 -0.464229 -2.131237
v -1.558416 -0.299825 -2.368156
v -1.554767 -0.219132 -2.612667
v -1.554627 -0.221647 -2.843838
v -1.553360 -0.299317 -3.063051
v -1.564062 -0.461890 -3.228380
v -1.592205 -0.594434 3.156245
v -1.571242 -0.473113 1.968873
v -1.524911 -0.200340 2.244960
v -1.514290 -0.146283 2.441561
v -1.521619 -0.156516 2.659604
v -1.535342 -0.246512 2.884147
v -1.561859 -0.430811 3.071035
v -1.592205 -0.604277 3.441690
v -1.565076 -0.570713 3.641064
v -1.529858 -0.369016 3.628054
v -1.535132 -0.343865 -3.479441
v -1.556232 -0.320712 1.858528
v -1.553527 -0.553394 -3.650718
v -1.592205 -0.321127 -0.992427
v -1.592205 -0.325641 0.231309
v -1.583054 -0.316484 1.424312
v -1.560547 -0.331184 -1.996124
v -1.592205 -0.322470 -1.092604
v -1.555679 -0.322087 -2.112180
v -1.539910 -0.159869 -2.317734
v -1.537405 -0.085781 -2.588064
v -1.537054 -0.088397 -2.843880
v -1.539608 -0.171144 -3.067975
v -1.550183 -0.315268 -3.235512
v -1.546837 -0.355255 3.175882
v -1.521418 -0.209800 2.061779
v -1.496127 -0.099301 2.256535
v -1.490171 -0.051427 2.442357
v -1.497010 -0.064071 2.660676
v -1.513425 -0.135111 2.887459
v -1.532441 -0.262034 3.064418
v -1.526024 -0.362749 3.452420
v -1.567863 -0.538716 -3.299600
v -1.543880 -0.335440 -3.369368
v -1.524838 -0.349046 -3.656379
v -1.596225 -0.522209 -3.696486
v -1.582794 -0.375402 -3.728798
v -1.616551 -0.525442 3.673173
v -1.585520 -0.394717 3.660163
v -1.580707 -1.041776 -0.864185
v -1.580707 -1.033574 0.233564
v -1.580707 -1.064743 1.331312
v -1.580707 -1.114352 1.724938
v -1.580707 -1.115113 -1.771347
v -1.580707 -1.041981 -0.950004
v -1.580707 -1.107905 -1.917305
v -1.580707 -1.075206 1.826072
v -1.592205 -0.970379 3.125486
v -1.592205 -0.980222 3.410931
v -1.565076 -0.909064 3.555622
v -1.582937 -0.918054 -3.414532
v -1.581319 -0.916583 -3.549368
v -1.584755 -0.916145 -3.285964
v -1.641115 -0.428689 0.231661
v -1.641115 -0.428689 -0.977030
v -1.640411 -0.443539 1.440351
v -1.586975 -0.364086 -3.481209
v -1.604940 -0.511631 -3.456244
v -1.614886 -0.509722 -3.299082
v -1.605143 -0.340933 1.858880
v -1.627807 -0.444896 1.872110
v -1.641115 -0.341348 -0.992075
v -1.641115 -0.345862 0.231661
v -1.631964 -0.336705 1.424664
v -1.641115 -0.428894 -1.071522
v -1.619410 -0.436748 -1.975873
v -1.611748 -0.351405 -1.995772
v -1.641115 -0.342692 -1.092252
v -1.615209 -0.435236 -2.130885
v -1.607248 -0.342308 -2.111828
v -1.604777 -0.270831 -2.367804
v -1.591745 -0.180090 -2.317382
v -1.600575 -0.190139 -2.612315
v -1.589819 -0.106002 -2.587712
v -1.600434 -0.192654 -2.843563
v -1.589494 -0.108618 -2.843707
v -1.599699 -0.270323 -3.062848
v -1.591147 -0.191365 -3.068287
v -1.610432 -0.432896 -3.227972
v -1.601693 -0.335489 -3.236279
v -1.595748 -0.375476 3.176234
v -1.641115 -0.565440 3.156597
v -1.610769 -0.401817 3.071388
v -1.620153 -0.444120 1.969225
v -1.573358 -0.168917 2.254392
v -1.563200 -0.117290 2.441914
v -1.570530 -0.127523 2.659956
v -1.584252 -0.217518 2.884499
v -1.570328 -0.230021 2.062131
v -1.545038 -0.119522 2.256887
v -1.539081 -0.071649 2.442709
v -1.545921 -0.084293 2.661028
v -1.562335 -0.155333 2.887811
v -1.581352 -0.282255 3.064770
v -1.574935 -0.382970 3.452772
v -1.641115 -0.575283 3.442042
v -1.595487 -0.355661 -3.370727
v -1.035829 -0.547546 -3.692495
v -1.037285 -0.293977 -2.368156
v -1.036115 -0.213284 -2.612667
v -1.035707 -0.301710 -3.078066
v -1.047317 -0.588586 3.156245
v -1.033528 -0.409394 1.984761
v -1.003550 -0.196005 2.218597
v -1.000888 -0.144535 2.659604
v -1.009913 -0.240457 2.897332
v -1.027356 -0.427159 3.080925
v -0.724982 -0.351342 3.628054
v -0.718913 -0.557591 3.641064
v -1.040480 -0.532867 -3.301300
v -1.063640 -0.510105 -3.735810
v -1.061137 -0.371055 -3.770639
v -1.029599 -0.343198 -3.700927
v -0.742558 -0.527693 3.685724
v -0.728304 -0.355675 3.672713
v -1.039754 -1.108504 1.724938
v -1.039754 -1.035928 -0.864185
v -1.039754 -1.027725 0.233564
v -1.039754 -1.058895 1.331312
v -1.039754 -1.109265 -1.771347
v -1.039754 -1.036133 -0.950004
v -1.039754 -1.069358 1.826072
v -0.764663 -0.971340 3.410931
v -0.729789 -0.896111 3.555622
v -1.044241 -0.912206 -3.414676
v -1.043806 -0.910735 -3.588794
v -1.044588 -0.910297 -3.285978
v -1.584147 -0.778947 -2.027119
v -1.575975 -0.745758 1.905417
v -0.785754 -0.173190 3.571783
v -0.824782 -0.104494 3.530024
v 1.043535 -0.773099 -2.027119
v 1.039754 -1.102057 -1.917305
v 1.039754 -1.102057 -1.917305
v 1.040811 -0.444141 -2.136933
v 1.040811 -0.444141 -2.136933
v 1.567863 -0.538716 -3.299600
v 1.567863 -0.538716 -3.299600
v 1.567863 -0.538716 -3.299600
v 1.558586 -0.540625 -3.456827
v 1.615209 -0.435236 -2.130885
v 1.615209 -0.435236 -2.130885
v 1.568847 -0.464229 -2.131237
v 1.568847 -0.464229 -2.131237
v 1.035829 -0.547546 -3.692495
v 0.000000 -0.536306 -3.734107
v 1.641115 -0.565440 3.156597
v 1.641115 -0.565440 3.156597
v 1.592205 -0.594434 3.156245
v 1.592205 -0.594434 3.156245
v 1.592205 -0.594434 3.156245
v 1.554767 -0.219132 -2.612667
v 1.554627 -0.221647 -2.843838
v 1.047317 -0.588586 3.156245
v 1.047317 -0.588586 3.156245
v 1.514290 -0.146283 2.441561
v 1.614886 -0.509722 -3.299082
v 1.614886 -0.509722 -3.299082
v 1.546837 -0.355255 3.175882
v 1.595748 -0.375476 3.176234
v 1.595748 -0.375476 3.176234
v 1.592205 -0.604277 3.441690
v 1.565076 -0.570713 3.641064
v 1.565076 -0.570713 3.641064
v 1.565076 -0.570713 3.641064
v 1.565076 -0.570713 3.641064
v 1.592205 -0.970379 3.125486
v 1.592205 -0.970379 3.125486
v 0.718913 -0.557591 3.641064
v 1.553527 -0.553394 -3.650718
v 1.553527 -0.553394 -3.650718
v 1.553527 -0.553394 -3.650718
v 1.063640 -0.510105 -3.735810
v 0.000000 -0.497910 -3.816220
v 1.582794 -0.375402 -3.728798
v 1.582794 -0.375402 -3.728798
v 1.596225 -0.522209 -3.696486
v 1.596225 -0.522209 -3.696486
v 1.596225 -0.522209 -3.696486
v 1.061137 -0.371055 -3.770639
v 0.000000 -0.362700 -3.852906
v 1.585520 -0.394717 3.660163
v 1.585520 -0.394717 3.660163
v 1.585520 -0.394717 3.660163
v 1.585520 -0.394717 3.660163
v 1.616551 -0.525442 3.673173
v 1.616551 -0.525442 3.673173
v 1.616551 -0.525442 3.673173
v 1.616551 -0.525442 3.673173
v 0.000000 -0.343411 3.683376
v 0.000000 -0.343411 3.683376
v 0.000000 -0.343411 3.683376
v 0.000000 -0.343411 3.683376
v 0.000000 -0.508699 3.696386
v 0.000000 -0.508699 3.696386
v 0.000000 -0.508699 3.696386
v 0.000000 -0.508699 3.696386
v 0.742558 -0.527693 3.685724
v 0.728304 -0.355675 3.672713
v 0.000000 -0.546443 3.641064
v 0.000000 -0.546443 3.641064
v 0.000000 -0.546443 3.641064
v 1.529858 -0.369016 3.628054
v 1.529858 -0.369016 3.628054
v 1.592205 -0.980222 3.410931
v 1.565076 -0.909064 3.555622
v 1.565076 -0.909064 3.555622
v 0.729789 -0.896111 3.555622
v 1.584755 -0.916145 -3.285964
v 1.584755 -0.916145 -3.285964
v 1.582937 -0.918054 -3.414532
v 1.043806 -0.910735 -3.588794
v 0.000000 -0.899495 -3.623843
v 1.581319 -0.916583 -3.549368
v 1.581319 -0.916583 -3.549368
v 1.641115 -0.428689 0.231661
v 1.641115 -0.428689 -0.977030
v 1.640411 -0.443539 1.440351
v 1.604940 -0.511631 -3.456244
v 1.627807 -0.444896 1.872110
v 1.641115 -0.428894 -1.071522
v 1.619410 -0.436748 -1.975873
v 1.604777 -0.270831 -2.367804
v 1.600575 -0.190139 -2.612315
v 1.600434 -0.192654 -2.843563
v 1.599699 -0.270323 -3.062848
v 1.610432 -0.432896 -3.227972
v 1.610769 -0.401817 3.071388
v 1.620153 -0.444120 1.969225
v 1.620153 -0.444120 1.969225
v 1.573358 -0.168917 2.254392
v 1.563200 -0.117290 2.441914
v 1.570530 -0.127523 2.659956
v 1.584252 -0.217518 2.884499
v 1.641115 -0.575283 3.442042
v 1.586975 -0.364086 -3.481209
v 1.574935 -0.382970 3.452772
v 1.562335 -0.155333 2.887811
v 1.581352 -0.282255 3.064770
v 1.545921 -0.084293 2.661028
v 1.539081 -0.071649 2.442709
v 1.545038 -0.119522 2.256887
v 1.570328 -0.230021 2.062131
v 1.605143 -0.340933 1.858880
v 1.595487 -0.355661 -3.370727
v 1.601693 -0.335489 -3.236279
v 1.591147 -0.191365 -3.068287
v 1.589494 -0.108618 -2.843707
v 1.589819 -0.106002 -2.587712
v 1.591745 -0.180090 -2.317382
v 1.607248 -0.342308 -2.111828
v 1.607248 -0.342308 -2.111828
v 1.611748 -0.351405 -1.995772
v 1.641115 -0.342692 -1.092252
v 1.641115 -0.345862 0.231661
v 1.631964 -0.336705 1.424664
v 1.641115 -0.341348 -0.992075
v 1.571242 -0.473113 1.968873
v 1.571242 -0.473113 1.968873
v 1.555679 -0.322087 -2.112180
v 1.033528 -0.409394 1.984761
v 1.033528 -0.409394 1.984761
v 1.040480 -0.532867 -3.301300
v 1.040480 -0.532867 -3.301300
v 1.580707 -1.075206 1.826072
v 1.039754 -1.069358 1.826072
v 1.039754 -1.069358 1.826072
v 0.000000 -0.884794 3.555622
v 1.044588 -0.910297 -3.285978
v 1.044588 -0.910297 -3.285978
v 1.009913 -0.240457 2.897332
v 1.027356 -0.427159 3.080925
v 1.000888 -0.144535 2.659604
v 1.003550 -0.196005 2.218597
v 1.036115 -0.213284 -2.612667
v 1.037285 -0.293977 -2.368156
v 0.724982 -0.351342 3.628054
v 0.000000 -0.335424 3.628054
v 0.000000 -0.335424 3.628054
v 0.000000 -0.335424 3.628054
v 1.036641 -0.739376 1.905417
v 1.047317 -0.964531 3.125486
v 1.047317 -0.964531 3.125486
v 0.996066 -0.134647 2.441561
v 1.039127 -0.456042 -3.230177
v 1.035707 -0.301710 -3.078066
v 1.036072 -0.215799 -2.844271
v 1.580707 -1.107905 -1.917305
v -1.043535 -0.773099 -2.027119
v -1.039754 -1.102057 -1.917305
v -1.039754 -1.102057 -1.917305
v -1.040811 -0.444141 -2.136933
v -1.040811 -0.444141 -2.136933
v -1.567863 -0.538716 -3.299600
v -1.567863 -0.538716 -3.299600
v -1.567863 -0.538716 -3.299600
v -1.558586 -0.540625 -3.456827
v -1.615209 -0.435236 -2.130885
v -1.615209 -0.435236 -2.130885
v -1.568847 -0.464229 -2.131237
v -1.568847 -0.464229 -2.131237
v -1.035829 -0.547546 -3.692495
v -1.641115 -0.565440 3.156597
v -1.641115 -0.565440 3.156597
v -1.592205 -0.594434 3.156245
v -1.592205 -0.594434 3.156245
v -1.592205 -0.594434 3.156245
v -1.554767 -0.219132 -2.612667
v -1.554627 -0.221647 -2.843838
v -1.047317 -0.588586 3.156245
v -1.047317 -0.588586 3.156245
v -1.514290 -0.146283 2.441561
v -1.614886 -0.509722 -3.299082
v -1.614886 -0.509722 -3.299082
v -1.546837 -0.355255 3.175882
v -1.595748 -0.375476 3.176234
v -1.595748 -0.375476 3.176234
v -1.592205 -0.604277 3.441690
v -1.565076 -0.570713 3.641064
v -1.565076 -0.570713 3.641064
v -1.565076 -0.570713 3.641064
v -1.565076 -0.570713 3.641064
v -1.592205 -0.970379 3.125486
v -1.592205 -0.970379 3.125486
v -0.718913 -0.557591 3.641064
v -1.553527 -0.553394 -3.650718
v -1.553527 -0.553394 -3.650718
v -1.553527 -0.553394 -3.650718
v -1.063640 -0.510105 -3.735810
v -1.582794 -0.375402 -3.728798
v -1.582794 -0.375402 -3.728798
v -1.596225 -0.522209 -3.696486
v -1.596225 -0.522209 -3.696486
v -1.596225 -0.522209 -3.696486
v -1.061137 -0.371055 -3.770639
v -1.585520 -0.394717 3.660163
v -1.585520 -0.394717 3.660163
v -1.585520 -0.394717 3.660163
v -1.585520 -0.394717 3.660163
v -1.616551 -0.525442 3.673173
v -1.616551 -0.525442 3.673173
v -1.616551 -0.525442 3.673173
v -1.616551 -0.525442 3.673173
v -0.742558 -0.527693 3.685724
v -0.728304 -0.355675 3.672713
v -1.529858 -0.369016 3.628054
v -1.529858 -0.369016 3.628054
v -1.592205 -0.980222 3.410931
v -1.565076 -0.909064 3.555622
v -1.565076 -0.909064 3.555622
v -0.729789 -0.896111 3.555622
v -1.584755 -0.916145 -3.285964
v -1.584755 -0.916145 -3.285964
v -1.582937 -0.918054 -3.414532
v -1.043806 -0.910735 -3.588794
v -1.581319 -0.916583 -3.549368
v -1.581319 -0.916583 -3.549368
v -1.641115 -0.428689 0.231661
v -1.641115 -0.428689 -0.977030
v -1.640411 -0.443539 1.440351
v -1.604940 -0.511631 -3.456244
v -1.627807 -0.444896 1.872110
v -1.641115 -0.428894 -1.071522
v -1.619410 -0.436748 -1.975873
v -1.604777 -0.270831 -2.367804
v -1.600575 -0.190139 -2.612315
v -1.600434 -0.192654 -2.843563
v -1.599699 -0.270323 -3.062848
v -1.610432 -0.432896 -3.227972
v -1.610769 -0.401817 3.071388
v -1.620153 -0.444120 1.969225
v -1.620153 -0.444120 1.969225
v -1.573358 -0.168917 2.254392
v -1.563200 -0.117290 2.441914
v -1.570530 -0.127523 2.659956
v -1.584252 -0.217518 2.884499
v -1.641115 -0.575283 3.442042
v -1.586975 -0.364086 -3.481209
v -1.574935 -0.382970 3.452772
v -1.562335 -0.155333 2.887811
v -1.581352 -0.282255 3.064770
v -1.545921 -0.084293 2.661028
v -1.539081 -0.071649 2.442709
v -1.545038 -0.119522 2.256887
v -1.570328 -0.230021 2.062131
v -1.605143 -0.340933 1.858880
v -1.595487 -0.355661 -3.370727
v -1.601693 -0.335489 -3.236279
v -1.591147 -0.191365 -3.068287
v -1.589494 -0.108618 -2.843707
v -1.589819 -0.106002 -2.587712
v -1.591745 -0.180090 -2.317382
v -1.607248 -0.342308 -2.111828
v -1.607248 -0.342308 -2.111828
v -1.611748 -0.351405 -1.995772
v -1.641115 -0.342692 -1.092252
v -1.641115 -0.345862 0.231661
v -1.631964 -0.336705 1.424664
v -1.641115 -0.341348 -0.992075
v -1.571242 -0.473113 1.968873
v -1.571242 -0.473113 1.968873
v -1.555679 -0.322087 -2.112180
v -1.033528 -0.409394 1.984761
v -1.033528 -0.409394 1.984761
v -1.040480 -0.532867 -3.301300
v -1.040480 -0.532867 -3.301300
v -1.580707 -1.075206 1.826072
v -1.039754 -1.069358 1.826072
v -1.039754 -1.069358 1.826072
v -1.044588 -0.910297 -3.285978
v -1.044588 -0.910297 -3.285978
v -1.009913 -0.240457 2.897332
v -1.027356 -0.427159 3.080925
v -1.000888 -0.144535 2.659604
v -1.003550 -0.196005 2.218597
v -1.036115 -0.213284 -2.612667
v -1.037285 -0.293977 -2.368156
v -0.724982 -0.351342 3.628054
v -1.036641 -0.739376 1.905417
v -1.047317 -0.964531 3.125486
v -1.047317 -0.964531 3.125486
v -0.996066 -0.134647 2.441561
v -1.039127 -0.456042 -3.230177
v -1.035707 -0.301710 -3.078066
v -1.036072 -0.215799 -2.844271
v -1.580707 -1.107905 -1.917305
vn 0.9999 0.0129 -0.0013
vn 0.9999 0.0130 -0.0013
vn 0.9998 0.0201 -0.0020
vn 0.9998 0.0203 -0.0020
vn 1.0000 0.0047 -0.0018
vn 1.0000 0.0038 0.0002
vn 1.0000 0.0046 -0.0000
vn 1.0000 0.0006 0.0008
vn 0.9946 0.1038 -0.0061
vn 0.9933 0.1156 0.0028
vn 0.9933 0.1155 0.0027
vn 0.9978 0.0666 -0.0022
vn 0.9977 0.0679 -0.0020
vn 0.9997 0.0254 -0.0062
vn 0.9997 0.0216 -0.0065
vn 1.0000 0.0056 -0.0077
vn 0.9978 0.0591 -0.0306
vn 0.9979 0.0516 -0.0394
vn 0.9978 0.0582 -0.0316
vn -0.0030 -0.3160 -0.9487
vn -0.0034 -0.3166 -0.9485
vn -0.0142 -0.8987 -0.4383
vn 0.2475 -0.8608 -0.4448
vn 0.2081 -0.8040 -0.5571
vn -0.0175 -0.8301 -0.5573
vn -0.0111 -0.9882 -0.1529
vn -0.0111 -0.9880 -0.1542
vn -0.0099 -0.9840 0.1777
vn -0.0099 -0.9841 0.1776
vn -0.0113 -0.8429 0.5380
vn 0.2320 -0.8097 0.5391
vn -0.0119 -0.6942 0.7197
vn 0.1916 -0.6742 0.7132
vn -0.0100 -0.6797 0.7334
vn 0.1636 -0.6656 0.7281
vn -0.0175 -0.5910 -0.8065
vn 0.1462 -0.5480 -0.8236
vn 0.1130 -0.4320 -0.8948
vn -0.0121 -0.4443 -0.8958
vn -0.0535 -0.7267 0.6849
vn 0.1393 -0.7010 0.6994
vn 0.1918 -0.8277 0.5274
vn -0.0384 -0.8733 0.4857
vn -0.0224 -0.9935 0.1119
vn -0.0224 -0.9937 0.1100
vn 0.2531 -0.9414 -0.2229
vn -0.0220 -0.9778 -0.2082
vn 0.2134 -0.7963 -0.5660
vn -0.0217 -0.8373 -0.5462
vn 0.0009 0.0815 -0.9967
vn -0.5092 -0.0342 0.8600
vn 0.3307 0.8567 0.3957
vn 0.2937 0.7611 0.5783
vn 0.3236 0.8382 0.4389
vn 0.3323 -0.6467 0.6865
vn 0.4422 -0.7833 0.4369
vn 0.3893 -0.6326 0.6695
vn 0.4735 -0.7583 0.4481
vn 0.3577 0.9269 0.1137
vn 0.3573 0.9259 0.1229
vn 0.5291 -0.8368 -0.1411
vn 0.5265 -0.8356 0.1570
vn 0.5281 -0.8377 0.1392
vn 0.5300 -0.8382 -0.1286
vn 0.3610 0.9296 -0.0736
vn 0.3590 0.9246 -0.1273
vn 0.3590 0.9247 -0.1270
vn 0.5091 -0.8594 0.0470
vn 0.5095 -0.8599 0.0300
vn 0.5096 -0.8599 0.0292
vn 0.4927 -0.7803 -0.3852
vn 0.4554 -0.7219 -0.5210
vn 0.3562 0.9204 -0.1614
vn 0.3555 0.9183 -0.1744
vn 0.3307 -0.5485 -0.7680
vn 0.2496 -0.4104 -0.8771
vn 0.3214 0.8313 -0.4535
vn 0.3130 0.8110 -0.4943
vn 0.3270 0.8466 -0.4199
vn 0.3350 0.8662 -0.3708
vn 0.5276 -0.8492 -0.0219
vn 0.5494 -0.8355 0.0031
vn 0.5476 -0.8367 0.0011
vn 0.2138 0.9585 -0.1886
vn 0.1777 0.9591 -0.2203
vn 0.3771 -0.6184 0.6895
vn 0.5688 -0.8221 0.0262
vn 0.3151 0.7718 0.5523
vn 0.3056 0.7494 0.5873
vn 0.3119 0.7642 0.5645
vn 0.9976 0.0659 -0.0225
vn 0.3746 0.9025 -0.2126
vn 0.3498 0.8388 -0.4172
vn 0.3507 0.8410 -0.4120
vn 0.3781 0.9117 -0.1606
vn 0.0248 -0.8384 -0.5445
vn -0.0000 -0.8577 -0.5141
vn 0.0277 -0.8251 -0.5644
vn 0.3819 0.9241 0.0145
vn 0.3819 0.9241 0.0139
vn 0.0714 -0.2373 -0.9688
vn 0.0714 -0.2381 -0.9686
vn 0.0713 -0.2243 -0.9719
vn 0.0384 0.9311 -0.3628
vn 0.0382 0.9347 -0.3534
vn -0.0000 0.9245 -0.3811
vn 0.0162 0.0824 0.9965
vn 0.0161 0.0776 0.9969
vn 0.0162 0.0831 0.9964
vn -0.0080 -0.7881 0.6154
vn -0.0045 -0.7595 0.6504
vn -0.0129 -0.8268 0.5624
vn 0.0272 0.9734 0.2274
vn 0.0278 0.9711 0.2371
vn 0.0346 0.9395 0.3409
vn -1.0000 -0.0000 -0.0000
vn -0.0108 -0.9989 0.0456
vn -0.0108 -0.9999 0.0049
vn -0.0108 -0.9970 -0.0768
vn -0.0107 -0.9925 0.1215
vn -0.0107 -0.9925 0.1217
vn -0.0108 -0.9999 -0.0105
vn -0.0108 -0.9968 -0.0792
vn -0.0108 -0.9987 -0.0493
vn -0.0108 -0.9997 0.0197
vn -0.0101 -0.9325 0.3610
vn -0.0104 -0.9629 0.2697
vn -0.0107 -0.9999 0.0038
vn -0.0116 -0.9758 0.2184
vn -0.0000 -0.9745 0.2246
vn -0.0000 -0.9997 0.0230
vn -0.0116 -0.8880 0.4598
vn -0.0000 -0.8839 0.4677
vn 0.9862 -0.0266 0.1636
vn 0.9979 -0.0105 0.0642
vn 0.9959 -0.0145 0.0893
vn 1.0000 -0.0000 -0.0000
vn -0.0038 -0.2448 0.9696
vn -0.0107 -0.9999 0.0032
vn -0.0000 -1.0000 0.0036
vn -0.0000 -1.0000 -0.0077
vn -0.0106 -0.9999 -0.0085
vn -0.0107 -0.9999 0.0028
vn -0.0108 -0.9998 0.0149
vn -0.0108 -0.9993 -0.0364
vn 0.0511 -0.2752 -0.9600
vn 0.0710 -0.2678 -0.9609
vn 0.0522 -0.2748 -0.9601
vn 0.9591 0.2818 0.0269
vn 0.9589 0.2825 0.0246
vn 0.9576 0.2882 0.0055
vn 0.9630 0.2640 0.0543
vn 0.9659 0.2508 0.0650
vn 0.9427 0.3176 0.1022
vn 0.9302 0.3551 0.0930
vn 0.9596 0.2611 0.1045
vn 0.9669 0.2397 0.0878
vn 0.8986 0.4366 0.0439
vn 0.8946 0.4455 0.0346
vn 0.8743 0.4827 -0.0503
vn 0.8748 0.4825 -0.0442
vn 0.9188 0.3797 -0.1082
vn 0.8986 0.4271 -0.1008
vn 0.9734 0.2269 0.0314
vn 0.9510 0.2986 -0.0803
vn 0.9819 0.1816 0.0540
vn 0.9819 0.1818 0.0540
vn 0.9933 0.0970 -0.0625
vn 0.9931 0.0976 -0.0646
vn 0.9948 0.0951 -0.0361
vn 0.9945 0.0947 -0.0452
vn 0.9933 0.1101 -0.0351
vn 0.9942 0.1035 -0.0303
vn 0.9922 0.1235 -0.0189
vn 0.9922 0.1223 -0.0232
vn 0.9920 0.1259 0.0131
vn 0.9919 0.1263 0.0106
vn 0.9931 0.1148 0.0227
vn 0.9931 0.1153 0.0228
vn 0.9952 0.0975 -0.0020
vn 0.9954 0.0958 -0.0063
vn 0.9979 0.0589 -0.0286
vn 0.9974 0.0666 -0.0286
vn 0.9996 0.0216 -0.0163
vn 0.9998 0.0162 -0.0122
vn 0.9997 0.0225 0.0021
vn 0.9953 0.0937 0.0232
vn 0.9942 0.1038 0.0271
vn 0.9936 0.0999 -0.0534
vn 0.9937 0.1000 -0.0501
vn 0.9945 0.1001 -0.0308
vn 0.5099 -0.8602 0.0010
vn 0.5099 -0.8602 0.0009
vn 0.3812 0.9229 0.0537
vn 0.3879 0.9208 0.0410
vn 0.3879 0.9208 0.0409
vn 0.5062 -0.8559 0.1057
vn 0.5069 -0.8568 0.0948
vn 0.5142 -0.8577 -0.0013
vn 0.5141 -0.8577 -0.0012
vn 0.3945 0.9184 0.0283
vn 0.3701 0.9288 0.0196
vn 0.3783 0.9255 -0.0170
vn 0.3784 0.9255 -0.0169
vn 0.3704 0.9287 0.0169
vn 0.3523 0.8585 0.3726
vn 0.3447 0.8411 0.4168
vn 0.5006 -0.8421 -0.2007
vn 0.3652 0.9291 0.0581
vn 0.3775 0.9154 0.1398
vn 0.3764 0.9132 0.1563
vn 0.4439 -0.7428 -0.5012
vn 0.3821 0.9241 -0.0004
vn 0.3811 0.9204 -0.0874
vn 0.3810 0.9199 -0.0925
vn 0.5256 -0.8450 0.0985
vn 0.5099 -0.8597 -0.0296
vn 0.5255 -0.8452 0.0976
vn 0.3821 0.9241 -0.0045
vn 0.3649 0.8773 -0.3117
vn 0.3615 0.8686 -0.3389
vn 0.5237 -0.8518 -0.0133
vn 0.5287 -0.8486 -0.0220
vn 0.5235 -0.8519 -0.0130
vn 0.5099 -0.8602 -0.0051
vn 0.5324 -0.8168 0.2222
vn -0.0012 0.0383 0.9993
vn -0.0000 -0.2822 -0.9593
vn -0.0000 -0.9981 -0.0621
vn -0.0105 -0.9999 -0.0095
vn -0.0000 -0.2448 0.9696
vn -0.0117 -0.8933 0.4494
vn -0.0116 -0.9798 0.1997
vn -0.0107 -0.9993 -0.0345
vn -0.0017 -0.2323 0.9726
vn -0.0016 -0.2323 0.9727
vn -0.0026 -0.2340 0.9722
vn -0.0000 -0.9925 0.1219
vn -0.0000 -0.9749 0.2228
vn -0.0000 -0.9998 0.0197
vn -0.0000 -0.9990 0.0456
vn -0.0000 -0.9956 -0.0942
vn -0.0000 -0.9999 -0.0105
vn -0.0000 -0.9970 -0.0768
vn -0.0000 -1.0000 0.0049
vn 0.0201 0.9924 0.1216
vn 0.0006 -0.7148 0.6993
vn 0.0163 0.0880 0.9960
vn -0.0000 -0.2517 -0.9678
vn 0.0321 -0.8039 -0.5939
vn -0.0007 -0.2306 0.9731
vn -0.0026 -0.3155 -0.9489
vn 0.0127 0.4305 0.9025
vn -0.0000 0.4087 0.9127
vn -0.0000 0.2937 0.9559
vn 0.0078 0.2937 0.9559
vn 0.0158 0.5137 0.8578
vn -0.0000 0.5138 0.8579
vn -0.9999 0.0129 -0.0013
vn -0.9998 0.0203 -0.0020
vn -0.9998 0.0201 -0.0020
vn -0.9999 0.0130 -0.0013
vn -1.0000 0.0047 -0.0018
vn -1.0000 0.0046 -0.0000
vn -1.0000 0.0038 0.0002
vn -1.0000 0.0006 0.0008
vn -0.9946 0.1038 -0.0061
vn -0.9933 0.1155 0.0027
vn -0.9933 0.1156 0.0028
vn -0.9977 0.0679 -0.0020
vn -0.9978 0.0666 -0.0022
vn -0.9997 0.0254 -0.0062
vn -0.9997 0.0216 -0.0065
vn -1.0000 0.0056 -0.0077
vn -0.9978 0.0591 -0.0306
vn -0.9978 0.0582 -0.0316
vn -0.9979 0.0516 -0.0394
vn 0.0030 -0.3160 -0.9487
vn 0.0034 -0.3166 -0.9485
vn 0.0142 -0.8987 -0.4383
vn 0.0175 -0.8301 -0.5573
vn -0.2081 -0.8040 -0.5571
vn -0.2475 -0.8608 -0.4448
vn 0.0111 -0.9882 -0.1529
vn 0.0111 -0.9880 -0.1542
vn 0.0099 -0.9840 0.1777
vn 0.0099 -0.9841 0.1776
vn 0.0113 -0.8429 0.5380
vn -0.2320 -0.8097 0.5391
vn 0.0119 -0.6942 0.7197
vn -0.1916 -0.6742 0.7132
vn 0.0100 -0.6797 0.7334
vn -0.1636 -0.6656 0.7281
vn 0.0175 -0.5910 -0.8065
vn 0.0121 -0.4443 -0.8958
vn -0.1130 -0.4320 -0.8948
vn -0.1462 -0.5480 -0.8236
vn 0.0535 -0.7267 0.6849
vn 0.0384 -0.8733 0.4857
vn -0.1918 -0.8277 0.5274
vn -0.1393 -0.7010 0.6994
vn 0.0224 -0.9937 0.1100
vn 0.0224 -0.9935 0.1119
vn 0.0220 -0.9778 -0.2082
vn -0.2531 -0.9414 -0.2229
vn 0.0217 -0.8373 -0.5462
vn -0.2134 -0.7963 -0.5660
vn -0.0009 0.0815 -0.9967
vn 0.5092 -0.0342 0.8600
vn -0.3307 0.8567 0.3957
vn -0.3236 0.8382 0.4389
vn -0.2937 0.7611 0.5783
vn -0.4422 -0.7833 0.4369
vn -0.3323 -0.6467 0.6865
vn -0.4735 -0.7583 0.4481
vn -0.3893 -0.6326 0.6695
vn -0.3577 0.9269 0.1137
vn -0.3573 0.9259 0.1229
vn -0.5291 -0.8368 -0.1411
vn -0.5300 -0.8382 -0.1286
vn -0.5281 -0.8377 0.1392
vn -0.5265 -0.8356 0.1570
vn -0.3610 0.9296 -0.0736
vn -0.3590 0.9247 -0.1270
vn -0.3590 0.9246 -0.1273
vn -0.5091 -0.8594 0.0470
vn -0.5096 -0.8599 0.0292
vn -0.5095 -0.8599 0.0300
vn -0.4554 -0.7219 -0.5210
vn -0.4927 -0.7803 -0.3852
vn -0.3562 0.9204 -0.1614
vn -0.3555 0.9183 -0.1744
vn -0.2496 -0.4104 -0.8771
vn -0.3307 -0.5485 -0.7680
vn -0.3214 0.8313 -0.4535
vn -0.3130 0.8110 -0.4943
vn -0.3270 0.8466 -0.4199
vn -0.3350 0.8662 -0.3708
vn -0.5276 -0.8492 -0.0219
vn -0.5476 -0.8367 0.0011
vn -0.5494 -0.8355 0.0031
vn -0.2138 0.9585 -0.1886
vn -0.1777 0.9591 -0.2203
vn -0.3771 -0.6184 0.6895
vn -0.5688 -0.8221 0.0262
vn -0.3151 0.7718 0.5523
vn -0.3119 0.7642 0.5645
vn -0.3056 0.7494 0.5873
vn -0.9976 0.0659 -0.0225
vn -0.3746 0.9025 -0.2126
vn -0.3781 0.9117 -0.1606
vn -0.3507 0.8410 -0.4120
vn -0.3498 0.8388 -0.4172
vn -0.0248 -0.8384 -0.5445
vn -0.0277 -0.8251 -0.5644
vn -0.3819 0.9241 0.0145
vn -0.3819 0.9241 0.0139
vn -0.0714 -0.2373 -0.9688
vn -0.0713 -0.2243 -0.9719
vn -0.0714 -0.2381 -0.9686
vn -0.0384 0.9311 -0.3628
vn -0.0382 0.9347 -0.3534
vn -0.0162 0.0824 0.9965
vn -0.0162 0.0831 0.9964
vn -0.0161 0.0776 0.9969
vn 0.0080 -0.7881 0.6154
vn 0.0129 -0.8268 0.5624
vn 0.0045 -0.7595 0.6504
vn -0.0272 0.9734 0.2274
vn -0.0346 0.9395 0.3409
vn -0.0278 0.9711 0.2371
vn 0.0108 -0.9989 0.0456
vn 0.0108 -0.9999 0.0049
vn 0.0108 -0.9970 -0.0768
vn 0.0107 -0.9925 0.1217
vn 0.0107 -0.9925 0.1215
vn 0.0108 -0.9999 -0.0105
vn 0.0108 -0.9968 -0.0792
vn 0.0108 -0.9997 0.0197
vn 0.0108 -0.9987 -0.0493
vn 0.0104 -0.9629 0.2697
vn 0.0101 -0.9325 0.3610
vn 0.0107 -0.9999 0.0038
vn 0.0116 -0.9758 0.2184
vn 0.0116 -0.8880 0.4598
vn -0.9862 -0.0266 0.1636
vn -0.9959 -0.0145 0.0893
vn -0.9979 -0.0105 0.0642
vn 0.0038 -0.2448 0.9696
vn 0.0107 -0.9999 0.0032
vn 0.0106 -0.9999 -0.0085
vn 0.0108 -0.9993 -0.0364
vn 0.0108 -0.9998 0.0149
vn 0.0107 -0.9999 0.0028
vn -0.0511 -0.2752 -0.9600
vn -0.0522 -0.2748 -0.9601
vn -0.0710 -0.2678 -0.9609
vn -0.9591 0.2818 0.0269
vn -0.9576 0.2882 0.0055
vn -0.9589 0.2825 0.0246
vn -0.9630 0.2640 0.0543
vn -0.9659 0.2508 0.0650
vn -0.9427 0.3176 0.1022
vn -0.9669 0.2397 0.0878
vn -0.9596 0.2611 0.1045
vn -0.9302 0.3551 0.0930
vn -0.8986 0.4366 0.0439
vn -0.8946 0.4455 0.0346
vn -0.8743 0.4827 -0.0503
vn -0.8748 0.4825 -0.0442
vn -0.9188 0.3797 -0.1082
vn -0.8986 0.4271 -0.1008
vn -0.9734 0.2269 0.0314
vn -0.9510 0.2986 -0.0803
vn -0.9819 0.1816 0.0540
vn -0.9819 0.1818 0.0540
vn -0.9933 0.0970 -0.0625
vn -0.9945 0.0947 -0.0452
vn -0.9948 0.0951 -0.0361
vn -0.9931 0.0976 -0.0646
vn -0.9942 0.1035 -0.0303
vn -0.9933 0.1101 -0.0351
vn -0.9922 0.1223 -0.0232
vn -0.9922 0.1235 -0.0189
vn -0.9919 0.1263 0.0106
vn -0.9920 0.1259 0.0131
vn -0.9931 0.1153 0.0228
vn -0.9931 0.1148 0.0227
vn -0.9954 0.0958 -0.0063
vn -0.9952 0.0975 -0.0020
vn -0.9979 0.0589 -0.0286
vn -0.9998 0.0162 -0.0122
vn -0.9996 0.0216 -0.0163
vn -0.9974 0.0666 -0.0286
vn -0.9997 0.0225 0.0021
vn -0.9942 0.1038 0.0271
vn -0.9953 0.0937 0.0232
vn -0.9936 0.0999 -0.0534
vn -0.9937 0.1000 -0.0501
vn -0.9945 0.1001 -0.0308
vn -0.5099 -0.8602 0.0009
vn -0.5099 -0.8602 0.0010
vn -0.3812 0.9229 0.0537
vn -0.3879 0.9208 0.0409
vn -0.3879 0.9208 0.0410
vn -0.5062 -0.8559 0.1057
vn -0.5069 -0.8568 0.0948
vn -0.5141 -0.8577 -0.0012
vn -0.5142 -0.8577 -0.0013
vn -0.3945 0.9184 0.0283
vn -0.3701 0.9288 0.0196
vn -0.3704 0.9287 0.0169
vn -0.3784 0.9255 -0.0169
vn -0.3783 0.9255 -0.0170
vn -0.3523 0.8585 0.3726
vn -0.3447 0.8411 0.4168
vn -0.5006 -0.8421 -0.2007
vn -0.3652 0.9291 0.0581
vn -0.3775 0.9154 0.1398
vn -0.3764 0.9132 0.1563
vn -0.4439 -0.7428 -0.5012
vn -0.3821 0.9241 -0.0004
vn -0.3811 0.9204 -0.0874
vn -0.3810 0.9199 -0.0925
vn -0.5256 -0.8450 0.0985
vn -0.5255 -0.8452 0.0976
vn -0.5099 -0.8597 -0.0296
vn -0.3821 0.9241 -0.0045
vn -0.3649 0.8773 -0.3117
vn -0.3615 0.8686 -0.3389
vn -0.5237 -0.8518 -0.0133
vn -0.5235 -0.8519 -0.0130
vn -0.5287 -0.8486 -0.0220
vn -0.5099 -0.8602 -0.0051
vn -0.5324 -0.8168 0.2222
vn 0.0012 0.0383 0.9993
vn 0.0105 -0.9999 -0.0095
vn 0.0117 -0.8933 0.4494
vn 0.0116 -0.9798 0.1997
vn 0.0107 -0.9993 -0.0345
vn 0.0017 -0.2323 0.9726
vn 0.0026 -0.2340 0.9722
vn 0.0016 -0.2323 0.9727
vn -0.0201 0.9924 0.1216
vn -0.0006 -0.7148 0.6993
vn -0.0163 0.0880 0.9960
vn -0.0321 -0.8039 -0.5939
vn 0.0007 -0.2306 0.9731
vn 0.0026 -0.3155 -0.9489
vn -0.0127 0.4305 0.9025
vn -0.0078 0.2937 0.9559
vn -0.0158 0.5137 0.8578
vt 0.332222 0.528318
vt 0.332222 0.506394
vt 0.332222 0.509649
vt 0.332222 0.523895
vt 0.332222 0.513787
vt 0.332222 0.518420
vt 0.332222 0.503197
vt 0.332222 0.750000
vt 0.332222 0.750000
vt 0.332222 0.750000
vt 0.332222 0.750000
vt 0.332222 0.750000
vt 0.375000 0.500881
vt 0.375000 0.503197
vt 0.375000 0.528318
vt 0.375000 0.523895
vt 0.375000 0.518420
vt 0.375000 0.513787
vt 0.375000 0.509649
vt 0.375000 0.506394
vt 0.375000 0.750000
vt 0.375000 0.750000
vt 0.000000 0.000000
vt 0.517501 0.523895
vt 0.393549 0.528318
vt 0.517501 0.518420
vt 0.517501 0.500881
vt 0.517501 0.503197
vt 0.375000 0.750000
vt 0.517501 0.513787
vt 0.517501 0.509649
vt 0.517501 0.506394
vt 0.375000 0.500881
vt 0.517501 0.500000
vt 0.375000 0.500000
vt 0.452232 0.750000
vt 0.517501 0.750000
vt 0.517501 0.750000
vt 0.332222 0.500000
vt 0.250000 0.500000
vt 0.332222 0.500000
vt 0.517501 0.687500
vt 0.340401 0.328889
vt 0.332222 0.559584
vt 0.375000 0.559584
vt 0.375000 0.562500
vt 0.332222 0.562500
vt 0.332222 0.687500
vt 0.375000 0.687500
vt 0.375000 0.625000
vt 0.332222 0.625000
vt 0.375000 0.530455
vt 0.332222 0.530455
vt 0.180095 0.360191
vt 0.250000 0.750000
vt 0.332222 0.500881
vt 0.250000 0.500881
vt 0.517501 0.750000
vt 0.451753 0.531250
vt 0.451428 0.559584
vt 0.451428 0.625000
vt 0.451428 0.562500
vt 0.250000 0.503197
vt 0.250000 0.530455
vt 0.250000 0.559584
vt 0.250000 0.528318
vt 0.250000 0.625000
vt 0.250000 0.687500
vt 0.250000 0.562500
vt 0.165495 0.198594
vt 0.264529 0.317434
s 1
f 570/49/105 720/50/106 381/51/107 379/52/108
f 379/52/108 381/51/107 722/53/109 380/54/109
f 570/49/105 567/49/110 699/55/111 720/50/106
f 705/55/112 699/55/111 567/49/110 568/49/112
f 385/56/113 386/57/114 384/57/115 719/58/113
f 386/57/114 387/59/116 697/57/117 384/57/115
f 590/60/118 716/57/119 697/57/117 387/59/116
f 702/57/120 716/57/119 590/60/118 717/57/120
f 575/61/121 572/62/122 644/62/122 646/61/123
f 246/49/124 408/63/124 723/63/125 243/49/125
f 711/52/126 255/64/127 578/63/128 571/49/129
f 710/54/130 587/65/131 255/64/127 711/52/126
f 240/53/132 588/66/133 587/65/131 710/54/130
f 721/51/134 258/67/135 588/66/133 240/53/132
f 241/50/136 259/68/137 258/67/135 721/51/134
f 698/55/138 574/62/139 259/68/137 241/50/136
f 707/59/140 266/69/141 584/69/142 589/60/143
f 696/57/144 694/69/145 262/70/146 709/57/147
f 709/57/147 262/70/146 591/69/148 242/58/149
f 242/58/149 591/69/148 264/69/150 708/56/151
f 708/56/151 264/69/150 265/69/152 706/57/153
f 706/57/153 265/69/152 266/69/141 707/59/140
f 382/60/154 586/69/154 602/69/154 718/57/154
f 638/71/155 601/71/155 624/71/155 620/71/155
f 280/72/156 695/73/157 687/73/157 352/72/158
f 262/70/146 694/69/145 665/69/159 666/69/160
f 258/67/135 259/68/137 662/68/161 357/67/162
f 281/74/163 280/72/156 352/72/158 684/74/164
f 256/65/165 257/66/166 660/66/167 353/65/168
f 271/75/169 294/76/170 680/76/171 671/75/169
f 693/69/172 250/77/173 655/77/174 664/69/172
f 578/63/128 255/64/127 658/64/175 576/63/176
f 282/78/177 281/74/163 684/74/164 683/78/178
f 584/69/142 266/69/141 663/69/179 582/69/180
f 283/79/181 282/78/177 683/78/178 682/79/182
f 284/80/183 283/79/181 682/79/182 681/80/184
f 573/62/185 251/61/186 654/81/187 592/62/185
f 296/82/188 271/75/169 671/75/169 611/82/189
f 294/76/170 284/80/183 681/80/184 680/76/171
f 259/68/137 574/62/139 593/62/190 662/68/161
f 251/61/186 605/83/191 613/83/191 654/81/187
f 291/84/192 594/85/193 595/85/193 674/84/194
f 606/83/195 575/61/121 646/61/123 649/83/195
f 272/86/196 286/86/197 678/86/198 679/86/199
f 580/87/200 581/88/201 609/88/201 608/89/202
f 276/90/203 272/86/196 679/86/199 691/90/204
f 391/89/205 392/91/206 610/82/207 612/83/207
f 393/91/208 615/91/209 616/71/210 301/71/210
f 634/71/211 626/71/212 630/71/212 394/71/213
f 389/71/214 633/71/215 303/71/216 637/71/216
f 712/71/217 395/71/218 618/71/219 269/71/219
f 635/69/220 629/69/220 625/86/220 715/86/220
f 401/92/221 317/93/221 306/94/222 397/95/222
f 399/96/223 308/97/223 309/77/224 396/56/225
f 397/95/222 306/94/222 307/98/226 398/99/226
f 398/99/226 307/98/226 308/97/223 399/96/223
f 569/49/227 318/63/228 314/100/229 400/101/229
f 400/101/229 314/100/229 317/93/221 401/92/221
f 396/56/225 309/77/224 321/69/230 701/57/231
f 244/57/232 403/102/233 326/71/234 323/103/235
f 404/71/236 703/71/237 326/71/234 403/71/233
f 598/71/238 641/71/238 640/71/239 597/71/240
f 585/69/241 597/69/240 640/69/239 603/69/241
f 604/71/242 643/71/242 642/71/242 599/71/242
f 405/104/243 329/105/244 333/88/245 647/87/246
f 405/104/243 328/61/247 645/62/248 704/55/249
f 378/87/250 607/83/251 650/83/251 406/87/252
f 670/71/253 672/71/254 617/71/255 621/71/255
f 583/69/256 596/85/257 672/85/254 670/69/253
f 669/69/258 673/86/259 374/84/260 363/69/261
f 668/69/262 675/85/263 673/86/259 669/69/258
f 667/69/264 676/106/265 675/85/263 668/69/262
f 365/69/266 677/85/267 676/106/265 667/69/264
f 364/69/268 369/86/269 677/85/267 365/69/266
f 341/77/270 340/86/271 369/86/269 364/69/268
f 363/69/261 374/84/260 596/85/257 583/69/256
f 339/62/272 377/76/273 360/80/274 359/68/275
f 359/68/275 360/80/274 358/79/276 661/67/277
f 661/67/277 358/79/276 356/78/278 355/66/279
f 355/66/279 356/78/278 354/74/280 659/65/281
f 659/65/281 354/74/280 685/72/282 351/64/283
f 351/64/283 685/72/282 686/73/284 577/63/285
f 657/100/286 688/107/287 689/108/288 656/93/289
f 577/63/285 686/73/284 688/107/287 657/100/286
f 651/98/290 690/109/290 344/90/291 653/97/292
f 652/94/241 692/110/241 690/109/290 651/98/290
f 656/93/289 689/108/288 692/110/241 652/94/241
f 653/97/292 344/90/291 340/86/271 341/77/270
f 338/81/293 337/75/294 377/76/273 339/62/272
f 337/75/294 338/81/293 297/83/295 299/82/295
f 250/77/173 249/97/296 336/97/297 655/77/174
f 285/85/298 292/85/299 375/85/300 361/85/298
f 263/69/301 262/70/146 666/69/160 366/69/302
f 247/94/297 253/93/303 345/93/304 335/94/297
f 292/71/299 639/71/305 304/71/305 375/71/300
f 277/107/306 278/108/307 348/108/308 347/107/309
f 290/86/310 291/84/192 674/84/194 373/86/311
f 264/69/150 263/69/301 366/69/302 367/69/312
f 279/73/313 277/107/306 347/107/309 350/73/313
f 289/85/314 290/86/310 373/86/311 372/85/315
f 265/69/152 264/69/150 367/69/312 368/69/316
f 275/109/317 276/90/203 691/90/204 343/109/317
f 288/106/318 289/85/314 372/85/315 371/106/319
f 266/69/141 265/69/152 368/69/316 663/69/179
f 267/69/320 260/69/321 362/69/321 376/69/322
f 274/110/323 275/109/317 343/109/317 342/110/323
f 287/85/324 288/106/318 371/106/319 370/85/325
f 252/100/326 579/63/327 349/63/327 346/100/328
f 248/98/329 247/94/297 335/94/297 334/98/329
f 278/108/307 274/110/323 342/110/323 348/108/308
f 255/64/127 256/65/165 353/65/168 658/64/175
f 286/86/197 287/85/324 370/85/325 678/86/198
f 600/71/330 267/71/320 376/71/322 623/71/330
f 257/66/166 258/67/135 357/67/162 660/66/167
f 249/97/296 248/98/329 334/98/329 336/97/297
f 253/93/303 252/100/326 346/100/328 345/93/304
f 293/62/331 390/55/331 407/55/331 331/62/331
f 295/88/332 378/87/250 406/87/252 648/88/332
f 329/105/244 405/104/243 704/55/249 332/111/333
f 328/61/247 405/104/243 647/87/246 330/83/334
f 636/71/335 327/71/335 643/71/242 604/71/242
f 325/71/336 404/71/236 403/71/233 324/71/337
f 322/69/338 324/69/337 403/102/233 244/57/232
f 409/69/339 245/57/340 402/57/341 700/69/341
f 310/103/342 396/56/225 701/57/231 320/103/343
f 315/112/344 400/101/229 401/92/221 316/113/345
f 319/114/346 569/49/227 400/101/229 315/112/344
f 312/115/347 398/99/226 399/96/223 313/116/348
f 311/117/349 397/95/222 398/99/226 312/115/347
f 313/116/348 399/96/223 396/56/225 310/103/342
f 316/113/345 401/92/221 397/95/222 311/117/349
f 714/71/350 627/71/350 395/71/218 712/71/217
f 268/71/351 622/71/351 633/71/215 389/71/214
f 619/71/352 634/71/211 394/71/213 302/71/352
f 296/82/188 611/82/189 615/91/209 393/91/208
f 298/88/353 300/71/353 392/91/206 391/89/205
f 273/83/354 580/87/200 608/89/202 614/83/354
f 261/69/355 383/57/355 245/57/340 409/69/339
f 239/49/356 254/63/356 408/63/124 246/49/124
f 319/114/346 332/111/333 704/55/249 569/49/227
f 701/57/231 244/57/232 323/103/235 320/103/343
f 412/118/357 411/71/358 713/71/359 388/71/360
f 414/119/361 413/71/362 411/71/358 412/118/357
f 727/49/363 534/52/364 536/51/365 858/50/366
f 534/52/364 535/54/367 860/53/367 536/51/365
f 727/49/363 858/50/366 841/55/368 724/49/369
f 846/55/370 725/49/370 724/49/369 841/55/368
f 540/56/371 857/58/371 539/57/372 541/57/373
f 541/57/373 539/57/372 839/57/374 542/59/375
f 746/60/376 542/59/375 839/57/374 854/57/377
f 844/57/378 855/57/378 746/60/376 854/57/377
f 732/61/379 789/61/380 787/62/381 729/62/381
f 422/49/382 419/49/383 861/63/383 563/63/382
f 852/52/384 728/49/385 735/63/386 431/64/387
f 851/54/388 852/52/384 431/64/387 743/65/389
f 416/53/390 851/54/388 743/65/389 744/66/391
f 859/51/392 416/53/390 744/66/391 434/67/393
f 417/50/394 859/51/392 434/67/393 435/68/395
f 840/55/396 417/50/394 435/68/395 731/62/397
f 848/59/398 745/60/399 740/69/400 442/69/401
f 838/57/402 850/57/403 438/70/404 836/69/405
f 850/57/403 418/58/406 747/69/407 438/70/404
f 418/58/406 849/56/408 440/69/409 747/69/407
f 849/56/408 847/57/410 441/69/411 440/69/409
f 847/57/410 848/59/398 442/69/401 441/69/411
f 537/60/412 856/57/412 758/69/412 742/69/412
f 781/71/413 774/71/413 778/71/413 757/71/413
f 455/72/414 507/72/415 829/73/416 837/73/416
f 438/70/404 808/69/417 807/69/418 836/69/405
f 434/67/393 512/67/419 804/68/420 435/68/395
f 456/74/421 826/74/422 507/72/415 455/72/414
f 432/65/423 508/65/424 802/66/425 433/66/426
f 446/75/427 813/75/427 822/76/428 469/76/429
f 835/69/430 806/69/430 797/77/431 426/77/432
f 735/63/386 733/63/433 800/64/434 431/64/387
f 457/78/435 825/78/436 826/74/422 456/74/421
f 740/69/400 738/69/437 805/69/438 442/69/401
f 458/79/439 824/79/440 825/78/436 457/78/435
f 459/80/441 823/80/442 824/79/440 458/79/439
f 730/62/443 748/62/443 796/81/444 427/61/445
f 470/82/446 766/82/447 813/75/427 446/75/427
f 469/76/429 822/76/428 823/80/442 459/80/441
f 435/68/395 804/68/420 749/62/448 731/62/397
f 427/61/445 796/81/444 768/83/449 761/83/449
f 466/84/450 816/84/451 751/85/452 750/85/452
f 762/83/453 791/83/453 789/61/380 732/61/379
f 447/86/454 821/86/455 820/86/456 461/86/457
f 737/87/458 764/89/459 609/88/201 581/88/201
f 451/90/460 833/90/461 821/86/455 447/86/454
f 546/89/462 767/83/463 765/82/463 547/91/464
f 548/91/465 301/71/210 616/71/210 770/91/466
f 780/71/467 549/71/468 631/71/469 628/71/469
f 544/71/470 270/71/471 632/71/471 779/71/472
f 853/71/473 445/71/474 772/71/474 550/71/475
f 556/92/476 552/95/477 475/94/477 480/93/476
f 554/96/478 551/56/479 478/77/480 477/97/478
f 552/95/477 553/99/481 476/98/481 475/94/477
f 553/99/481 554/96/478 477/97/478 476/98/481
f 726/49/482 555/101/483 479/100/483 481/63/484
f 555/101/483 556/92/476 480/93/476 479/100/483
f 551/56/479 843/57/485 482/69/486 478/77/480
f 420/57/487 323/103/235 326/71/234 558/102/488
f 559/71/489 558/71/488 326/71/234 703/71/237
f 754/71/490 753/71/491 783/71/492 784/71/490
f 741/69/220 759/69/220 783/69/492 753/69/491
f 760/71/493 755/71/493 785/71/493 786/71/493
f 560/104/494 790/87/495 333/88/245 329/105/244
f 560/104/494 845/55/496 788/62/497 486/61/498
f 533/87/499 561/87/500 792/83/501 763/83/501
f 812/71/502 775/71/503 771/71/503 814/71/504
f 739/69/505 812/69/502 814/85/504 752/85/506
f 811/69/507 518/69/508 529/84/509 815/86/510
f 810/69/511 811/69/507 815/86/510 817/85/512
f 809/69/513 810/69/511 817/85/512 818/106/514
f 520/69/515 809/69/513 818/106/514 819/85/516
f 519/69/517 520/69/515 819/85/516 524/86/518
f 496/77/519 519/69/517 524/86/518 495/86/520
f 518/69/508 739/69/505 752/85/506 529/84/509
f 494/62/521 514/68/522 515/80/523 532/76/524
f 514/68/522 803/67/525 513/79/526 515/80/523
f 803/67/525 510/66/527 511/78/528 513/79/526
f 510/66/527 801/65/529 509/74/530 511/78/528
f 801/65/529 506/64/531 827/72/532 509/74/530
f 506/64/531 734/63/533 828/73/534 827/72/532
f 799/100/535 798/93/536 831/108/537 830/107/538
f 734/63/533 799/100/535 830/107/538 828/73/534
f 793/98/539 795/97/540 499/90/541 832/109/539
f 794/94/220 793/98/539 832/109/539 834/110/220
f 798/93/536 794/94/220 834/110/220 831/108/537
f 795/97/540 496/77/519 495/86/520 499/90/541
f 493/81/542 494/62/521 532/76/524 492/75/543
f 492/75/543 472/82/544 471/83/544 493/81/542
f 426/77/432 797/77/431 491/97/545 425/97/546
f 460/85/547 516/85/547 530/85/548 467/85/549
f 439/69/550 521/69/551 808/69/417 438/70/404
f 423/94/545 490/94/545 500/93/552 429/93/553
f 467/71/549 530/71/548 474/71/554 782/71/554
f 452/107/555 502/107/556 503/108/557 453/108/558
f 465/86/559 528/86/560 816/84/451 466/84/450
f 440/69/409 522/69/561 521/69/551 439/69/550
f 454/73/562 505/73/562 502/107/556 452/107/555
f 464/85/563 527/85/564 528/86/560 465/86/559
f 441/69/411 523/69/565 522/69/561 440/69/409
f 450/109/566 498/109/566 833/90/461 451/90/460
f 463/106/567 526/106/568 527/85/564 464/85/563
f 442/69/401 805/69/438 523/69/565 441/69/411
f 443/69/569 531/69/570 517/69/571 436/69/571
f 449/110/572 497/110/572 498/109/566 450/109/566
f 462/85/573 525/85/574 526/106/568 463/106/567
f 428/100/575 501/100/576 504/63/577 736/63/577
f 424/98/578 489/98/578 490/94/545 423/94/545
f 453/108/558 503/108/557 497/110/572 449/110/572
f 431/64/387 800/64/434 508/65/424 432/65/423
f 461/86/457 820/86/456 525/85/574 462/85/573
f 756/71/579 777/71/579 531/71/570 443/71/569
f 433/66/426 802/66/425 512/67/419 434/67/393
f 425/97/546 491/97/545 489/98/578 424/98/578
f 429/93/553 500/93/552 501/100/576 428/100/575
f 468/62/580 488/62/580 562/55/580 545/55/580
f 295/88/332 648/88/332 561/87/500 533/87/499
f 329/105/244 332/111/333 845/55/496 560/104/494
f 486/61/498 487/83/581 790/87/495 560/104/494
f 636/71/335 760/71/493 786/71/493 327/71/335
f 485/71/582 484/71/583 558/71/488 559/71/489
f 483/69/584 420/57/487 558/102/488 484/69/583
f 564/69/585 842/69/586 557/57/586 421/57/587
f 310/103/342 320/103/343 843/57/485 551/56/479
f 315/112/344 316/113/345 556/92/476 555/101/483
f 319/114/346 315/112/344 555/101/483 726/49/482
f 312/115/347 313/116/348 554/96/478 553/99/481
f 311/117/349 312/115/347 553/99/481 552/95/477
f 313/116/348 310/103/342 551/56/479 554/96/478
f 316/113/345 311/117/349 552/95/477 556/92/476
f 410/71/588 853/71/473 550/71/475 305/71/588
f 444/71/589 544/71/470 779/71/472 776/71/589
f 773/71/590 473/71/590 549/71/468 780/71/467
f 470/82/446 548/91/465 770/91/466 766/82/447
f 298/88/353 546/89/462 547/91/464 300/71/353
f 448/83/591 769/83/591 764/89/459 737/87/458
f 437/69/592 564/69/585 421/57/587 538/57/592
f 415/49/593 422/49/382 563/63/382 430/63/593
f 319/114/346 726/49/482 845/55/496 332/111/333
f 843/57/485 320/103/343 323/103/235 420/57/487
f 565/118/594 543/71/595 713/71/359 411/71/358
f 566/119/596 565/118/594 411/71/358 413/71/362
o Cube.004
v 1.509894 0.140164 -0.663854
v 1.470624 0.183099 -0.663854
v 1.509894 0.140164 -0.908285
v 1.470624 0.183099 -0.908285
v 1.556315 0.154810 -0.663854
v 1.532464 0.207882 -0.663854
v 1.556315 0.154810 -0.908285
v 1.532464 0.207882 -0.908285
v 1.537704 0.109759 -0.826808
v 1.537704 0.109759 -0.745331
v 1.470624 0.183099 -0.745331
v 1.470624 0.183099 -0.826808
v 1.577842 0.120538 -0.745331
v 1.577842 0.120538 -0.826808
v 1.537101 0.211194 -0.826808
v 1.537101 0.211194 -0.745331
v -1.447263 0.140164 -0.663854
v -1.407993 0.183099 -0.663854
v -1.447263 0.140164 -0.908285
v -1.407993 0.183099 -0.908285
v -1.493684 0.154810 -0.663854
v -1.469833 0.207882 -0.663854
v -1.493684 0.154810 -0.908285
v -1.469833 0.207882 -0.908285
v -1.475073 0.109759 -0.826808
v -1.475073 0.109759 -0.745331
v -1.407993 0.183099 -0.745331
v -1.407993 0.183099 -0.826808
v -1.515211 0.120538 -0.745331
v -1.515211 0.120538 -0.826808
v -1.474470 0.211194 -0.826808
v -1.474470 0.211194 -0.745331
v 1.556315 0.154810 -0.908285
v 1.556315 0.154810 -0.908285
v 1.509894 0.140164 -0.908285
v 1.470624 0.183099 -0.908285
v 1.532464 0.207882 -0.908285
v 1.532464 0.207882 -0.908285
v 1.577842 0.120538 -0.826808
v 1.537101 0.211194 -0.745331
v 1.532464 0.207882 -0.663854
v 1.532464 0.207882 -0.663854
v 1.556315 0.154810 -0.663854
v 1.556315 0.154810 -0.663854
v 1.509894 0.140164 -0.663854
v 1.470624 0.183099 -0.663854
v 1.577842 0.120538 -0.745331
v 1.537101 0.211194 -0.826808
v -1.493684 0.154810 -0.908285
v -1.493684 0.154810 -0.908285
v -1.447263 0.140164 -0.908285
v -1.407993 0.183099 -0.908285
v -1.469833 0.207882 -0.908285
v -1.469833 0.207882 -0.908285
v -1.515211 0.120538 -0.826808
v -1.474470 0.211194 -0.745331
v -1.469833 0.207882 -0.663854
v -1.469833 0.207882 -0.663854
v -1.493684 0.154810 -0.663854
v -1.493684 0.154810 -0.663854
v -1.447263 0.140164 -0.663854
v -1.407993 0.183099 -0.663854
v -1.515211 0.120538 -0.745331
v -1.474470 0.211194 -0.826808
vn -0.0000 -0.0000 -1.0000
vn 0.9118 0.4097 0.0284
vn 0.9116 0.4097 0.0341
vn 0.9100 0.4090 0.0684
vn -0.0000 -0.0000 1.0000
vn 0.2635 -0.9369 0.2299
vn 0.2637 -0.9421 0.2069
vn 0.2554 -0.8696 0.4225
vn -0.3852 0.9228 0.0039
vn -0.3852 0.9228 0.0040
vn -0.3810 0.9245 0.0079
vn -0.3810 0.9245 -0.0079
vn -0.3852 0.9228 -0.0040
vn -0.3852 0.9228 -0.0039
vn 0.2554 -0.8696 -0.4225
vn 0.2637 -0.9421 -0.2069
vn 0.2635 -0.9369 -0.2299
vn 0.9100 0.4090 -0.0684
vn 0.9116 0.4097 -0.0341
vn 0.9118 0.4097 -0.0284
vn -0.9118 0.4097 0.0284
vn -0.9100 0.4090 0.0684
vn -0.9116 0.4097 0.0341
vn -0.2635 -0.9369 0.2299
vn -0.2554 -0.8696 0.4225
vn -0.2637 -0.9421 0.2069
vn 0.3852 0.9228 0.0039
vn 0.3810 0.9245 0.0079
vn 0.3852 0.9228 0.0040
vn 0.3810 0.9245 -0.0079
vn 0.3852 0.9228 -0.0039
vn 0.3852 0.9228 -0.0040
vn -0.2554 -0.8696 -0.4225
vn -0.2635 -0.9369 -0.2299
vn -0.2637 -0.9421 -0.2069
vn -0.9100 0.4090 -0.0684
vn -0.9118 0.4097 -0.0284
vn -0.9116 0.4097 -0.0341
vt 0.375000 0.250000
vt 0.625000 0.250000
vt 0.625000 0.500000
vt 0.375000 0.500000
vt 0.375000 0.666667
vt 0.625000 0.666667
vt 0.625000 0.750000
vt 0.375000 0.750000
vt 0.625000 1.000000
vt 0.375000 1.000000
vt 0.125000 0.666667
vt 0.125000 0.750000
vt 0.875000 0.666667
vt 0.875000 0.750000
vt 0.875000 0.500000
vt 0.875000 0.583333
vt 0.625000 0.583333
vt 0.125000 0.500000
vt 0.375000 0.583333
vt 0.125000 0.583333
s 1
f 896/120/597 865/121/597 898/122/597 894/123/597
f 908/124/598 901/125/599 902/126/600 904/127/600
f 905/127/601 903/126/601 907/128/601 862/129/601
f 871/130/602 874/124/603 866/127/604 906/131/604
f 877/125/605 872/132/606 863/133/607 867/126/607
f 899/122/608 897/134/608 873/135/609 909/136/610
f 909/136/610 873/135/609 872/132/606 877/125/605
f 864/137/611 895/123/611 900/138/612 870/139/613
f 870/139/613 900/138/612 874/124/603 871/130/602
f 868/123/614 869/122/614 876/136/615 875/138/616
f 875/138/616 876/136/615 901/125/599 908/124/598
f 912/120/597 910/123/597 914/122/597 881/121/597
f 924/124/617 920/127/618 918/126/618 917/125/619
f 921/127/601 878/129/601 923/128/601 919/126/601
f 887/130/620 922/131/621 882/127/621 890/124/622
f 893/125/623 883/126/624 879/133/624 888/132/625
f 915/122/626 925/136/627 889/135/628 913/134/626
f 925/136/627 893/125/623 888/132/625 889/135/628
f 880/137/629 886/139/630 916/138/631 911/123/629
f 886/139/630 887/130/620 890/124/622 916/138/631
f 884/123/632 891/138/633 892/136/634 885/122/632
f 891/138/633 924/124/617 917/125/619 892/136/634
o Cube.005
v 0.122216 0.027529 -3.622555
v 0.122216 0.065685 -3.578627
v -0.122216 0.027529 -3.622555
v -0.122216 0.065685 -3.578627
v 0.122216 0.047393 -3.666993
v 0.122216 0.097386 -3.637223
v -0.122216 0.047393 -3.666993
v -0.122216 0.097386 -3.637223
v -0.040739 0.000508 -3.653663
v 0.040738 0.000508 -3.653663
v 0.040738 0.065685 -3.578627
v -0.040739 0.065685 -3.578627
v 0.040738 0.015812 -3.692303
v -0.040739 0.015812 -3.692303
v -0.040739 0.101207 -3.641449
v 0.040738 0.101207 -3.641449
v -0.122216 0.047393 -3.666993
v -0.122216 0.047393 -3.666993
v -0.122216 0.027529 -3.622555
v -0.122216 0.065685 -3.578627
v -0.122216 0.097386 -3.637223
v -0.122216 0.097386 -3.637223
v -0.040739 0.015812 -3.692303
v 0.040738 0.101207 -3.641449
v 0.122216 0.097386 -3.637223
v 0.122216 0.097386 -3.637223
v 0.122216 0.047393 -3.666993
v 0.122216 0.047393 -3.666993
v 0.122216 0.027529 -3.622555
v 0.122216 0.065685 -3.578627
v 0.040738 0.015812 -3.692303
v -0.040739 0.101207 -3.641449
vn -1.0000 -0.0000 -0.0000
vn 0.0284 0.5115 -0.8588
vn 0.0341 0.5114 -0.8587
vn 0.0684 0.5105 -0.8572
vn 1.0000 -0.0000 -0.0000
vn 0.2299 -0.9005 -0.3690
vn 0.2069 -0.9057 -0.3699
vn 0.4225 -0.8347 -0.3533
vn 0.0039 0.8726 0.4884
vn 0.0040 0.8727 0.4883
vn 0.0079 0.8748 0.4844
vn -0.0079 0.8748 0.4844
vn -0.0040 0.8727 0.4883
vn -0.0039 0.8726 0.4884
vn -0.4225 -0.8347 -0.3533
vn -0.2069 -0.9057 -0.3699
vn -0.2299 -0.9005 -0.3690
vn -0.0684 0.5105 -0.8572
vn -0.0341 0.5114 -0.8587
vn -0.0284 0.5114 -0.8588
vt 0.375000 0.250000
vt 0.625000 0.250000
vt 0.625000 0.500000
vt 0.375000 0.500000
vt 0.375000 0.666667
vt 0.625000 0.666667
vt 0.625000 0.750000
vt 0.375000 0.750000
vt 0.625000 1.000000
vt 0.375000 1.000000
vt 0.125000 0.666667
vt 0.125000 0.750000
vt 0.875000 0.666667
vt 0.875000 0.750000
vt 0.875000 0.500000
vt 0.875000 0.583333
vt 0.625000 0.583333
vt 0.125000 0.500000
vt 0.375000 0.583333
vt 0.125000 0.583333
s 1
f 944/140/635 929/141/635 946/142/635 942/143/635
f 956/144/636 949/145/637 950/146/638 952/147/638
f 953/147/639 951/146/639 955/148/639 926/149/639
f 935/150/640 938/144/641 930/147/642 954/151/642
f 941/145/643 936/152/644 927/153/645 931/146/645
f 947/142/646 945/154/646 937/155/647 957/156/648
f 957/156/648 937/155/647 936/152/644 941/145/643
f 928/157/649 943/143/649 948/158/650 934/159/651
f 934/159/651 948/158/650 938/144/641 935/150/640
f 932/143/652 933/142/652 940/156/653 939/158/654
f 939/158/654 940/156/653 949/145/637 956/144/636
