# Blender 3.6.1
# www.blender.org
o Window2
v 0.000000 0.424189 1.410470
v 0.891538 0.406964 1.410470
v 0.000000 1.238379 0.308343
v 0.670057 1.201985 0.341634
v 1.285586 0.399351 1.410470
v 0.981313 1.156749 0.395290
v 0.000000 0.452667 1.417866
v 0.000000 1.253156 0.334285
v 0.887681 0.435732 1.417866
v 0.669927 1.217374 0.367016
v 1.275098 0.428247 1.417866
v 0.975945 1.172900 0.419769
v 1.013007 1.077855 0.501036
v 0.000000 1.169773 0.447156
v 0.692609 1.135955 0.476478
v 1.007106 1.095333 0.523736
v 1.234434 0.526680 1.239805
v 0.851074 0.567137 1.241204
v 1.224806 0.553433 1.250072
v 0.000000 0.587240 1.235702
v -0.891538 0.406964 1.410470
v -0.670057 1.201985 0.341634
v -1.285586 0.399351 1.410470
v -0.981313 1.156749 0.395290
v -0.887681 0.435732 1.417866
v -0.669927 1.217374 0.367016
v -1.275098 0.428247 1.417866
v -0.975945 1.172900 0.419769
v -1.013007 1.077855 0.501036
v -0.692609 1.135955 0.476478
v -1.007106 1.095333 0.523736
v -1.234434 0.526680 1.239805
v -0.851074 0.567137 1.241204
v -1.224806 0.553433 1.250072
vn 0.0151 0.8038 0.5946
vn -0.0000 0.8041 0.5945
vn -0.0000 0.3400 0.9404
vn 0.0064 0.3340 0.9425
vn 0.5957 0.7191 0.3578
vn 0.4981 0.8640 0.0730
vn 0.0963 0.9949 0.0314
vn 0.0145 0.8038 0.5947
vn 0.1387 0.8507 -0.5070
vn -0.0000 0.8622 -0.5066
vn -0.0000 0.9994 0.0350
vn -0.0000 -0.2505 0.9681
vn -0.0048 -0.2500 0.9682
vn 0.9379 0.3462 -0.0228
vn 0.6358 0.7010 -0.3231
vn 0.6747 0.0565 0.7360
vn 0.5469 0.3686 0.7516
vn 0.5959 0.7190 0.3577
vn -0.0151 0.8038 0.5946
vn -0.0064 0.3340 0.9425
vn -0.5957 0.7191 0.3578
vn -0.0145 0.8038 0.5947
vn -0.0963 0.9949 0.0314
vn -0.4981 0.8640 0.0730
vn -0.1387 0.8507 -0.5070
vn 0.0048 -0.2500 0.9682
vn -0.9379 0.3462 -0.0228
vn -0.6358 0.7010 -0.3231
vn -0.5469 0.3686 0.7516
vn -0.6747 0.0565 0.7360
vn -0.5959 0.7190 0.3577
vt 0.667778 0.677976
vt 0.750000 0.677679
vt 0.750000 0.687500
vt 0.667778 0.687500
vt 0.631635 0.639297
vt 0.631658 0.633692
vt 0.667778 0.630848
vt 0.667778 0.636749
vt 0.750000 0.629083
vt 0.631437 0.687500
vt 0.631474 0.678454
vt 0.631474 0.678454
vt 0.750000 0.635168
s 1
f 18/1/1 20/2/2 7/3/3 9/4/4
f 16/5/5 12/6/6 10/7/7 15/8/8
f 4/7/9 3/9/10 8/9/11 10/7/7
f 1/3/12 2/4/13 9/4/4 7/3/3
f 13/5/14 6/6/15 12/6/6 16/5/5
f 2/4/13 5/10/16 11/10/17 9/4/4
f 6/6/15 4/7/9 10/7/7 12/6/6
f 17/11/14 13/5/14 16/5/5 19/12/18
f 19/12/18 16/5/5 15/8/8 18/1/1
f 10/7/7 8/9/11 14/13/2 15/8/8
f 11/10/17 19/12/18 18/1/1 9/4/4
f 5/10/16 17/11/14 19/12/18 11/10/17
f 15/8/8 14/13/2 20/2/2 18/1/1
f 33/1/19 25/4/20 7/3/3 20/2/2
f 31/5/21 30/8/22 26/7/23 28/6/24
f 22/7/25 26/7/23 8/9/11 3/9/10
f 1/3/12 7/3/3 25/4/20 21/4/26
f 29/5/27 31/5/21 28/6/24 24/6/28
f 21/4/26 25/4/20 27/10/29 23/10/30
f 24/6/28 28/6/24 26/7/23 22/7/25
f 32/11/27 34/12/31 31/5/21 29/5/27
f 34/12/31 33/1/19 30/8/22 31/5/21
f 26/7/23 30/8/22 14/13/2 8/9/11
f 27/10/29 25/4/20 33/1/19 34/12/31
f 23/10/30 27/10/29 34/12/31 32/11/27
f 30/8/22 33/1/19 20/2/2 14/13/2
o Window3
v 0.000000 1.164745 -2.363998
v 0.000000 0.392865 -3.300731
v 0.668283 1.153505 -2.363998
v 0.826565 0.381624 -3.298870
v 1.148953 0.376993 -3.293680
v 0.924797 1.149190 -2.363998
v 1.053424 0.800396 -2.786929
v 0.982267 0.993385 -2.552986
v 1.123025 0.491655 -3.159460
v 1.090149 0.637400 -2.984875
v 0.745839 0.821267 -2.792080
v 1.039739 0.816813 -2.792079
v 0.000000 1.168986 -2.383282
v 0.000000 1.018461 -2.565955
v 0.000000 0.832131 -2.792080
v 0.000000 0.674467 -2.983417
v 0.000000 0.533664 -3.154291
v 0.000000 0.422900 -3.288711
v 0.667469 1.158121 -2.383282
v 0.704289 1.007596 -2.565955
v 0.780833 0.663602 -2.983417
v 0.804025 0.522800 -3.154158
v 0.820462 0.412035 -3.286913
v 0.915411 1.153951 -2.383282
v 1.132076 0.407559 -3.281896
v 0.970960 1.003353 -2.565955
v 1.107015 0.518389 -3.152161
v 1.075237 0.659264 -2.983411
v -0.668283 1.153505 -2.363998
v -0.826565 0.381624 -3.298870
v -1.148953 0.376993 -3.293680
v -0.924797 1.149190 -2.363998
v -1.053424 0.800396 -2.786929
v -0.982267 0.993385 -2.552986
v -1.123025 0.491655 -3.159460
v -1.090149 0.637400 -2.984875
v -0.745839 0.821267 -2.792080
v -1.039739 0.816813 -2.792079
v -0.667469 1.158121 -2.383282
v -0.704289 1.007596 -2.565955
v -0.780833 0.663602 -2.983417
v -0.804025 0.522800 -3.154158
v -0.820462 0.412035 -3.286913
v -0.915411 1.153951 -2.383282
v -1.132076 0.407559 -3.281896
v -0.970960 1.003353 -2.565955
v -1.107015 0.518389 -3.152161
v -1.075237 0.659264 -2.983411
vn 0.0121 0.7727 -0.6347
vn -0.0000 0.7723 -0.6352
vn -0.0000 0.9736 -0.2283
vn 0.0160 0.9738 -0.2269
vn 0.0115 0.7726 -0.6348
vn -0.0000 0.7723 -0.6353
vn 0.0116 0.7719 -0.6356
vn -0.0000 0.7721 -0.6355
vn 0.0133 0.7696 -0.6384
vn -0.0000 0.7711 -0.6368
vn 0.0143 0.5860 -0.8102
vn -0.0000 0.5893 -0.8079
vn 0.4428 0.7531 -0.4866
vn 0.4501 0.7430 -0.4954
vn 0.4359 0.7318 -0.5239
vn 0.3293 0.9146 -0.2345
vn 0.4361 0.7285 -0.5283
vn 0.3862 0.6148 -0.6877
vn -0.0000 0.9747 0.2235
vn 0.0162 0.9735 0.2279
vn 0.7785 0.5601 -0.2832
vn 0.7751 0.5496 -0.3117
vn 0.7814 0.5768 -0.2380
vn 0.7723 0.5495 -0.3188
vn 0.3163 0.4882 -0.8134
vn 0.4585 0.8887 -0.0038
vn 0.0145 0.3694 -0.9292
vn -0.0000 0.3693 -0.9293
vn -0.0121 0.7727 -0.6347
vn -0.0160 0.9738 -0.2269
vn -0.0115 0.7726 -0.6348
vn -0.0116 0.7719 -0.6356
vn -0.0133 0.7696 -0.6384
vn -0.0143 0.5860 -0.8102
vn -0.4428 0.7531 -0.4866
vn -0.4501 0.7430 -0.4954
vn -0.4359 0.7318 -0.5239
vn -0.3293 0.9146 -0.2345
vn -0.4361 0.7285 -0.5283
vn -0.3862 0.6148 -0.6877
vn -0.0162 0.9735 0.2279
vn -0.7785 0.5601 -0.2832
vn -0.7751 0.5496 -0.3117
vn -0.7815 0.5768 -0.2380
vn -0.7723 0.5495 -0.3188
vn -0.3163 0.4882 -0.8134
vn -0.4585 0.8887 -0.0038
vn -0.0145 0.3694 -0.9292
vt 0.667778 0.523895
vt 0.750000 0.523895
vt 0.750000 0.528318
vt 0.667778 0.528318
vt 0.667778 0.518420
vt 0.750000 0.518420
vt 0.667778 0.513787
vt 0.750000 0.513787
vt 0.667778 0.509649
vt 0.750000 0.509649
vt 0.667778 0.506394
vt 0.750000 0.506394
vt 0.635663 0.523895
vt 0.634073 0.518420
vt 0.634948 0.513787
vt 0.636218 0.528318
vt 0.634400 0.509649
vt 0.633898 0.506394
s 1
f 54/14/32 48/15/33 47/16/34 53/17/35
f 45/18/36 49/19/37 48/15/33 54/14/32
f 55/20/38 50/21/39 49/19/37 45/18/36
f 56/22/40 51/23/41 50/21/39 55/20/38
f 57/24/42 52/25/43 51/23/41 56/22/40
f 60/26/44 46/27/45 45/18/36 54/14/32
f 46/27/45 62/28/46 55/20/38 45/18/36
f 58/29/47 60/26/44 54/14/32 53/17/35
f 61/30/48 59/31/49 57/24/42 56/22/40
f 62/28/46 61/30/48 56/22/40 55/20/38
f 35/16/50 37/17/51 53/17/35 47/16/34
f 41/27/52 44/28/53 62/28/46 46/27/45
f 42/26/54 41/27/52 46/27/45 60/26/44
f 43/30/55 39/31/56 59/31/49 61/30/48
f 37/17/51 40/29/57 58/29/47 53/17/35
f 40/29/57 42/26/54 60/26/44 58/29/47
f 39/31/56 38/24/58 57/24/42 59/31/49
f 38/24/58 36/25/59 52/25/43 57/24/42
f 44/28/53 43/30/55 61/30/48 62/28/46
f 74/14/60 73/17/61 47/16/34 48/15/33
f 71/18/62 74/14/60 48/15/33 49/19/37
f 75/20/63 71/18/62 49/19/37 50/21/39
f 76/22/64 75/20/63 50/21/39 51/23/41
f 77/24/65 76/22/64 51/23/41 52/25/43
f 80/26/66 74/14/60 71/18/62 72/27/67
f 72/27/67 71/18/62 75/20/63 82/28/68
f 78/29/69 73/17/61 74/14/60 80/26/66
f 81/30/70 76/22/64 77/24/65 79/31/71
f 82/28/68 75/20/63 76/22/64 81/30/70
f 35/16/50 47/16/34 73/17/61 63/17/72
f 67/27/73 72/27/67 82/28/68 70/28/74
f 68/26/75 80/26/66 72/27/67 67/27/73
f 69/30/76 81/30/70 79/31/71 65/31/77
f 63/17/72 73/17/61 78/29/69 66/29/78
f 66/29/78 78/29/69 80/26/66 68/26/75
f 65/31/77 79/31/71 77/24/65 64/24/79
f 64/24/79 77/24/65 52/25/43 36/25/59
f 70/28/74 82/28/68 81/30/70 69/30/76
o Window1
v 1.444580 0.357315 -1.112464
v 1.373596 0.365894 -2.096128
v 1.448643 0.342733 0.231309
v 1.402313 0.328603 1.249216
v 1.444495 0.359920 -1.006845
v 1.056328 1.132431 0.231309
v 1.377538 0.377230 1.245348
v 1.023673 1.212416 -1.024891
v 1.016746 1.207941 -0.003455
v 1.035095 1.134632 -2.185241
v 1.025509 1.204905 -1.137226
v 1.024200 1.182110 -1.680145
v 1.204345 0.750263 -2.168117
v 1.051569 1.203318 -1.155932
v 1.457610 0.382084 -1.131940
v 1.388833 0.390396 -2.085018
v 1.224845 0.762814 -2.154768
v 1.396980 0.391670 1.230131
v 1.421423 0.343695 1.233948
v 1.463039 0.374592 -0.991849
v 1.047862 1.215653 -1.009653
v 1.467131 0.357636 0.229695
v 1.080079 1.136741 0.229695
v 1.041028 1.211237 -0.001919
v 1.060857 1.135231 -2.171360
v 1.050301 1.181232 -1.681970
v -1.444580 0.357315 -1.112464
v -1.373596 0.365894 -2.096128
v -1.448643 0.342733 0.231309
v -1.402313 0.328603 1.249216
v -1.444495 0.359920 -1.006845
v -1.056328 1.132431 0.231309
v -1.377538 0.377230 1.245348
v -1.023673 1.212416 -1.024891
v -1.016746 1.207941 -0.003455
v -1.035095 1.134632 -2.185241
v -1.025509 1.204905 -1.137226
v -1.024200 1.182110 -1.680145
v -1.204345 0.750263 -2.168117
v -1.051569 1.203318 -1.155932
v -1.457610 0.382084 -1.131940
v -1.388833 0.390396 -2.085018
v -1.224845 0.762814 -2.154768
v -1.396980 0.391670 1.230131
v -1.421423 0.343695 1.233948
v -1.463039 0.374592 -0.991849
v -1.047862 1.215653 -1.009653
v -1.467131 0.357636 0.229695
v -1.080079 1.136741 0.229695
v -1.041028 1.211237 -0.001919
v -1.060857 1.135231 -2.171360
v -1.050301 1.181232 -1.681970
vn -0.0618 -0.7016 -0.7099
vn -0.2017 -0.9793 -0.0175
vn -0.8606 0.4912 0.1345
vn -0.5809 0.4013 -0.7082
vn -0.8240 0.4015 0.3998
vn -0.5718 0.1087 0.8131
vn -0.0891 -0.6773 0.7303
vn 0.9177 -0.1387 -0.3722
vn 0.4940 0.7843 -0.3753
vn 0.4196 0.9000 0.1183
vn 0.9772 -0.2117 0.0174
vn 0.4456 0.8346 0.3239
vn 0.5211 0.6550 0.5472
vn 0.9009 -0.1282 0.4147
vn 0.9098 -0.0332 -0.4137
vn 0.7934 0.2981 -0.5308
vn 0.9526 0.0402 0.3017
vn 0.5713 0.7640 0.3000
vn 0.5399 0.8397 -0.0592
vn 0.8854 -0.1109 0.4513
vn 0.8102 -0.2673 -0.5216
vn 0.0289 0.9974 -0.0662
vn 0.4067 0.7634 0.5019
vn 0.4919 0.1145 -0.8631
vn 0.5656 0.6971 -0.4406
vn 0.3228 0.7066 -0.6296
vn 0.0618 -0.7016 -0.7099
vn 0.5809 0.4013 -0.7082
vn 0.8606 0.4912 0.1345
vn 0.2017 -0.9793 -0.0175
vn 0.8240 0.4015 0.3998
vn 0.5718 0.1087 0.8131
vn 0.0891 -0.6773 0.7303
vn -0.9177 -0.1387 -0.3722
vn -0.9772 -0.2117 0.0174
vn -0.4196 0.9000 0.1183
vn -0.4940 0.7843 -0.3753
vn -0.4456 0.8346 0.3239
vn -0.5211 0.6550 0.5472
vn -0.9009 -0.1282 0.4147
vn -0.9098 -0.0332 -0.4137
vn -0.9526 0.0402 0.3017
vn -0.7934 0.2981 -0.5308
vn -0.5713 0.7640 0.3000
vn -0.5399 0.8397 -0.0592
vn -0.8854 -0.1109 0.4513
vn -0.8102 -0.2673 -0.5216
vn -0.0289 0.9974 -0.0662
vn -0.4067 0.7634 0.5019
vn -0.4919 0.1145 -0.8631
vn -0.3228 0.7066 -0.6296
vn -0.5656 0.6971 -0.4406
vt 0.000000 0.000000
s 1
f 87/32/80 85/32/81 91/32/82 90/32/83
f 91/32/82 85/32/81 88/32/84
f 89/32/85 88/32/84 85/32/81 86/32/86
f 102/32/87 103/32/88 106/32/89 104/32/90
f 106/32/89 105/32/91 104/32/90
f 100/32/92 101/32/93 104/32/90 105/32/91
f 98/32/94 99/32/95 97/32/96
f 96/32/97 97/32/96 99/32/95 108/32/98
f 83/32/99 84/32/100 98/32/94 97/32/96
f 89/32/85 86/32/86 101/32/93 100/32/92
f 94/32/101 93/32/102 96/32/97 108/32/98
f 87/32/80 90/32/83 103/32/88 102/32/87
f 85/32/81 87/32/80 102/32/87 104/32/90
f 86/32/86 85/32/81 104/32/90 101/32/93
f 88/32/84 89/32/85 100/32/92 105/32/91
f 93/32/102 83/32/99 97/32/96 96/32/97
f 91/32/82 88/32/84 105/32/91 106/32/89
f 84/32/100 95/32/103 99/32/95 98/32/94
f 90/32/83 91/32/82 106/32/89 103/32/88
f 94/32/101 108/32/98 107/32/104 92/32/105
f 92/32/105 107/32/104 99/32/95 95/32/103
f 107/32/104 108/32/98 99/32/95
f 113/32/106 116/32/107 117/32/108 111/32/109
f 117/32/108 114/32/110 111/32/109
f 115/32/111 112/32/112 111/32/109 114/32/110
f 128/32/113 130/32/114 132/32/115 129/32/116
f 132/32/115 130/32/114 131/32/117
f 126/32/118 131/32/117 130/32/114 127/32/119
f 124/32/120 123/32/121 125/32/122
f 122/32/123 134/32/124 125/32/122 123/32/121
f 109/32/125 123/32/121 124/32/120 110/32/126
f 115/32/111 126/32/118 127/32/119 112/32/112
f 120/32/127 134/32/124 122/32/123 119/32/128
f 113/32/106 128/32/113 129/32/116 116/32/107
f 111/32/109 130/32/114 128/32/113 113/32/106
f 112/32/112 127/32/119 130/32/114 111/32/109
f 114/32/110 131/32/117 126/32/118 115/32/111
f 119/32/128 122/32/123 123/32/121 109/32/125
f 117/32/108 132/32/115 131/32/117 114/32/110
f 110/32/126 124/32/120 125/32/122 121/32/129
f 116/32/107 129/32/116 132/32/115 117/32/108
f 120/32/127 118/32/130 133/32/131 134/32/124
f 118/32/130 121/32/129 125/32/122 133/32/131
f 133/32/131 125/32/122 134/32/124
