# Blender 3.6.1
# www.blender.org
o WheelCenter
v 0.360141 0.076206 -0.383112
v 0.360141 0.217015 -0.324786
v 0.360141 0.324786 -0.217015
v 0.360141 0.383111 -0.076206
v 0.360141 0.383111 0.076205
v 0.360141 0.324786 0.217015
v 0.360141 0.217015 0.324786
v 0.360141 0.076206 0.383111
v 0.360141 -0.076205 0.383111
v 0.360141 -0.217015 0.324786
v 0.360141 -0.324786 0.217015
v 0.360141 -0.383111 0.076205
v 0.360141 -0.383111 -0.076206
v 0.360141 -0.324786 -0.217015
v 0.360141 -0.217015 -0.324786
v 0.360141 -0.076205 -0.383112
v 0.381502 0.066806 -0.335855
v 0.381502 0.190246 -0.284724
v 0.381502 0.284723 -0.190246
v 0.381502 0.335854 -0.066806
v 0.381502 0.335854 0.066805
v 0.381502 0.284723 0.190246
v 0.381502 0.190246 0.284723
v 0.381502 0.066806 0.335854
v 0.381502 -0.066805 0.335854
v 0.381502 -0.190246 0.284723
v 0.381502 -0.284723 0.190246
v 0.381502 -0.335854 0.066805
v 0.381502 -0.335854 -0.066806
v 0.381502 -0.284723 -0.190246
v 0.381502 -0.190246 -0.284724
v 0.381502 -0.066805 -0.335855
v 0.381502 0.000000 -0.000000
v -0.360141 0.076205 -0.383112
v -0.360141 0.217015 -0.324786
v -0.360141 0.324786 -0.217015
v -0.360141 0.383111 -0.076206
v -0.360141 0.383111 0.076206
v -0.360141 0.324786 0.217015
v -0.360141 0.217015 0.324786
v -0.360141 0.076205 0.383111
v -0.360141 -0.076206 0.383111
v -0.360141 -0.217015 0.324786
v -0.360141 -0.324786 0.217015
v -0.360141 -0.383111 0.076206
v -0.360141 -0.383111 -0.076206
v -0.360141 -0.324786 -0.217015
v -0.360141 -0.217015 -0.324786
v -0.360141 -0.076206 -0.383112
v -0.381502 0.066805 -0.335854
v -0.381502 0.190246 -0.284724
v -0.381502 0.284723 -0.190246
v -0.381502 0.335854 -0.066806
v -0.381502 0.335854 0.066806
v -0.381502 0.284723 0.190246
v -0.381502 0.190246 0.284724
v -0.381502 0.066805 0.335854
v -0.381502 -0.066806 0.335854
v -0.381502 -0.190246 0.284724
v -0.381502 -0.284723 0.190246
v -0.381502 -0.335854 0.066806
v -0.381502 -0.335854 -0.066806
v -0.381502 -0.284723 -0.190246
v -0.381502 -0.190246 -0.284724
v -0.381502 -0.066806 -0.335854
v -0.381502 -0.000000 -0.000000
vn 0.9142 0.3975 0.0791
vn 0.9728 0.2272 0.0452
vn 0.9728 0.2272 -0.0452
vn 0.9142 0.3975 -0.0791
vn 0.9142 -0.3975 0.0791
vn 0.9728 -0.2272 0.0452
vn 0.9728 -0.1926 0.1287
vn 0.9142 -0.3370 0.2252
vn 0.9142 0.3370 0.2252
vn 0.9728 0.1926 0.1287
vn 0.9142 -0.3975 -0.0791
vn 0.9728 -0.2272 -0.0452
vn 0.9142 0.2252 0.3370
vn 0.9728 0.1287 0.1926
vn 0.9142 -0.3370 -0.2252
vn 0.9728 -0.1926 -0.1287
vn 0.9142 0.0791 0.3975
vn 0.9728 0.0452 0.2272
vn 0.9728 0.0452 -0.2272
vn 0.9728 -0.0452 -0.2272
vn 0.9142 -0.0791 -0.3975
vn 0.9142 0.0791 -0.3975
vn 0.9142 -0.2252 -0.3370
vn 0.9728 -0.1287 -0.1926
vn 0.9142 0.2252 -0.3370
vn 0.9728 0.1287 -0.1926
vn 0.9142 -0.0791 0.3975
vn 0.9728 -0.0452 0.2272
vn 0.9142 0.3370 -0.2252
vn 0.9728 0.1926 -0.1287
vn 0.9142 -0.2252 0.3370
vn 0.9728 -0.1287 0.1926
vn 1.0000 -0.0000 -0.0000
vn -0.9142 0.3975 0.0791
vn -0.9142 0.3975 -0.0791
vn -0.9728 0.2272 -0.0452
vn -0.9728 0.2272 0.0452
vn -0.9142 -0.3975 0.0791
vn -0.9142 -0.3370 0.2252
vn -0.9728 -0.1926 0.1287
vn -0.9728 -0.2272 0.0452
vn -0.9142 0.3370 0.2252
vn -0.9728 0.1926 0.1287
vn -0.9142 -0.3975 -0.0791
vn -0.9728 -0.2272 -0.0452
vn -0.9142 0.2252 0.3370
vn -0.9728 0.1287 0.1926
vn -0.9142 -0.3370 -0.2252
vn -0.9728 -0.1926 -0.1287
vn -0.9142 0.0791 0.3975
vn -0.9728 0.0452 0.2272
vn -0.9728 0.0452 -0.2272
vn -0.9142 0.0791 -0.3975
vn -0.9142 -0.0791 -0.3975
vn -0.9728 -0.0452 -0.2272
vn -0.9142 -0.2252 -0.3370
vn -0.9728 -0.1287 -0.1926
vn -0.9142 0.2252 -0.3370
vn -0.9728 0.1287 -0.1926
vn -0.9142 -0.0791 0.3975
vn -0.9728 -0.0452 0.2272
vn -0.9142 0.3370 -0.2252
vn -0.9728 0.1926 -0.1287
vn -0.9142 -0.2252 0.3370
vn -0.9728 -0.1287 0.1926
vn -1.0000 -0.0000 -0.0000
vt 0.000000 0.000000
s 1
f 5/1/1 21/1/2 20/1/3 4/1/4
f 12/1/5 28/1/6 27/1/7 11/1/8
f 6/1/9 22/1/10 21/1/2 5/1/1
f 13/1/11 29/1/12 28/1/6 12/1/5
f 7/1/13 23/1/14 22/1/10 6/1/9
f 14/1/15 30/1/16 29/1/12 13/1/11
f 8/1/17 24/1/18 23/1/14 7/1/13
f 17/1/19 32/1/20 16/1/21 1/1/22
f 15/1/23 31/1/24 30/1/16 14/1/15
f 2/1/25 18/1/26 17/1/19 1/1/22
f 9/1/27 25/1/28 24/1/18 8/1/17
f 16/1/21 32/1/20 31/1/24 15/1/23
f 3/1/29 19/1/30 18/1/26 2/1/25
f 10/1/31 26/1/32 25/1/28 9/1/27
f 4/1/4 20/1/3 19/1/30 3/1/29
f 33/1/33 32/1/20 17/1/19
f 33/1/33 21/1/2 22/1/10
f 23/1/14 33/1/33 22/1/10
f 30/1/16 33/1/33 29/1/12
f 24/1/18 33/1/33 23/1/14
f 31/1/24 33/1/33 30/1/16
f 29/1/12 33/1/33 28/1/6
f 18/1/26 33/1/33 17/1/19
f 25/1/28 33/1/33 24/1/18
f 32/1/20 33/1/33 31/1/24
f 19/1/30 33/1/33 18/1/26
f 26/1/32 33/1/33 25/1/28
f 20/1/3 33/1/33 19/1/30
f 27/1/7 33/1/33 26/1/32
f 21/1/2 33/1/33 20/1/3
f 28/1/6 33/1/33 27/1/7
f 26/1/32 10/1/31 11/1/8 27/1/7
f 38/1/34 37/1/35 53/1/36 54/1/37
f 45/1/38 44/1/39 60/1/40 61/1/41
f 39/1/42 38/1/34 54/1/37 55/1/43
f 46/1/44 45/1/38 61/1/41 62/1/45
f 40/1/46 39/1/42 55/1/43 56/1/47
f 47/1/48 46/1/44 62/1/45 63/1/49
f 41/1/50 40/1/46 56/1/47 57/1/51
f 50/1/52 34/1/53 49/1/54 65/1/55
f 48/1/56 47/1/48 63/1/49 64/1/57
f 35/1/58 34/1/53 50/1/52 51/1/59
f 42/1/60 41/1/50 57/1/51 58/1/61
f 49/1/54 48/1/56 64/1/57 65/1/55
f 36/1/62 35/1/58 51/1/59 52/1/63
f 43/1/64 42/1/60 58/1/61 59/1/65
f 37/1/35 36/1/62 52/1/63 53/1/36
f 66/1/66 50/1/52 65/1/55
f 66/1/66 55/1/43 54/1/37
f 56/1/47 55/1/43 66/1/66
f 63/1/49 62/1/45 66/1/66
f 57/1/51 56/1/47 66/1/66
f 64/1/57 63/1/49 66/1/66
f 62/1/45 61/1/41 66/1/66
f 51/1/59 50/1/52 66/1/66
f 58/1/61 57/1/51 66/1/66
f 65/1/55 64/1/57 66/1/66
f 52/1/63 51/1/59 66/1/66
f 59/1/65 58/1/61 66/1/66
f 53/1/36 52/1/63 66/1/66
f 60/1/40 59/1/65 66/1/66
f 54/1/37 53/1/36 66/1/66
f 61/1/41 60/1/40 66/1/66
f 59/1/65 60/1/40 44/1/39 43/1/64
