# Blender 3.6.1
# www.blender.org
o CarLights
v 1.529858 -0.369016 3.628054
v 1.308308 -0.023821 3.443608
v 1.453025 -0.184849 3.547060
v 0.724982 -0.351342 3.628054
v 0.882549 -0.002815 3.468215
v 0.785754 -0.173190 3.571783
v 1.415801 -0.169929 3.576804
v 1.287525 -0.027194 3.485104
v 0.910132 -0.008575 3.506917
v 1.483906 -0.333174 3.648597
v 0.824333 -0.159594 3.598719
v 0.770466 -0.317509 3.648597
v -1.529858 -0.369016 3.628054
v -1.308308 -0.023821 3.443608
v -1.453025 -0.184849 3.547060
v -0.724982 -0.351342 3.628054
v -0.882549 -0.002815 3.468215
v -0.785754 -0.173190 3.571783
v -1.415801 -0.169929 3.576804
v -1.287525 -0.027194 3.485104
v -0.910132 -0.008575 3.506917
v -1.483906 -0.333174 3.648597
v -0.824333 -0.159594 3.598719
v -0.770466 -0.317509 3.648597
v 1.415801 -0.169929 3.576804
v 1.287525 -0.027194 3.485104
v 1.287525 -0.027194 3.485104
v 0.910132 -0.008575 3.506917
v 0.910132 -0.008575 3.506917
v 1.483906 -0.333174 3.648597
v 1.483906 -0.333174 3.648597
v 0.770466 -0.317509 3.648597
v 0.770466 -0.317509 3.648597
v 0.824333 -0.159594 3.598719
v 1.529858 -0.369016 3.628054
v 0.882549 -0.002815 3.468215
v 1.308308 -0.023821 3.443608
v 0.724982 -0.351342 3.628054
v -1.415801 -0.169929 3.576804
v -1.287525 -0.027194 3.485104
v -1.287525 -0.027194 3.485104
v -0.910132 -0.008575 3.506917
v -0.910132 -0.008575 3.506917
v -1.483906 -0.333174 3.648597
v -1.483906 -0.333174 3.648597
v -0.770466 -0.317509 3.648597
v -0.770466 -0.317509 3.648597
v -0.824333 -0.159594 3.598719
v -1.529858 -0.369016 3.628054
v -0.882549 -0.002815 3.468215
v -1.308308 -0.023821 3.443608
v -0.724982 -0.351342 3.628054
vn 0.0552 0.9926 0.1083
vn 0.6513 0.5163 0.5561
vn 0.6294 0.6095 0.4820
vn 0.6121 0.6606 0.4347
vn 0.0540 0.5346 0.8434
vn 0.0346 0.4240 0.9050
vn 0.0331 0.4152 0.9091
vn 0.0228 0.3551 0.9346
vn -0.5792 0.6377 0.5077
vn -0.6058 0.5115 0.6095
vn -0.5984 0.5568 0.5761
vn -0.0112 -0.5080 0.8613
vn 0.5750 0.7404 0.3482
vn -0.6143 0.4205 0.6677
vn -0.0552 0.9926 0.1083
vn -0.6513 0.5163 0.5561
vn -0.6121 0.6606 0.4347
vn -0.6294 0.6095 0.4820
vn -0.0540 0.5346 0.8434
vn -0.0331 0.4152 0.9091
vn -0.0346 0.4240 0.9050
vn -0.0228 0.3551 0.9346
vn 0.5792 0.6377 0.5077
vn 0.5984 0.5568 0.5761
vn 0.6058 0.5115 0.6095
vn 0.0112 -0.5080 0.8613
vn -0.5750 0.7404 0.3482
vn 0.6143 0.4205 0.6677
vt 0.625000 0.750000
vt 0.411111 0.493333
vt 0.000000 0.000000
vt 0.312500 0.375000
vt 0.165495 0.198594
s 1
f 2/1/1 36/2/1 28/2/1 27/1/1
f 35/3/2 3/4/3 25/4/4 30/3/2
f 26/1/5 29/2/5 34/5/6 7/4/7
f 7/4/7 34/5/6 32/3/8 31/3/8
f 5/2/9 6/5/10 11/5/11 9/2/9
f 38/3/12 1/3/12 10/3/12 33/3/12
f 3/4/3 37/1/13 8/1/13 25/4/4
f 6/5/10 4/3/14 12/3/14 11/5/11
f 14/1/15 41/1/15 42/2/15 50/2/15
f 49/3/16 44/3/16 39/4/17 15/4/18
f 40/1/19 19/4/20 48/5/21 43/2/19
f 19/4/20 45/3/22 46/3/22 48/5/21
f 17/2/23 21/2/23 23/5/24 18/5/25
f 52/3/26 47/3/26 22/3/26 13/3/26
f 15/4/18 39/4/17 20/1/27 51/1/27
f 18/5/25 23/5/24 24/3/28 16/3/28
