# Blender 3.6.1
# www.blender.org
o Car
v 0.969078 1.276482 -1.026596
v 1.592205 -0.457682 -0.977382
v 1.592205 -0.457682 0.231309
v 1.591500 -0.472532 1.439999
v 1.578897 -0.473889 1.871758
v 1.362659 0.298828 1.935078
v 1.289680 0.181674 -3.505409
v 0.000000 0.198762 -3.536288
v 0.000000 0.332191 1.936726
v 0.969078 1.261717 0.231309
v 1.355379 0.398003 1.410470
v 0.000000 1.310052 -1.026596
v 0.000000 1.295288 0.231309
v 0.000000 0.424189 1.410470
v 0.000000 1.267958 -2.238742
v 1.572667 -0.465741 -1.976225
v 0.969078 1.234387 -2.238742
v 0.000000 1.306125 -1.139684
v 0.969078 1.272555 -1.139684
v 1.592205 -0.457887 -1.071874
v 1.568847 -0.464229 -2.131237
v 0.000000 1.164745 -2.363998
v 1.015971 1.147657 -2.363998
v 1.073870 0.991928 -2.552986
v 1.135280 0.799156 -2.786929
v 1.182437 0.636040 -2.984873
v 1.211309 0.490370 -3.158878
v 0.000000 0.392865 -3.300731
v 1.233621 0.375776 -3.292317
v 1.320847 0.091536 3.190696
v 0.000000 0.124898 3.192344
v 0.000000 0.148887 3.029140
v 0.000000 0.186713 2.809370
v 0.000000 0.213626 2.640000
v 0.000000 0.240539 2.470629
v 0.000000 0.267452 2.301259
v 0.000000 0.294365 2.131889
v 1.571242 -0.473113 1.968873
v 1.320847 0.115525 3.027492
v 1.333877 0.153350 2.807722
v 1.333035 0.180263 2.638351
v 1.340422 0.207177 2.468981
v 1.348968 0.234090 2.299611
v 1.356344 0.261003 2.130241
v 1.308308 0.002950 3.394393
v 1.529858 -0.369016 3.628054
v 0.000000 0.033016 3.426741
v 1.535132 -0.343865 -3.479441
v 1.556232 -0.320712 1.858528
v 1.592205 -0.321127 -0.992427
v 1.592205 -0.325641 0.231309
v 1.583054 -0.316484 1.424312
v 1.560547 -0.331184 -1.996124
v 1.592205 -0.322470 -1.092604
v 1.555679 -0.322087 -2.112180
v 1.539910 -0.159869 -2.317734
v 1.537405 -0.085781 -2.588064
v 1.537054 -0.088397 -2.843880
v 1.539608 -0.171144 -3.067975
v 1.550183 -0.315268 -3.235512
v 1.546837 -0.355255 3.175882
v 1.521418 -0.209800 2.061779
v 1.496127 -0.099301 2.256535
v 1.490171 -0.051427 2.442357
v 1.497010 -0.064071 2.660676
v 1.513425 -0.135111 2.887459
v 1.532441 -0.262034 3.064418
v 1.526024 -0.362749 3.452420
v 0.000000 0.280307 -3.437328
v 1.267509 0.263219 -3.420347
v 1.543880 -0.335440 -3.369368
v 1.336255 0.042978 -3.584241
v 0.000000 0.052958 -3.659096
v 1.524838 -0.349046 -3.656379
v 0.000000 -0.331958 -3.783682
v 1.308308 -0.023821 3.443608
v 0.000000 -0.000348 3.482548
v 1.453025 -0.184849 3.547060
v 1.497408 -0.081095 -3.490586
v 1.470918 -0.006900 1.924822
v 1.592205 0.060693 -1.000510
v 1.592205 0.053754 0.231309
v 1.543026 0.038761 1.417391
v 1.516213 0.042009 -2.068197
v 1.592205 0.058738 -1.103741
v 1.497408 0.052381 -2.172347
v 1.497408 0.112646 -2.362542
v 1.497408 0.152429 -2.614625
v 1.497408 0.148548 -2.856061
v 1.497408 0.123092 -3.082125
v 1.497408 0.009032 -3.248599
v 1.495466 -0.129316 3.183289
v 1.450002 0.037341 2.090241
v 1.441622 0.068843 2.278073
v 1.446088 0.073056 2.457317
v 1.457297 0.057246 2.644569
v 1.473972 0.009662 2.842646
v 1.486143 -0.071273 3.045955
v 1.477499 -0.170869 3.414721
v 1.497408 -0.036111 -3.389214
v 1.461855 -0.181806 -3.639627
v 0.000000 -0.175062 -3.770700
v 1.580707 -1.041776 -0.864185
v 1.580707 -1.033574 0.233564
v 1.580707 -1.064743 1.331312
v 1.580707 -1.114352 1.724938
v 1.580707 -1.115113 -1.771347
v 1.580707 -1.041981 -0.950004
v 1.580707 -1.107905 -1.917305
v 1.580707 -1.075206 1.826072
v 0.867961 0.187522 -3.528402
v 0.896327 0.319835 1.935078
v 0.647195 1.298812 -1.026596
v 0.647195 1.284047 0.231309
v 0.891538 0.406964 1.410470
v 0.647195 1.256717 -2.238742
v 0.647195 1.294884 -1.139684
v 0.668283 1.153505 -2.363998
v 0.826565 0.381624 -3.298870
v 0.912575 0.112542 3.190696
v 0.900536 0.282009 2.130241
v 0.909002 0.255096 2.299611
v 0.919343 0.228183 2.468981
v 0.914485 0.201270 2.638351
v 0.921146 0.174356 2.807722
v 0.912575 0.136531 3.027492
v 0.882549 0.023956 3.419000
v 0.920087 0.042906 -3.629354
v 0.850906 0.269067 -3.432188
v 0.919699 -0.341998 -3.709760
v 0.882549 -0.002815 3.468215
v 0.920506 -0.185057 -3.703978
v 1.586456 -0.745628 0.232436
v 1.586456 -0.749729 -0.920783
v 1.585311 -0.786155 -1.873786
v 1.586456 -0.749934 -1.010939
v 1.584147 -0.778947 -2.027119
v 1.586103 -0.768637 1.385656
v 1.579802 -0.784232 1.799172
v 1.575975 -0.745758 1.905417
v 1.299523 0.530353 1.233167
v 1.549049 0.040598 1.272128
v 1.444580 0.357315 -1.112464
v 1.373596 0.365894 -2.096128
v 1.448643 0.342733 0.231309
v 1.402313 0.328603 1.249216
v 1.444495 0.359920 -1.006845
v 1.056328 1.132431 0.231309
v 1.377538 0.377230 1.245348
v 1.023673 1.212416 -1.024891
v 1.016746 1.207941 -0.003455
v 1.035095 1.134632 -2.185241
v 1.025509 1.204905 -1.137226
v 0.000000 1.238379 0.308343
v 0.670057 1.201985 0.341634
v 1.038686 1.148411 0.405180
v 1.285586 0.399351 1.410470
v 0.981313 1.156749 0.395290
v 1.148953 0.376993 -3.293680
v 0.924797 1.149190 -2.363998
v 1.053424 0.800396 -2.786929
v 0.982267 0.993385 -2.552986
v 1.123025 0.491655 -3.159460
v 1.090149 0.637400 -2.984875
v 0.000000 1.287041 -1.689213
v 0.969078 1.253471 -1.689213
v 0.647195 1.275801 -1.689213
v 1.024200 1.182110 -1.680145
v 1.204345 0.750263 -2.168117
v 0.043845 -0.168850 3.591296
v 0.043845 -0.108495 3.546980
v 0.747776 -0.174618 3.593338
v 0.771136 -0.117285 3.550092
v 0.043845 -0.233129 3.619315
v 0.043845 -0.172775 3.574999
v 0.720306 -0.238897 3.621357
v 0.743666 -0.181564 3.578111
v 0.043845 -0.297409 3.637445
v 0.043845 -0.237054 3.593129
v 0.694210 -0.303177 3.639487
v 0.717569 -0.245844 3.596241
v 0.000000 -0.089022 3.535803
v 0.824782 -0.104494 3.530024
v -0.969078 1.276482 -1.026596
v -1.592205 -0.457682 -0.977382
v -1.592205 -0.457682 0.231309
v -1.591500 -0.472532 1.439999
v -1.578897 -0.473889 1.871758
v -1.362659 0.298828 1.935078
v -1.289680 0.181674 -3.505409
v -0.969078 1.261717 0.231309
v -1.355379 0.398003 1.410470
v -1.572667 -0.465741 -1.976225
v -0.969078 1.234387 -2.238742
v -0.969078 1.272555 -1.139684
v -1.592205 -0.457887 -1.071874
v -1.568847 -0.464229 -2.131237
v -1.015971 1.147657 -2.363998
v -1.073870 0.991928 -2.552986
v -1.135280 0.799156 -2.786929
v -1.182437 0.636040 -2.984873
v -1.211309 0.490370 -3.158878
v -1.233621 0.375776 -3.292317
v -1.320847 0.091536 3.190696
v -1.571242 -0.473113 1.968873
v -1.320847 0.115525 3.027492
v -1.333877 0.153350 2.807722
v -1.333035 0.180263 2.638351
v -1.340422 0.207177 2.468981
v -1.348968 0.234090 2.299611
v -1.356344 0.261003 2.130241
v -1.308308 0.002950 3.394393
v -1.529858 -0.369016 3.628054
v -1.535132 -0.343865 -3.479441
v -1.556232 -0.320712 1.858528
v -1.592205 -0.321127 -0.992427
v -1.592205 -0.325641 0.231309
v -1.583054 -0.316484 1.424312
v -1.560547 -0.331184 -1.996124
v -1.592205 -0.322470 -1.092604
v -1.555679 -0.322087 -2.112180
v -1.539910 -0.159869 -2.317734
v -1.537405 -0.085781 -2.588064
v -1.537054 -0.088397 -2.843880
v -1.539608 -0.171144 -3.067975
v -1.550183 -0.315268 -3.235512
v -1.546837 -0.355255 3.175882
v -1.521418 -0.209800 2.061779
v -1.496127 -0.099301 2.256535
v -1.490171 -0.051427 2.442357
v -1.497010 -0.064071 2.660676
v -1.513425 -0.135111 2.887459
v -1.532441 -0.262034 3.064418
v -1.526024 -0.362749 3.452420
v -1.267509 0.263219 -3.420347
v -1.543880 -0.335440 -3.369368
v -1.336255 0.042978 -3.584241
v -1.524838 -0.349046 -3.656379
v -1.308308 -0.023821 3.443608
v -1.453025 -0.184849 3.547060
v -1.497408 -0.081095 -3.490586
v -1.470918 -0.006900 1.924822
v -1.592205 0.060693 -1.000510
v -1.592205 0.053754 0.231309
v -1.543026 0.038761 1.417391
v -1.516213 0.042009 -2.068197
v -1.592205 0.058738 -1.103741
v -1.497408 0.052381 -2.172347
v -1.497408 0.112646 -2.362542
v -1.497408 0.152429 -2.614625
v -1.497408 0.148548 -2.856061
v -1.497408 0.123092 -3.082125
v -1.497408 0.009032 -3.248599
v -1.495466 -0.129316 3.183289
v -1.450002 0.037341 2.090241
v -1.441622 0.068843 2.278073
v -1.446088 0.073056 2.457317
v -1.457297 0.057246 2.644569
v -1.473972 0.009662 2.842646
v -1.486143 -0.071273 3.045955
v -1.477499 -0.170869 3.414721
v -1.497408 -0.036111 -3.389214
v -1.461855 -0.181806 -3.639627
v -1.580707 -1.041776 -0.864185
v -1.580707 -1.033574 0.233564
v -1.580707 -1.064743 1.331312
v -1.580707 -1.114352 1.724938
v -1.580707 -1.115113 -1.771347
v -1.580707 -1.041981 -0.950004
v -1.580707 -1.107905 -1.917305
v -1.580707 -1.075206 1.826072
v -0.867961 0.187522 -3.528402
v -0.896327 0.319835 1.935078
v -0.647195 1.298812 -1.026596
v -0.647195 1.284047 0.231309
v -0.891538 0.406964 1.410470
v -0.647195 1.256717 -2.238742
v -0.647195 1.294884 -1.139684
v -0.668283 1.153505 -2.363998
v -0.826565 0.381624 -3.298870
v -0.912575 0.112542 3.190696
v -0.900536 0.282009 2.130241
v -0.909002 0.255096 2.299611
v -0.919343 0.228183 2.468981
v -0.914485 0.201270 2.638351
v -0.921146 0.174356 2.807722
v -0.912575 0.136531 3.027492
v -0.882549 0.023956 3.419000
v -0.920087 0.042906 -3.629354
v -0.850906 0.269067 -3.432188
v -0.919699 -0.341998 -3.709760
v -0.882549 -0.002815 3.468215
v -0.920506 -0.185057 -3.703978
v -1.586456 -0.745628 0.232436
v -1.586456 -0.749729 -0.920783
v -1.585311 -0.786155 -1.873786
v -1.586456 -0.749934 -1.010939
v -1.584147 -0.778947 -2.027119
v -1.586103 -0.768637 1.385656
v -1.579802 -0.784232 1.799172
v -1.575975 -0.745758 1.905417
v -1.299523 0.530353 1.233167
v -1.549049 0.040598 1.272128
v -1.444580 0.357315 -1.112464
v -1.373596 0.365894 -2.096128
v -1.448643 0.342733 0.231309
v -1.402313 0.328603 1.249216
v -1.444495 0.359920 -1.006845
v -1.056328 1.132431 0.231309
v -1.377538 0.377230 1.245348
v -1.023673 1.212416 -1.024891
v -1.016746 1.207941 -0.003455
v -1.035095 1.134632 -2.185241
v -1.025509 1.204905 -1.137226
v -0.670057 1.201985 0.341634
v -1.038686 1.148411 0.405180
v -1.285586 0.399351 1.410470
v -0.981313 1.156749 0.395290
v -1.148953 0.376993 -3.293680
v -0.924797 1.149190 -2.363998
v -1.053424 0.800396 -2.786929
v -0.982267 0.993385 -2.552986
v -1.123025 0.491655 -3.159460
v -1.090149 0.637400 -2.984875
v -0.969078 1.253471 -1.689213
v -0.647195 1.275801 -1.689213
v -1.024200 1.182110 -1.680145
v -1.204345 0.750263 -2.168117
v -0.043845 -0.168850 3.591296
v -0.043845 -0.108495 3.546980
v -0.747776 -0.174618 3.593338
v -0.771136 -0.117285 3.550092
v -0.043845 -0.233129 3.619315
v -0.043845 -0.172775 3.574999
v -0.720306 -0.238897 3.621357
v -0.743666 -0.181564 3.578111
v -0.043845 -0.297409 3.637445
v -0.043845 -0.237054 3.593129
v -0.694210 -0.303177 3.639487
v -0.717569 -0.245844 3.596241
v -0.824782 -0.104494 3.530024
v 0.969078 1.276482 -1.026596
v 0.969078 1.261717 0.231309
v 0.969078 1.261717 0.231309
v 1.355379 0.398003 1.410470
v 1.362659 0.298828 1.935078
v 0.969078 1.272555 -1.139684
v 1.299523 0.530353 1.233167
v 0.647195 1.284047 0.231309
v 1.015971 1.147657 -2.363998
v 0.969078 1.234387 -2.238742
v 0.969078 1.234387 -2.238742
v 0.647195 1.256717 -2.238742
v 0.969078 1.253471 -1.689213
v 1.073870 0.991928 -2.552986
v 1.135280 0.799156 -2.786929
v 1.182437 0.636040 -2.984873
v 1.211309 0.490370 -3.158878
v 1.233621 0.375776 -3.292317
v 1.267509 0.263219 -3.420347
v 1.356344 0.261003 2.130241
v 1.320847 0.091536 3.190696
v 1.320847 0.115525 3.027492
v 1.333877 0.153350 2.807722
v 1.333035 0.180263 2.638351
v 1.340422 0.207177 2.468981
v 1.348968 0.234090 2.299611
v 1.308308 0.002950 3.394393
v 1.289680 0.181674 -3.505409
v 1.336255 0.042978 -3.584241
v 1.308308 -0.023821 3.443608
v 0.000000 1.295288 0.231309
v 0.000000 1.267958 -2.238742
v 1.038686 1.148411 0.405180
v -0.969078 1.276482 -1.026596
v -0.969078 1.261717 0.231309
v -0.969078 1.261717 0.231309
v -1.355379 0.398003 1.410470
v -1.362659 0.298828 1.935078
v -0.969078 1.272555 -1.139684
v -1.299523 0.530353 1.233167
v -0.647195 1.284047 0.231309
v -1.015971 1.147657 -2.363998
v -0.969078 1.234387 -2.238742
v -0.969078 1.234387 -2.238742
v -0.647195 1.256717 -2.238742
v -0.969078 1.253471 -1.689213
v -1.073870 0.991928 -2.552986
v -1.135280 0.799156 -2.786929
v -1.182437 0.636040 -2.984873
v -1.211309 0.490370 -3.158878
v -1.233621 0.375776 -3.292317
v -1.267509 0.263219 -3.420347
v -1.356344 0.261003 2.130241
v -1.320847 0.091536 3.190696
v -1.320847 0.115525 3.027492
v -1.333877 0.153350 2.807722
v -1.333035 0.180263 2.638351
v -1.340422 0.207177 2.468981
v -1.348968 0.234090 2.299611
v -1.308308 0.002950 3.394393
v -1.289680 0.181674 -3.505409
v -1.336255 0.042978 -3.584241
v -1.308308 -0.023821 3.443608
v -1.038686 1.148411 0.405180
vn 0.9998 -0.0194 -0.0000
vn 0.9999 -0.0146 0.0069
vn 0.9999 -0.0142 0.0032
vn 0.9998 -0.0194 -0.0001
vn 0.9575 0.2780 0.0768
vn 0.8954 0.4386 0.0768
vn 0.9206 0.3796 0.0913
vn 0.9518 0.2966 0.0781
vn 0.0254 0.8154 0.5784
vn -0.0000 0.8040 0.5946
vn 0.0294 0.8194 0.5725
vn 1.0000 0.0023 -0.0077
vn 0.9999 -0.0126 -0.0025
vn 0.9998 -0.0183 0.0002
vn 0.9999 -0.0154 -0.0016
vn 0.0433 0.9990 -0.0115
vn -0.0000 0.9999 -0.0115
vn -0.0000 0.9999 0.0117
vn 0.0433 0.9990 0.0117
vn 0.0240 0.9850 0.1711
vn -0.0000 0.9858 0.1680
vn -0.0000 0.9838 0.1791
vn 0.0266 0.9832 0.1807
vn 0.9997 -0.0043 0.0225
vn 0.9990 -0.0010 0.0444
vn 0.9998 0.0047 0.0167
vn 0.9999 -0.0037 0.0107
vn 0.0433 0.9985 -0.0347
vn -0.0000 0.9994 -0.0347
vn 0.9998 -0.0197 0.0001
vn 0.7728 0.6341 -0.0257
vn 0.7698 0.6382 -0.0067
vn 0.8156 0.5786 -0.0087
vn 0.8199 0.5721 -0.0213
vn 0.9734 0.2293 -0.0016
vn 0.8965 0.4431 -0.0064
vn 0.8941 0.4472 0.0237
vn 0.9699 0.2428 0.0184
vn 0.8883 0.4564 0.0509
vn 0.9647 0.2606 0.0380
vn 0.9616 0.2732 -0.0249
vn 0.9121 0.4067 -0.0516
vn 0.8739 0.4821 -0.0622
vn 0.8793 0.4717 -0.0660
vn 0.9125 0.3984 -0.0923
vn 0.9104 0.4048 -0.0851
vn 0.9657 0.2465 -0.0810
vn 0.0244 0.7880 -0.6152
vn -0.0000 0.7723 -0.6353
vn 0.0224 0.7853 -0.6187
vn 0.9998 0.0189 -0.0110
vn 0.9999 -0.0137 -0.0045
vn 0.9001 0.4345 -0.0312
vn 0.9720 0.2325 -0.0350
vn 0.9513 0.3073 0.0233
vn 0.9018 0.4320 0.0115
vn 0.9441 0.3288 -0.0242
vn 0.8831 0.4663 -0.0523
vn 0.9346 0.3476 -0.0757
vn 0.8520 0.5092 -0.1217
vn 0.9081 0.3794 -0.1772
vn 0.8114 0.5365 -0.2322
vn 0.9233 0.3434 -0.1722
vn 0.7841 0.5386 -0.3084
vn 0.9091 0.3775 -0.1760
vn 0.7858 0.5656 -0.2504
vn 0.0226 0.7612 -0.6481
vn -0.0000 0.7683 -0.6401
vn -0.0000 0.7685 -0.6398
vn 0.0186 0.7647 -0.6441
vn 0.0319 0.9869 0.1581
vn -0.0000 0.9875 0.1577
vn -0.0000 0.9666 0.2563
vn 0.0349 0.9646 0.2614
vn 0.8774 0.4657 0.1151
vn 0.7288 0.6622 0.1740
vn 0.7450 0.6390 0.1913
vn 0.8915 0.4327 0.1340
vn 0.9197 0.3896 0.0492
vn 0.9425 0.3331 0.0268
vn 0.8714 0.4889 0.0400
vn 0.9155 0.4023 0.0041
vn 0.7927 0.6068 0.0585
vn 0.8790 0.4766 0.0158
vn 0.7233 0.6847 0.0894
vn 0.8525 0.5208 0.0453
vn 0.7011 0.6982 0.1448
vn 0.8552 0.5088 0.0982
vn -0.0000 0.9849 0.1734
vn 0.0295 0.9844 0.1735
vn -0.0000 0.9877 0.1566
vn 0.0304 0.9872 0.1566
vn -0.0000 0.9876 0.1568
vn 0.0317 0.9871 0.1572
vn -0.0000 0.9876 0.1569
vn 0.0312 0.9871 0.1570
vn -0.0000 0.9866 0.1633
vn 0.0323 0.9860 0.1635
vn 0.7026 0.6680 0.2452
vn 0.8559 0.4877 0.1718
vn 0.0376 0.9014 0.4314
vn -0.0000 0.9020 0.4318
vn -0.0000 0.7129 0.7012
vn 0.0352 0.7991 0.6001
vn 0.8576 0.4919 0.1504
vn 0.6593 0.7098 0.2482
vn 0.0357 0.6762 -0.7358
vn 0.0573 0.6421 -0.7645
vn 0.0713 0.5520 -0.8308
vn 0.0522 0.5134 -0.8566
vn -0.0000 0.6947 -0.7193
vn 0.8817 0.3746 -0.2870
vn 0.7522 0.5615 -0.3448
vn 0.9723 0.1852 -0.1426
vn 0.9519 0.2256 -0.2072
vn 0.8925 0.3265 -0.3112
vn 0.6911 0.5147 -0.5073
vn 0.9865 0.1486 -0.0684
vn 0.9369 0.3392 0.0851
vn 0.9510 0.2958 0.0903
vn 0.9689 0.2349 0.0783
vn 0.9628 0.2661 0.0461
vn 0.9702 0.2368 0.0507
vn 0.9536 0.3011 -0.0048
vn 0.9458 0.3232 -0.0323
vn 0.9523 0.3037 -0.0308
vn 0.9621 0.2723 0.0172
vn 0.9753 0.2028 0.0872
vn 0.9861 0.1517 -0.0676
vn 0.9868 0.1488 -0.0640
vn 0.9874 0.1574 -0.0178
vn 0.9863 0.1643 0.0164
vn 0.9857 0.1624 0.0450
vn 0.9899 0.1316 -0.0529
vn 0.9940 0.0805 -0.0742
vn 0.9993 0.0258 -0.0288
vn 0.9996 0.0273 0.0123
vn 0.9910 0.1149 0.0689
vn 1.0000 -0.0000 -0.0000
vn -0.0000 0.4996 -0.8662
vn 0.0655 0.2218 -0.9729
vn -0.0000 0.2210 -0.9753
vn 0.0767 0.0593 -0.9953
vn -0.0000 0.0595 -0.9982
vn 0.0324 0.7529 -0.6574
vn 0.0547 0.9626 0.2654
vn 0.0641 0.9010 0.4291
vn 0.0708 0.8762 0.4766
vn 0.0501 0.9852 0.1636
vn 0.0506 0.9860 0.1587
vn 0.0496 0.9863 0.1571
vn 0.0487 0.9863 0.1575
vn 0.0472 0.9865 0.1566
vn 0.0455 0.9837 0.1738
vn 0.0382 0.9825 0.1824
vn 0.0228 0.7605 -0.6489
vn 0.0221 0.7606 -0.6489
vn 0.0156 0.7650 -0.6438
vn 0.0160 0.7644 -0.6446
vn 0.0123 0.7709 -0.6369
vn 0.0125 0.7704 -0.6374
vn 0.0118 0.7731 -0.6342
vn 0.0124 0.7734 -0.6338
vn 0.0123 0.7733 -0.6339
vn 0.0274 0.7929 -0.6088
vn 0.0213 0.7849 -0.6192
vn 0.0692 0.9970 -0.0346
vn 0.0337 0.8008 -0.5980
vn 0.0692 0.9975 -0.0115
vn 0.0248 0.9269 0.3746
vn 0.0262 0.9412 0.3369
vn 0.0692 0.9975 0.0117
vn 0.0399 0.8294 0.5572
vn 0.0334 0.8229 0.5673
vn 0.0233 0.8125 0.5826
vn 1.0000 -0.0040 -0.0067
vn 0.9998 -0.0197 -0.0000
vn 0.9998 -0.0152 0.0123
vn 0.9991 -0.0072 0.0422
vn 0.9991 0.0391 -0.0150
vn 0.9996 0.0266 -0.0138
vn 0.9998 -0.0195 0.0001
vn 0.9984 -0.0037 0.0571
vn 0.8865 0.4597 0.0540
vn 0.8862 0.4602 0.0534
vn 0.8509 0.5239 0.0392
vn 0.8197 0.5720 0.0281
vn 0.8861 0.4605 0.0532
vn 0.7746 0.6323 0.0133
vn 0.8006 0.5987 -0.0262
vn 0.8020 0.5967 -0.0263
vn 0.0149 0.8035 0.5951
vn 0.0032 0.5965 0.8026
vn 0.0033 0.5965 0.8026
vn 0.0034 0.5965 0.8026
vn -0.0000 0.5139 0.8579
vn 0.0155 0.5138 0.8578
vn -0.9998 -0.0194 -0.0000
vn -0.9998 -0.0194 -0.0001
vn -0.9999 -0.0142 0.0032
vn -0.9999 -0.0146 0.0069
vn -0.9575 0.2780 0.0768
vn -0.9518 0.2966 0.0781
vn -0.9206 0.3796 0.0913
vn -0.8954 0.4386 0.0768
vn -0.0254 0.8154 0.5784
vn -0.0294 0.8194 0.5725
vn -1.0000 0.0023 -0.0077
vn -0.9999 -0.0154 -0.0016
vn -0.9998 -0.0183 0.0002
vn -0.9999 -0.0126 -0.0025
vn -0.0433 0.9990 -0.0115
vn -0.0433 0.9990 0.0117
vn -0.0240 0.9850 0.1711
vn -0.0266 0.9832 0.1807
vn -0.9997 -0.0043 0.0225
vn -0.9999 -0.0037 0.0107
vn -0.9998 0.0047 0.0167
vn -0.9990 -0.0010 0.0444
vn -0.0433 0.9985 -0.0347
vn -0.9998 -0.0197 0.0001
vn -0.7728 0.6341 -0.0257
vn -0.8199 0.5721 -0.0213
vn -0.8156 0.5786 -0.0087
vn -0.7698 0.6382 -0.0067
vn -0.9734 0.2293 -0.0016
vn -0.9699 0.2428 0.0184
vn -0.8941 0.4472 0.0237
vn -0.8965 0.4430 -0.0064
vn -0.9647 0.2606 0.0380
vn -0.8883 0.4564 0.0509
vn -0.9616 0.2732 -0.0249
vn -0.9657 0.2465 -0.0810
vn -0.9104 0.4048 -0.0851
vn -0.9125 0.3984 -0.0923
vn -0.8793 0.4717 -0.0660
vn -0.8739 0.4821 -0.0622
vn -0.9121 0.4067 -0.0516
vn -0.0244 0.7880 -0.6152
vn -0.0224 0.7853 -0.6187
vn -0.9998 0.0189 -0.0110
vn -0.9999 -0.0137 -0.0045
vn -0.9720 0.2325 -0.0350
vn -0.9001 0.4345 -0.0312
vn -0.9513 0.3073 0.0233
vn -0.9018 0.4320 0.0115
vn -0.9441 0.3288 -0.0242
vn -0.8831 0.4663 -0.0523
vn -0.9346 0.3476 -0.0757
vn -0.8520 0.5092 -0.1217
vn -0.9081 0.3794 -0.1772
vn -0.8114 0.5365 -0.2322
vn -0.9233 0.3434 -0.1722
vn -0.7841 0.5386 -0.3084
vn -0.9091 0.3775 -0.1760
vn -0.7858 0.5656 -0.2504
vn -0.0226 0.7612 -0.6481
vn -0.0186 0.7647 -0.6441
vn -0.0319 0.9869 0.1581
vn -0.0349 0.9646 0.2614
vn -0.8774 0.4657 0.1151
vn -0.8915 0.4327 0.1340
vn -0.7450 0.6390 0.1913
vn -0.7288 0.6622 0.1740
vn -0.9425 0.3331 0.0268
vn -0.9197 0.3896 0.0492
vn -0.9155 0.4023 0.0041
vn -0.8714 0.4889 0.0400
vn -0.8790 0.4766 0.0158
vn -0.7927 0.6068 0.0585
vn -0.8525 0.5208 0.0453
vn -0.7233 0.6847 0.0894
vn -0.8552 0.5088 0.0982
vn -0.7011 0.6982 0.1448
vn -0.0295 0.9844 0.1735
vn -0.0304 0.9872 0.1566
vn -0.0317 0.9871 0.1572
vn -0.0312 0.9871 0.1570
vn -0.0323 0.9860 0.1635
vn -0.8559 0.4877 0.1718
vn -0.7026 0.6680 0.2452
vn -0.0376 0.9014 0.4314
vn -0.0352 0.7991 0.6001
vn -0.8576 0.4919 0.1504
vn -0.6593 0.7098 0.2482
vn -0.0357 0.6762 -0.7358
vn -0.0522 0.5134 -0.8566
vn -0.0713 0.5520 -0.8308
vn -0.0573 0.6421 -0.7645
vn -0.8817 0.3746 -0.2870
vn -0.7522 0.5615 -0.3448
vn -0.8925 0.3265 -0.3112
vn -0.9519 0.2256 -0.2072
vn -0.9723 0.1852 -0.1426
vn -0.6911 0.5147 -0.5073
vn -0.9865 0.1486 -0.0684
vn -0.9510 0.2958 0.0903
vn -0.9369 0.3392 0.0851
vn -0.9689 0.2349 0.0783
vn -0.9628 0.2661 0.0461
vn -0.9702 0.2368 0.0507
vn -0.9536 0.3011 -0.0048
vn -0.9458 0.3232 -0.0323
vn -0.9523 0.3037 -0.0308
vn -0.9621 0.2723 0.0172
vn -0.9753 0.2028 0.0872
vn -0.9861 0.1517 -0.0676
vn -0.9868 0.1488 -0.0640
vn -0.9874 0.1574 -0.0178
vn -0.9863 0.1643 0.0164
vn -0.9857 0.1624 0.0450
vn -0.9899 0.1316 -0.0529
vn -0.9940 0.0805 -0.0742
vn -0.9993 0.0258 -0.0288
vn -0.9996 0.0273 0.0123
vn -0.9910 0.1149 0.0689
vn -1.0000 -0.0000 -0.0000
vn -0.0655 0.2218 -0.9729
vn -0.0767 0.0593 -0.9953
vn -0.0324 0.7529 -0.6574
vn -0.0547 0.9626 0.2654
vn -0.0641 0.9010 0.4291
vn -0.0708 0.8762 0.4766
vn -0.0501 0.9852 0.1636
vn -0.0506 0.9860 0.1587
vn -0.0496 0.9863 0.1571
vn -0.0487 0.9863 0.1575
vn -0.0472 0.9865 0.1566
vn -0.0455 0.9837 0.1738
vn -0.0382 0.9825 0.1824
vn -0.0221 0.7606 -0.6489
vn -0.0228 0.7605 -0.6489
vn -0.0160 0.7644 -0.6446
vn -0.0156 0.7650 -0.6438
vn -0.0125 0.7704 -0.6374
vn -0.0123 0.7709 -0.6369
vn -0.0118 0.7731 -0.6342
vn -0.0123 0.7733 -0.6339
vn -0.0124 0.7734 -0.6338
vn -0.0213 0.7849 -0.6192
vn -0.0274 0.7929 -0.6088
vn -0.0692 0.9970 -0.0346
vn -0.0337 0.8008 -0.5980
vn -0.0692 0.9975 -0.0115
vn -0.0248 0.9269 0.3746
vn -0.0262 0.9412 0.3369
vn -0.0692 0.9975 0.0117
vn -0.0399 0.8294 0.5572
vn -0.0233 0.8125 0.5826
vn -0.0334 0.8229 0.5673
vn -1.0000 -0.0040 -0.0067
vn -0.9998 -0.0197 -0.0000
vn -0.9998 -0.0152 0.0123
vn -0.9991 -0.0072 0.0422
vn -0.9991 0.0391 -0.0150
vn -0.9996 0.0266 -0.0138
vn -0.9998 -0.0195 0.0001
vn -0.9984 -0.0037 0.0571
vn -0.8862 0.4602 0.0534
vn -0.8865 0.4597 0.0540
vn -0.8861 0.4605 0.0532
vn -0.8197 0.5720 0.0281
vn -0.8509 0.5239 0.0392
vn -0.7746 0.6323 0.0133
vn -0.8006 0.5987 -0.0262
vn -0.8020 0.5967 -0.0263
vn -0.0149 0.8035 0.5951
vn -0.0032 0.5965 0.8026
vn -0.0033 0.5965 0.8026
vn -0.0034 0.5965 0.8026
vn -0.0155 0.5138 0.8578
vt 0.375000 0.625000
vt 0.375000 0.687500
vt 0.571250 0.687500
vt 0.625000 0.687500
vt 0.625000 0.750000
vt 0.571250 0.750000
vt 0.667778 0.625000
vt 0.750000 0.625000
vt 0.750000 0.629083
vt 0.667778 0.630848
vt 0.375000 0.530455
vt 0.375000 0.559584
vt 0.667778 0.562500
vt 0.750000 0.562500
vt 0.667778 0.687500
vt 0.750000 0.687500
vt 0.750000 0.750000
vt 0.667778 0.750000
vt 0.375000 0.750000
vt 0.375000 0.750000
vt 0.667778 0.559584
vt 0.750000 0.559584
vt 0.375000 0.562500
vt 0.625000 0.559584
vt 0.625000 0.562500
vt 0.616338 0.562500
vt 0.615938 0.559584
vt 0.492487 0.562500
vt 0.524665 0.562500
vt 0.523761 0.625000
vt 0.492487 0.625000
vt 0.598885 0.678820
vt 0.561604 0.679845
vt 0.454432 0.528318
vt 0.625000 0.528318
vt 0.625000 0.531250
vt 0.612282 0.531250
vt 0.570227 0.531250
vt 0.528172 0.531250
vt 0.492735 0.531250
vt 0.667778 0.528318
vt 0.750000 0.528318
vt 0.750000 0.531250
vt 0.667778 0.531250
vt 0.375000 0.528318
vt 0.524646 0.559584
vt 0.492487 0.559584
vt 0.667778 0.545417
vt 0.750000 0.545417
vt 0.543228 0.523895
vt 0.625000 0.523895
vt 0.547401 0.518420
vt 0.625000 0.518420
vt 0.552934 0.513787
vt 0.625000 0.513787
vt 0.565067 0.509649
vt 0.625000 0.509649
vt 0.568646 0.506394
vt 0.625000 0.506394
vt 0.571250 0.503197
vt 0.625000 0.503197
vt 0.667778 0.503197
vt 0.750000 0.503197
vt 0.750000 0.506394
vt 0.667778 0.506394
vt 0.538616 0.750000
vt 0.571250 0.750000
vt 0.667778 0.750000
vt 0.411111 0.493333
vt 0.000000 0.000000
vt 0.411111 0.493333
vt 0.312500 0.375000
vt 0.318699 0.382439
vt 0.667778 0.500881
vt 0.625000 0.500881
vt 0.625000 0.500000
vt 0.670667 0.500000
vt 0.750000 0.500881
vt 0.571250 0.500881
vt 0.517501 0.500881
vt 0.517501 0.500000
vt 0.571250 0.500000
vt 0.517501 0.503197
vt 0.517501 0.750000
vt 0.517501 0.750000
vt 0.452232 0.750000
vt 0.517501 0.750000
vt 0.517501 0.506394
vt 0.517501 0.509649
vt 0.517501 0.513787
vt 0.517501 0.518420
vt 0.517501 0.523895
vt 0.393549 0.528318
vt 0.451753 0.531250
vt 0.451428 0.559584
vt 0.451428 0.625000
vt 0.517501 0.687500
vt 0.451428 0.562500
vt 0.750000 0.500000
vt 0.489785 0.396222
vt 0.375000 0.250000
vt 0.304066 0.293783
vt 0.633898 0.506394
vt 0.634400 0.509649
vt 0.634948 0.513787
vt 0.634073 0.518420
vt 0.635663 0.523895
vt 0.636218 0.528318
vt 0.625000 0.545417
vt 0.631437 0.687500
vt 0.625000 0.625000
vt 0.631658 0.633692
vt 0.625000 0.634216
vt 0.605179 0.678647
vt 0.625000 0.678102
vt 0.609225 0.625000
vt 0.617823 0.613314
vt 0.615440 0.545417
vt 0.165495 0.198594
vt 0.264529 0.317434
s 1
f 133/1/1 138/2/2 105/2/3 104/1/4
f 83/3/5 345/4/6 346/5/7 80/6/8
f 114/7/9 13/8/10 154/9/10 155/10/11
f 135/11/12 136/12/13 108/12/14 107/11/15
f 113/13/16 12/14/17 372/8/18 349/7/19
f 115/15/20 14/16/21 9/17/22 112/18/23
f 139/19/24 140/20/25 110/20/26 106/19/27
f 117/21/28 18/22/29 12/14/17 113/13/16
f 134/23/30 133/1/1 104/1/4 103/23/30
f 347/24/31 1/25/32 150/26/33 153/27/34
f 81/28/35 147/29/36 145/30/37 82/31/38
f 82/31/38 145/30/37 146/32/39 142/33/40
f 86/34/41 350/35/42 351/36/43 152/37/44 169/38/45 144/39/46 84/40/47
f 118/41/48 22/42/49 373/43/49 353/44/50
f 137/45/51 135/11/12 107/11/15 109/45/52
f 84/40/47 144/39/46 143/46/53 85/47/54
f 167/48/28 165/49/29 18/22/29 117/21/28
f 87/50/55 355/51/56 350/35/42 86/34/41
f 88/52/57 356/53/58 355/51/56 87/50/55
f 89/54/59 357/55/60 356/53/58 88/52/57
f 90/56/61 358/57/62 357/55/60 89/54/59
f 91/58/63 359/59/64 358/57/62 90/56/61
f 100/60/65 360/61/66 359/59/64 91/58/63
f 129/62/67 69/63/68 28/64/69 119/65/70
f 126/18/71 32/17/72 31/17/73 120/18/74
f 98/66/75 363/5/76 362/5/77 92/6/78
f 80/6/8 346/5/7 361/5/79 93/6/80
f 93/6/80 361/5/79 367/5/81 94/6/82
f 94/6/82 367/5/81 366/5/83 95/67/84
f 95/67/84 366/5/83 365/5/85 96/6/86
f 96/6/86 365/5/85 364/5/87 97/6/88
f 97/6/88 364/5/87 363/5/76 98/66/75
f 112/18/23 9/17/22 37/17/89 121/18/90
f 121/18/90 37/17/89 36/17/91 122/68/92
f 122/68/92 36/17/91 35/17/93 123/18/94
f 123/18/94 35/17/93 34/17/95 124/18/96
f 124/18/96 34/17/95 33/17/97 125/18/98
f 125/18/98 33/17/97 32/17/72 126/18/71
f 138/2/2 139/19/24 106/19/27 105/2/3
f 92/6/78 362/5/77 368/5/99 99/6/100
f 127/69/101 47/70/102 77/70/103 131/71/104
f 78/72/105 99/73/100 368/5/99 371/5/106
f 120/18/74 31/17/73 47/70/102 127/69/101
f 111/74/107 369/75/108 370/76/109 128/77/110
f 111/74/107 8/78/111 69/63/68 129/62/67
f 79/79/112 7/75/113 360/61/66 100/60/65
f 79/79/112 48/80/114 74/81/115 101/82/116
f 7/75/113 79/79/112 101/82/116 72/76/117
f 48/80/114 79/79/112 100/60/65 71/83/118
f 99/73/100 78/72/105 46/70/119 68/70/120
f 61/84/121 92/6/78 99/6/100 68/84/120
f 66/85/122 97/6/88 98/66/75 67/86/123
f 65/84/124 96/6/86 97/6/88 66/85/122
f 64/87/125 95/67/84 96/6/86 65/84/124
f 63/84/126 94/6/82 95/67/84 64/87/125
f 62/85/127 93/6/80 94/6/82 63/84/126
f 49/85/128 80/6/8 93/6/80 62/85/127
f 67/86/123 98/66/75 92/6/78 61/84/121
f 71/83/118 100/60/65 91/58/63 60/88/129
f 60/88/129 91/58/63 90/56/61 59/89/130
f 59/89/130 90/56/61 89/54/59 58/90/131
f 58/90/131 89/54/59 88/52/57 57/91/132
f 57/91/132 88/52/57 87/50/55 56/92/133
f 56/92/133 87/50/55 86/34/41 55/93/134
f 53/94/135 84/40/47 85/47/54 54/95/136
f 55/93/134 86/34/41 84/40/47 53/94/135
f 51/96/137 82/31/38 142/33/40 83/3/5 52/97/138
f 50/98/139 81/28/35 82/31/38 51/96/137
f 54/95/136 85/47/54 81/28/35 50/98/139
f 52/97/138 83/3/5 80/6/8 49/85/128
f 136/12/13 134/23/30 103/23/30 108/12/14
f 73/99/140 128/77/110 132/100/141 102/101/142
f 102/101/142 132/100/141 130/102/143 75/70/144
f 369/75/108 111/74/107 129/62/67 70/61/145
f 8/78/111 111/74/107 128/77/110 73/99/140
f 30/5/146 120/18/74 127/69/101 45/5/147
f 45/5/147 127/69/101 131/71/104 76/5/148
f 40/5/149 125/18/98 126/18/71 39/5/150
f 41/5/151 124/18/96 125/18/98 40/5/149
f 42/5/152 123/18/94 124/18/96 41/5/151
f 43/5/153 122/68/92 123/18/94 42/5/152
f 44/5/154 121/18/90 122/68/92 43/5/153
f 6/5/155 112/18/23 121/18/90 44/5/154
f 39/5/150 126/18/71 120/18/74 30/5/146
f 70/61/145 129/62/67 119/65/70 159/103/156 29/59/157
f 29/59/157 159/103/156 163/104/158 27/57/159
f 27/57/159 163/104/158 164/105/160 26/55/161
f 26/55/161 164/105/160 161/106/162 25/53/162
f 25/53/162 161/106/162 162/107/163 24/51/164
f 24/51/164 162/107/163 160/108/165 23/35/166
f 354/109/167 167/48/28 117/21/28 19/24/167
f 23/35/166 160/108/165 118/41/48 353/44/50 352/36/168
f 19/24/167 117/21/28 113/13/16 342/25/169
f 11/4/170 157/110/171 115/15/20 112/18/23 6/5/155
f 342/25/169 113/13/16 349/7/19 343/111/172
f 10/111/173 114/7/9 155/10/11 158/112/174 156/113/175
f 20/12/176 2/23/177 134/23/30 136/12/13
f 4/2/178 5/19/179 139/19/24 138/2/2
f 21/45/180 16/11/181 135/11/12 137/45/51
f 2/23/177 3/1/182 133/1/1 134/23/30
f 5/19/179 38/20/183 140/20/25 139/19/24
f 16/11/181 20/12/176 136/12/13 135/11/12
f 3/1/182 4/2/178 138/2/2 133/1/1
f 142/33/40 146/32/39 149/114/184 348/115/185 345/4/6 83/3/5
f 149/114/184 148/116/186 344/111/187 374/113/188 348/115/185
f 148/116/186 151/117/189 150/26/33 1/25/32 344/111/187
f 168/118/190 152/37/44 351/36/43 166/109/191
f 156/113/175 158/112/174 157/110/171 11/4/170 141/115/192
f 153/27/34 168/118/190 166/109/191 347/24/31
f 17/36/167 116/44/28 167/48/28 354/109/167
f 116/44/28 15/43/29 165/49/29 167/48/28
f 173/119/193 171/70/193 170/70/193 172/70/193
f 177/119/194 175/70/194 174/70/194 176/70/194
f 181/119/195 179/70/195 178/70/195 180/70/195
f 131/71/104 77/70/103 182/70/196 183/120/197
f 143/70/53 153/27/34 150/26/33 147/70/36
f 81/28/35 85/47/54 143/46/53 147/70/36
f 294/1/198 265/1/199 266/2/200 299/2/201
f 245/3/202 242/6/203 379/5/204 378/4/205
f 275/7/206 315/10/207 154/9/10 13/8/10
f 296/11/208 268/11/209 269/12/210 297/12/211
f 274/13/212 382/7/213 372/8/18 12/14/17
f 276/15/214 273/18/215 9/17/22 14/16/21
f 300/19/216 267/19/217 271/20/218 301/20/219
f 278/21/220 274/13/212 12/14/17 18/22/29
f 295/23/221 264/23/221 265/1/199 294/1/198
f 380/24/222 314/27/223 311/26/224 184/25/225
f 243/28/226 244/31/227 306/30/228 308/29/229
f 244/31/227 303/33/230 307/32/231 306/30/228
f 248/34/232 246/40/233 305/39/234 328/38/235 313/37/236 384/36/237 383/35/238
f 279/41/239 386/44/240 373/43/49 22/42/49
f 298/45/241 270/45/242 268/11/209 296/11/208
f 246/40/233 247/47/243 304/46/244 305/39/234
f 326/48/220 278/21/220 18/22/29 165/49/29
f 249/50/245 248/34/232 383/35/238 388/51/246
f 250/52/247 249/50/245 388/51/246 389/53/248
f 251/54/249 250/52/247 389/53/248 390/55/250
f 252/56/251 251/54/249 390/55/250 391/57/252
f 253/58/253 252/56/251 391/57/252 392/59/254
f 262/60/255 253/58/253 392/59/254 393/61/256
f 290/62/257 280/65/258 28/64/69 69/63/68
f 287/18/259 281/18/260 31/17/73 32/17/72
f 260/66/261 254/6/262 395/5/263 396/5/264
f 242/6/203 255/6/265 394/5/266 379/5/204
f 255/6/265 256/6/267 400/5/268 394/5/266
f 256/6/267 257/67/269 399/5/270 400/5/268
f 257/67/269 258/6/271 398/5/272 399/5/270
f 258/6/271 259/6/273 397/5/274 398/5/272
f 259/6/273 260/66/261 396/5/264 397/5/274
f 273/18/215 282/18/275 37/17/89 9/17/22
f 282/18/275 283/68/276 36/17/91 37/17/89
f 283/68/276 284/18/277 35/17/93 36/17/91
f 284/18/277 285/18/278 34/17/95 35/17/93
f 285/18/278 286/18/279 33/17/97 34/17/95
f 286/18/279 287/18/259 32/17/72 33/17/97
f 299/2/201 266/2/200 267/19/217 300/19/216
f 254/6/262 261/6/280 401/5/281 395/5/263
f 288/69/282 292/71/283 77/70/103 47/70/102
f 240/72/284 404/5/285 401/5/281 261/73/280
f 281/18/260 288/69/282 47/70/102 31/17/73
f 272/74/286 289/77/287 403/76/288 402/75/289
f 272/74/286 290/62/257 69/63/68 8/78/111
f 241/79/290 262/60/255 393/61/256 190/75/291
f 241/79/290 263/82/292 238/81/293 214/80/294
f 190/75/291 237/76/295 263/82/292 241/79/290
f 214/80/294 236/83/296 262/60/255 241/79/290
f 261/73/280 234/70/297 213/70/298 240/72/284
f 227/84/299 234/84/297 261/6/280 254/6/262
f 232/85/300 233/86/301 260/66/261 259/6/273
f 231/84/302 232/85/300 259/6/273 258/6/271
f 230/87/303 231/84/302 258/6/271 257/67/269
f 229/84/304 230/87/303 257/67/269 256/6/267
f 228/85/305 229/84/304 256/6/267 255/6/265
f 215/85/306 228/85/305 255/6/265 242/6/203
f 233/86/301 227/84/299 254/6/262 260/66/261
f 236/83/296 226/88/307 253/58/253 262/60/255
f 226/88/307 225/89/308 252/56/251 253/58/253
f 225/89/308 224/90/309 251/54/249 252/56/251
f 224/90/309 223/91/310 250/52/247 251/54/249
f 223/91/310 222/92/311 249/50/245 250/52/247
f 222/92/311 221/93/312 248/34/232 249/50/245
f 219/94/313 220/95/314 247/47/243 246/40/233
f 221/93/312 219/94/313 246/40/233 248/34/232
f 217/96/315 218/97/316 245/3/202 303/33/230 244/31/227
f 216/98/317 217/96/315 244/31/227 243/28/226
f 220/95/314 216/98/317 243/28/226 247/47/243
f 218/97/316 215/85/306 242/6/203 245/3/202
f 297/12/211 269/12/210 264/23/221 295/23/221
f 73/99/140 102/101/142 293/100/318 289/77/287
f 102/101/142 75/70/144 291/102/319 293/100/318
f 402/75/289 235/61/320 290/62/257 272/74/286
f 8/78/111 73/99/140 289/77/287 272/74/286
f 204/5/321 212/5/322 288/69/282 281/18/260
f 212/5/322 239/5/323 292/71/283 288/69/282
f 207/5/324 206/5/325 287/18/259 286/18/279
f 208/5/326 207/5/324 286/18/279 285/18/278
f 209/5/327 208/5/326 285/18/278 284/18/277
f 210/5/328 209/5/327 284/18/277 283/68/276
f 211/5/329 210/5/328 283/68/276 282/18/275
f 189/5/330 211/5/329 282/18/275 273/18/215
f 206/5/325 204/5/321 281/18/260 287/18/259
f 235/61/320 203/59/331 319/103/332 280/65/258 290/62/257
f 203/59/331 202/57/333 323/104/334 319/103/332
f 202/57/333 201/55/335 324/105/336 323/104/334
f 201/55/335 200/53/337 321/106/337 324/105/336
f 200/53/337 199/51/338 322/107/339 321/106/337
f 199/51/338 198/35/340 320/108/341 322/107/339
f 387/109/342 195/24/342 278/21/220 326/48/220
f 198/35/340 385/36/343 386/44/240 279/41/239 320/108/341
f 195/24/342 375/25/344 274/13/212 278/21/220
f 192/4/345 189/5/330 273/18/215 276/15/214 317/110/346
f 375/25/344 376/111/347 382/7/213 274/13/212
f 191/111/348 316/113/349 318/112/350 315/10/207 275/7/206
f 196/12/351 297/12/211 295/23/221 185/23/352
f 187/2/353 299/2/201 300/19/216 188/19/354
f 197/45/355 298/45/241 296/11/208 193/11/356
f 185/23/352 295/23/221 294/1/198 186/1/357
f 188/19/354 300/19/216 301/20/219 205/20/358
f 193/11/356 296/11/208 297/12/211 196/12/351
f 186/1/357 294/1/198 299/2/201 187/2/353
f 303/33/230 245/3/202 378/4/205 381/115/359 310/114/360 307/32/231
f 310/114/360 381/115/359 405/113/361 377/111/362 309/116/363
f 309/116/363 377/111/362 184/25/225 311/26/224 312/117/364
f 327/118/365 325/109/366 384/36/237 313/37/236
f 316/113/349 302/115/367 192/4/345 317/110/346 318/112/350
f 314/27/223 380/24/222 325/109/366 327/118/365
f 194/36/342 387/109/342 326/48/220 277/44/220
f 277/44/220 326/48/220 165/49/29 15/43/29
f 332/119/368 331/70/368 329/70/368 330/70/368
f 336/119/369 335/70/369 333/70/369 334/70/369
f 340/119/370 339/70/370 337/70/370 338/70/370
f 292/71/283 341/120/371 182/70/196 77/70/103
f 304/70/244 308/70/229 311/26/224 314/27/223
f 243/28/226 308/70/229 304/46/244 247/47/243
