# Blender 3.6.1
# www.blender.org
o Taillights
v 0.919699 -0.341998 -3.709760
v 0.920506 -0.185057 -3.703978
v 1.115441 -0.344278 -3.692493
v 1.122708 -0.325036 -3.718078
v 0.942673 -0.322939 -3.733959
v 1.104472 -0.177624 -3.709496
v 0.943415 -0.178592 -3.728641
v -0.919699 -0.341998 -3.709760
v -0.920506 -0.185057 -3.703978
v -1.115441 -0.344278 -3.692493
v -1.122708 -0.325036 -3.718078
v -0.942673 -0.322939 -3.733959
v -1.104472 -0.177624 -3.709496
v -0.943415 -0.178592 -3.728641
v 1.122708 -0.325036 -3.718078
v 0.942673 -0.322939 -3.733959
v 0.942673 -0.322939 -3.733959
v 0.943415 -0.178592 -3.728641
v 0.919699 -0.341998 -3.709760
v -1.122708 -0.325036 -3.718078
v -0.942673 -0.322939 -3.733959
v -0.942673 -0.322939 -3.733959
v -0.943415 -0.178592 -3.728641
v -0.919699 -0.341998 -3.709760
vn 0.1022 0.0535 -0.9933
vn -0.7361 0.0287 -0.6763
vn 0.0429 -0.8043 -0.5927
vn -0.1022 0.0535 -0.9933
vn 0.7361 0.0287 -0.6763
vn -0.0429 -0.8043 -0.5927
vt 0.489785 0.396222
vt 0.516136 0.429791
vt 0.373105 0.360487
vt 0.304066 0.293783
s 1
f 18/1/1 6/2/1 15/3/1 16/4/1
f 1/4/2 2/1/2 7/1/2 17/4/2
f 3/3/3 19/4/3 5/4/3 4/3/3
f 23/1/4 21/4/4 20/3/4 13/2/4
f 8/4/5 22/4/5 14/1/5 9/1/5
f 10/3/6 11/3/6 12/4/6 24/4/6
