# Blender 3.6.1
# www.blender.org
o Wheel
v -0.000000 0.117773 -0.592086
v -0.000000 0.335389 -0.501947
v -0.000000 0.501946 -0.335390
v -0.000000 0.592085 -0.117773
v -0.000000 0.592085 0.117773
v -0.000000 0.501946 0.335390
v 0.000000 0.335389 0.501947
v 0.000000 0.117773 0.592086
v 0.000000 -0.117773 0.592086
v 0.000000 -0.335389 0.501947
v 0.000000 -0.501946 0.335390
v 0.000000 -0.592085 0.117773
v 0.000000 -0.592085 -0.117773
v 0.000000 -0.501946 -0.335390
v -0.000000 -0.335389 -0.501947
v -0.000000 -0.117773 -0.592086
v 0.285445 0.117773 -0.592086
v 0.285445 0.335389 -0.501947
v 0.285445 0.501946 -0.335390
v 0.285445 0.592085 -0.117773
v 0.285445 0.592085 0.117773
v 0.285445 0.501946 0.335390
v 0.285446 0.335389 0.501947
v 0.285446 0.117773 0.592086
v 0.285446 -0.117773 0.592086
v 0.285446 -0.335389 0.501947
v 0.285446 -0.501946 0.335390
v 0.285446 -0.592085 0.117773
v 0.285446 -0.592085 -0.117773
v 0.285446 -0.501946 -0.335390
v 0.285446 -0.335389 -0.501947
v 0.285445 -0.117773 -0.592086
v 0.338477 0.114406 -0.575161
v 0.338477 0.325802 -0.487598
v 0.338477 0.487597 -0.325803
v 0.338477 0.575160 -0.114407
v 0.338477 0.575160 0.114407
v 0.338477 0.487597 0.325802
v 0.338477 0.325802 0.487598
v 0.338477 0.114406 0.575161
v 0.338477 -0.114406 0.575161
v 0.338477 -0.325802 0.487598
v 0.338477 -0.487597 0.325802
v 0.338477 -0.575160 0.114407
v 0.338477 -0.575160 -0.114407
v 0.338477 -0.487597 -0.325803
v 0.338477 -0.325802 -0.487598
v 0.338477 -0.114406 -0.575161
v 0.383875 0.098931 -0.497361
v 0.383875 0.281732 -0.421642
v 0.383875 0.421641 -0.281732
v 0.383875 0.497360 -0.098931
v 0.383875 0.497360 0.098931
v 0.383875 0.421641 0.281732
v 0.383875 0.281732 0.421642
v 0.383875 0.098931 0.497361
v 0.383875 -0.098931 0.497361
v 0.383875 -0.281732 0.421642
v 0.383875 -0.421641 0.281732
v 0.383875 -0.497360 0.098931
v 0.383875 -0.497360 -0.098931
v 0.383875 -0.421641 -0.281732
v 0.383875 -0.281732 -0.421642
v 0.383875 -0.098931 -0.497361
v 0.383875 0.084500 -0.424811
v 0.383875 0.240635 -0.360137
v 0.383875 0.360137 -0.240636
v 0.383875 0.424810 -0.084500
v 0.383875 0.424810 0.084500
v 0.383875 0.360137 0.240636
v 0.383875 0.240635 0.360137
v 0.383875 0.084500 0.424810
v 0.383875 -0.084500 0.424810
v 0.383875 -0.240635 0.360137
v 0.383875 -0.360136 0.240636
v 0.383875 -0.424810 0.084500
v 0.383875 -0.424810 -0.084500
v 0.383875 -0.360136 -0.240636
v 0.383875 -0.240635 -0.360137
v 0.383875 -0.084500 -0.424811
v 0.360141 0.076206 -0.383112
v 0.360141 0.217015 -0.324786
v 0.360141 0.324786 -0.217015
v 0.360141 0.383111 -0.076206
v 0.360141 0.383111 0.076205
v 0.360141 0.324786 0.217015
v 0.360141 0.217015 0.324786
v 0.360141 0.076206 0.383111
v 0.360141 -0.076205 0.383111
v 0.360141 -0.217015 0.324786
v 0.360141 -0.324786 0.217015
v 0.360141 -0.383111 0.076205
v 0.360141 -0.383111 -0.076206
v 0.360141 -0.324786 -0.217015
v 0.360141 -0.217015 -0.324786
v 0.360141 -0.076205 -0.383112
v 0.365754 0.309791 0.463636
v 0.365755 -0.463636 -0.309792
v 0.365754 0.108784 -0.546897
v 0.365755 0.108784 0.546896
v 0.365754 -0.309791 -0.463637
v 0.365754 0.309791 -0.463637
v 0.365755 -0.108784 0.546896
v 0.365754 -0.108784 -0.546897
v 0.365754 0.463636 -0.309792
v 0.365755 -0.309791 0.463636
v 0.365754 0.546895 -0.108785
v 0.365755 -0.463636 0.309792
v 0.365754 0.546895 0.108784
v 0.365755 -0.546895 0.108784
v 0.365754 0.463636 0.309792
v 0.365755 -0.546895 -0.108785
v 0.372008 -0.078937 0.396843
v 0.372008 0.336427 -0.224794
v 0.372008 -0.078937 -0.396843
v 0.372008 -0.224793 0.336427
v 0.372008 0.396842 -0.078937
v 0.372008 -0.336426 0.224793
v 0.372008 0.396842 0.078937
v 0.372008 -0.396842 0.078937
v 0.372008 0.336427 0.224793
v 0.372008 -0.396842 -0.078937
v 0.372008 0.224793 0.336427
v 0.372008 -0.336426 -0.224794
v 0.372008 0.078937 -0.396843
v 0.372008 0.078937 0.396843
v 0.372008 -0.224793 -0.336427
v 0.372008 0.224793 -0.336427
v 0.360141 0.063651 -0.319997
v 0.360141 0.181263 -0.271280
v 0.360141 0.271280 -0.181264
v 0.360141 0.319996 -0.063651
v 0.360141 0.319996 0.063651
v 0.360141 0.271280 0.181264
v 0.360141 0.181263 0.271280
v 0.360141 0.063651 0.319997
v 0.360141 -0.063651 0.319997
v 0.360141 -0.181263 0.271280
v 0.360141 -0.271280 0.181264
v 0.360141 -0.319996 0.063651
v 0.360141 -0.319996 -0.063651
v 0.360141 -0.271280 -0.181264
v 0.360141 -0.181263 -0.271280
v 0.360141 -0.063651 -0.319997
v -0.285446 0.117773 -0.592086
v -0.285446 0.335389 -0.501947
v -0.285446 0.501946 -0.335390
v -0.285446 0.592085 -0.117773
v -0.285446 0.592085 0.117773
v -0.285446 0.501946 0.335390
v -0.285446 0.335389 0.501947
v -0.285445 0.117773 0.592086
v -0.285445 -0.117773 0.592086
v -0.285445 -0.335390 0.501947
v -0.285445 -0.501946 0.335390
v -0.285445 -0.592085 0.117773
v -0.285445 -0.592085 -0.117773
v -0.285445 -0.501946 -0.335390
v -0.285446 -0.335390 -0.501947
v -0.285446 -0.117773 -0.592086
v -0.338477 0.114406 -0.575161
v -0.338477 0.325802 -0.487598
v -0.338477 0.487597 -0.325802
v -0.338477 0.575160 -0.114407
v -0.338477 0.575160 0.114407
v -0.338477 0.487597 0.325803
v -0.338477 0.325802 0.487598
v -0.338477 0.114406 0.575161
v -0.338477 -0.114407 0.575161
v -0.338477 -0.325802 0.487598
v -0.338477 -0.487597 0.325803
v -0.338477 -0.575160 0.114407
v -0.338477 -0.575160 -0.114407
v -0.338477 -0.487597 -0.325802
v -0.338477 -0.325802 -0.487598
v -0.338477 -0.114407 -0.575161
v -0.383875 0.098931 -0.497361
v -0.383875 0.281732 -0.421642
v -0.383875 0.421641 -0.281732
v -0.383875 0.497360 -0.098931
v -0.383875 0.497360 0.098931
v -0.383875 0.421641 0.281732
v -0.383875 0.281732 0.421642
v -0.383875 0.098931 0.497361
v -0.383875 -0.098931 0.497361
v -0.383875 -0.281732 0.421642
v -0.383875 -0.421642 0.281732
v -0.383875 -0.497360 0.098931
v -0.383875 -0.497360 -0.098931
v -0.383875 -0.421642 -0.281732
v -0.383875 -0.281732 -0.421642
v -0.383875 -0.098931 -0.497361
v -0.383875 0.084500 -0.424811
v -0.383875 0.240635 -0.360137
v -0.383875 0.360136 -0.240636
v -0.383875 0.424810 -0.084500
v -0.383875 0.424810 0.084500
v -0.383875 0.360136 0.240636
v -0.383875 0.240635 0.360137
v -0.383875 0.084500 0.424811
v -0.383875 -0.084500 0.424811
v -0.383875 -0.240636 0.360137
v -0.383875 -0.360137 0.240636
v -0.383875 -0.424810 0.084500
v -0.383875 -0.424810 -0.084500
v -0.383875 -0.360137 -0.240636
v -0.383875 -0.240636 -0.360137
v -0.383875 -0.084500 -0.424811
v -0.360141 0.076205 -0.383112
v -0.360141 0.217015 -0.324786
v -0.360141 0.324786 -0.217015
v -0.360141 0.383111 -0.076206
v -0.360141 0.383111 0.076206
v -0.360141 0.324786 0.217015
v -0.360141 0.217015 0.324786
v -0.360141 0.076205 0.383111
v -0.360141 -0.076206 0.383111
v -0.360141 -0.217015 0.324786
v -0.360141 -0.324786 0.217015
v -0.360141 -0.383111 0.076206
v -0.360141 -0.383111 -0.076206
v -0.360141 -0.324786 -0.217015
v -0.360141 -0.217015 -0.324786
v -0.360141 -0.076206 -0.383112
v -0.365754 0.309791 0.463636
v -0.365754 -0.463636 -0.309792
v -0.365755 0.108784 -0.546896
v -0.365754 0.108784 0.546896
v -0.365754 -0.309792 -0.463636
v -0.365755 0.309791 -0.463636
v -0.365754 -0.108784 0.546896
v -0.365755 -0.108784 -0.546896
v -0.365755 0.463635 -0.309792
v -0.365754 -0.309792 0.463636
v -0.365755 0.546895 -0.108784
v -0.365754 -0.463636 0.309792
v -0.365755 0.546895 0.108784
v -0.365754 -0.546895 0.108784
v -0.365755 0.463635 0.309792
v -0.365754 -0.546895 -0.108784
v -0.372008 -0.078937 0.396843
v -0.372008 0.336426 -0.224793
v -0.372008 -0.078937 -0.396843
v -0.372008 -0.224793 0.336427
v -0.372008 0.396842 -0.078937
v -0.372008 -0.336427 0.224793
v -0.372008 0.396842 0.078937
v -0.372008 -0.396842 0.078937
v -0.372008 0.336426 0.224793
v -0.372008 -0.396842 -0.078937
v -0.372008 0.224793 0.336427
v -0.372008 -0.336427 -0.224793
v -0.372008 0.078937 -0.396843
v -0.372008 0.078937 0.396843
v -0.372008 -0.224793 -0.336427
v -0.372008 0.224793 -0.336427
v -0.360141 0.063651 -0.319997
v -0.360141 0.181263 -0.271280
v -0.360141 0.271280 -0.181264
v -0.360141 0.319996 -0.063651
v -0.360141 0.319996 0.063651
v -0.360141 0.271280 0.181264
v -0.360141 0.181263 0.271280
v -0.360141 0.063651 0.319997
v -0.360141 -0.063651 0.319997
v -0.360141 -0.181263 0.271280
v -0.360141 -0.271280 0.181264
v -0.360141 -0.319996 0.063651
v -0.360141 -0.319996 -0.063651
v -0.360141 -0.271280 -0.181264
v -0.360141 -0.181263 -0.271280
v -0.360141 -0.063651 -0.319997
v 0.360141 0.217015 -0.324786
v 0.360141 0.076206 -0.383112
v 0.360141 0.324786 -0.217015
v 0.360141 0.383111 -0.076206
v 0.360141 0.383111 0.076205
v 0.360141 0.324786 0.217015
v 0.360141 0.217015 0.324786
v 0.360141 0.076206 0.383111
v 0.360141 -0.076205 0.383111
v 0.360141 -0.217015 0.324786
v 0.360141 -0.324786 0.217015
v 0.360141 -0.383111 0.076205
v 0.360141 -0.383111 -0.076206
v 0.360141 -0.324786 -0.217015
v 0.360141 -0.217015 -0.324786
v 0.360141 -0.076205 -0.383112
v -0.360141 0.217015 -0.324786
v -0.360141 0.076205 -0.383112
v -0.360141 0.324786 -0.217015
v -0.360141 0.383111 -0.076206
v -0.360141 0.383111 0.076206
v -0.360141 0.324786 0.217015
v -0.360141 0.217015 0.324786
v -0.360141 0.076205 0.383111
v -0.360141 -0.076206 0.383111
v -0.360141 -0.217015 0.324786
v -0.360141 -0.324786 0.217015
v -0.360141 -0.383111 0.076206
v -0.360141 -0.383111 -0.076206
v -0.360141 -0.324786 -0.217015
v -0.360141 -0.217015 -0.324786
v -0.360141 -0.076206 -0.383112
vn 0.1537 0.1928 -0.9691
vn 0.1537 -0.1928 -0.9691
vn -0.0000 -0.1951 -0.9808
vn -0.0000 0.1951 -0.9808
vn -0.0000 -0.5556 -0.8315
vn 0.1537 -0.5490 -0.8216
vn 0.1537 -0.8216 -0.5490
vn -0.0000 -0.8315 -0.5556
vn -0.0000 0.5556 -0.8315
vn 0.1537 0.5490 -0.8216
vn -0.0000 -0.1951 0.9808
vn 0.1537 -0.1928 0.9691
vn 0.1537 0.1928 0.9691
vn -0.0000 0.1951 0.9808
vn -0.0000 0.8315 -0.5556
vn 0.1537 0.8216 -0.5490
vn -0.0000 -0.5556 0.8315
vn 0.1537 -0.5490 0.8216
vn -0.0000 0.9808 -0.1951
vn 0.1537 0.9691 -0.1928
vn -0.0000 -0.8315 0.5556
vn 0.1537 -0.8216 0.5490
vn -0.0000 0.9808 0.1951
vn 0.1537 0.9691 0.1928
vn -0.0000 -0.9808 0.1951
vn 0.1537 -0.9691 0.1928
vn -0.0000 0.8315 0.5556
vn 0.1537 0.8216 0.5490
vn -0.0000 -0.9808 -0.1951
vn 0.1537 -0.9691 -0.1928
vn -0.0000 0.5556 0.8315
vn 0.1537 0.5490 0.8216
vn 0.5209 0.7097 0.4742
vn 0.5209 0.8372 0.1665
vn 0.5209 -0.8372 -0.1665
vn 0.5209 -0.8372 0.1665
vn 0.5209 0.4742 0.7097
vn 0.5209 -0.7097 -0.4742
vn 0.5209 0.1665 0.8372
vn 0.5209 0.1665 -0.8372
vn 0.5209 -0.1665 -0.8372
vn 0.5209 -0.4742 -0.7097
vn 0.5209 0.4742 -0.7097
vn 0.5209 -0.1665 0.8372
vn 0.5209 0.7097 -0.4742
vn 0.5209 -0.4742 0.7097
vn 0.5209 0.8372 -0.1665
vn 0.5209 -0.7097 0.4742
vn 0.9814 0.1597 0.1067
vn 0.8405 0.4505 0.3010
vn 0.8405 0.3010 0.4505
vn 0.9814 0.1067 0.1597
vn 0.9814 -0.1883 -0.0375
vn 0.8405 -0.5314 -0.1057
vn 0.8405 -0.4505 -0.3010
vn 0.9814 -0.1597 -0.1067
vn 0.8405 0.1057 0.5314
vn 0.8405 0.1057 -0.5314
vn 0.8405 -0.1057 -0.5314
vn 0.8405 -0.3010 -0.4505
vn 0.8405 0.3010 -0.4505
vn 0.9814 0.1067 -0.1597
vn 0.9814 0.0375 -0.1883
vn 0.8405 -0.1057 0.5314
vn 0.9814 -0.0375 0.1883
vn 0.9814 0.0375 0.1883
vn 0.9814 -0.0375 -0.1883
vn 0.9814 -0.1067 -0.1597
vn 0.8405 0.4505 -0.3010
vn 0.9814 0.1597 -0.1067
vn 0.8405 -0.3010 0.4505
vn 0.9814 -0.1067 0.1597
vn 0.8405 0.5314 -0.1057
vn 0.9814 0.1883 -0.0375
vn 0.8405 -0.4505 0.3010
vn 0.9814 -0.1597 0.1067
vn 0.8405 0.5314 0.1057
vn 0.9814 0.1883 0.0375
vn 0.8405 -0.5314 0.1057
vn 0.9814 -0.1883 0.0375
vn 0.8617 0.2819 -0.4219
vn 0.7628 0.3592 -0.5376
vn 0.7628 0.1261 -0.6342
vn 0.8617 0.0990 -0.4976
vn 0.9851 -0.0956 0.1431
vn 0.9851 -0.0336 0.1688
vn 0.9851 0.1431 0.0956
vn 0.9851 0.0956 0.1431
vn 0.9851 0.0336 -0.1688
vn 0.9851 -0.0336 -0.1688
vn 0.9851 0.0336 0.1688
vn 0.9851 -0.1431 0.0956
vn 0.9851 0.0956 -0.1431
vn 0.9851 -0.1688 0.0336
vn 0.9851 0.1431 -0.0956
vn 0.9851 -0.1688 -0.0336
vn 0.9851 0.1688 -0.0336
vn 0.9851 -0.1431 -0.0956
vn 0.9851 0.1688 0.0336
vn 0.9851 -0.0956 -0.1431
vn 0.8617 -0.4219 0.2819
vn 0.8617 -0.2819 0.4219
vn 0.8617 -0.0990 0.4976
vn 0.8617 0.0990 0.4976
vn 0.8617 -0.4976 0.0990
vn 0.7628 -0.6342 0.1261
vn 0.7628 -0.5376 0.3592
vn 0.8617 0.4219 -0.2819
vn 0.7628 0.5376 -0.3592
vn 0.8617 -0.4976 -0.0990
vn 0.7628 -0.6342 -0.1261
vn 0.8617 0.4976 -0.0990
vn 0.7628 0.6342 -0.1261
vn 0.8617 -0.4219 -0.2819
vn 0.7628 -0.5376 -0.3592
vn 0.8617 0.4976 0.0990
vn 0.7628 0.6342 0.1261
vn 0.8617 -0.2819 -0.4219
vn 0.7628 -0.3592 -0.5376
vn 0.8617 0.4219 0.2819
vn 0.7628 0.5376 0.3592
vn 0.8617 -0.0990 -0.4976
vn 0.7628 -0.1261 -0.6342
vn 0.8617 0.2819 0.4219
vn 0.7628 0.3592 0.5376
vn 0.7628 -0.3592 0.5376
vn 0.7628 -0.1261 0.6342
vn 0.7628 0.1261 0.6342
vn 1.0000 -0.0000 -0.0000
vn -0.1537 0.1928 -0.9691
vn -0.1537 -0.1928 -0.9691
vn -0.1537 -0.8216 -0.5490
vn -0.1537 -0.5490 -0.8216
vn -0.1537 0.5490 -0.8216
vn -0.1537 0.1928 0.9691
vn -0.1537 -0.1928 0.9691
vn -0.1537 0.8216 -0.5490
vn -0.1537 -0.5490 0.8216
vn -0.1537 0.9691 -0.1928
vn -0.1537 -0.8216 0.5490
vn -0.1537 0.9691 0.1928
vn -0.1537 -0.9691 0.1928
vn -0.1537 0.8216 0.5490
vn -0.1537 -0.9691 -0.1928
vn -0.1537 0.5490 0.8216
vn -0.5209 0.8372 0.1665
vn -0.5209 0.7097 0.4742
vn -0.5209 -0.8372 0.1665
vn -0.5209 -0.8372 -0.1665
vn -0.5209 0.4742 0.7097
vn -0.5209 -0.7097 -0.4742
vn -0.5209 0.1665 0.8372
vn -0.5209 0.1665 -0.8372
vn -0.5209 -0.1665 -0.8372
vn -0.5209 -0.4742 -0.7097
vn -0.5209 0.4742 -0.7097
vn -0.5209 -0.1665 0.8372
vn -0.5209 0.7097 -0.4742
vn -0.5209 -0.4742 0.7097
vn -0.5209 0.8372 -0.1665
vn -0.5209 -0.7097 0.4742
vn -0.9814 0.1597 0.1067
vn -0.9814 0.1067 0.1597
vn -0.8405 0.3010 0.4505
vn -0.8405 0.4505 0.3010
vn -0.9814 -0.1883 -0.0375
vn -0.9814 -0.1597 -0.1067
vn -0.8405 -0.4505 -0.3010
vn -0.8405 -0.5314 -0.1057
vn -0.8405 0.1057 0.5314
vn -0.8405 -0.1057 -0.5314
vn -0.8405 0.1057 -0.5314
vn -0.8405 -0.3010 -0.4505
vn -0.8405 0.3010 -0.4505
vn -0.9814 0.0375 -0.1883
vn -0.9814 0.1067 -0.1597
vn -0.8405 -0.1057 0.5314
vn -0.9814 0.0375 0.1883
vn -0.9814 -0.0375 0.1883
vn -0.9814 -0.1067 -0.1597
vn -0.9814 -0.0375 -0.1883
vn -0.8405 0.4505 -0.3010
vn -0.9814 0.1597 -0.1067
vn -0.8405 -0.3010 0.4505
vn -0.9814 -0.1067 0.1597
vn -0.8405 0.5314 -0.1057
vn -0.9814 0.1883 -0.0375
vn -0.8405 -0.4505 0.3010
vn -0.9814 -0.1597 0.1067
vn -0.8405 0.5314 0.1057
vn -0.9814 0.1883 0.0375
vn -0.8405 -0.5314 0.1057
vn -0.9814 -0.1883 0.0375
vn -0.8617 0.2819 -0.4219
vn -0.8617 0.0990 -0.4976
vn -0.7628 0.1261 -0.6342
vn -0.7628 0.3592 -0.5376
vn -0.9851 -0.0336 0.1688
vn -0.9851 -0.0956 0.1431
vn -0.9851 0.1431 0.0956
vn -0.9851 0.0956 0.1431
vn -0.9851 -0.0336 -0.1688
vn -0.9851 0.0336 -0.1688
vn -0.9851 0.0336 0.1688
vn -0.9851 -0.1431 0.0956
vn -0.9851 0.0956 -0.1431
vn -0.9851 -0.1688 0.0336
vn -0.9851 0.1431 -0.0956
vn -0.9851 -0.1688 -0.0336
vn -0.9851 0.1688 -0.0336
vn -0.9851 -0.1431 -0.0956
vn -0.9851 0.1688 0.0336
vn -0.9851 -0.0956 -0.1431
vn -0.8617 -0.2819 0.4219
vn -0.8617 -0.4219 0.2819
vn -0.8617 -0.0990 0.4976
vn -0.8617 0.0990 0.4976
vn -0.8617 -0.4976 0.0990
vn -0.7628 -0.5376 0.3592
vn -0.7628 -0.6342 0.1261
vn -0.8617 0.4219 -0.2819
vn -0.7628 0.5376 -0.3592
vn -0.8617 -0.4976 -0.0990
vn -0.7628 -0.6342 -0.1261
vn -0.8617 0.4976 -0.0990
vn -0.7628 0.6342 -0.1261
vn -0.8617 -0.4219 -0.2819
vn -0.7628 -0.5376 -0.3592
vn -0.8617 0.4976 0.0990
vn -0.7628 0.6342 0.1261
vn -0.8617 -0.2819 -0.4219
vn -0.7628 -0.3592 -0.5376
vn -0.8617 0.4219 0.2819
vn -0.7628 0.5376 0.3592
vn -0.8617 -0.0990 -0.4976
vn -0.7628 -0.1261 -0.6342
vn -0.8617 0.2819 0.4219
vn -0.7628 0.3592 0.5376
vn -0.7628 -0.1261 0.6342
vn -0.7628 -0.3592 0.5376
vn -0.7628 0.1261 0.6342
vn -1.0000 -0.0000 -0.0000
vt 0.000000 0.000000
s 1
f 17/1/1 32/1/2 16/1/3 1/1/4
f 15/1/5 31/1/6 30/1/7 14/1/8
f 2/1/9 18/1/10 17/1/1 1/1/4
f 9/1/11 25/1/12 24/1/13 8/1/14
f 16/1/3 32/1/2 31/1/6 15/1/5
f 3/1/15 19/1/16 18/1/10 2/1/9
f 10/1/17 26/1/18 25/1/12 9/1/11
f 4/1/19 20/1/20 19/1/16 3/1/15
f 11/1/21 27/1/22 26/1/18 10/1/17
f 5/1/23 21/1/24 20/1/20 4/1/19
f 12/1/25 28/1/26 27/1/22 11/1/21
f 6/1/27 22/1/28 21/1/24 5/1/23
f 13/1/29 29/1/30 28/1/26 12/1/25
f 7/1/31 23/1/32 22/1/28 6/1/27
f 14/1/8 30/1/7 29/1/30 13/1/29
f 22/1/28 38/1/33 37/1/34 21/1/24
f 29/1/30 45/1/35 44/1/36 28/1/26
f 23/1/32 39/1/37 38/1/33 22/1/28
f 30/1/7 46/1/38 45/1/35 29/1/30
f 24/1/13 40/1/39 39/1/37 23/1/32
f 33/1/40 48/1/41 32/1/2 17/1/1
f 31/1/6 47/1/42 46/1/38 30/1/7
f 18/1/10 34/1/43 33/1/40 17/1/1
f 25/1/12 41/1/44 40/1/39 24/1/13
f 32/1/2 48/1/41 47/1/42 31/1/6
f 19/1/16 35/1/45 34/1/43 18/1/10
f 26/1/18 42/1/46 41/1/44 25/1/12
f 20/1/20 36/1/47 35/1/45 19/1/16
f 27/1/22 43/1/48 42/1/46 26/1/18
f 21/1/24 37/1/34 36/1/47 20/1/20
f 28/1/26 44/1/36 43/1/48 27/1/22
f 54/1/49 111/1/50 97/1/51 55/1/52
f 61/1/53 112/1/54 98/1/55 62/1/56
f 100/1/57 97/1/51 39/1/37 40/1/39
f 33/1/40 99/1/58 104/1/59 48/1/41
f 101/1/60 98/1/55 46/1/38 47/1/42
f 102/1/61 50/1/62 49/1/63 99/1/58
f 103/1/64 57/1/65 56/1/66 100/1/57
f 104/1/59 64/1/67 63/1/68 101/1/60
f 105/1/69 51/1/70 50/1/62 102/1/61
f 106/1/71 58/1/72 57/1/65 103/1/64
f 107/1/73 52/1/74 51/1/70 105/1/69
f 108/1/75 59/1/76 58/1/72 106/1/71
f 109/1/77 53/1/78 52/1/74 107/1/73
f 110/1/79 60/1/80 59/1/76 108/1/75
f 111/1/50 54/1/49 53/1/78 109/1/77
f 112/1/54 61/1/53 60/1/80 110/1/79
f 116/1/81 282/1/82 281/1/83 113/1/84
f 50/1/62 66/1/85 65/1/86 49/1/63
f 78/1/87 62/1/56 63/1/68 79/1/88
f 57/1/65 73/1/89 72/1/90 56/1/66
f 64/1/67 80/1/91 79/1/88 63/1/68
f 51/1/70 67/1/92 66/1/85 50/1/62
f 58/1/72 74/1/93 73/1/89 57/1/65
f 49/1/63 65/1/86 80/1/91 64/1/67
f 52/1/74 68/1/94 67/1/92 51/1/70
f 59/1/76 75/1/95 74/1/93 58/1/72
f 53/1/78 69/1/96 68/1/94 52/1/74
f 60/1/80 76/1/97 75/1/95 59/1/76
f 54/1/49 70/1/98 69/1/96 53/1/78
f 61/1/53 77/1/99 76/1/97 60/1/80
f 55/1/52 71/1/100 70/1/98 54/1/49
f 62/1/56 78/1/87 77/1/99 61/1/53
f 116/1/81 113/1/84 73/1/89 74/1/93
f 67/1/92 114/1/101 128/1/102 66/1/85
f 125/1/103 115/1/104 80/1/91 65/1/86
f 117/1/105 276/1/106 275/1/107 114/1/101
f 118/1/108 283/1/109 282/1/82 116/1/81
f 119/1/110 277/1/111 276/1/106 117/1/105
f 120/1/112 284/1/113 283/1/109 118/1/108
f 121/1/114 278/1/115 277/1/111 119/1/110
f 122/1/116 285/1/117 284/1/113 120/1/112
f 123/1/118 279/1/119 278/1/115 121/1/114
f 124/1/120 286/1/121 285/1/117 122/1/116
f 126/1/122 280/1/123 279/1/119 123/1/118
f 127/1/124 287/1/125 286/1/121 124/1/120
f 128/1/102 273/1/126 274/1/127 125/1/103
f 113/1/84 281/1/83 280/1/123 126/1/122
f 115/1/104 288/1/128 287/1/125 127/1/124
f 95/1/129 96/1/129 144/1/129 143/1/129
f 100/1/57 56/1/66 55/1/52 97/1/51
f 46/1/38 98/1/55 112/1/54 45/1/35
f 71/1/100 55/1/52 56/1/66 72/1/90
f 112/1/54 110/1/79 44/1/36 45/1/35
f 111/1/50 109/1/77 37/1/34 38/1/33
f 110/1/79 108/1/75 43/1/48 44/1/36
f 109/1/77 107/1/73 36/1/47 37/1/34
f 108/1/75 106/1/71 42/1/46 43/1/48
f 107/1/73 105/1/69 35/1/45 36/1/47
f 101/1/60 63/1/68 62/1/56 98/1/55
f 106/1/71 103/1/64 41/1/44 42/1/46
f 105/1/69 102/1/61 34/1/43 35/1/45
f 104/1/59 101/1/60 47/1/42 48/1/41
f 103/1/64 100/1/57 40/1/39 41/1/44
f 102/1/61 99/1/58 33/1/40 34/1/43
f 49/1/63 64/1/67 104/1/59 99/1/58
f 39/1/37 97/1/51 111/1/50 38/1/33
f 125/1/103 274/1/127 288/1/128 115/1/104
f 115/1/104 127/1/124 79/1/88 80/1/91
f 113/1/84 126/1/122 72/1/90 73/1/89
f 128/1/102 125/1/103 65/1/86 66/1/85
f 127/1/124 124/1/120 78/1/87 79/1/88
f 117/1/105 114/1/101 67/1/92 68/1/94
f 126/1/122 123/1/118 71/1/100 72/1/90
f 124/1/120 122/1/116 77/1/99 78/1/87
f 123/1/118 121/1/114 70/1/98 71/1/100
f 122/1/116 120/1/112 76/1/97 77/1/99
f 121/1/114 119/1/110 69/1/96 70/1/98
f 120/1/112 118/1/108 75/1/95 76/1/97
f 119/1/110 117/1/105 68/1/94 69/1/96
f 118/1/108 116/1/81 74/1/93 75/1/95
f 273/1/126 128/1/102 114/1/101 275/1/107
f 89/1/129 90/1/129 138/1/129 137/1/129
f 82/1/129 83/1/129 131/1/129 130/1/129
f 81/1/129 129/1/129 144/1/129 96/1/129
f 83/1/129 84/1/129 132/1/129 131/1/129
f 90/1/129 91/1/129 139/1/129 138/1/129
f 84/1/129 85/1/129 133/1/129 132/1/129
f 91/1/129 92/1/129 140/1/129 139/1/129
f 85/1/129 86/1/129 134/1/129 133/1/129
f 92/1/129 93/1/129 141/1/129 140/1/129
f 86/1/129 87/1/129 135/1/129 134/1/129
f 93/1/129 94/1/129 142/1/129 141/1/129
f 87/1/129 88/1/129 136/1/129 135/1/129
f 94/1/129 95/1/129 143/1/129 142/1/129
f 81/1/129 82/1/129 130/1/129 129/1/129
f 88/1/129 89/1/129 137/1/129 136/1/129
f 8/1/14 24/1/13 23/1/32 7/1/31
f 145/1/130 1/1/4 16/1/3 160/1/131
f 15/1/5 14/1/8 158/1/132 159/1/133
f 2/1/9 1/1/4 145/1/130 146/1/134
f 9/1/11 8/1/14 152/1/135 153/1/136
f 16/1/3 15/1/5 159/1/133 160/1/131
f 3/1/15 2/1/9 146/1/134 147/1/137
f 10/1/17 9/1/11 153/1/136 154/1/138
f 4/1/19 3/1/15 147/1/137 148/1/139
f 11/1/21 10/1/17 154/1/138 155/1/140
f 5/1/23 4/1/19 148/1/139 149/1/141
f 12/1/25 11/1/21 155/1/140 156/1/142
f 6/1/27 5/1/23 149/1/141 150/1/143
f 13/1/29 12/1/25 156/1/142 157/1/144
f 7/1/31 6/1/27 150/1/143 151/1/145
f 14/1/8 13/1/29 157/1/144 158/1/132
f 150/1/143 149/1/141 165/1/146 166/1/147
f 157/1/144 156/1/142 172/1/148 173/1/149
f 151/1/145 150/1/143 166/1/147 167/1/150
f 158/1/132 157/1/144 173/1/149 174/1/151
f 152/1/135 151/1/145 167/1/150 168/1/152
f 161/1/153 145/1/130 160/1/131 176/1/154
f 159/1/133 158/1/132 174/1/151 175/1/155
f 146/1/134 145/1/130 161/1/153 162/1/156
f 153/1/136 152/1/135 168/1/152 169/1/157
f 160/1/131 159/1/133 175/1/155 176/1/154
f 147/1/137 146/1/134 162/1/156 163/1/158
f 154/1/138 153/1/136 169/1/157 170/1/159
f 148/1/139 147/1/137 163/1/158 164/1/160
f 155/1/140 154/1/138 170/1/159 171/1/161
f 149/1/141 148/1/139 164/1/160 165/1/146
f 156/1/142 155/1/140 171/1/161 172/1/148
f 182/1/162 183/1/163 225/1/164 239/1/165
f 189/1/166 190/1/167 226/1/168 240/1/169
f 228/1/170 168/1/152 167/1/150 225/1/164
f 161/1/153 176/1/154 232/1/171 227/1/172
f 229/1/173 175/1/155 174/1/151 226/1/168
f 230/1/174 227/1/172 177/1/175 178/1/176
f 231/1/177 228/1/170 184/1/178 185/1/179
f 232/1/171 229/1/173 191/1/180 192/1/181
f 233/1/182 230/1/174 178/1/176 179/1/183
f 234/1/184 231/1/177 185/1/179 186/1/185
f 235/1/186 233/1/182 179/1/183 180/1/187
f 236/1/188 234/1/184 186/1/185 187/1/189
f 237/1/190 235/1/186 180/1/187 181/1/191
f 238/1/192 236/1/188 187/1/189 188/1/193
f 239/1/165 237/1/190 181/1/191 182/1/162
f 240/1/169 238/1/192 188/1/193 189/1/166
f 244/1/194 241/1/195 297/1/196 298/1/197
f 178/1/176 177/1/175 193/1/198 194/1/199
f 206/1/200 207/1/201 191/1/180 190/1/167
f 185/1/179 184/1/178 200/1/202 201/1/203
f 192/1/181 191/1/180 207/1/201 208/1/204
f 179/1/183 178/1/176 194/1/199 195/1/205
f 186/1/185 185/1/179 201/1/203 202/1/206
f 177/1/175 192/1/181 208/1/204 193/1/198
f 180/1/187 179/1/183 195/1/205 196/1/207
f 187/1/189 186/1/185 202/1/206 203/1/208
f 181/1/191 180/1/187 196/1/207 197/1/209
f 188/1/193 187/1/189 203/1/208 204/1/210
f 182/1/162 181/1/191 197/1/209 198/1/211
f 189/1/166 188/1/193 204/1/210 205/1/212
f 183/1/163 182/1/162 198/1/211 199/1/213
f 190/1/167 189/1/166 205/1/212 206/1/200
f 244/1/194 202/1/206 201/1/203 241/1/195
f 195/1/205 194/1/199 256/1/214 242/1/215
f 253/1/216 193/1/198 208/1/204 243/1/217
f 245/1/218 242/1/215 291/1/219 292/1/220
f 246/1/221 244/1/194 298/1/197 299/1/222
f 247/1/223 245/1/218 292/1/220 293/1/224
f 248/1/225 246/1/221 299/1/222 300/1/226
f 249/1/227 247/1/223 293/1/224 294/1/228
f 250/1/229 248/1/225 300/1/226 301/1/230
f 251/1/231 249/1/227 294/1/228 295/1/232
f 252/1/233 250/1/229 301/1/230 302/1/234
f 254/1/235 251/1/231 295/1/232 296/1/236
f 255/1/237 252/1/233 302/1/234 303/1/238
f 256/1/214 253/1/216 290/1/239 289/1/240
f 241/1/195 254/1/235 296/1/236 297/1/196
f 243/1/217 255/1/237 303/1/238 304/1/241
f 223/1/242 271/1/242 272/1/242 224/1/242
f 228/1/170 225/1/164 183/1/163 184/1/178
f 174/1/151 173/1/149 240/1/169 226/1/168
f 199/1/213 200/1/202 184/1/178 183/1/163
f 240/1/169 173/1/149 172/1/148 238/1/192
f 239/1/165 166/1/147 165/1/146 237/1/190
f 238/1/192 172/1/148 171/1/161 236/1/188
f 237/1/190 165/1/146 164/1/160 235/1/186
f 236/1/188 171/1/161 170/1/159 234/1/184
f 235/1/186 164/1/160 163/1/158 233/1/182
f 229/1/173 226/1/168 190/1/167 191/1/180
f 234/1/184 170/1/159 169/1/157 231/1/177
f 233/1/182 163/1/158 162/1/156 230/1/174
f 232/1/171 176/1/154 175/1/155 229/1/173
f 231/1/177 169/1/157 168/1/152 228/1/170
f 230/1/174 162/1/156 161/1/153 227/1/172
f 177/1/175 227/1/172 232/1/171 192/1/181
f 167/1/150 166/1/147 239/1/165 225/1/164
f 253/1/216 243/1/217 304/1/241 290/1/239
f 243/1/217 208/1/204 207/1/201 255/1/237
f 241/1/195 201/1/203 200/1/202 254/1/235
f 256/1/214 194/1/199 193/1/198 253/1/216
f 255/1/237 207/1/201 206/1/200 252/1/233
f 245/1/218 196/1/207 195/1/205 242/1/215
f 254/1/235 200/1/202 199/1/213 251/1/231
f 252/1/233 206/1/200 205/1/212 250/1/229
f 251/1/231 199/1/213 198/1/211 249/1/227
f 250/1/229 205/1/212 204/1/210 248/1/225
f 249/1/227 198/1/211 197/1/209 247/1/223
f 248/1/225 204/1/210 203/1/208 246/1/221
f 247/1/223 197/1/209 196/1/207 245/1/218
f 246/1/221 203/1/208 202/1/206 244/1/194
f 289/1/240 291/1/219 242/1/215 256/1/214
f 217/1/242 265/1/242 266/1/242 218/1/242
f 210/1/242 258/1/242 259/1/242 211/1/242
f 209/1/242 224/1/242 272/1/242 257/1/242
f 211/1/242 259/1/242 260/1/242 212/1/242
f 218/1/242 266/1/242 267/1/242 219/1/242
f 212/1/242 260/1/242 261/1/242 213/1/242
f 219/1/242 267/1/242 268/1/242 220/1/242
f 213/1/242 261/1/242 262/1/242 214/1/242
f 220/1/242 268/1/242 269/1/242 221/1/242
f 214/1/242 262/1/242 263/1/242 215/1/242
f 221/1/242 269/1/242 270/1/242 222/1/242
f 215/1/242 263/1/242 264/1/242 216/1/242
f 222/1/242 270/1/242 271/1/242 223/1/242
f 209/1/242 257/1/242 258/1/242 210/1/242
f 216/1/242 264/1/242 265/1/242 217/1/242
f 8/1/14 7/1/31 151/1/145 152/1/135
