# Blender 3.6.1
# www.blender.org
o Circle
v 1.124420 -0.838090 -3.407095
v 1.074321 -0.818017 -3.412356
v 1.053569 -0.769554 -3.425057
v 1.074321 -0.721091 -3.437758
v 1.124420 -0.701017 -3.443019
v 1.174520 -0.721091 -3.437758
v 1.195272 -0.769554 -3.425057
v 1.174520 -0.818017 -3.412356
v 1.124420 -0.893885 -3.660038
v 1.074321 -0.875044 -3.668737
v 1.053569 -0.829558 -3.689737
v 1.074321 -0.784073 -3.710737
v 1.124420 -0.765232 -3.719436
v 1.174520 -0.784073 -3.710737
v 1.195272 -0.829558 -3.689737
v 1.174520 -0.875044 -3.668737
v 1.124420 -0.974103 -3.805134
v 1.074321 -0.955682 -3.814689
v 1.053569 -0.911210 -3.837758
v 1.074321 -0.866737 -3.860826
v 1.124420 -0.848316 -3.870381
v 1.174520 -0.866737 -3.860826
v 1.195272 -0.911210 -3.837758
v 1.174520 -0.955682 -3.814689
v 1.124420 -0.948556 -3.818385
v 1.094671 -0.937618 -3.824059
v 1.082348 -0.911209 -3.837757
v 1.094671 -0.884801 -3.851456
v 1.124420 -0.873863 -3.857130
v 1.154170 -0.884801 -3.851456
v 1.166492 -0.911209 -3.837757
v 1.154170 -0.937618 -3.824059
v 1.124420 -0.877523 -3.782096
vn 0.6995 -0.6975 0.1551
vn 0.7258 -0.6435 0.2434
vn 0.9994 0.0327 -0.0102
vn 1.0000 -0.0083 0.0010
vn 0.7080 0.6882 -0.1588
vn 0.6916 0.6747 -0.2578
vn -0.0000 0.9332 -0.3594
vn -0.0000 0.9742 -0.2256
vn -0.7080 0.6882 -0.1588
vn -0.6916 0.6747 -0.2578
vn -0.9994 0.0327 -0.0102
vn -1.0000 -0.0083 0.0010
vn -0.6995 -0.6975 0.1551
vn -0.7258 -0.6435 0.2434
vn -0.0000 -0.9363 0.3513
vn -0.0000 -0.9763 0.2163
vn -0.5473 0.1888 -0.8154
vn -0.7764 -0.2945 -0.5572
vn -0.5503 -0.7802 -0.2974
vn -0.0000 -0.9819 -0.1894
vn 0.5503 -0.7802 -0.2974
vn 0.7764 -0.2945 -0.5572
vn 0.5473 0.1888 -0.8154
vn -0.0000 0.3880 -0.9217
vn -0.2549 -0.1992 -0.9462
vn -0.3753 -0.4230 -0.8247
vn -0.0000 -0.7728 -0.6347
vn 0.2767 -0.6660 -0.6927
vn -0.0000 -0.1117 -0.9937
vn 0.3753 -0.4230 -0.8247
vn 0.2549 -0.1992 -0.9462
vn -0.2767 -0.6660 -0.6927
vn -0.0000 -0.5023 -0.8647
vt 0.000000 0.000000
s 1
f 8/1/1 16/1/2 15/1/3 7/1/4
f 6/1/5 14/1/6 13/1/7 5/1/8
f 4/1/9 12/1/10 11/1/11 3/1/12
f 2/1/13 10/1/14 9/1/15 1/1/16
f 1/1/16 9/1/15 16/1/2 8/1/1
f 7/1/4 15/1/3 14/1/6 6/1/5
f 5/1/8 13/1/7 12/1/10 4/1/9
f 3/1/12 11/1/11 10/1/14 2/1/13
f 12/1/10 20/1/17 19/1/18 11/1/11
f 10/1/14 18/1/19 17/1/20 9/1/15
f 9/1/15 17/1/20 24/1/21 16/1/2
f 15/1/3 23/1/22 22/1/23 14/1/6
f 13/1/7 21/1/24 20/1/17 12/1/10
f 11/1/11 19/1/18 18/1/19 10/1/14
f 16/1/2 24/1/21 23/1/22 15/1/3
f 14/1/6 22/1/23 21/1/24 13/1/7
f 24/1/21 32/1/25 31/1/26 23/1/22
f 21/1/24 29/1/27 28/1/28 20/1/17
f 17/1/20 25/1/29 32/1/25 24/1/21
f 20/1/17 28/1/28 27/1/30 19/1/18
f 18/1/19 26/1/31 25/1/29 17/1/20
f 22/1/23 30/1/32 29/1/27 21/1/24
f 19/1/18 27/1/30 26/1/31 18/1/19
f 23/1/22 31/1/26 30/1/32 22/1/23
f 31/1/26 33/1/33 30/1/32
f 25/1/29 33/1/33 32/1/25
f 26/1/31 33/1/33 25/1/29
f 28/1/28 33/1/33 27/1/30
f 30/1/32 33/1/33 29/1/27
f 32/1/25 33/1/33 31/1/26
f 27/1/30 33/1/33 26/1/31
f 29/1/27 33/1/33 28/1/28
