# Blender 3.6.1
# www.blender.org
o Taillights.002
v 0.920087 0.042906 -3.629354
v 0.920506 -0.185057 -3.703978
v 1.204746 0.042955 -3.598497
v 1.333614 -0.346819 -3.673248
v 1.115441 -0.344278 -3.692493
v 1.054703 0.042929 -3.614762
v 1.204847 0.031124 -3.631624
v 1.122708 -0.325036 -3.718078
v 1.104472 -0.177624 -3.709496
v 0.943415 -0.178592 -3.728641
v 0.943030 0.031079 -3.660005
v 1.066844 0.031100 -3.646584
v 1.323374 -0.327373 -3.700376
v 1.283985 -0.176546 -3.688156
v -0.920087 0.042906 -3.629354
v -0.920506 -0.185057 -3.703978
v -1.204746 0.042955 -3.598497
v -1.333614 -0.346819 -3.673248
v -1.115441 -0.344278 -3.692493
v -1.054703 0.042929 -3.614762
v -1.204847 0.031124 -3.631624
v -1.122708 -0.325036 -3.718078
v -1.104472 -0.177624 -3.709496
v -0.943415 -0.178592 -3.728641
v -0.943030 0.031079 -3.660005
v -1.066844 0.031100 -3.646584
v -1.323374 -0.327373 -3.700376
v -1.283985 -0.176546 -3.688156
v 0.943030 0.031079 -3.660005
v 0.943030 0.031079 -3.660005
v 0.943415 -0.178592 -3.728641
v 1.066844 0.031100 -3.646584
v 1.204847 0.031124 -3.631624
v 1.323374 -0.327373 -3.700376
v 1.122708 -0.325036 -3.718078
v 0.920087 0.042906 -3.629354
v -0.943030 0.031079 -3.660005
v -0.943030 0.031079 -3.660005
v -0.943415 -0.178592 -3.728641
v -1.066844 0.031100 -3.646584
v -1.204847 0.031124 -3.631624
v -1.323374 -0.327373 -3.700376
v -1.122708 -0.325036 -3.718078
v -0.920087 0.042906 -3.629354
vn 0.1071 0.3047 -0.9464
vn 0.1073 0.3018 -0.9473
vn 0.1048 0.1772 -0.9786
vn 0.1061 0.2371 -0.9657
vn 0.1020 0.0888 -0.9908
vn 0.1070 0.3070 -0.9457
vn 0.0363 0.9412 -0.3360
vn -0.7433 0.2069 -0.6362
vn 0.0429 -0.8043 -0.5927
vn -0.1071 0.3047 -0.9464
vn -0.1061 0.2371 -0.9657
vn -0.1048 0.1772 -0.9786
vn -0.1073 0.3018 -0.9473
vn -0.1020 0.0888 -0.9908
vn -0.1070 0.3070 -0.9457
vn -0.0363 0.9412 -0.3360
vn 0.7433 0.2069 -0.6362
vn -0.0429 -0.8043 -0.5927
vt 0.655895 0.500000
vt 0.639431 0.500000
vt 0.545507 0.467206
vt 0.516136 0.429791
vt 0.450056 0.434836
vt 0.373105 0.360487
vt 0.670667 0.500000
vt 0.489785 0.396222
s 1
f 32/1/1 33/2/2 14/3/3 9/4/4
f 9/4/4 14/3/3 34/5/5 35/6/5
f 29/7/6 32/1/1 9/4/4 31/8/6
f 6/1/7 3/2/7 7/2/7 12/1/7
f 1/7/7 6/1/7 12/1/7 30/7/7
f 2/8/8 36/7/8 11/7/8 10/8/8
f 4/5/9 5/6/9 8/6/9 13/5/9
f 40/1/10 23/4/11 28/3/12 41/2/13
f 23/4/11 43/6/14 42/5/14 28/3/12
f 37/7/15 39/8/15 23/4/11 40/1/10
f 20/1/16 26/1/16 21/2/16 17/2/16
f 15/7/16 38/7/16 26/1/16 20/1/16
f 16/8/17 24/8/17 25/7/17 44/7/17
f 18/5/18 27/5/18 22/6/18 19/6/18
