# Blender 3.6.1
# www.blender.org
o Plane
v -1.000000 -0.195488 1.000000
v 1.000000 -0.204336 1.000000
v -1.000000 -0.204336 -1.000000
v 1.000000 -0.155271 -1.000000
v -1.000000 -0.182747 0.000000
v 0.000000 -0.190013 1.000000
v 1.000000 -0.107424 0.000000
v 0.000000 -0.152347 -1.000000
v 0.000000 0.161009 0.000000
v -1.000000 -0.177547 0.500000
v 0.500000 -0.156570 1.000000
v 1.000000 -0.054862 -0.500000
v -0.500000 -0.201265 -1.000000
v -1.000000 -0.192885 -0.500000
v -0.500000 -0.177771 1.000000
v 1.000000 -0.171544 0.500000
v 0.500000 -0.079453 -1.000000
v 0.000000 0.188634 -0.500000
v 0.000000 0.042038 0.500000
v -0.500000 0.100041 0.000000
v 0.500000 0.213996 0.000000
v 0.500000 0.135880 0.500000
v -0.500000 0.062393 0.500000
v -0.500000 0.072363 -0.500000
v 0.500000 0.309828 -0.500000
v -1.000000 -0.177771 0.750000
v 0.750000 -0.187722 1.000000
v 1.000000 -0.095228 -0.750000
v -0.750000 -0.204336 -1.000000
v -1.000000 -0.180415 -0.250000
v -0.250000 -0.195488 1.000000
v 1.000000 -0.150631 0.250000
v 0.250000 -0.106501 -1.000000
v 0.000000 0.035373 -0.750000
v 0.000000 0.081137 0.250000
v -0.750000 -0.020396 0.000000
v 0.250000 0.211972 0.000000
v -1.000000 -0.186092 0.250000
v 0.250000 -0.158617 1.000000
v 1.000000 -0.062414 -0.250000
v -0.250000 -0.192167 -1.000000
v -1.000000 -0.204113 -0.750000
v -0.750000 -0.177771 1.000000
v 1.000000 -0.192674 0.750000
v 0.750000 -0.100792 -1.000000
v 0.000000 0.228138 -0.250000
v 0.000000 -0.051524 0.750000
v -0.250000 0.131236 0.000000
v 0.750000 0.089879 0.000000
v 0.500000 0.149121 0.250000
v 0.500000 0.031003 0.750000
v 0.250000 0.113748 0.500000
v 0.750000 0.003727 0.500000
v -0.500000 0.073307 0.250000
v -0.500000 -0.038217 0.750000
v -0.750000 -0.026855 0.500000
v -0.250000 0.024598 0.500000
v -0.500000 -0.060855 -0.750000
v -0.500000 0.113702 -0.250000
v -0.750000 -0.043655 -0.500000
v -0.250000 0.120159 -0.500000
v 0.500000 0.145768 -0.750000
v 0.500000 0.302890 -0.250000
v 0.250000 0.273612 -0.500000
v 0.750000 0.183622 -0.500000
v 0.750000 0.168781 -0.250000
v 0.250000 0.297990 -0.250000
v 0.250000 0.105521 -0.750000
v -0.250000 0.173950 -0.250000
v -0.750000 -0.014950 -0.250000
v -0.750000 -0.083673 -0.750000
v -0.250000 -0.069841 0.750000
v -0.750000 -0.041421 0.750000
v -0.750000 -0.027094 0.250000
v 0.750000 -0.029509 0.750000
v 0.250000 0.018127 0.750000
v 0.250000 0.146637 0.250000
v 0.750000 0.023712 0.250000
v -0.250000 0.073705 0.250000
v -0.250000 -0.026015 -0.750000
v 0.750000 0.109524 -0.750000
v -1.000000 -0.185717 0.875000
v 0.875000 -0.201460 1.000000
v 1.000000 -0.124995 -0.875000
v -0.875000 -0.204336 -1.000000
v -1.000000 -0.179531 -0.125000
v -0.125000 -0.200708 1.000000
v 1.000000 -0.130206 0.125000
v 0.125000 -0.128673 -1.000000
v 0.000000 -0.063940 -0.875000
v 0.000000 0.113078 0.125000
v -0.875000 -0.109174 0.000000
v 0.125000 0.185873 0.000000
v -1.000000 -0.182043 0.375000
v 0.375000 -0.152141 1.000000
v 1.000000 -0.051955 -0.375000
v -0.375000 -0.199318 -1.000000
v -1.000000 -0.200267 -0.625000
v -0.625000 -0.174731 1.000000
v 1.000000 -0.181525 0.625000
v 0.625000 -0.083793 -1.000000
v 0.000000 0.229509 -0.375000
v 0.000000 -0.000128 0.625000
v -0.375000 0.125070 0.000000
v 0.625000 0.162265 0.000000
v 0.500000 0.171659 0.125000
v 0.500000 0.096582 0.625000
v 0.125000 0.078544 0.500000
v 0.625000 0.081054 0.500000
v -0.500000 0.084518 0.125000
v -0.500000 0.017628 0.625000
v -0.875000 -0.107896 0.500000
v -0.375000 0.044808 0.500000
v -0.500000 -0.142457 -0.875000
v -0.500000 0.097862 -0.375000
v -0.875000 -0.126124 -0.500000
v -0.375000 0.092876 -0.500000
v 0.500000 0.031525 -0.875000
v 0.500000 0.319308 -0.375000
v 0.125000 0.231829 -0.500000
v 0.625000 0.261672 -0.500000
v -1.000000 -0.174731 0.625000
v 0.625000 -0.170216 1.000000
v 1.000000 -0.070785 -0.625000
v -0.625000 -0.203435 -1.000000
v -1.000000 -0.185362 -0.375000
v -0.375000 -0.185717 1.000000
v 1.000000 -0.163476 0.375000
v 0.375000 -0.088078 -1.000000
v 0.000000 0.116944 -0.625000
v 0.000000 0.066918 0.375000
v -0.625000 0.048104 0.000000
v 0.375000 0.229842 0.000000
v -1.000000 -0.187262 0.125000
v 0.125000 -0.173314 1.000000
v 1.000000 -0.082882 -0.125000
v -0.125000 -0.174875 -1.000000
v -1.000000 -0.204336 -0.875000
v -0.875000 -0.185717 1.000000
v 1.000000 -0.201590 0.875000
v 0.875000 -0.126733 -1.000000
v 0.000000 0.203146 -0.125000
v 0.000000 -0.125289 0.875000
v -0.125000 0.142506 0.000000
v 0.875000 -0.008441 0.000000
v 0.500000 0.137931 0.375000
v 0.500000 -0.065611 0.875000
v 0.375000 0.135314 0.500000
v 0.875000 -0.093403 0.500000
v -0.500000 0.066683 0.375000
v -0.500000 -0.113553 0.875000
v -0.625000 0.027842 0.500000
v -0.125000 0.022502 0.500000
v -0.500000 0.007266 -0.625000
v -0.500000 0.114660 -0.125000
v -0.625000 0.018821 -0.500000
v -0.125000 0.152632 -0.500000
v 0.500000 0.241427 -0.625000
v 0.500000 0.266253 -0.125000
v 0.375000 0.302784 -0.500000
v 0.875000 0.070276 -0.500000
v 0.750000 0.187550 -0.375000
v 0.750000 0.133663 -0.125000
v 0.625000 0.248368 -0.250000
v 0.875000 0.058791 -0.250000
v 0.250000 0.307004 -0.375000
v 0.250000 0.262679 -0.125000
v 0.125000 0.262519 -0.250000
v 0.375000 0.319402 -0.250000
v 0.250000 -0.006691 -0.875000
v 0.250000 0.200370 -0.625000
v 0.125000 0.070133 -0.750000
v 0.375000 0.132765 -0.750000
v -0.250000 0.165052 -0.375000
v -0.250000 0.160641 -0.125000
v -0.375000 0.150585 -0.250000
v -0.125000 0.199616 -0.250000
v -0.750000 -0.025803 -0.375000
v -0.750000 -0.013439 -0.125000
v -0.875000 -0.104692 -0.250000
v -0.625000 0.054864 -0.250000
v -0.750000 -0.155124 -0.875000
v -0.750000 -0.064517 -0.625000
v -0.875000 -0.153273 -0.750000
v -0.625000 -0.071300 -0.750000
v -0.250000 -0.020030 0.625000
v -0.250000 -0.139695 0.875000
v -0.375000 -0.050960 0.750000
v -0.125000 -0.071271 0.750000
v -0.750000 -0.032077 0.625000
v -0.750000 -0.113553 0.875000
v -0.875000 -0.113553 0.750000
v -0.625000 -0.034972 0.750000
v -0.750000 -0.025331 0.125000
v -0.750000 -0.026590 0.375000
v -0.875000 -0.113211 0.250000
v -0.625000 0.034206 0.250000
v 0.750000 -0.007323 0.625000
v 0.750000 -0.114763 0.875000
v 0.625000 0.005442 0.750000
v 0.875000 -0.121668 0.750000
v 0.250000 0.074657 0.625000
v 0.250000 -0.070524 0.875000
v 0.125000 -0.015941 0.750000
v 0.375000 0.037101 0.750000
v 0.250000 0.171125 0.125000
v 0.250000 0.133818 0.375000
v 0.125000 0.113550 0.250000
v 0.375000 0.166327 0.250000
v 0.750000 0.048005 0.125000
v 0.750000 0.009395 0.375000
v 0.625000 0.096724 0.250000
v 0.875000 -0.072121 0.250000
v -0.250000 0.097412 0.125000
v -0.250000 0.055560 0.375000
v -0.375000 0.085018 0.250000
v -0.125000 0.064703 0.250000
v -0.250000 -0.118954 -0.875000
v -0.250000 0.051441 -0.625000
v -0.375000 -0.049090 -0.750000
v -0.125000 0.003403 -0.750000
v 0.750000 0.003232 -0.875000
v 0.750000 0.155348 -0.625000
v 0.625000 0.139688 -0.750000
v 0.875000 0.008519 -0.750000
v 0.875000 0.046437 -0.625000
v 0.625000 0.228937 -0.625000
v 0.625000 0.026681 -0.875000
v -0.125000 0.082305 -0.625000
v -0.375000 0.024612 -0.625000
v -0.375000 -0.136419 -0.875000
v -0.125000 0.050343 0.375000
v -0.375000 0.073704 0.375000
v -0.375000 0.102447 0.125000
v 0.875000 -0.087779 0.375000
v 0.625000 0.084994 0.375000
v 0.625000 0.119485 0.125000
v 0.375000 0.155786 0.375000
v 0.125000 0.099826 0.375000
v 0.125000 0.141473 0.125000
v 0.375000 -0.059412 0.875000
v 0.125000 -0.095658 0.875000
v 0.125000 0.037726 0.625000
v 0.875000 -0.141298 0.875000
v 0.625000 -0.086478 0.875000
v 0.625000 0.069766 0.625000
v -0.625000 0.031034 0.375000
v -0.875000 -0.109840 0.375000
v -0.875000 -0.113503 0.125000
v -0.625000 -0.109138 0.875000
v -0.875000 -0.125093 0.875000
v -0.875000 -0.108885 0.625000
v -0.125000 -0.142666 0.875000
v -0.375000 -0.125093 0.875000
v -0.375000 0.000712 0.625000
v -0.625000 -0.007561 -0.625000
v -0.875000 -0.141008 -0.625000
v -0.875000 -0.158728 -0.875000
v -0.625000 0.056702 -0.125000
v -0.875000 -0.103465 -0.125000
v -0.875000 -0.112885 -0.375000
v -0.125000 0.179517 -0.125000
v -0.375000 0.144777 -0.125000
v -0.375000 0.138126 -0.375000
v 0.375000 0.230189 -0.625000
v 0.125000 0.159333 -0.625000
v 0.125000 -0.035683 -0.875000
v 0.375000 0.282536 -0.125000
v 0.125000 0.231436 -0.125000
v 0.125000 0.268944 -0.375000
v 0.875000 0.028806 -0.125000
v 0.625000 0.210793 -0.125000
v 0.625000 0.267506 -0.375000
v 0.875000 0.074267 -0.375000
v 0.375000 0.331300 -0.375000
v 0.375000 0.017678 -0.875000
v -0.125000 0.196220 -0.375000
v -0.625000 0.041212 -0.375000
v -0.625000 -0.148822 -0.875000
v -0.125000 -0.020773 0.625000
v -0.625000 0.018619 0.625000
v -0.625000 0.039884 0.125000
v 0.875000 -0.104302 0.625000
v 0.375000 0.097788 0.625000
v 0.375000 0.188772 0.125000
v 0.875000 -0.044068 0.125000
v -0.125000 0.098780 0.125000
v -0.125000 -0.092931 -0.875000
v 0.875000 -0.034211 -0.875000
v -1.101216 -0.321964 1.101216
v 1.101216 -0.331708 1.101216
v -1.101216 -0.331708 -1.101216
v 1.101216 -0.277676 -1.101216
v -1.101216 -0.307933 0.000000
v 0.000000 -0.315935 1.101216
v 1.101216 -0.224987 0.000000
v 0.000000 -0.274456 -1.101216
v -1.101216 -0.302207 0.550608
v 0.550608 -0.279107 1.101216
v 1.101216 -0.167104 -0.550608
v -0.550608 -0.328326 -1.101216
v -1.101216 -0.319098 -0.550608
v -0.550608 -0.302454 1.101216
v 1.101216 -0.295596 0.550608
v 0.550608 -0.194185 -1.101216
v -1.101216 -0.302454 0.825912
v 0.825912 -0.313412 1.101216
v 1.101216 -0.211556 -0.825912
v -0.825912 -0.331708 -1.101216
v -1.101216 -0.305365 -0.275304
v -0.275304 -0.321964 1.101216
v 1.101216 -0.272567 0.275304
v 0.275304 -0.223970 -1.101216
v -1.101216 -0.311617 0.275304
v 0.275304 -0.281361 1.101216
v 1.101216 -0.175420 -0.275304
v -0.275304 -0.318307 -1.101216
v -1.101216 -0.331461 -0.825912
v -0.825912 -0.302454 1.101216
v 1.101216 -0.318865 0.825912
v 0.825912 -0.217683 -1.101216
v -1.101216 -0.311204 0.963564
v 0.963564 -0.328540 1.101216
v 1.101216 -0.244336 -0.963564
v -0.963564 -0.331708 -1.101216
v -1.101216 -0.304392 -0.137652
v -0.137652 -0.327713 1.101216
v 1.101216 -0.250074 0.137652
v 0.137652 -0.248386 -1.101216
v -1.101216 -0.307158 0.412956
v 0.412956 -0.274229 1.101216
v 1.101216 -0.163903 -0.412956
v -0.412956 -0.326181 -1.101216
v -1.101216 -0.327226 -0.688260
v -0.688260 -0.299106 1.101216
v 1.101216 -0.306588 0.688260
v 0.688260 -0.198964 -1.101216
v -1.101216 -0.299106 0.688260
v 0.688260 -0.294134 1.101216
v 1.101216 -0.184638 -0.688260
v -0.688260 -0.330716 -1.101216
v -1.101216 -0.310813 -0.412956
v -0.412956 -0.311204 1.101216
v 1.101216 -0.286712 0.412956
v 0.412956 -0.203682 -1.101216
v -1.101216 -0.312905 0.137652
v 0.137652 -0.297546 1.101216
v 1.101216 -0.197961 -0.137652
v -0.137652 -0.299264 -1.101216
v -1.101216 -0.331708 -0.963564
v -0.963564 -0.311204 1.101216
v 1.101216 -0.328684 0.963564
v 0.963564 -0.246250 -1.101216
v -1.183096 -0.475124 1.183096
v 1.183096 -0.485592 1.183096
v -1.183096 -0.485592 -1.183096
v 1.183096 -0.427543 -1.183096
v -1.183096 -0.460050 -0.000000
v 0.000000 -0.468647 1.183096
v 1.183096 -0.370936 -0.000000
v 0.000000 -0.424084 -1.183096
v -1.183096 -0.453899 0.591548
v 0.591548 -0.429080 1.183096
v 1.183096 -0.308750 -0.591548
v -0.591548 -0.481959 -1.183096
v -1.183096 -0.472045 -0.591548
v -0.591548 -0.454164 1.183096
v 1.183096 -0.446796 0.591548
v 0.591548 -0.337844 -1.183096
v -1.183096 -0.454164 0.887322
v 0.887322 -0.465937 1.183096
v 1.183096 -0.356507 -0.887322
v -0.887322 -0.485592 -1.183096
v -1.183096 -0.457291 -0.295774
v -0.295774 -0.475124 1.183096
v 1.183096 -0.422054 0.295774
v 0.295774 -0.369844 -1.183096
v -1.183096 -0.464008 0.295774
v 0.295774 -0.431502 1.183096
v 1.183096 -0.317684 -0.295774
v -0.295774 -0.471195 -1.183096
v -1.183096 -0.485328 -0.887322
v -0.887322 -0.454164 1.183096
v 1.183096 -0.471795 0.887322
v 0.887322 -0.363090 -1.183096
v -1.183096 -0.463564 1.035209
v 1.035209 -0.482189 1.183096
v 1.183096 -0.391724 -1.035209
v -1.035209 -0.485592 -1.183096
v -1.183096 -0.456246 -0.147887
v -0.147887 -0.481300 1.183096
v 1.183096 -0.397889 0.147887
v 0.147887 -0.396075 -1.183096
v -1.183096 -0.459218 0.443661
v 0.443661 -0.423840 1.183096
v 1.183096 -0.305311 -0.443661
v -0.443661 -0.479655 -1.183096
v -1.183096 -0.480778 -0.739435
v -0.739435 -0.450567 1.183096
v 1.183096 -0.458605 0.739435
v 0.739435 -0.342978 -1.183096
v -1.183096 -0.450567 0.739435
v 0.739435 -0.445225 1.183096
v 1.183096 -0.327588 -0.739435
v -0.739435 -0.484526 -1.183096
v -1.183096 -0.463144 -0.443661
v -0.443661 -0.463564 1.183096
v 1.183096 -0.437251 0.443661
v 0.443661 -0.348047 -1.183096
v -1.183096 -0.465392 0.147887
v 0.147887 -0.448890 1.183096
v 1.183096 -0.341901 -0.147887
v -0.147887 -0.450737 -1.183096
v -1.183096 -0.485592 -1.035209
v -1.035209 -0.463564 1.183096
v 1.183096 -0.482344 1.035209
v 1.035209 -0.393780 -1.183096
vn 0.4142 0.8004 -0.4334
vn 0.5948 0.7642 -0.2492
vn 0.4399 0.7779 -0.4488
vn 0.2298 0.7619 -0.6056
vn -0.1693 0.8041 -0.5699
vn -0.1784 0.7867 -0.5910
vn -0.1434 0.7268 -0.6717
vn -0.1307 0.7391 -0.6607
vn -0.0648 0.9580 0.2794
vn -0.1672 0.9422 0.2905
vn -0.1688 0.9302 0.3260
vn -0.1115 0.9480 0.2982
vn 0.5785 0.7942 0.1860
vn 0.6639 0.7340 0.1432
vn 0.6835 0.7134 0.1548
vn 0.6056 0.7666 0.2134
vn -0.0053 0.9684 0.2494
vn 0.2551 0.9360 0.2424
vn 0.2473 0.9074 0.3398
vn -0.0077 0.9365 0.3506
vn -0.0730 0.9284 0.3643
vn 0.1319 0.9279 0.3486
vn 0.1948 0.9692 0.1505
vn -0.0670 0.9757 0.2086
vn 0.5625 0.8217 0.0913
vn 0.6481 0.7583 0.0701
vn 0.6529 0.7556 0.0528
vn 0.5700 0.8198 0.0557
vn -0.4008 0.9144 0.0564
vn -0.2419 0.9647 0.1041
vn -0.2869 0.9511 0.1143
vn -0.4295 0.9005 0.0686
vn -0.1834 0.9561 0.2287
vn 0.0310 0.9413 0.3362
vn -0.0591 0.9825 0.1768
vn -0.3017 0.9503 0.0772
vn -0.0702 0.9337 0.3510
vn -0.2085 0.9155 0.3440
vn -0.2077 0.9451 0.2523
vn -0.0634 0.9598 0.2734
vn -0.0448 0.8857 -0.4621
vn -0.0439 0.8719 -0.4877
vn -0.0206 0.7854 -0.6186
vn -0.0192 0.7940 -0.6077
vn -0.4373 0.8903 -0.1269
vn -0.3347 0.9278 -0.1646
vn -0.2550 0.9151 -0.3125
vn -0.3824 0.9006 -0.2068
vn -0.2401 0.9550 -0.1743
vn -0.2736 0.9509 -0.1447
vn -0.2712 0.8795 -0.3911
vn -0.2366 0.8858 -0.3992
vn -0.1076 0.7466 -0.6565
vn -0.0219 0.7449 -0.6669
vn -0.0191 0.7072 -0.7068
vn -0.0870 0.7056 -0.7033
vn -0.0631 0.9969 -0.0479
vn 0.2249 0.9744 0.0082
vn 0.1404 0.9528 -0.2693
vn -0.1129 0.9314 -0.3460
vn 0.6868 0.7261 0.0335
vn 0.7256 0.6876 0.0264
vn 0.7164 0.6955 -0.0558
vn 0.6829 0.7263 -0.0785
vn 0.4579 0.8880 0.0417
vn 0.6018 0.7975 0.0434
vn 0.5939 0.7977 -0.1050
vn 0.4111 0.8956 -0.1699
vn 0.4419 0.8493 0.2890
vn 0.5655 0.7872 0.2460
vn 0.5893 0.7906 0.1665
vn 0.4577 0.8685 0.1903
vn 0.6405 0.7433 0.1931
vn 0.7038 0.6960 0.1425
vn 0.7198 0.6873 0.0973
vn 0.6701 0.7308 0.1297
vn -0.2935 0.9490 -0.1146
vn -0.2417 0.9663 -0.0889
vn -0.2447 0.8959 -0.3708
vn -0.2903 0.8785 -0.3795
vn -0.2238 0.9321 0.2849
vn -0.1890 0.9306 0.3136
vn -0.2176 0.9617 0.1666
vn -0.2644 0.9544 0.1385
vn -0.0132 0.9435 0.3311
vn 0.2520 0.9130 0.3208
vn 0.2551 0.9465 0.1974
vn -0.0250 0.9818 0.1880
vn -0.1769 0.7702 -0.6128
vn -0.1586 0.7549 -0.6364
vn -0.1258 0.7096 -0.6932
vn -0.1407 0.7177 -0.6820
vn -0.2617 0.8113 -0.5227
vn -0.2238 0.8117 -0.5394
vn -0.1906 0.7595 -0.6219
vn -0.2174 0.7712 -0.5983
vn -0.1302 0.8254 -0.5494
vn 0.0367 0.8541 -0.5188
vn -0.0157 0.7697 -0.6382
vn -0.1218 0.7607 -0.6375
vn -0.2310 0.9524 -0.1988
vn -0.2151 0.9561 -0.1991
vn -0.2097 0.8910 -0.4027
vn -0.1885 0.9031 -0.3860
vn -0.1787 0.9783 0.1052
vn -0.1330 0.9775 0.1640
vn -0.1875 0.9821 0.0189
vn -0.2262 0.9738 -0.0241
vn -0.1629 0.9629 0.2152
vn -0.1991 0.9467 0.2531
vn -0.2418 0.9648 0.1030
vn -0.2102 0.9756 0.0627
vn -0.5332 0.8430 -0.0708
vn -0.5177 0.8499 -0.0983
vn -0.4937 0.8593 -0.1334
vn -0.5071 0.8568 -0.0937
vn -0.5502 0.8349 0.0140
vn -0.5350 0.8447 0.0188
vn -0.5323 0.8455 -0.0423
vn -0.5480 0.8359 -0.0310
vn -0.4495 0.8928 0.0295
vn -0.3250 0.9440 0.0570
vn -0.3488 0.9358 -0.0514
vn -0.4521 0.8904 -0.0537
vn -0.2090 0.9545 -0.2128
vn -0.0947 0.9177 -0.3859
vn -0.0118 0.8030 -0.5959
vn -0.0502 0.8312 -0.5538
vn -0.4722 0.8767 -0.0916
vn -0.4314 0.8844 -0.1782
vn -0.2805 0.9087 -0.3092
vn -0.3857 0.9149 -0.1194
vn -0.2588 0.9109 -0.3214
vn -0.1444 0.8865 -0.4397
vn -0.0763 0.8548 -0.5133
vn -0.1182 0.8818 -0.4566
vn 0.1337 0.9244 0.3572
vn 0.0794 0.9322 0.3530
vn 0.0854 0.9556 0.2820
vn 0.1186 0.9589 0.2577
vn 0.0893 0.8787 0.4690
vn 0.0619 0.8879 0.4559
vn 0.0712 0.8971 0.4360
vn 0.1133 0.8890 0.4437
vn -0.0454 0.8860 0.4614
vn -0.1503 0.8616 0.4849
vn -0.1890 0.8768 0.4421
vn -0.0633 0.8970 0.4376
vn -0.4962 0.8679 0.0226
vn -0.4167 0.9044 0.0921
vn -0.4714 0.8817 0.0204
vn -0.5137 0.8580 -0.0033
vn -0.2752 0.9212 0.2752
vn -0.1117 0.8952 0.4314
vn -0.2743 0.9199 0.2803
vn -0.4331 0.8940 0.1146
vn -0.0028 0.8743 0.4854
vn 0.0515 0.8739 0.4835
vn 0.0586 0.8885 0.4552
vn -0.0543 0.9068 0.4180
vn -0.5410 0.8409 0.0151
vn -0.5194 0.8541 0.0270
vn -0.5296 0.8471 0.0431
vn -0.5453 0.8376 0.0331
vn -0.5267 0.8499 -0.0166
vn -0.4888 0.8724 0.0010
vn -0.5050 0.8631 0.0070
vn -0.5354 0.8445 -0.0097
vn -0.3500 0.9365 0.0222
vn -0.1490 0.9865 0.0680
vn -0.2002 0.9771 0.0719
vn -0.3724 0.9275 0.0345
vn 0.3545 0.8982 0.2599
vn 0.5336 0.8329 0.1467
vn 0.5683 0.8211 0.0535
vn 0.4386 0.8950 0.0811
vn 0.1543 0.8106 0.5649
vn 0.2304 0.8470 0.4792
vn 0.4067 0.8451 0.3470
vn 0.2363 0.8437 0.4820
vn 0.3175 0.9006 0.2967
vn 0.5840 0.8048 0.1059
vn 0.6348 0.7688 0.0775
vn 0.4948 0.8513 0.1744
vn -0.2626 0.9026 0.3410
vn -0.2092 0.9134 0.3491
vn -0.2169 0.9500 0.2247
vn -0.2664 0.9353 0.2328
vn -0.1754 0.8330 0.5247
vn -0.1204 0.8133 0.5692
vn -0.1739 0.8544 0.4897
vn -0.2312 0.8583 0.4580
vn -0.0204 0.8025 0.5963
vn 0.0837 0.8009 0.5930
vn 0.0995 0.8427 0.5292
vn -0.0464 0.8530 0.5198
vn -0.2182 0.9375 0.2709
vn -0.1816 0.9503 0.2527
vn -0.1723 0.9250 0.3388
vn -0.2021 0.9212 0.3324
vn -0.2591 0.9563 0.1355
vn -0.2137 0.9686 0.1274
vn -0.2020 0.9687 0.1445
vn -0.2448 0.9564 0.1593
vn -0.0315 0.9938 0.1070
vn 0.2512 0.9653 0.0713
vn 0.2632 0.9560 0.1291
vn -0.0093 0.9907 0.1360
vn 0.4326 0.8723 0.2280
vn 0.5414 0.8137 0.2116
vn 0.5440 0.7955 0.2670
vn 0.4274 0.8500 0.3080
vn 0.4551 0.8886 0.0573
vn 0.5649 0.8228 0.0633
vn 0.5529 0.8234 0.1279
vn 0.4445 0.8870 0.1252
vn 0.5674 0.8206 0.0684
vn 0.6522 0.7553 0.0643
vn 0.6535 0.7490 0.1091
vn 0.5674 0.8133 0.1289
vn -0.0567 0.9852 0.1620
vn 0.0105 0.9740 0.2262
vn -0.0637 0.9684 0.2413
vn -0.1184 0.9776 0.1741
vn 0.0577 0.9888 0.1375
vn 0.0877 0.9803 0.1769
vn 0.0668 0.9851 0.1583
vn -0.0029 0.9932 0.1164
vn -0.0468 0.9843 0.1699
vn -0.1971 0.9688 0.1504
vn -0.1828 0.9674 0.1755
vn -0.0406 0.9828 0.1802
vn -0.0758 0.8544 -0.5140
vn -0.1343 0.8282 -0.5441
vn -0.0914 0.7561 -0.6480
vn -0.0419 0.7735 -0.6325
vn -0.1472 0.8617 -0.4856
vn -0.1930 0.8475 -0.4945
vn -0.1687 0.8166 -0.5521
vn -0.1147 0.8361 -0.5364
vn -0.2185 0.8377 -0.5006
vn -0.2469 0.8244 -0.5093
vn -0.2110 0.7895 -0.5763
vn -0.1956 0.8034 -0.5625
vn 0.0861 0.7469 -0.6593
vn 0.2354 0.7695 -0.5937
vn 0.1361 0.7289 -0.6710
vn 0.0626 0.7150 -0.6963
vn 0.2899 0.8653 -0.4089
vn 0.5358 0.7994 -0.2718
vn 0.4004 0.7912 -0.4623
vn 0.1543 0.7894 -0.5942
vn 0.6565 0.7334 -0.1763
vn 0.6923 0.7101 -0.1281
vn 0.6606 0.7297 -0.1763
vn 0.5771 0.7641 -0.2884
vn -0.0760 0.7324 0.6766
vn -0.0104 0.7296 0.6838
vn 0.0586 0.7355 0.6750
vn -0.1009 0.7657 0.6352
vn -0.1140 0.7456 0.6565
vn 0.1176 0.7662 0.6317
vn 0.1251 0.8043 0.5809
vn 0.4062 0.8188 0.4056
vn 0.1074 0.7482 0.6547
vn -0.6505 0.7592 -0.0230
vn -0.6533 0.7570 -0.0141
vn -0.6442 0.7647 -0.0171
vn -0.6544 0.7561 0.0111
vn -0.6539 0.7561 0.0254
vn -0.0372 0.7816 0.6227
vn 0.0018 0.7763 0.6304
vn 0.0398 0.7751 0.6306
vn -0.5778 0.8087 0.1100
vn -0.6228 0.7815 0.0374
vn -0.4129 0.8118 0.4129
vn -0.1100 0.8087 0.5778
vn -0.6339 0.7734 0.0039
vn 0.0487 0.7839 0.6189
vn -0.0260 0.7804 0.6247
vn 0.0634 0.7788 0.6240
vn -0.6160 0.7861 -0.0510
vn -0.6000 0.7995 -0.0272
vn -0.6319 0.7729 -0.0580
vn -0.5548 0.8303 -0.0526
vn -0.3892 0.8349 -0.3892
vn -0.6557 0.7550 0.0092
vn -0.6539 0.7563 -0.0203
vn -0.6454 0.7625 -0.0455
vn -0.8344 0.5510 -0.0116
vn -0.8347 0.5504 -0.0188
vn -0.8338 0.5521 0.0072
vn -0.0466 0.5553 0.8304
vn -0.0035 0.5630 0.8265
vn -0.8211 0.5693 0.0407
vn -0.5348 0.6541 0.5348
vn -0.0692 0.5511 0.8316
vn -0.8340 0.5516 -0.0160
vn -0.8303 0.5573 0.0013
vn 0.8131 0.5778 0.0708
vn 0.8083 0.5885 0.0163
vn 0.0358 0.5609 0.8271
vn 0.5349 0.6543 0.5345
vn 0.8139 0.5718 0.1029
vn 0.0426 0.5716 0.8194
vn 0.0725 0.5772 0.8134
vn -0.0537 0.5550 -0.8301
vn -0.0197 0.5519 -0.8337
vn 0.7681 0.6226 -0.1496
vn 0.5297 0.6571 -0.5363
vn -0.0886 0.5578 -0.8252
vn 0.7976 0.6013 -0.0473
vn 0.7845 0.6120 -0.1004
vn -0.8348 0.5505 -0.0085
vn -0.8311 0.5555 -0.0245
vn -0.0000 0.5482 -0.8363
vn -0.5342 0.6552 -0.5342
vn -0.0091 0.5511 -0.8344
vn -0.0066 0.5501 -0.8351
vn -0.8362 0.5484 -0.0005
vn -0.0256 0.5647 0.8249
vn -0.0009 0.5572 0.8304
vn -0.8319 0.5549 0.0051
vn -0.8324 0.5539 0.0171
vn -0.8288 0.5585 -0.0333
vn -0.8292 0.5582 -0.0281
vn -0.0407 0.5693 0.8211
vn 0.8233 0.5658 0.0451
vn 0.8219 0.5676 0.0481
vn -0.0116 0.5472 0.8369
vn -0.0602 0.5499 0.8331
vn 0.0236 0.5502 0.8347
vn 0.0386 0.5461 0.8368
vn 0.8297 0.5576 0.0251
vn 0.1069 0.6113 -0.7842
vn 0.0533 0.5976 -0.8000
vn 0.8157 0.5701 0.0984
vn 0.8146 0.5700 0.1079
vn 0.8233 0.5661 0.0411
vn 0.8234 0.5655 0.0469
vn 0.1353 0.6181 -0.7744
vn -0.1025 0.5590 -0.8228
vn -0.1032 0.5584 -0.8231
vn -0.0081 0.5818 -0.8133
vn -0.0606 0.5687 -0.8203
vn -0.8249 0.5647 0.0256
vn 0.0713 0.5749 0.8151
vn 0.7729 0.6198 -0.1355
vn -0.0018 0.5487 -0.8360
vn -0.8307 0.5565 -0.0132
vn 0.0329 0.5456 0.8374
vn 0.8196 0.5680 0.0751
vn -0.0910 0.5613 -0.8226
vn -0.0046 0.4942 -0.8693
vn -0.0512 0.4844 -0.8733
vn -0.0355 0.4860 0.8733
vn -0.0235 0.4822 0.8758
vn -0.0000 0.4697 -0.8828
vn -0.5650 0.6013 -0.5650
vn -0.8804 0.4739 0.0147
vn -0.8808 0.4734 0.0059
vn 0.8786 0.4771 0.0191
vn 0.8746 0.4834 0.0377
vn -0.8803 0.4744 0.0042
vn -0.0510 0.4719 0.8802
vn -0.0594 0.4719 0.8797
vn 0.1164 0.5246 -0.8434
vn 0.0950 0.5186 -0.8497
vn -0.0089 0.4709 0.8822
vn 0.8684 0.4872 0.0919
vn 0.8685 0.4878 0.0883
vn -0.8758 0.4822 0.0235
vn -0.8733 0.4860 0.0355
vn 0.8692 0.4873 0.0836
vn -0.0881 0.4782 -0.8738
vn -0.0749 0.4781 -0.8751
vn 0.0592 0.4906 0.8694
vn 0.0261 0.4796 0.8771
vn -0.0879 0.4783 -0.8738
vn -0.8827 0.4698 -0.0003
vn 0.8424 0.5258 -0.1179
vn 0.8395 0.5282 -0.1273
vn -0.8817 0.4715 -0.0162
vn -0.8814 0.4722 -0.0134
vn -0.5640 0.6031 0.5640
vn -0.0013 0.4701 -0.8826
vn -0.0016 0.4798 0.8774
vn 0.0387 0.4869 0.8726
vn 0.5654 0.6013 0.5646
vn -0.8796 0.4756 -0.0118
vn 0.8665 0.4991 0.0122
vn 0.8594 0.5094 -0.0437
vn 0.5539 0.6114 -0.5652
vn 0.0284 0.4683 0.8831
vn -0.0159 0.4731 -0.8808
vn -0.0078 0.4719 -0.8816
vn 0.8717 0.4860 0.0625
vn -0.8794 0.4756 -0.0200
vn -0.8781 0.4777 -0.0284
vn -0.0780 0.4796 -0.8740
vn -0.0022 0.4761 0.8794
vn 0.0195 0.4708 0.8820
vn -0.8814 0.4722 -0.0102
vn 0.8738 0.4846 0.0415
vn 0.8747 0.4833 0.0356
vn -0.0397 0.4742 0.8795
vn 0.0495 0.5069 -0.8606
vn 0.8689 0.4914 0.0605
vn -0.8793 0.4762 0.0025
vn -0.0441 0.4762 -0.8782
vn 0.0632 0.4920 0.8683
vn -0.8817 0.4717 -0.0062
vn 0.8503 0.5188 -0.0887
vn -0.0053 0.4713 -0.8820
vn -0.8785 0.4771 -0.0245
vn 0.0329 0.4680 0.8831
vn 0.8744 0.4836 0.0390
vt 0.937500 0.937500
vt 1.000000 0.937500
vt 1.000000 1.000000
vt 0.937500 1.000000
vt 0.437500 0.937500
vt 0.500000 0.937500
vt 0.500000 1.000000
vt 0.437500 1.000000
vt 0.437500 0.437500
vt 0.500000 0.437500
vt 0.500000 0.500000
vt 0.437500 0.500000
vt 0.937500 0.437500
vt 1.000000 0.437500
vt 1.000000 0.500000
vt 0.937500 0.500000
vt 0.687500 0.437500
vt 0.750000 0.437500
vt 0.750000 0.500000
vt 0.687500 0.500000
vt 0.687500 0.187500
vt 0.750000 0.187500
vt 0.750000 0.250000
vt 0.687500 0.250000
vt 0.937500 0.187500
vt 1.000000 0.187500
vt 1.000000 0.250000
vt 0.937500 0.250000
vt 0.187500 0.437500
vt 0.250000 0.437500
vt 0.250000 0.500000
vt 0.187500 0.500000
vt 0.187500 0.187500
vt 0.250000 0.187500
vt 0.250000 0.250000
vt 0.187500 0.250000
vt 0.437500 0.187500
vt 0.500000 0.187500
vt 0.500000 0.250000
vt 0.437500 0.250000
vt 0.187500 0.937500
vt 0.250000 0.937500
vt 0.250000 1.000000
vt 0.187500 1.000000
vt 0.187500 0.687500
vt 0.250000 0.687500
vt 0.250000 0.750000
vt 0.187500 0.750000
vt 0.437500 0.687500
vt 0.500000 0.687500
vt 0.500000 0.750000
vt 0.437500 0.750000
vt 0.687500 0.937500
vt 0.750000 0.937500
vt 0.750000 1.000000
vt 0.687500 1.000000
vt 0.687500 0.687500
vt 0.750000 0.687500
vt 0.750000 0.750000
vt 0.687500 0.750000
vt 0.937500 0.687500
vt 1.000000 0.687500
vt 1.000000 0.750000
vt 0.937500 0.750000
vt 0.812500 0.687500
vt 0.875000 0.687500
vt 0.875000 0.750000
vt 0.812500 0.750000
vt 0.812500 0.562500
vt 0.875000 0.562500
vt 0.875000 0.625000
vt 0.812500 0.625000
vt 0.937500 0.562500
vt 1.000000 0.562500
vt 1.000000 0.625000
vt 0.937500 0.625000
vt 0.562500 0.687500
vt 0.625000 0.687500
vt 0.625000 0.750000
vt 0.562500 0.750000
vt 0.562500 0.562500
vt 0.625000 0.562500
vt 0.625000 0.625000
vt 0.562500 0.625000
vt 0.687500 0.562500
vt 0.750000 0.562500
vt 0.750000 0.625000
vt 0.687500 0.625000
vt 0.562500 0.937500
vt 0.625000 0.937500
vt 0.625000 1.000000
vt 0.562500 1.000000
vt 0.562500 0.812500
vt 0.625000 0.812500
vt 0.625000 0.875000
vt 0.562500 0.875000
vt 0.687500 0.812500
vt 0.750000 0.812500
vt 0.750000 0.875000
vt 0.687500 0.875000
vt 0.312500 0.687500
vt 0.375000 0.687500
vt 0.375000 0.750000
vt 0.312500 0.750000
vt 0.312500 0.562500
vt 0.375000 0.562500
vt 0.375000 0.625000
vt 0.312500 0.625000
vt 0.437500 0.562500
vt 0.500000 0.562500
vt 0.500000 0.625000
vt 0.437500 0.625000
vt 0.062500 0.687500
vt 0.125000 0.687500
vt 0.125000 0.750000
vt 0.062500 0.750000
vt 0.062500 0.562500
vt 0.125000 0.562500
vt 0.125000 0.625000
vt 0.062500 0.625000
vt 0.187500 0.562500
vt 0.250000 0.562500
vt 0.250000 0.625000
vt 0.187500 0.625000
vt 0.062500 0.937500
vt 0.125000 0.937500
vt 0.125000 1.000000
vt 0.062500 1.000000
vt 0.062500 0.812500
vt 0.125000 0.812500
vt 0.125000 0.875000
vt 0.062500 0.875000
vt 0.187500 0.812500
vt 0.250000 0.812500
vt 0.250000 0.875000
vt 0.187500 0.875000
vt 0.312500 0.187500
vt 0.375000 0.187500
vt 0.375000 0.250000
vt 0.312500 0.250000
vt 0.312500 0.062500
vt 0.375000 0.062500
vt 0.375000 0.125000
vt 0.312500 0.125000
vt 0.437500 0.062500
vt 0.500000 0.062500
vt 0.500000 0.125000
vt 0.437500 0.125000
vt 0.062500 0.187500
vt 0.125000 0.187500
vt 0.125000 0.250000
vt 0.062500 0.250000
vt 0.062500 0.062500
vt 0.125000 0.062500
vt 0.125000 0.125000
vt 0.062500 0.125000
vt 0.187500 0.062500
vt 0.250000 0.062500
vt 0.250000 0.125000
vt 0.187500 0.125000
vt 0.062500 0.437500
vt 0.125000 0.437500
vt 0.125000 0.500000
vt 0.062500 0.500000
vt 0.062500 0.312500
vt 0.125000 0.312500
vt 0.125000 0.375000
vt 0.062500 0.375000
vt 0.187500 0.312500
vt 0.250000 0.312500
vt 0.250000 0.375000
vt 0.187500 0.375000
vt 0.812500 0.187500
vt 0.875000 0.187500
vt 0.875000 0.250000
vt 0.812500 0.250000
vt 0.812500 0.062500
vt 0.875000 0.062500
vt 0.875000 0.125000
vt 0.812500 0.125000
vt 0.937500 0.062500
vt 1.000000 0.062500
vt 1.000000 0.125000
vt 0.937500 0.125000
vt 0.562500 0.187500
vt 0.625000 0.187500
vt 0.625000 0.250000
vt 0.562500 0.250000
vt 0.562500 0.062500
vt 0.625000 0.062500
vt 0.625000 0.125000
vt 0.562500 0.125000
vt 0.687500 0.062500
vt 0.750000 0.062500
vt 0.750000 0.125000
vt 0.687500 0.125000
vt 0.562500 0.437500
vt 0.625000 0.437500
vt 0.625000 0.500000
vt 0.562500 0.500000
vt 0.562500 0.312500
vt 0.625000 0.312500
vt 0.625000 0.375000
vt 0.562500 0.375000
vt 0.687500 0.312500
vt 0.750000 0.312500
vt 0.750000 0.375000
vt 0.687500 0.375000
vt 0.812500 0.437500
vt 0.875000 0.437500
vt 0.875000 0.500000
vt 0.812500 0.500000
vt 0.812500 0.312500
vt 0.875000 0.312500
vt 0.875000 0.375000
vt 0.812500 0.375000
vt 0.937500 0.312500
vt 1.000000 0.312500
vt 1.000000 0.375000
vt 0.937500 0.375000
vt 0.312500 0.437500
vt 0.375000 0.437500
vt 0.375000 0.500000
vt 0.312500 0.500000
vt 0.312500 0.312500
vt 0.375000 0.312500
vt 0.375000 0.375000
vt 0.312500 0.375000
vt 0.437500 0.312500
vt 0.500000 0.312500
vt 0.500000 0.375000
vt 0.437500 0.375000
vt 0.312500 0.937500
vt 0.375000 0.937500
vt 0.375000 1.000000
vt 0.312500 1.000000
vt 0.312500 0.812500
vt 0.375000 0.812500
vt 0.375000 0.875000
vt 0.312500 0.875000
vt 0.437500 0.812500
vt 0.500000 0.812500
vt 0.500000 0.875000
vt 0.437500 0.875000
vt 0.812500 0.937500
vt 0.875000 0.937500
vt 0.875000 1.000000
vt 0.812500 1.000000
vt 0.812500 0.812500
vt 0.875000 0.812500
vt 0.875000 0.875000
vt 0.812500 0.875000
vt 0.937500 0.812500
vt 1.000000 0.812500
vt 1.000000 0.875000
vt 0.937500 0.875000
vt 0.625000 0.000000
vt 0.687500 0.000000
vt 0.750000 0.000000
vt 0.500000 0.000000
vt 0.562500 0.000000
vt 0.875000 0.000000
vt 0.937500 0.000000
vt 1.000000 0.000000
vt 0.812500 0.000000
vt 0.000000 0.312500
vt 0.000000 0.375000
vt 0.000000 0.250000
vt 0.000000 0.437500
vt 0.000000 0.500000
vt 0.125000 0.000000
vt 0.187500 0.000000
vt 0.250000 0.000000
vt 0.000000 0.062500
vt 0.000000 0.125000
vt 0.000000 0.000000
vt 0.062500 0.000000
vt 0.000000 0.187500
vt 0.375000 0.000000
vt 0.437500 0.000000
vt 0.312500 0.000000
vt 0.000000 0.812500
vt 0.000000 0.875000
vt 0.000000 0.750000
vt 0.000000 0.937500
vt 0.000000 1.000000
vt 0.000000 0.562500
vt 0.000000 0.625000
vt 0.000000 0.687500
s 1
f 289/1/1 84/2/2 4/3/3 141/4/4
f 288/5/5 90/6/6 8/7/7 137/8/8
f 287/9/9 91/10/10 9/11/11 144/12/12
f 286/13/13 88/14/14 7/15/15 145/16/16
f 285/17/17 106/18/18 21/19/19 133/20/20
f 284/21/21 107/22/22 22/23/23 148/24/24
f 283/25/25 100/26/26 16/27/27 149/28/28
f 282/29/29 110/30/30 20/31/31 132/32/32
f 281/33/33 111/34/34 23/35/35 152/36/36
f 280/37/37 103/38/38 19/39/39 153/40/40
f 279/41/41 114/42/42 13/43/43 125/44/44
f 278/45/45 115/46/46 24/47/47 156/48/48
f 277/49/49 102/50/50 18/51/51 157/52/52
f 276/53/53 118/54/54 17/55/55 129/56/56
f 275/57/57 119/58/58 25/59/59 160/60/60
f 274/61/61 96/62/62 12/63/63 161/64/64
f 273/65/65 162/66/66 65/67/67 121/68/68
f 272/69/69 163/70/70 66/71/71 164/72/72
f 271/73/73 136/74/74 40/75/75 165/76/76
f 270/77/77 166/78/78 64/79/79 120/80/80
f 269/81/81 167/82/82 67/83/83 168/84/84
f 268/85/85 159/86/86 63/87/87 169/88/88
f 267/89/89 170/90/90 33/91/91 89/92/92
f 266/93/93 171/94/94 68/95/95 172/96/96
f 265/97/97 158/98/98 62/99/99 173/100/100
f 264/101/101 174/102/102 61/103/103 117/104/104
f 263/105/105 175/106/106 69/107/107 176/108/108
f 262/109/109 142/110/110 46/111/111 177/112/112
f 261/113/113 178/114/114 60/115/115 116/116/116
f 260/117/117 179/118/118 70/119/119 180/120/120
f 259/121/121 155/122/122 59/123/123 181/124/124
f 258/125/125 182/126/126 29/127/127 85/128/128
f 257/129/129 183/130/130 71/131/131 184/132/132
f 256/133/133 154/134/134 58/135/135 185/136/136
f 255/137/137 186/138/138 57/139/139 113/140/140
f 254/141/141 187/142/142 72/143/143 188/144/144
f 253/145/145 143/146/146 47/147/147 189/148/148
f 252/149/149 190/150/150 56/151/151 112/152/152
f 251/153/153 191/154/154 73/155/155 192/156/156
f 250/157/157 151/158/158 55/159/159 193/160/160
f 249/161/161 194/162/162 36/163/163 92/164/164
f 248/165/165 195/166/166 74/167/167 196/168/168
f 247/169/169 150/170/170 54/171/171 197/172/172
f 246/173/173 198/174/174 53/175/175 109/176/176
f 245/177/177 199/178/178 75/179/179 200/180/180
f 244/181/181 140/182/182 44/183/183 201/184/184
f 243/185/185 202/186/186 52/187/187 108/188/188
f 242/189/189 203/190/190 76/191/191 204/192/192
f 241/193/193 147/194/194 51/195/195 205/196/196
f 240/197/197 206/198/198 37/199/199 93/200/200
f 239/201/201 207/202/202 77/203/203 208/204/204
f 238/205/205 146/206/206 50/207/207 209/208/208
f 237/209/209 210/210/210 49/211/211 105/212/212
f 236/213/213 211/214/214 78/215/215 212/216/216
f 235/217/217 128/218/218 32/219/219 213/220/220
f 234/221/221 214/222/222 48/223/223 104/224/224
f 233/225/225 215/226/226 79/227/227 216/228/228
f 232/229/229 131/230/230 35/231/231 217/232/232
f 231/233/233 218/234/234 41/235/235 97/236/236
f 230/237/237 219/238/238 80/239/239 220/240/240
f 229/241/241 130/242/242 34/243/243 221/244/244
f 228/245/245 222/246/246 45/247/247 101/248/248
f 227/249/249 223/250/250 81/251/251 224/252/252
f 226/253/253 124/254/254 28/255/255 225/256/256
f 223/250/250 226/253/253 225/256/256 81/251/251
f 65/67/67 161/64/64 226/253/253 223/250/250
f 161/64/64 12/63/63 124/254/254 226/253/253
f 158/98/98 227/249/249 224/252/252 62/99/99
f 25/59/59 121/68/68 227/249/249 158/98/98
f 121/68/68 65/67/67 223/250/250 227/249/249
f 118/54/54 228/245/245 101/248/248 17/55/55
f 62/99/99 224/252/252 228/245/245 118/54/54
f 224/252/252 81/251/251 222/246/246 228/245/245
f 219/238/238 229/241/241 221/244/244 80/239/239
f 61/103/103 157/52/52 229/241/241 219/238/238
f 157/52/52 18/51/51 130/242/242 229/241/241
f 154/134/134 230/237/237 220/240/240 58/135/135
f 24/47/47 117/104/104 230/237/237 154/134/134
f 117/104/104 61/103/103 219/238/238 230/237/237
f 114/42/42 231/233/233 97/236/236 13/43/43
f 58/135/135 220/240/240 231/233/233 114/42/42
f 220/240/240 80/239/239 218/234/234 231/233/233
f 215/226/226 232/229/229 217/232/232 79/227/227
f 57/139/139 153/40/40 232/229/229 215/226/226
f 153/40/40 19/39/39 131/230/230 232/229/229
f 150/170/170 233/225/225 216/228/228 54/171/171
f 23/35/35 113/140/140 233/225/225 150/170/170
f 113/140/140 57/139/139 215/226/226 233/225/225
f 110/30/30 234/221/221 104/224/224 20/31/31
f 54/171/171 216/228/228 234/221/221 110/30/30
f 216/228/228 79/227/227 214/222/222 234/221/221
f 211/214/214 235/217/217 213/220/220 78/215/215
f 53/175/175 149/28/28 235/217/217 211/214/214
f 149/28/28 16/27/27 128/218/218 235/217/217
f 146/206/206 236/213/213 212/216/216 50/207/207
f 22/23/23 109/176/176 236/213/213 146/206/206
f 109/176/176 53/175/175 211/214/214 236/213/213
f 106/18/18 237/209/209 105/212/212 21/19/19
f 50/207/207 212/216/216 237/209/209 106/18/18
f 212/216/216 78/215/215 210/210/210 237/209/209
f 207/202/202 238/205/205 209/208/208 77/203/203
f 52/187/187 148/24/24 238/205/205 207/202/202
f 148/24/24 22/23/23 146/206/206 238/205/205
f 131/230/230 239/201/201 208/204/204 35/231/231
f 19/39/39 108/188/188 239/201/201 131/230/230
f 108/188/188 52/187/187 207/202/202 239/201/201
f 91/10/10 240/197/197 93/200/200 9/11/11
f 35/231/231 208/204/204 240/197/197 91/10/10
f 208/204/204 77/203/203 206/198/198 240/197/197
f 203/190/190 241/193/193 205/196/196 76/191/191
f 39/257/257 95/258/258 241/193/193 203/190/190
f 95/258/258 11/259/259 147/194/194 241/193/193
f 143/146/146 242/189/189 204/192/192 47/147/147
f 6/260/260 135/261/261 242/189/189 143/146/146
f 135/261/261 39/257/257 203/190/190 242/189/189
f 103/38/38 243/185/185 108/188/188 19/39/39
f 47/147/147 204/192/192 243/185/185 103/38/38
f 204/192/192 76/191/191 202/186/186 243/185/185
f 199/178/178 244/181/181 201/184/184 75/179/179
f 27/262/262 83/263/263 244/181/181 199/178/178
f 83/263/263 2/264/264 140/182/182 244/181/181
f 147/194/194 245/177/177 200/180/180 51/195/195
f 11/259/259 123/265/265 245/177/177 147/194/194
f 123/265/265 27/262/262 199/178/178 245/177/177
f 107/22/22 246/173/173 109/176/176 22/23/23
f 51/195/195 200/180/180 246/173/173 107/22/22
f 200/180/180 75/179/179 198/174/174 246/173/173
f 195/166/166 247/169/169 197/172/172 74/167/167
f 56/151/151 152/36/36 247/169/169 195/166/166
f 152/36/36 23/35/35 150/170/170 247/169/169
f 94/266/266 248/165/165 196/168/168 38/267/267
f 10/268/268 112/152/152 248/165/165 94/266/266
f 112/152/152 56/151/151 195/166/166 248/165/165
f 134/269/269 249/161/161 92/164/164 5/270/270
f 38/267/267 196/168/168 249/161/161 134/269/269
f 196/168/168 74/167/167 194/162/162 249/161/161
f 191/154/154 250/157/157 193/160/160 73/155/155
f 43/271/271 99/272/272 250/157/157 191/154/154
f 99/272/272 15/273/273 151/158/158 250/157/157
f 82/274/274 251/153/153 192/156/156 26/275/275
f 1/276/276 139/277/277 251/153/153 82/274/274
f 139/277/277 43/271/271 191/154/154 251/153/153
f 122/278/278 252/149/149 112/152/152 10/268/268
f 26/275/275 192/156/156 252/149/149 122/278/278
f 192/156/156 73/155/155 190/150/150 252/149/149
f 187/142/142 253/145/145 189/148/148 72/143/143
f 31/279/279 87/280/280 253/145/145 187/142/142
f 87/280/280 6/260/260 143/146/146 253/145/145
f 151/158/158 254/141/141 188/144/144 55/159/159
f 15/273/273 127/281/281 254/141/141 151/158/158
f 127/281/281 31/279/279 187/142/142 254/141/141
f 111/34/34 255/137/137 113/140/140 23/35/35
f 55/159/159 188/144/144 255/137/137 111/34/34
f 188/144/144 72/143/143 186/138/138 255/137/137
f 183/130/130 256/133/133 185/136/136 71/131/131
f 60/115/115 156/48/48 256/133/133 183/130/130
f 156/48/48 24/47/47 154/134/134 256/133/133
f 98/282/282 257/129/129 184/132/132 42/283/283
f 14/284/284 116/116/116 257/129/129 98/282/282
f 116/116/116 60/115/115 183/130/130 257/129/129
f 138/285/285 258/125/125 85/128/128 3/286/286
f 42/283/283 184/132/132 258/125/125 138/285/285
f 184/132/132 71/131/131 182/126/126 258/125/125
f 179/118/118 259/121/121 181/124/124 70/119/119
f 36/163/163 132/32/32 259/121/121 179/118/118
f 132/32/32 20/31/31 155/122/122 259/121/121
f 86/287/287 260/117/117 180/120/120 30/288/288
f 5/270/270 92/164/164 260/117/117 86/287/287
f 92/164/164 36/163/163 179/118/118 260/117/117
f 126/289/289 261/113/113 116/116/116 14/284/284
f 30/288/288 180/120/120 261/113/113 126/289/289
f 180/120/120 70/119/119 178/114/114 261/113/113
f 175/106/106 262/109/109 177/112/112 69/107/107
f 48/223/223 144/12/12 262/109/109 175/106/106
f 144/12/12 9/11/11 142/110/110 262/109/109
f 155/122/122 263/105/105 176/108/108 59/123/123
f 20/31/31 104/224/224 263/105/105 155/122/122
f 104/224/224 48/223/223 175/106/106 263/105/105
f 115/46/46 264/101/101 117/104/104 24/47/47
f 59/123/123 176/108/108 264/101/101 115/46/46
f 176/108/108 69/107/107 174/102/102 264/101/101
f 171/94/94 265/97/97 173/100/100 68/95/95
f 64/79/79 160/60/60 265/97/97 171/94/94
f 160/60/60 25/59/59 158/98/98 265/97/97
f 130/242/242 266/93/93 172/96/96 34/243/243
f 18/51/51 120/80/80 266/93/93 130/242/242
f 120/80/80 64/79/79 171/94/94 266/93/93
f 90/6/6 267/89/89 89/92/92 8/7/7
f 34/243/243 172/96/96 267/89/89 90/6/6
f 172/96/96 68/95/95 170/90/90 267/89/89
f 167/82/82 268/85/85 169/88/88 67/83/83
f 37/199/199 133/20/20 268/85/85 167/82/82
f 133/20/20 21/19/19 159/86/86 268/85/85
f 142/110/110 269/81/81 168/84/84 46/111/111
f 9/11/11 93/200/200 269/81/81 142/110/110
f 93/200/200 37/199/199 167/82/82 269/81/81
f 102/50/50 270/77/77 120/80/80 18/51/51
f 46/111/111 168/84/84 270/77/77 102/50/50
f 168/84/84 67/83/83 166/78/78 270/77/77
f 163/70/70 271/73/73 165/76/76 66/71/71
f 49/211/211 145/16/16 271/73/73 163/70/70
f 145/16/16 7/15/15 136/74/74 271/73/73
f 159/86/86 272/69/69 164/72/72 63/87/87
f 21/19/19 105/212/212 272/69/69 159/86/86
f 105/212/212 49/211/211 163/70/70 272/69/69
f 119/58/58 273/65/65 121/68/68 25/59/59
f 63/87/87 164/72/72 273/65/65 119/58/58
f 164/72/72 66/71/71 162/66/66 273/65/65
f 162/66/66 274/61/61 161/64/64 65/67/67
f 66/71/71 165/76/76 274/61/61 162/66/66
f 165/76/76 40/75/75 96/62/62 274/61/61
f 166/78/78 275/57/57 160/60/60 64/79/79
f 67/83/83 169/88/88 275/57/57 166/78/78
f 169/88/88 63/87/87 119/58/58 275/57/57
f 170/90/90 276/53/53 129/56/56 33/91/91
f 68/95/95 173/100/100 276/53/53 170/90/90
f 173/100/100 62/99/99 118/54/54 276/53/53
f 174/102/102 277/49/49 157/52/52 61/103/103
f 69/107/107 177/112/112 277/49/49 174/102/102
f 177/112/112 46/111/111 102/50/50 277/49/49
f 178/114/114 278/45/45 156/48/48 60/115/115
f 70/119/119 181/124/124 278/45/45 178/114/114
f 181/124/124 59/123/123 115/46/46 278/45/45
f 182/126/126 279/41/41 125/44/44 29/127/127
f 71/131/131 185/136/136 279/41/41 182/126/126
f 185/136/136 58/135/135 114/42/42 279/41/41
f 186/138/138 280/37/37 153/40/40 57/139/139
f 72/143/143 189/148/148 280/37/37 186/138/138
f 189/148/148 47/147/147 103/38/38 280/37/37
f 190/150/150 281/33/33 152/36/36 56/151/151
f 73/155/155 193/160/160 281/33/33 190/150/150
f 193/160/160 55/159/159 111/34/34 281/33/33
f 194/162/162 282/29/29 132/32/32 36/163/163
f 74/167/167 197/172/172 282/29/29 194/162/162
f 197/172/172 54/171/171 110/30/30 282/29/29
f 198/174/174 283/25/25 149/28/28 53/175/175
f 75/179/179 201/184/184 283/25/25 198/174/174
f 201/184/184 44/183/183 100/26/26 283/25/25
f 202/186/186 284/21/21 148/24/24 52/187/187
f 76/191/191 205/196/196 284/21/21 202/186/186
f 205/196/196 51/195/195 107/22/22 284/21/21
f 206/198/198 285/17/17 133/20/20 37/199/199
f 77/203/203 209/208/208 285/17/17 206/198/198
f 209/208/208 50/207/207 106/18/18 285/17/17
f 210/210/210 286/13/13 145/16/16 49/211/211
f 78/215/215 213/220/220 286/13/13 210/210/210
f 213/220/220 32/219/219 88/14/14 286/13/13
f 214/222/222 287/9/9 144/12/12 48/223/223
f 79/227/227 217/232/232 287/9/9 214/222/222
f 217/232/232 35/231/231 91/10/10 287/9/9
f 218/234/234 288/5/5 137/8/8 41/235/235
f 80/239/239 221/244/244 288/5/5 218/234/234
f 221/244/244 34/243/243 90/6/6 288/5/5
f 222/246/246 289/1/1 141/4/4 45/247/247
f 81/251/251 225/256/256 289/1/1 222/246/246
f 225/256/256 28/255/255 84/2/2 289/1/1
f 94/266/266 38/267/267 314/267/290 330/266/291
f 38/267/267 134/269/269 346/269/292 314/267/290
f 95/258/258 39/257/257 315/257/293 331/258/294
f 1/276/276 82/274/274 322/274/295 290/276/296
f 39/257/257 135/261/261 347/261/297 315/257/293
f 122/278/278 10/268/268 298/268/298 338/278/299
f 96/62/62 40/75/75 316/75/300 332/62/301
f 2/264/264 83/263/263 323/263/302 291/264/303
f 40/75/75 136/74/74 348/74/304 316/75/300
f 123/265/265 11/259/259 299/259/305 339/265/306
f 97/236/236 41/235/235 317/235/307 333/236/308
f 4/3/3 84/2/2 324/2/309 293/3/310
f 41/235/235 137/8/8 349/8/311 317/235/307
f 124/254/254 12/63/63 300/63/312 340/254/313
f 98/282/282 42/283/283 318/283/314 334/282/315
f 3/286/286 85/128/128 325/128/316 292/286/317
f 125/44/44 13/43/43 301/43/318 341/44/319
f 42/283/283 138/285/285 350/285/320 318/283/314
f 99/272/272 43/271/271 319/271/321 335/272/322
f 5/270/270 86/287/287 326/287/323 294/270/324
f 126/289/289 14/284/284 302/284/325 342/289/326
f 43/271/271 139/277/277 351/277/327 319/271/321
f 100/26/26 44/183/183 320/183/328 336/26/329
f 6/260/260 87/280/280 327/280/330 295/260/331
f 127/281/281 15/273/273 303/273/332 343/281/333
f 44/183/183 140/182/182 352/182/334 320/183/328
f 101/248/248 45/247/247 321/247/335 337/248/336
f 7/15/15 88/14/14 328/14/337 296/15/338
f 128/218/218 16/27/27 304/27/339 344/218/340
f 45/247/247 141/4/4 353/4/341 321/247/335
f 8/7/7 89/92/92 329/92/342 297/7/343
f 129/56/56 17/55/55 305/55/344 345/56/345
f 10/268/268 94/266/266 330/266/291 298/268/298
f 134/269/269 5/270/270 294/270/324 346/269/292
f 11/259/259 95/258/258 331/258/294 299/259/305
f 82/274/274 26/275/275 306/275/346 322/274/295
f 135/261/261 6/260/260 295/260/331 347/261/297
f 26/275/275 122/278/278 338/278/299 306/275/346
f 12/63/63 96/62/62 332/62/301 300/63/312
f 83/263/263 27/262/262 307/262/347 323/263/302
f 136/74/74 7/15/15 296/15/338 348/74/304
f 27/262/262 123/265/265 339/265/306 307/262/347
f 13/43/43 97/236/236 333/236/308 301/43/318
f 84/2/2 28/255/255 308/255/348 324/2/309
f 137/8/8 8/7/7 297/7/343 349/8/311
f 28/255/255 124/254/254 340/254/313 308/255/348
f 14/284/284 98/282/282 334/282/315 302/284/325
f 85/128/128 29/127/127 309/127/349 325/128/316
f 138/285/285 3/286/286 292/286/317 350/285/320
f 29/127/127 125/44/44 341/44/319 309/127/349
f 15/273/273 99/272/272 335/272/322 303/273/332
f 86/287/287 30/288/288 310/288/350 326/287/323
f 139/277/277 1/276/276 290/276/296 351/277/327
f 30/288/288 126/289/289 342/289/326 310/288/350
f 16/27/27 100/26/26 336/26/329 304/27/339
f 87/280/280 31/279/279 311/279/351 327/280/330
f 140/182/182 2/264/264 291/264/303 352/182/334
f 31/279/279 127/281/281 343/281/333 311/279/351
f 17/55/55 101/248/248 337/248/336 305/55/344
f 88/14/14 32/219/219 312/219/352 328/14/337
f 141/4/4 4/3/3 293/3/310 353/4/341
f 32/219/219 128/218/218 344/218/340 312/219/352
f 89/92/92 33/91/91 313/91/353 329/92/342
f 33/91/91 129/56/56 345/56/345 313/91/353
f 345/56/345 305/55/344 369/55/354 409/56/355
f 319/271/321 351/277/327 415/277/356 383/271/357
f 292/286/317 325/128/316 389/128/358 356/286/359
f 346/269/292 294/270/324 358/270/360 410/269/361
f 320/183/328 352/182/334 416/182/362 384/183/363
f 294/270/324 326/287/323 390/287/364 358/270/360
f 347/261/297 295/260/331 359/260/365 411/261/366
f 321/247/335 353/4/341 417/4/367 385/247/368
f 295/260/331 327/280/330 391/280/369 359/260/365
f 348/74/304 296/15/338 360/15/370 412/74/371
f 322/274/295 306/275/346 370/275/372 386/274/373
f 296/15/338 328/14/337 392/14/374 360/15/370
f 349/8/311 297/7/343 361/7/375 413/8/376
f 323/263/302 307/262/347 371/262/377 387/263/378
f 297/7/343 329/92/342 393/92/379 361/7/375
f 350/285/320 292/286/317 356/286/359 414/285/380
f 324/2/309 308/255/348 372/255/381 388/2/382
f 298/268/298 330/266/291 394/266/383 362/268/384
f 351/277/327 290/276/296 354/276/385 415/277/356
f 325/128/316 309/127/349 373/127/386 389/128/358
f 299/259/305 331/258/294 395/258/387 363/259/388
f 352/182/334 291/264/303 355/264/389 416/182/362
f 326/287/323 310/288/350 374/288/390 390/287/364
f 300/63/312 332/62/301 396/62/391 364/63/392
f 353/4/341 293/3/310 357/3/393 417/4/367
f 327/280/330 311/279/351 375/279/394 391/280/369
f 301/43/318 333/236/308 397/236/395 365/43/396
f 328/14/337 312/219/352 376/219/397 392/14/374
f 302/284/325 334/282/315 398/282/398 366/284/399
f 329/92/342 313/91/353 377/91/400 393/92/379
f 303/273/332 335/272/322 399/272/401 367/273/402
f 330/266/291 314/267/290 378/267/403 394/266/383
f 304/27/339 336/26/329 400/26/404 368/27/405
f 331/258/294 315/257/293 379/257/406 395/258/387
f 305/55/344 337/248/336 401/248/407 369/55/354
f 332/62/301 316/75/300 380/75/408 396/62/391
f 306/275/346 338/278/299 402/278/409 370/275/372
f 333/236/308 317/235/307 381/235/410 397/236/395
f 307/262/347 339/265/306 403/265/411 371/262/377
f 334/282/315 318/283/314 382/283/412 398/282/398
f 308/255/348 340/254/313 404/254/413 372/255/381
f 335/272/322 319/271/321 383/271/357 399/272/401
f 309/127/349 341/44/319 405/44/414 373/127/386
f 336/26/329 320/183/328 384/183/363 400/26/404
f 310/288/350 342/289/326 406/289/415 374/288/390
f 337/248/336 321/247/335 385/247/368 401/248/407
f 311/279/351 343/281/333 407/281/416 375/279/394
f 338/278/299 298/268/298 362/268/384 402/278/409
f 312/219/352 344/218/340 408/218/417 376/219/397
f 339/265/306 299/259/305 363/259/388 403/265/411
f 313/91/353 345/56/345 409/56/355 377/91/400
f 340/254/313 300/63/312 364/63/392 404/254/413
f 314/267/290 346/269/292 410/269/361 378/267/403
f 341/44/319 301/43/318 365/43/396 405/44/414
f 315/257/293 347/261/297 411/261/366 379/257/406
f 342/289/326 302/284/325 366/284/399 406/289/415
f 316/75/300 348/74/304 412/74/371 380/75/408
f 290/276/296 322/274/295 386/274/373 354/276/385
f 343/281/333 303/273/332 367/273/402 407/281/416
f 317/235/307 349/8/311 413/8/376 381/235/410
f 291/264/303 323/263/302 387/263/378 355/264/389
f 344/218/340 304/27/339 368/27/405 408/218/417
f 318/283/314 350/285/320 414/285/380 382/283/412
f 293/3/310 324/2/309 388/2/382 357/3/393
